<svg width="89" height="89" viewBox="0 0 89 89" fill="none" xmlns="http://www.w3.org/2000/svg">
<path d="M48.0451 85.5411C48.275 84.322 48.6617 83.1342 48.9352 81.9237C49.0275 81.5179 49.1947 81.3664 49.6093 81.3072C51.0723 81.1244 52.5197 80.8333 53.9396 80.4363C54.3699 80.3092 54.511 80.5478 54.7009 80.8038C55.5422 81.9429 56.38 83.0871 57.2284 84.2244C58.3885 85.7763 59.9806 86.2709 61.5622 85.5812C63.116 84.9037 63.8511 83.3554 63.5358 81.4709C63.318 80.1612 63.1317 78.8445 62.9226 77.5313C62.8477 77.0662 62.9069 76.7353 63.3982 76.4723C64.5919 75.8179 65.7262 75.0603 66.7879 74.2081C67.1729 73.9086 67.4359 73.8825 67.8505 74.1455C69.0698 74.9205 70.3222 75.6468 71.5659 76.3852C72.3045 76.8241 73.0918 77.0958 73.9645 76.946C76.452 76.5158 77.673 74.0201 76.4502 71.7942C75.7116 70.4514 74.9017 69.1469 74.0899 67.8459C73.8513 67.4644 73.8722 67.2102 74.1474 66.8566C74.995 65.7928 75.7524 64.6603 76.4119 63.4708C76.6906 62.9588 77.032 62.8699 77.5354 62.9605C78.4464 63.1207 79.3592 63.2845 80.2754 63.3977C81.1917 63.5109 82.1619 63.8087 83.1165 63.5718C84.51 63.2392 85.4175 62.3683 85.7415 60.9715C86.0585 59.6043 85.6283 58.4305 84.5483 57.5631C83.3081 56.5669 82.0173 55.6299 80.7283 54.6981C80.3887 54.4542 80.3346 54.2365 80.4252 53.8272C80.7388 52.4478 81.0244 51.0615 81.2613 49.6664C81.3362 49.2188 81.5052 49.0464 81.9337 48.9454C83.3969 48.597 84.8514 48.2208 86.3041 47.8412C87.3684 47.5625 88.1784 46.9564 88.6365 45.9253C89.5075 43.9677 88.5634 41.8394 86.4766 41.2124C84.982 40.7648 83.4596 40.4147 81.9477 40.0559C81.5261 39.9549 81.345 39.7929 81.2683 39.3401C81.0279 37.9172 80.7457 36.4995 80.4148 35.0939C80.3225 34.6951 80.4479 34.5262 80.7318 34.3189C81.8797 33.4846 83.0137 32.6347 84.1494 31.7848C85.7171 30.6109 86.2397 29.0347 85.5725 27.4637C84.9002 25.8666 83.3394 25.1229 81.4059 25.4521C80.1239 25.6698 78.8331 25.837 77.5511 26.06C76.9867 26.1592 76.6801 25.9903 76.3736 25.4817C75.7064 24.3653 74.9679 23.2907 74.2032 22.237C73.907 21.8295 73.8391 21.5543 74.1317 21.1014C74.8982 19.9119 75.6124 18.684 76.3248 17.4596C77.2741 15.8277 77.1313 14.2811 75.9486 13.0794C74.7292 11.8497 73.1615 11.7 71.505 12.6718C70.2856 13.3894 69.0576 14.1069 67.8609 14.8646C67.4533 15.1241 67.1868 15.1258 66.7983 14.8158C65.7652 13.9766 64.6574 13.2339 63.4887 12.5969C62.9453 12.3061 62.8408 11.9577 62.9331 11.4126C63.1578 10.1011 63.3476 8.78616 63.5567 7.47295C63.8511 5.63724 63.1073 4.11677 61.5814 3.44448C59.998 2.74782 58.4041 3.23375 57.244 4.78556C56.394 5.92113 55.5521 7.06192 54.7183 8.20793C54.5005 8.5075 54.3194 8.69386 53.8735 8.55626C52.5437 8.16071 51.1805 7.88786 49.8009 7.74116C49.1843 7.67846 48.9857 7.39283 48.8672 6.84943C48.5798 5.55189 48.2471 4.2648 47.9266 2.97423C47.7124 2.1156 47.3553 1.33359 46.6394 0.767553C44.6919 -0.768592 41.9362 0.0970135 41.1994 2.50921C40.7831 3.89035 40.4556 5.29587 40.1421 6.7101C40.0027 7.34406 39.7745 7.69936 39.0551 7.75509C37.7607 7.88847 36.4818 8.1433 35.2351 8.5162C34.7735 8.64682 34.5088 8.558 34.2301 8.15742C33.434 7.02011 32.5927 5.91416 31.7618 4.7995C30.5947 3.23201 28.9991 2.72344 27.4384 3.40617C25.8376 4.10284 25.1164 5.63898 25.4457 7.58616C25.6669 8.89589 25.8428 10.2143 26.0553 11.5258C26.1285 11.9734 26.0414 12.2712 25.6024 12.5151C24.3888 13.193 23.2314 13.9671 22.1413 14.8297C21.7929 15.1119 21.5334 15.1119 21.1536 14.8715C19.9343 14.1017 18.6853 13.3632 17.4329 12.6387C15.7973 11.6947 14.2592 11.8445 13.0573 13.0341C11.8554 14.2236 11.6881 15.8051 12.6671 17.4788C13.383 18.698 14.0989 19.9171 14.8584 21.1223C15.1232 21.5369 15.0814 21.7964 14.7992 22.1848C14.0188 23.2611 13.2576 24.3566 12.5817 25.4939C12.2665 26.0286 11.925 26.1174 11.3868 26.0269C10.0473 25.8004 8.70427 25.5949 7.35952 25.3981C5.54272 25.1316 4.01508 25.9363 3.38451 27.4777C2.75394 29.019 3.24341 30.5587 4.7188 31.6751C5.87194 32.5471 7.0332 33.4074 8.2026 34.2562C8.51266 34.4791 8.64678 34.6725 8.55098 35.1061C8.22002 36.5117 7.94132 37.9294 7.69571 39.3523C7.62429 39.7633 7.47972 39.9358 7.07734 40.0281C5.86672 40.3067 4.677 40.6916 3.45941 40.9198C1.74886 41.2385 0.543473 42.0919 0 43.7831V45.1764C0.552182 46.8571 1.7419 47.721 3.45941 48.0397C4.67874 48.2661 5.86672 48.651 7.07734 48.9297C7.47623 49.022 7.62429 49.1909 7.69571 49.6037C7.94132 51.0249 8.21827 52.4426 8.54923 53.8481C8.65026 54.2766 8.52311 54.4751 8.21305 54.6998C7.04017 55.5497 5.8789 56.4095 4.72925 57.2792C3.22251 58.42 2.75046 59.9945 3.42806 61.5498C4.09346 63.0789 5.61762 63.8366 7.44313 63.5509C8.78439 63.3402 10.1309 63.1504 11.4687 62.9205C11.9912 62.8281 12.2891 62.9814 12.5782 63.4551C13.275 64.5907 14.0101 65.7001 14.8009 66.7643C15.1249 67.1997 15.0901 67.4801 14.8253 67.9016C14.0693 69.0999 13.3482 70.3208 12.6375 71.5452C11.6986 73.1649 11.8571 74.7254 13.052 75.9167C14.247 77.108 15.7903 77.2735 17.426 76.333C18.654 75.6259 19.882 74.917 21.0683 74.1437C21.5525 73.8302 21.8469 73.9069 22.2754 74.2204C23.2944 74.9826 24.3532 75.6901 25.4474 76.3399C26.0431 76.6883 26.1442 77.068 26.0344 77.6741C25.8027 78.982 25.6024 80.297 25.4143 81.6119C25.2035 83.068 25.5746 84.3289 26.8218 85.1998C27.9314 85.9748 29.1298 86.048 30.3543 85.4471C30.971 85.1458 31.3995 84.6477 31.8071 84.106C32.6136 83.0123 33.4392 81.9307 34.2231 80.8212C34.4913 80.445 34.7282 80.3127 35.2142 80.4276C36.5903 80.7533 37.9804 81.0268 39.3739 81.2671C39.7867 81.3385 39.9505 81.4883 40.0428 81.8889C40.318 83.0993 40.7047 84.2871 40.9329 85.5046C41.2534 87.2149 42.1191 88.4097 43.8001 88.9618H45.1936C46.8606 88.4497 47.7246 87.2515 48.0451 85.5411ZM44.2024 76.2981C36.9631 76.124 30.4414 73.9156 24.7332 69.3785C19.7984 65.4546 16.3495 60.4961 14.3271 54.5466C13.0603 50.8778 12.5144 46.9988 12.7193 43.123C13.1287 35.8341 15.6196 29.3395 20.4377 23.7906C25.5693 17.8689 32.0318 14.3543 39.731 13.1037C42.786 12.5861 45.9059 12.5796 48.963 13.0846C49.1372 13.1142 49.3114 13.1542 49.4856 13.1995C50.0082 13.3302 50.5307 13.4886 51.0742 13.4643C54.9574 14.2543 58.6498 15.7923 61.9454 17.9926C62.7084 18.4977 63.4556 19.0387 64.1872 19.6158C67.9707 22.5883 71.0208 26.39 73.1023 30.7276C74.8377 34.3495 75.8692 38.268 76.1419 42.2748C76.5903 47.9111 75.4835 53.5624 72.942 58.6133C69.7491 65.0575 64.8648 69.8819 58.4076 73.0691C56.0892 74.2442 53.6171 75.0872 51.0638 75.5736C48.8028 76.0439 46.5174 76.3556 44.2024 76.2981V76.2981Z" fill="#2D4898"/>
<path d="M53.0569 74.6658C56.7869 73.0724 60.1006 70.6429 62.7419 67.565C66.3372 63.4425 68.5912 58.6826 69.929 53.4245C70.9288 49.4918 71.1239 45.4825 70.8574 41.4785C70.5507 36.6255 69.2153 31.8932 66.9399 27.5957C63.9368 21.9318 59.751 17.4418 53.8495 14.7074C53.1701 14.3939 52.4455 14.1849 51.7592 13.8888C51.5153 13.7861 51.1513 13.8279 51.0746 13.4499C50.5242 13.4743 50.0069 13.3158 49.486 13.1852C49.3118 13.1399 49.1376 13.0998 48.9635 13.0702C45.9063 12.5653 42.7864 12.5718 39.7314 13.0894C32.0322 14.3399 25.5697 17.8598 20.4381 23.7762C15.62 29.3321 13.1221 35.8268 12.7197 43.1086C12.5121 46.9915 13.0581 50.8778 14.3275 54.5531C16.3499 60.5026 19.7988 65.4611 24.7336 69.3851C30.4384 73.9221 36.9635 76.1236 44.2028 76.3047C46.5178 76.3622 48.8032 76.0504 51.0694 75.5837C51.5798 74.9497 52.3915 74.9497 53.0569 74.6658ZM47.117 27.209C47.1571 25.0441 48.8589 23.832 50.9161 24.5234C57.6956 26.8085 62.2245 31.3466 64.5029 38.138C65.1718 40.1356 63.956 41.8216 61.8378 41.8912C61.5696 41.8912 61.3031 41.9052 61.0348 41.9069C60.2335 41.9069 59.4305 41.8982 58.6275 41.8982C57.5824 41.8982 56.5372 41.8982 55.5043 41.8982C55.0723 41.8982 54.8633 41.7711 54.7135 41.3113C53.5708 37.8053 51.2297 35.4575 47.7267 34.3011C47.2285 34.1374 47.1031 33.9144 47.1048 33.4512C47.1153 31.3664 47.077 29.2834 47.117 27.209ZM24.4497 38.0544C26.7943 31.3995 31.2344 26.8955 37.8797 24.5687C40.1686 23.7658 41.8443 25.0198 41.8565 27.4738C41.8565 28.4282 41.8565 29.3896 41.8565 30.3371C41.8565 31.1191 41.8565 31.9045 41.8565 32.6813C41.8565 32.9426 41.8565 33.2038 41.867 33.4633C41.8757 33.9318 41.7293 34.1443 41.2364 34.308C37.7805 35.4662 35.4254 37.7774 34.2775 41.2468C34.1033 41.7867 33.8612 41.9086 33.3665 41.9052C31.311 41.8889 29.2562 41.8889 27.2019 41.9052C25.2876 41.9086 23.7181 40.1287 24.4497 38.0474V38.0544ZM41.7572 62.4655C41.3862 64.2489 39.923 65.0954 38.1741 64.5746C35.3017 63.7177 32.7917 62.2304 30.5498 60.2501C27.667 57.702 25.7056 54.5879 24.4375 50.9583C24.2783 50.5335 24.2242 50.0765 24.2797 49.6263C24.3352 49.1761 24.4988 48.7459 24.7564 48.3725C25.0141 47.9991 25.3582 47.6935 25.7594 47.4817C26.1606 47.27 26.6071 47.1583 27.0608 47.1563C29.2016 47.1302 31.3441 47.1563 33.4849 47.1441C33.9326 47.1441 34.112 47.3078 34.2583 47.7537C35.408 51.2614 37.7735 53.5882 41.2677 54.7482C41.7206 54.8997 41.867 55.0965 41.8617 55.5337C41.8461 56.6048 41.8617 57.6742 41.8617 58.9717C41.7799 59.9784 42.0115 61.2306 41.7572 62.4585V62.4655ZM44.485 49.9046C41.5726 49.9046 39.1078 47.4524 39.1008 44.5473C39.1123 43.1149 39.688 41.7449 40.703 40.7342C41.7181 39.7234 43.0908 39.1536 44.5234 39.1481C47.4236 39.1603 49.871 41.6352 49.864 44.5473C49.8571 47.4593 47.394 49.8976 44.485 49.8976V49.9046ZM47.1136 61.8367C47.1136 61.5755 47.1014 61.3142 47.0996 61.0547C47.0996 60.2745 47.0996 59.4872 47.0996 58.7122C47.0996 57.9372 47.0996 57.1447 47.0996 56.3714C47.0996 56.1102 47.0996 55.8489 47.0996 55.5894C47.0996 55.1244 47.225 54.9049 47.725 54.7412C51.2279 53.59 53.5551 51.2231 54.7082 47.7293C54.8598 47.2695 55.0706 47.1441 55.5008 47.1458C57.612 47.1545 59.7249 47.1145 61.8344 47.1598C63.9438 47.205 65.1683 48.9136 64.4977 50.9113C62.221 57.6864 57.6939 62.2425 50.9109 64.5259C48.8642 65.2103 47.1745 63.9964 47.1136 61.8298V61.8367Z" fill="#88A3FA"/>
<path d="M51.0691 13.4503C50.5186 13.4747 50.0013 13.3162 49.4805 13.1855C50.003 13.3162 50.5256 13.4747 51.0691 13.4503Z" fill="#A2D2F9"/>
<path d="M51.7533 13.8966C52.45 14.1892 53.1694 14.4016 53.8436 14.7151C59.7451 17.4426 63.9309 21.9326 66.9339 27.6034C69.2094 31.901 70.5447 36.6332 70.8515 41.4862C71.118 45.492 70.9229 49.4978 69.923 53.4323C68.5852 58.6868 66.3312 63.4503 62.7359 67.5728C60.0946 70.6507 56.781 73.0802 53.051 74.6736C52.3856 74.9574 51.5739 74.9574 51.0635 75.5844C53.6168 75.0981 56.089 74.255 58.4073 73.0799C64.8646 69.8892 69.7488 65.0683 72.9417 58.6241C75.4832 53.5732 76.59 47.9219 76.1416 42.2856C75.8702 38.2753 74.8387 34.3531 73.102 30.728C71.0177 26.3886 67.964 22.5863 64.1765 19.6144C63.4449 19.0339 62.6976 18.4928 61.9347 17.9912C58.6387 15.7917 54.9465 14.2537 51.0635 13.4629C51.1541 13.8356 51.5024 13.799 51.7533 13.8966Z" fill="#6B85DA"/>
<path d="M61.9405 17.9912C58.6449 15.7909 54.9526 14.2529 51.0693 13.4629V13.4629C54.9523 14.2537 58.6445 15.7917 61.9405 17.9912V17.9912Z" fill="#A2D2F9"/>
<path d="M47.1087 58.706C47.1087 57.9258 47.1087 57.1385 47.1087 56.3652C47.1087 57.1455 47.1087 57.9327 47.1087 58.706C47.1087 59.4793 47.0948 60.2735 47.1087 61.0486C47.0948 60.2683 47.1087 59.488 47.1087 58.706Z" fill="#FDFEFE"/>
<path d="M58.6232 41.8919C57.5781 41.8919 56.5329 41.8919 55.5 41.8919C56.5451 41.878 57.5816 41.8919 58.6232 41.8919C59.4262 41.8919 60.2293 41.9076 61.0305 41.9006C60.2293 41.9076 59.4262 41.8919 58.6232 41.8919Z" fill="#FDFEFE"/>
</svg>
