<svg width="628" height="585" viewBox="0 0 628 585" fill="none" xmlns="http://www.w3.org/2000/svg">
<g clip-path="url(#clip0_150_4053)">
<path d="M586.813 560.574H270.492C269.144 558.476 267.945 556.528 266.598 554.431C232.599 502.584 178.081 465.722 118.621 448.339C91.9617 440.547 63.0554 435.902 41.6378 418.22C19.6211 400.089 9.43652 371.019 5.09308 342.848C-0.148987 308.683 2.69672 270.322 25.9116 244.698C53.1703 214.579 98.8513 211.133 134.348 191.353C195.455 157.338 219.119 79.8673 274.685 37.4608C309.732 10.7882 357.061 0.448802 399.447 6.29281C459.655 14.6842 516.27 54.9928 533.344 114.182C538.137 130.665 539.934 148.347 538.436 167.228C535.74 202.591 528.102 238.255 535.291 272.869C543.229 311.08 568.091 343.297 582.919 379.41C601.341 424.364 603.887 474.712 596.099 522.663C594.002 535.4 591.007 548.287 586.813 560.574Z" fill="#7981EC"/>
<path opacity="0.7" d="M586.813 560.574H270.492C269.144 558.476 267.945 556.528 266.598 554.431C232.599 502.584 178.081 465.722 118.621 448.339C91.9617 440.547 63.0554 435.902 41.6378 418.22C19.6211 400.089 9.43652 371.019 5.09308 342.848C-0.148987 308.683 2.69672 270.322 25.9116 244.698C53.1703 214.579 98.8513 211.133 134.348 191.353C195.455 157.338 219.119 79.8673 274.685 37.4608C309.732 10.7882 357.061 0.448802 399.447 6.29281C459.655 14.6842 516.27 54.9928 533.344 114.182C538.137 130.665 539.934 148.347 538.436 167.228C535.74 202.591 528.102 238.255 535.291 272.869C543.229 311.08 568.091 343.297 582.919 379.41C601.341 424.364 603.887 474.712 596.099 522.663C594.002 535.4 591.007 548.287 586.813 560.574Z" fill="white"/>
<path d="M627.25 560.574H0.747757" stroke="#263238" stroke-miterlimit="10" stroke-linecap="round" stroke-linejoin="round"/>
<path d="M272.295 83.7654V60.2395L289.968 58.741C291.017 54.9949 292.514 51.5484 294.312 48.2518L282.929 34.7656L299.554 17.9828L313.033 29.3712C316.328 27.573 319.923 26.0745 323.518 25.0256L325.015 7.34375H348.53L350.027 25.0256C353.772 26.0745 357.217 27.573 360.512 29.3712L373.991 17.9828L390.616 34.6158L379.233 48.1019C381.031 51.3986 382.528 54.9949 383.577 58.5912L401.25 60.0896V83.6155L383.577 85.114C382.528 88.8601 381.031 92.3066 379.233 95.6032L390.616 109.089L373.991 125.722L360.512 114.334C357.217 116.132 353.622 117.631 350.027 118.68L348.53 136.361H325.015L323.518 118.68C319.773 117.631 316.328 116.132 313.033 114.334L299.554 125.722L282.929 109.389L294.312 95.9029C292.514 92.6063 291.017 89.01 289.968 85.4137L272.295 83.7654ZM336.847 99.3494C351.975 99.3494 364.106 87.062 364.106 72.0773C364.106 56.9429 351.825 44.8053 336.847 44.8053C321.72 44.8053 309.589 57.0927 309.589 72.0773C309.589 87.062 321.87 99.3494 336.847 99.3494Z" stroke="#263238" stroke-miterlimit="10" stroke-linecap="round" stroke-linejoin="round"/>
<path d="M19.6279 313.629V302.39L28.0152 301.641C28.4646 299.843 29.2134 298.195 30.1121 296.546L24.7202 290.103L32.6582 282.161L39.0985 287.556C40.746 286.657 42.3935 285.907 44.1908 285.458L44.9397 277.066H56.1727L56.9215 285.458C58.7188 285.907 60.3663 286.657 62.0138 287.556L68.4541 282.161L76.3921 290.103L71.0002 296.546C71.8989 298.195 72.6477 299.843 73.0971 301.641L81.4844 302.39V313.629L73.0971 314.378C72.6477 316.176 71.8989 317.825 71.0002 319.473L76.3921 325.916L68.4541 333.858L62.0138 328.464C60.3663 329.363 58.7188 330.112 56.9215 330.562L56.1727 338.953H44.9397L44.1908 330.562C42.3935 330.112 40.746 329.363 39.0985 328.464L32.6582 333.858L24.7202 325.916L30.1121 319.473C29.2134 317.825 28.4646 316.176 28.0152 314.378L19.6279 313.629ZM50.631 321.121C57.8202 321.121 63.6613 315.277 63.6613 308.085C63.6613 300.892 57.8202 295.048 50.631 295.048C43.4419 295.048 37.6007 300.892 37.6007 308.085C37.451 315.277 43.2921 321.121 50.631 321.121Z" stroke="#263238" stroke-miterlimit="10" stroke-linecap="round" stroke-linejoin="round"/>
<path d="M28.1635 108.34C27.7142 106.092 27.4146 103.845 27.4146 101.447C27.4146 84.5145 41.1938 70.7287 58.1182 70.7287C60.9639 70.7287 63.51 71.1782 66.2059 71.7776C71.2982 62.7868 80.8838 56.793 91.967 56.793C107.693 56.793 120.424 69.0804 121.472 84.5145C122.97 84.2148 124.468 84.065 125.966 84.065C138.397 84.065 148.581 93.3555 149.929 105.493C157.268 105.643 163.109 111.637 163.109 118.979C163.109 126.471 157.118 132.465 149.63 132.465H36.8503C29.3617 132.465 23.3707 126.471 23.3707 118.979C23.221 114.484 25.0183 110.738 28.1635 108.34Z" stroke="#263238" stroke-miterlimit="10" stroke-linecap="round" stroke-linejoin="round"/>
<path d="M90.1719 121.828V152.996" stroke="#263238" stroke-miterlimit="10" stroke-linecap="round" stroke-linejoin="round"/>
<path d="M90.1719 103.246V115.683" stroke="#263238" stroke-miterlimit="10" stroke-linecap="round" stroke-linejoin="round"/>
<path d="M90.1719 91.5586V98.3017" stroke="#263238" stroke-miterlimit="10" stroke-linecap="round" stroke-linejoin="round"/>
<path d="M96.0156 149.25L90.1745 156.592L84.1835 149.25" stroke="#263238" stroke-miterlimit="10" stroke-linecap="round" stroke-linejoin="round"/>
<path d="M371.742 472.918C371.292 470.671 370.993 468.423 370.993 466.025C370.993 449.093 384.772 435.307 401.696 435.307C404.542 435.307 407.088 435.756 409.784 436.356C414.876 427.365 424.462 421.371 435.545 421.371C451.271 421.371 464.002 433.658 465.05 449.093C466.548 448.793 468.046 448.643 469.544 448.643C481.975 448.643 492.159 457.934 493.507 470.071C500.846 470.221 506.688 476.215 506.688 483.557C506.688 491.05 500.697 497.043 493.208 497.043H380.428C372.94 497.043 366.949 491.05 366.949 483.557C366.799 479.212 368.596 475.466 371.742 472.918Z" stroke="#263238" stroke-miterlimit="10" stroke-linecap="round" stroke-linejoin="round"/>
<path d="M433.75 490.901V459.883" stroke="#263238" stroke-miterlimit="10" stroke-linecap="round" stroke-linejoin="round"/>
<path d="M433.75 509.629V497.191" stroke="#263238" stroke-miterlimit="10" stroke-linecap="round" stroke-linejoin="round"/>
<path d="M433.75 521.167V514.574" stroke="#263238" stroke-miterlimit="10" stroke-linecap="round" stroke-linejoin="round"/>
<path d="M427.762 463.478L433.753 456.285L439.594 463.478" stroke="#263238" stroke-miterlimit="10" stroke-linecap="round" stroke-linejoin="round"/>
<path d="M227.051 102.645H616.312V84.8131C616.312 81.3666 613.467 78.5195 610.022 78.5195H233.342C229.897 78.5195 227.051 81.3666 227.051 84.8131V102.645Z" fill="#7981EC" stroke="#263238" stroke-miterlimit="10" stroke-linecap="round" stroke-linejoin="round"/>
<path d="M205.936 107.141H599.391V384.206H205.936V107.141Z" fill="white" stroke="#263238" stroke-miterlimit="10" stroke-linecap="round" stroke-linejoin="round"/>
<path d="M199.792 90.5095C199.792 93.8061 202.487 96.5033 205.783 96.5033C209.078 96.5033 211.773 93.8061 211.773 90.5095C211.773 87.2129 209.078 84.5156 205.783 84.5156C202.487 84.5156 199.792 87.2129 199.792 90.5095Z" fill="white" stroke="#263238" stroke-miterlimit="10" stroke-linecap="round" stroke-linejoin="round"/>
<path d="M221.065 90.5095C221.065 93.8061 223.761 96.5033 227.056 96.5033C230.351 96.5033 233.047 93.8061 233.047 90.5095C233.047 87.2129 230.351 84.5156 227.056 84.5156C223.761 84.5156 221.065 87.2129 221.065 90.5095Z" fill="white" stroke="#263238" stroke-miterlimit="10" stroke-linecap="round" stroke-linejoin="round"/>
<path d="M242.331 90.5095C242.331 93.8061 245.027 96.5033 248.322 96.5033C251.617 96.5033 254.312 93.8061 254.312 90.5095C254.312 87.2129 251.617 84.5156 248.322 84.5156C245.027 84.5156 242.331 87.2129 242.331 90.5095Z" fill="white" stroke="#263238" stroke-miterlimit="10" stroke-linecap="round" stroke-linejoin="round"/>
<path d="M217.767 118.98H233.344" stroke="#263238" stroke-width="2" stroke-miterlimit="10" stroke-linecap="round" stroke-linejoin="round"/>
<path d="M217.767 125.273H233.344" stroke="#263238" stroke-width="2" stroke-miterlimit="10" stroke-linecap="round" stroke-linejoin="round"/>
<path d="M217.767 131.566H233.344" stroke="#263238" stroke-width="2" stroke-miterlimit="10" stroke-linecap="round" stroke-linejoin="round"/>
<path d="M572.125 282.461H454.253" stroke="#263238" stroke-width="2" stroke-miterlimit="10" stroke-linecap="round" stroke-linejoin="round"/>
<path d="M572.125 291.75H454.253" stroke="#263238" stroke-width="2" stroke-miterlimit="10" stroke-linecap="round" stroke-linejoin="round"/>
<path d="M572.125 301.191H479.116" stroke="#263238" stroke-width="2" stroke-miterlimit="10" stroke-linecap="round" stroke-linejoin="round"/>
<path d="M322.008 110.137V110.886" stroke="#263238" stroke-linecap="round" stroke-linejoin="round"/>
<path d="M322.008 115.383V376.565" stroke="#263238" stroke-linecap="round" stroke-linejoin="round" stroke-dasharray="1 1"/>
<path d="M322.008 378.812V379.562" stroke="#263238" stroke-linecap="round" stroke-linejoin="round"/>
<path d="M594.594 322.02H593.845" stroke="#263238" stroke-linecap="round" stroke-linejoin="round"/>
<path d="M589.352 322.02H214.918" stroke="#263238" stroke-linecap="round" stroke-linejoin="round" stroke-dasharray="1 1"/>
<path d="M212.672 322.02H211.923" stroke="#263238" stroke-linecap="round" stroke-linejoin="round"/>
<path d="M319.611 319.32H324.703V324.415H319.611V319.32Z" fill="white" stroke="#263238" stroke-miterlimit="10" stroke-linecap="round" stroke-linejoin="round"/>
<path d="M440.031 0.75H513.869C515.666 0.75 517.164 2.24846 517.164 4.04662V38.3614C517.164 40.1596 515.666 41.658 513.869 41.658H480.769L477.025 55.1442L473.28 41.658H440.181C438.383 41.658 436.885 40.1596 436.885 38.3614V4.04662C436.736 2.24846 438.233 0.75 440.031 0.75Z" fill="#7981EC" stroke="#263238" stroke-miterlimit="10" stroke-linecap="round" stroke-linejoin="round"/>
<path d="M504.883 10.6406H449.017" stroke="#263238" stroke-width="2" stroke-miterlimit="10" stroke-linecap="round" stroke-linejoin="round"/>
<path d="M504.883 17.6836H449.017" stroke="#263238" stroke-width="2" stroke-miterlimit="10" stroke-linecap="round" stroke-linejoin="round"/>
<path d="M504.883 24.7266H449.017" stroke="#263238" stroke-width="2" stroke-miterlimit="10" stroke-linecap="round" stroke-linejoin="round"/>
<path d="M504.883 31.7695H462.796" stroke="#263238" stroke-width="2" stroke-miterlimit="10" stroke-linecap="round" stroke-linejoin="round"/>
<path d="M470.134 365.777H550.562V416.126H470.134V365.777Z" fill="#263238" stroke="#263238" stroke-miterlimit="10" stroke-linecap="round" stroke-linejoin="round"/>
<path d="M470.134 365.777H550.562V373.419H470.134V365.777Z" fill="#7981EC" stroke="#263238" stroke-miterlimit="10" stroke-linecap="round" stroke-linejoin="round"/>
<path d="M542.328 379.863H521.809" stroke="white" stroke-miterlimit="10" stroke-linecap="round" stroke-linejoin="round"/>
<path d="M532.141 385.559H496.495" stroke="white" stroke-miterlimit="10" stroke-linecap="round" stroke-linejoin="round"/>
<path d="M536.641 390.953H526.156" stroke="white" stroke-miterlimit="10" stroke-linecap="round" stroke-linejoin="round"/>
<path d="M532.141 397.246H508.177" stroke="white" stroke-miterlimit="10" stroke-linecap="round" stroke-linejoin="round"/>
<path d="M542.328 402.941H521.809" stroke="white" stroke-miterlimit="10" stroke-linecap="round" stroke-linejoin="round"/>
<path d="M342.673 272.273H411.719" stroke="#263238" stroke-miterlimit="10" stroke-linecap="round" stroke-linejoin="round"/>
<path d="M341.321 304.188C341.321 304.188 341.321 272.121 377.117 272.121C412.913 272.121 413.062 304.188 413.062 304.188" stroke="#263238" stroke-miterlimit="10" stroke-linecap="round" stroke-linejoin="round"/>
<path d="M341.325 307.185C339.67 307.185 338.329 305.843 338.329 304.188C338.329 302.533 339.67 301.191 341.325 301.191C342.979 301.191 344.32 302.533 344.32 304.188C344.32 305.843 342.979 307.185 341.325 307.185Z" fill="#7981EC" stroke="#263238" stroke-miterlimit="10" stroke-linecap="round" stroke-linejoin="round"/>
<path d="M416.062 304.188C416.062 302.54 414.715 301.191 413.067 301.191C411.42 301.191 410.072 302.54 410.072 304.188C410.072 305.837 411.42 307.185 413.067 307.185C414.715 307.185 416.062 305.837 416.062 304.188Z" fill="#7981EC" stroke="#263238" stroke-miterlimit="10" stroke-linecap="round" stroke-linejoin="round"/>
<path d="M343.914 274.875H338.672V269.63H343.914V274.875Z" fill="#7981EC" stroke="#263238" stroke-miterlimit="10" stroke-linecap="round" stroke-linejoin="round"/>
<path d="M379.766 274.875H374.523V269.63H379.766V274.875Z" fill="#7981EC" stroke="#263238" stroke-miterlimit="10" stroke-linecap="round" stroke-linejoin="round"/>
<path d="M415.617 274.875H410.375V269.63H415.617V274.875Z" fill="#7981EC" stroke="#263238" stroke-miterlimit="10" stroke-linecap="round" stroke-linejoin="round"/>
<path d="M529.293 175.919V165.28L537.231 164.531C537.68 162.883 538.429 161.234 539.178 159.736L534.086 153.592L541.574 146.1L547.715 151.195C549.213 150.295 550.86 149.696 552.508 149.247L553.257 141.305H563.591L564.34 149.247C565.987 149.696 567.635 150.445 569.133 151.195L575.273 146.1L582.762 153.592L577.67 159.736C578.568 161.234 579.167 162.883 579.617 164.531L587.555 165.28V175.919L579.617 176.668C579.167 178.317 578.419 179.965 577.67 181.463L582.762 187.607L575.273 195.1L569.133 190.005C567.635 190.904 565.987 191.503 564.34 191.953L563.591 199.895H552.957L552.208 191.953C550.561 191.503 548.913 190.754 547.415 190.005L541.275 195.1L533.786 187.607L538.878 181.463C537.98 179.965 537.381 178.317 536.931 176.668L529.293 175.919ZM558.349 182.812C565.089 182.812 570.63 177.268 570.63 170.525C570.63 163.782 565.089 158.237 558.349 158.237C551.609 158.237 546.067 163.782 546.067 170.525C546.067 177.418 551.459 182.812 558.349 182.812Z" fill="#7981EC" stroke="#263238" stroke-miterlimit="10" stroke-linecap="round" stroke-linejoin="round"/>
<path d="M493.199 199.596V192.404L498.591 191.954C498.891 190.755 499.34 189.706 499.939 188.657L496.494 184.462L501.587 179.367L505.78 182.813C506.829 182.214 507.877 181.764 509.075 181.465L509.525 176.07H516.714L517.163 181.465C518.361 181.764 519.41 182.214 520.458 182.813L524.652 179.367L529.744 184.462L526.299 188.657C526.898 189.706 527.348 190.755 527.647 191.954L533.039 192.404V199.596L527.647 200.046C527.348 201.244 526.898 202.293 526.299 203.342L529.744 207.538L524.652 212.633L520.458 209.186C519.41 209.786 518.361 210.235 517.163 210.535L516.714 215.929H509.525L509.075 210.535C507.877 210.235 506.829 209.786 505.78 209.186L501.587 212.633L496.494 207.538L499.939 203.342C499.34 202.293 498.891 201.244 498.591 200.046L493.199 199.596ZM513.119 204.391C517.762 204.391 521.507 200.645 521.507 196C521.507 191.355 517.762 187.608 513.119 187.608C508.476 187.608 504.732 191.355 504.732 196C504.732 200.645 508.476 204.391 513.119 204.391Z" fill="#7981EC" stroke="#263238" stroke-miterlimit="10" stroke-linecap="round" stroke-linejoin="round"/>
<path d="M307.18 339.551H249.217" stroke="#263238" stroke-width="2" stroke-miterlimit="10" stroke-linecap="round" stroke-linejoin="round"/>
<path d="M307.18 348.84H249.217" stroke="#263238" stroke-width="2" stroke-miterlimit="10" stroke-linecap="round" stroke-linejoin="round"/>
<path d="M307.18 358.43H274.23" stroke="#263238" stroke-width="2" stroke-miterlimit="10" stroke-linecap="round" stroke-linejoin="round"/>
<path d="M383.715 362.18H414.269C418.463 362.18 421.758 358.883 421.758 354.688C421.758 350.492 418.463 347.195 414.269 347.195H383.715C379.522 347.195 376.227 350.492 376.227 354.688C376.227 358.883 379.522 362.18 383.715 362.18Z" fill="#7981EC" stroke="#263238" stroke-miterlimit="10" stroke-linecap="round" stroke-linejoin="round"/>
<path d="M326.801 362.18H357.355C361.549 362.18 364.844 358.883 364.844 354.688C364.844 350.492 361.549 347.195 357.355 347.195H326.801C322.608 347.195 319.313 350.492 319.313 354.688C319.313 358.883 322.608 362.18 326.801 362.18Z" fill="#7981EC" stroke="#263238" stroke-miterlimit="10" stroke-linecap="round" stroke-linejoin="round"/>
<path d="M238.282 201.543H302.984V266.277H238.282V201.543Z" fill="white" stroke="#263238" stroke-miterlimit="10" stroke-linecap="round" stroke-linejoin="round"/>
<path d="M302.984 201.543L238.282 266.277" stroke="#263238" stroke-miterlimit="10" stroke-linecap="round" stroke-linejoin="round"/>
<path d="M238.282 201.543L302.984 266.277" stroke="#263238" stroke-miterlimit="10" stroke-linecap="round" stroke-linejoin="round"/>
<path d="M167.892 163.035H248.32V213.384H167.892V163.035Z" fill="#263238" stroke="#263238" stroke-miterlimit="10" stroke-linecap="round" stroke-linejoin="round"/>
<path d="M167.892 163.035H248.32V170.677H167.892V163.035Z" fill="#7981EC" stroke="#263238" stroke-miterlimit="10" stroke-linecap="round" stroke-linejoin="round"/>
<path d="M240.078 177.121H219.559" stroke="white" stroke-miterlimit="10" stroke-linecap="round" stroke-linejoin="round"/>
<path d="M229.891 182.816H194.245" stroke="white" stroke-miterlimit="10" stroke-linecap="round" stroke-linejoin="round"/>
<path d="M234.391 188.211H223.906" stroke="white" stroke-miterlimit="10" stroke-linecap="round" stroke-linejoin="round"/>
<path d="M229.891 194.504H205.927" stroke="white" stroke-miterlimit="10" stroke-linecap="round" stroke-linejoin="round"/>
<path d="M240.078 200.199H219.559" stroke="white" stroke-miterlimit="10" stroke-linecap="round" stroke-linejoin="round"/>
<path d="M277.673 127.969V143.103L284.263 149.696H299.391V127.969H277.673Z" fill="white" stroke="#263238" stroke-miterlimit="10" stroke-linecap="round" stroke-linejoin="round"/>
<path d="M277.676 143.102L284.266 149.695V143.102H277.676Z" fill="white" stroke="#263238" stroke-miterlimit="10" stroke-linecap="round" stroke-linejoin="round"/>
<path d="M509.22 244.852V259.986L515.81 266.579H530.938V244.852H509.22Z" fill="white" stroke="#263238" stroke-miterlimit="10" stroke-linecap="round" stroke-linejoin="round"/>
<path d="M509.222 259.984L515.812 266.578V259.984H509.222Z" fill="white" stroke="#263238" stroke-miterlimit="10" stroke-linecap="round" stroke-linejoin="round"/>
<path d="M591.446 338.055V353.189L598.185 359.782H613.312V338.055H591.446Z" fill="white" stroke="#263238" stroke-miterlimit="10" stroke-linecap="round" stroke-linejoin="round"/>
<path d="M591.448 353.188L598.188 359.781V353.188H591.448Z" fill="white" stroke="#263238" stroke-miterlimit="10" stroke-linecap="round" stroke-linejoin="round"/>
<path d="M318.873 245.897C326.811 246.646 336.846 237.056 336.846 237.056C336.846 237.056 338.344 238.554 339.692 236.756C341.04 234.958 346.581 230.612 346.881 226.866C347.18 223.12 340.59 217.126 340.59 217.126C345.683 218.475 346.282 215.478 346.282 215.478C346.282 215.478 337.745 208.435 334.749 208.285C333.551 208.285 328.459 211.132 323.516 215.178C318.424 219.374 308.688 233.909 308.688 233.909C308.688 233.909 275.888 257.734 267.651 263.728C256.717 271.82 243.837 286.055 243.837 286.055C243.837 286.055 200.402 305.685 188.42 316.474L204.596 354.835C204.596 354.835 244.136 328.312 248.03 321.569C251.924 314.826 255.968 318.872 259.862 314.526C263.756 310.181 267.651 305.086 267.651 305.086C267.651 305.086 277.236 300.89 286.522 291.45C295.808 282.01 303.896 267.474 308.988 258.783C314.08 249.942 318.873 245.897 318.873 245.897Z" fill="white" stroke="#263238" stroke-miterlimit="10" stroke-linecap="round" stroke-linejoin="round"/>
<path d="M316.474 240.204C316.474 240.204 328.306 237.356 329.205 229.564C329.505 227.017 331.751 224.17 331.751 224.17C331.751 224.17 342.685 223.571 342.086 219.075L327.408 217.727C327.408 217.727 319.32 220.424 314.677 228.515" fill="white"/>
<path d="M316.474 240.204C316.474 240.204 328.306 237.356 329.205 229.564C329.505 227.017 331.751 224.17 331.751 224.17C331.751 224.17 342.685 223.571 342.086 219.075L327.408 217.727C327.408 217.727 319.32 220.424 314.677 228.515" stroke="#263238" stroke-miterlimit="10" stroke-linecap="round" stroke-linejoin="round"/>
<path d="M336.844 237.055C336.844 237.055 336.095 236.006 336.394 233.908C336.394 233.908 333.099 233.309 333.549 230.462C333.549 230.462 328.756 229.862 331.901 224.168" stroke="#263238" stroke-miterlimit="10" stroke-linecap="round" stroke-linejoin="round"/>
<path d="M333.545 230.463C333.545 230.463 339.986 225.668 340.734 223.57" stroke="#263238" stroke-miterlimit="10" stroke-linecap="round" stroke-linejoin="round"/>
<path d="M336.39 233.91C336.39 233.91 343.28 229.714 343.43 227.316" stroke="#263238" stroke-miterlimit="10" stroke-linecap="round" stroke-linejoin="round"/>
<path d="M334.893 212.332C334.893 212.332 337.14 216.228 340.734 217.127" stroke="#263238" stroke-miterlimit="10" stroke-linecap="round" stroke-linejoin="round"/>
<path d="M335.938 213.828C335.938 213.828 334.14 214.727 332.642 215.926" stroke="#263238" stroke-miterlimit="10" stroke-linecap="round" stroke-linejoin="round"/>
<path d="M84.9215 346.591C84.9215 346.591 110.832 335.353 137.192 329.059C163.553 322.915 206.088 317.371 206.088 317.371C206.088 317.371 194.406 436.948 197.401 444.141C200.547 451.334 218.969 475.459 218.969 475.459C218.969 475.459 118.77 514.569 101.247 517.865C83.7233 521.162 92.8595 460.624 92.8595 460.624C92.8595 460.624 74.5872 383.603 84.9215 346.591Z" fill="#263238"/>
<path d="M120.869 333.707C120.869 333.707 118.473 338.203 124.764 340.6C140.939 346.594 158.313 341.35 156.366 334.906C155.617 332.509 151.723 334.906 151.873 325.915C151.873 324.717 152.322 323.368 152.921 321.869C153.969 319.622 155.467 317.224 157.115 314.977C159.811 311.081 162.656 308.084 162.656 308.084C162.656 308.084 136.895 291.601 117.874 308.084C117.874 308.084 124.913 311.68 120.869 333.707Z" fill="white" stroke="#263238" stroke-miterlimit="10" stroke-linecap="round" stroke-linejoin="round"/>
<path d="M88.9663 546.637C99.1509 563.12 150.523 570.912 178.681 570.162C206.688 569.413 287.566 531.202 293.108 523.111C298.2 515.618 310.631 490.744 291.46 475.759C289.962 474.561 288.165 473.512 286.218 472.463C273.038 465.27 185.57 487.747 185.57 487.747C185.57 487.747 180.178 484.301 178.082 484.6C171.941 485.349 167.597 490.294 155.316 493.891C146.629 496.438 123.115 486.848 107.988 495.089C106.34 495.989 104.842 497.037 103.345 498.386C89.2659 511.872 78.7817 530.153 88.9663 546.637Z" fill="#7981EC"/>
<path opacity="0.3" d="M107.834 495.088C123.26 494.039 137.039 497.336 146.625 503.03C158.008 509.773 211.776 535.696 211.776 535.696C211.627 532.849 208.631 527.305 208.631 527.305C213.723 522.81 226.903 519.213 226.903 519.213C237.238 510.522 277.826 484.299 291.156 475.908C289.659 474.709 287.861 473.66 285.914 472.611C272.734 465.418 185.266 487.895 185.266 487.895C185.266 487.895 179.875 484.449 177.778 484.749C171.637 485.498 167.294 490.443 155.012 494.039C146.475 496.437 122.961 486.847 107.834 495.088Z" fill="black" fill-opacity="0.7"/>
<path d="M88.9663 546.637C99.1509 563.12 150.523 570.912 178.681 570.162C206.688 569.413 287.566 531.202 293.108 523.111C298.2 515.618 310.631 490.744 291.46 475.759C289.962 474.561 288.165 473.512 286.218 472.463C273.038 465.27 185.57 487.747 185.57 487.747C185.57 487.747 180.178 484.301 178.082 484.6C171.941 485.349 167.597 490.294 155.316 493.891C146.629 496.438 123.115 486.848 107.988 495.089C106.34 495.989 104.842 497.037 103.345 498.386C89.2659 511.872 78.7817 530.154 88.9663 546.637Z" stroke="#263238" stroke-miterlimit="10" stroke-linecap="round" stroke-linejoin="round"/>
<path d="M104.692 561.625L103.344 567.319C103.344 567.319 106.789 577.059 121.916 578.708C137.043 580.356 146.029 583.652 153.368 584.102C160.707 584.551 164.901 583.952 164.901 583.952L166.398 581.704L104.692 561.625Z" fill="white" stroke="#263238" stroke-miterlimit="10" stroke-linecap="round" stroke-linejoin="round"/>
<path d="M192.609 561.024L166.399 581.553C166.399 581.553 146.03 579.905 128.806 575.859C116.375 573.012 105.591 568.816 104.992 563.122C104.093 554.581 113.229 552.183 124.163 552.483C126.26 552.483 128.357 552.633 130.453 552.933C147.977 554.881 170.143 545.141 170.143 545.141L192.609 561.024Z" fill="#263238"/>
<path opacity="0.3" d="M104.842 563.121C109.485 564.919 115.476 567.616 119.37 570.313C119.37 570.313 143.783 582.9 181.227 569.864L192.609 561.023L169.994 545.289C169.994 545.289 147.827 554.879 130.304 553.081C128.207 552.931 126.11 552.632 124.013 552.632C113.229 552.332 104.093 554.729 104.842 563.121Z" fill="black" fill-opacity="0.7"/>
<path d="M192.609 561.024L166.399 581.553C166.399 581.553 146.03 579.905 128.806 575.859C116.375 573.012 105.591 568.816 104.992 563.122C104.093 554.581 113.229 552.183 124.163 552.483C126.26 552.483 128.357 552.633 130.453 552.933C147.977 554.881 170.143 545.141 170.143 545.141L192.609 561.024Z" stroke="#263238" stroke-miterlimit="10" stroke-linecap="round" stroke-linejoin="round"/>
<path d="M168.193 569.118C172.986 569.867 167.744 579.607 161.304 576.61C154.863 573.763 163.4 568.368 168.193 569.118Z" fill="white"/>
<path opacity="0.2" d="M159.357 575.111C162.652 574.661 165.947 574.062 169.541 573.313C170.44 571.365 170.29 569.417 168.193 569.117C164.149 568.517 157.559 572.114 159.357 575.111Z" fill="black" fill-opacity="0.7"/>
<path d="M168.193 569.118C172.986 569.867 167.744 579.607 161.304 576.61C154.863 573.763 163.4 568.368 168.193 569.118Z" stroke="#263238" stroke-miterlimit="10" stroke-linecap="round" stroke-linejoin="round"/>
<path d="M128.809 576.01C116.378 573.163 105.594 568.967 104.995 563.273C104.097 554.732 113.233 552.334 124.166 552.634C124.616 553.233 135.249 563.423 128.809 576.01Z" fill="white"/>
<path opacity="0.3" d="M104.841 563.122C109.484 564.92 115.475 567.617 119.369 570.314C119.369 570.314 122.963 572.112 129.553 573.761C133.747 562.223 124.311 553.082 123.862 552.782C113.228 552.333 104.092 554.73 104.841 563.122Z" fill="black" fill-opacity="0.7"/>
<path d="M128.809 576.01C116.378 573.163 105.594 568.967 104.995 563.273C104.097 554.732 113.233 552.334 124.166 552.634C124.616 553.233 135.249 563.423 128.809 576.01Z" stroke="#263238" stroke-miterlimit="10" stroke-linecap="round" stroke-linejoin="round"/>
<path d="M137.642 565.368C136.893 565.368 136.294 564.919 136.144 564.17C135.844 558.775 131.651 554.28 131.651 554.28C131.201 553.83 131.201 552.931 131.651 552.482C132.1 552.032 132.999 552.032 133.448 552.482C133.598 552.632 138.391 557.576 138.69 564.02C138.84 564.619 138.391 565.219 137.642 565.368Z" fill="white" stroke="#263238" stroke-miterlimit="10" stroke-linecap="round" stroke-linejoin="round"/>
<path d="M142.881 565.668C142.881 565.668 142.731 565.668 142.881 565.668C141.982 565.668 141.533 565.069 141.383 564.47C141.234 558.925 137.489 554.28 137.339 554.13C136.89 553.531 137.04 552.782 137.489 552.332C138.088 551.883 138.837 551.883 139.286 552.482C139.436 552.632 143.78 558.026 143.78 564.32C144.079 564.919 143.48 565.519 142.881 565.668Z" fill="white" stroke="#263238" stroke-miterlimit="10" stroke-linecap="round" stroke-linejoin="round"/>
<path d="M149.024 564.919C148.276 564.919 147.677 564.47 147.527 563.721C147.077 559.225 143.183 553.381 143.183 553.231C142.734 552.632 142.884 551.883 143.483 551.433C144.082 550.984 144.831 551.134 145.28 551.733C145.43 552.033 149.624 558.176 150.073 563.421C150.223 564.32 149.773 564.919 149.024 564.919Z" fill="white" stroke="#263238" stroke-miterlimit="10" stroke-linecap="round" stroke-linejoin="round"/>
<path d="M155.019 564.321C154.869 564.321 154.719 564.321 154.719 564.321C153.97 564.171 153.521 563.572 153.671 562.823C154.569 557.278 149.477 552.633 149.477 552.483C148.878 552.034 148.878 551.135 149.327 550.685C149.777 550.086 150.675 550.086 151.124 550.535C151.424 550.835 157.415 556.229 156.217 563.122C156.067 563.872 155.468 564.321 155.019 564.321Z" fill="white" stroke="#263238" stroke-miterlimit="10" stroke-linecap="round" stroke-linejoin="round"/>
<path d="M161.305 562.821C161.155 562.821 161.005 562.821 160.855 562.821C160.106 562.671 159.657 561.922 159.807 561.323C161.005 556.378 156.063 550.833 156.063 550.833C155.613 550.234 155.613 549.485 156.212 549.035C156.811 548.586 157.56 548.586 158.01 549.185C158.309 549.485 163.851 555.778 162.353 562.072C162.353 562.372 161.904 562.821 161.305 562.821Z" fill="white" stroke="#263238" stroke-miterlimit="10" stroke-linecap="round" stroke-linejoin="round"/>
<path d="M296.256 553.23L298.203 558.775C298.203 558.775 295.807 568.814 280.979 572.111C266.152 575.258 257.465 579.603 250.276 580.802C243.086 582.001 238.743 581.851 238.743 581.851L237.096 579.753L296.256 553.23Z" fill="white" stroke="#263238" stroke-miterlimit="10" stroke-linecap="round" stroke-linejoin="round"/>
<path d="M208.789 561.771L237.096 579.602C237.096 579.602 257.166 575.856 273.94 570.012C286.072 565.816 296.406 560.572 296.406 554.878C296.406 546.187 286.971 544.838 276.187 546.336C274.09 546.636 272.143 546.936 270.046 547.385C252.822 551.132 229.757 543.789 229.757 543.789L208.789 561.771Z" fill="#263238"/>
<path opacity="0.3" d="M208.786 561.771L225.41 572.26C242.035 567.165 252.969 556.526 259.109 548.434C244.432 548.434 229.604 543.789 229.604 543.789L208.786 561.771Z" fill="black" fill-opacity="0.7"/>
<path d="M208.789 561.771L237.096 579.602C237.096 579.602 257.166 575.856 273.94 570.012C286.072 565.816 296.406 560.572 296.406 554.878C296.406 546.187 286.971 544.838 276.187 546.336C274.09 546.636 272.143 546.936 270.046 547.385C252.822 551.132 229.757 543.789 229.757 543.789L208.789 561.771Z" stroke="#263238" stroke-miterlimit="10" stroke-linecap="round" stroke-linejoin="round"/>
<path d="M273.792 570.012C285.923 565.816 296.258 560.572 296.258 554.878C296.258 546.187 286.822 544.838 276.038 546.336C275.589 546.786 266.153 558.174 273.792 570.012Z" fill="white" stroke="#263238" stroke-miterlimit="10" stroke-linecap="round" stroke-linejoin="round"/>
<path d="M263.907 560.271C264.656 560.271 265.255 559.672 265.255 558.922C264.955 553.528 268.7 548.733 268.7 548.583C269.149 547.984 268.999 547.234 268.4 546.785C267.801 546.335 267.052 546.485 266.603 547.085C266.453 547.384 262.259 552.779 262.709 559.072C262.709 559.821 263.308 560.271 263.907 560.271Z" fill="white" stroke="#263238" stroke-miterlimit="10" stroke-linecap="round" stroke-linejoin="round"/>
<path d="M258.811 561.172C259.709 561.172 260.159 560.423 260.159 559.824C259.709 554.429 263.004 549.185 263.004 549.185C263.454 548.585 263.304 547.836 262.705 547.386C262.106 546.937 261.357 547.087 260.908 547.686C260.758 547.986 257.013 553.53 257.613 559.974C257.613 560.573 258.062 561.172 258.811 561.172Z" fill="white" stroke="#263238" stroke-miterlimit="10" stroke-linecap="round" stroke-linejoin="round"/>
<path d="M252.518 561.17C253.267 561.17 253.866 560.571 253.866 559.822C253.717 555.326 257.012 549.033 257.012 549.033C257.311 548.433 257.161 547.684 256.413 547.235C255.813 546.935 255.065 547.085 254.615 547.834C254.465 548.134 251.021 554.727 251.17 559.971C251.32 560.571 251.77 561.17 252.518 561.17Z" fill="white" stroke="#263238" stroke-miterlimit="10" stroke-linecap="round" stroke-linejoin="round"/>
<path d="M246.68 561.172C246.83 561.172 246.98 561.172 246.98 561.172C247.728 561.022 248.028 560.273 247.878 559.523C246.38 554.129 251.023 548.884 251.023 548.884C251.473 548.285 251.473 547.536 250.874 547.086C250.275 546.637 249.526 546.637 249.076 547.236C248.777 547.536 243.535 553.529 245.332 560.273C245.482 560.722 246.081 561.172 246.68 561.172Z" fill="white" stroke="#263238" stroke-miterlimit="10" stroke-linecap="round" stroke-linejoin="round"/>
<path d="M240.095 560.272C240.244 560.272 240.394 560.272 240.544 560.272C241.293 559.972 241.592 559.373 241.293 558.623C239.645 553.828 243.839 547.834 243.989 547.685C244.438 547.085 244.288 546.336 243.689 545.886C243.09 545.437 242.341 545.587 241.892 546.186C241.742 546.486 236.8 553.379 238.896 559.373C239.046 559.972 239.645 560.272 240.095 560.272Z" fill="white" stroke="#263238" stroke-miterlimit="10" stroke-linecap="round" stroke-linejoin="round"/>
<path d="M233.947 567.316C229.304 568.515 235.445 577.656 241.586 574.06C247.726 570.463 238.59 566.118 233.947 567.316Z" fill="white" stroke="#263238" stroke-miterlimit="10" stroke-linecap="round" stroke-linejoin="round"/>
<path d="M287.414 519.215C280.524 528.955 259.856 539.744 239.487 548.585C237.24 552.181 232.747 559.074 226.606 565.367C214.025 578.404 208.783 571.062 208.783 571.062C208.783 571.062 200.845 570.163 189.013 568.514C188.264 570.013 186.467 572.41 183.022 571.811C181.524 571.511 178.529 569.413 175.234 566.416C145.579 561.921 105.29 554.429 94.3561 545.738" fill="#7981EC"/>
<path d="M287.414 519.215C280.524 528.955 259.856 539.744 239.487 548.585C237.24 552.181 232.747 559.074 226.606 565.367C214.025 578.404 208.783 571.062 208.783 571.062C208.783 571.062 200.845 570.163 189.013 568.514C188.264 570.013 186.467 572.41 183.022 571.811C181.524 571.511 178.529 569.413 175.234 566.416C145.579 561.921 105.29 554.429 94.3561 545.738" stroke="#263238" stroke-miterlimit="10" stroke-linecap="round" stroke-linejoin="round"/>
<path d="M106.04 500.634C111.132 494.94 116.374 494.79 127.158 495.54C127.158 495.54 155.315 504.53 174.935 516.368C194.556 528.206 223.163 540.793 223.163 540.793C223.163 540.793 231.849 538.246 237.99 540.793C237.99 540.793 242.184 541.093 239.338 548.585" stroke="#263238" stroke-miterlimit="10" stroke-linecap="round" stroke-linejoin="round"/>
<path d="M93.009 534.5C93.009 534.5 92.8592 543.191 105.141 549.185" stroke="#263238" stroke-miterlimit="10" stroke-linecap="round" stroke-linejoin="round"/>
<path d="M229.156 498.086C229.156 498.086 209.686 512.172 205.792 521.462C205.792 521.462 198.303 524.609 194.708 527.156" stroke="#263238" stroke-miterlimit="10" stroke-linecap="round" stroke-linejoin="round"/>
<path d="M204.297 509.773C202.949 513.819 202.5 518.165 203.548 522.361" stroke="#263238" stroke-miterlimit="10" stroke-linecap="round" stroke-linejoin="round"/>
<path d="M208.781 500.633C207.733 502.131 206.834 503.78 205.936 505.578" stroke="#263238" stroke-miterlimit="10" stroke-linecap="round" stroke-linejoin="round"/>
<path d="M181.078 499.434C181.078 499.434 174.488 508.125 172.99 515.167" stroke="#263238" stroke-miterlimit="10" stroke-linecap="round" stroke-linejoin="round"/>
<path d="M144.828 552.032C142.432 551.882 140.035 551.582 137.639 551.133" stroke="#263238" stroke-miterlimit="10" stroke-linecap="round" stroke-linejoin="round"/>
<path d="M205.938 545.887C188.114 549.333 168.644 551.881 149.922 552.33" stroke="#263238" stroke-miterlimit="10" stroke-linecap="round" stroke-linejoin="round"/>
<path d="M74.1381 413.725C74.1381 413.725 77.5828 475.012 81.7765 478.608C85.9701 482.204 92.4104 483.253 104.842 484.302C117.273 485.351 171.94 488.648 171.94 488.648L177.781 470.966C177.781 470.966 148.725 467.969 135.695 463.174C122.814 458.379 105.89 455.232 105.89 455.232C105.89 455.232 108.286 439.798 108.286 433.205C108.286 426.611 108.286 409.679 108.286 401.887" fill="white"/>
<path d="M74.1381 413.725C74.1381 413.725 77.5828 475.012 81.7765 478.608C85.9701 482.204 92.4104 483.253 104.842 484.302C117.273 485.351 171.94 488.648 171.94 488.648L177.781 470.966C177.781 470.966 148.725 467.969 135.695 463.174C122.814 458.379 105.89 455.232 105.89 455.232C105.89 455.232 108.286 439.798 108.286 433.205C108.286 426.611 108.286 409.679 108.286 401.887" stroke="#263238" stroke-miterlimit="10" stroke-linecap="round" stroke-linejoin="round"/>
<path d="M84.9175 346.594C71.5877 354.835 67.6936 373.866 72.1868 414.474C72.1868 414.474 68.2927 419.269 74.1338 421.667C74.1338 421.667 96.0007 413.575 106.036 419.119C116.22 424.814 113.524 411.327 113.524 411.327C113.524 411.327 117.718 374.016 108.432 367.273" fill="#263238"/>
<path d="M109.789 361.426C109.789 361.426 122.669 374.762 111.286 408.478C111.286 408.478 112.784 414.621 112.784 416.869C112.784 419.117 109.639 420.315 109.639 420.315" stroke="white" stroke-miterlimit="10" stroke-linecap="round" stroke-linejoin="round"/>
<path d="M124.766 384.055C124.766 384.055 123.867 400.538 113.682 407.73" stroke="white" stroke-miterlimit="10" stroke-linecap="round" stroke-linejoin="round"/>
<path d="M121.468 345.844C121.468 345.844 141.388 353.487 157.264 345.095C166.699 340.15 162.805 332.059 162.805 332.059" stroke="white" stroke-miterlimit="10" stroke-linecap="round" stroke-linejoin="round"/>
<path d="M264.504 500.637H156.218C153.822 500.637 151.276 500.337 149.029 499.738L127.612 494.193C127.012 494.043 126.563 493.444 126.563 492.845C126.563 492.095 127.162 491.496 127.911 491.496H268.998C269.747 491.496 270.346 492.095 270.346 492.845V494.793C270.495 498.089 267.799 500.637 264.504 500.637Z" fill="#757575" stroke="#263238" stroke-miterlimit="10" stroke-linecap="round" stroke-linejoin="round"/>
<path d="M275.287 495.391H166.701C164.754 495.391 163.706 493.893 164.155 491.945L184.375 413.575C184.824 411.627 186.771 410.129 188.718 410.129H297.304C299.251 410.129 300.299 411.627 299.85 413.575L279.63 491.945C279.181 493.743 277.234 495.391 275.287 495.391Z" fill="#999999" stroke="#263238" stroke-miterlimit="10" stroke-linecap="round" stroke-linejoin="round"/>
<path d="M293.411 412.676H295.508" stroke="#263238" stroke-miterlimit="10" stroke-linecap="round" stroke-linejoin="round"/>
<path d="M277.538 412.676H288.172" stroke="#263238" stroke-miterlimit="10" stroke-linecap="round" stroke-linejoin="round"/>
<path d="M169.251 485.351L187.074 416.122C187.523 414.174 189.47 412.676 191.417 412.676H275.141" stroke="#263238" stroke-miterlimit="10" stroke-linecap="round" stroke-linejoin="round"/>
<path d="M167.754 491.493L168.203 489.695" stroke="#263238" stroke-miterlimit="10" stroke-linecap="round" stroke-linejoin="round"/>
<path d="M242.641 454.634C242.641 455.233 242.491 455.833 242.191 456.582C240.843 461.377 236.35 464.224 232.306 463.026C228.262 461.827 226.016 457.032 227.513 452.237C228.861 447.441 233.355 444.594 237.399 445.793C237.848 445.943 238.297 446.093 238.747 446.393C238.447 449.839 239.945 453.136 242.641 454.634Z" fill="white" stroke="#263238" stroke-miterlimit="10" stroke-linecap="round" stroke-linejoin="round"/>
<path d="M194.711 307.632C204.146 306.583 209.239 297.593 214.93 296.244C220.622 294.895 224.216 293.247 224.216 293.247C224.216 293.247 226.163 286.504 229.009 288.752C231.855 291.149 235.749 341.947 232.004 340.299C228.26 338.651 228.26 344.644 228.26 344.644L193.363 375.363L164.157 323.516C164.007 323.816 185.275 308.681 194.711 307.632Z" fill="#263238"/>
<path d="M479.125 126.468V125.719H478.376" stroke="#263238" stroke-linecap="round" stroke-linejoin="round"/>
<path d="M474.031 125.719H347.323" stroke="#263238" stroke-linecap="round" stroke-linejoin="round" stroke-dasharray="0.98 0.98"/>
<path d="M345.078 125.719H344.329V126.468" stroke="#263238" stroke-linecap="round" stroke-linejoin="round"/>
<path d="M344.328 130.965V212.631" stroke="#263238" stroke-linecap="round" stroke-linejoin="round" stroke-dasharray="1 1"/>
<path d="M344.329 214.879V215.628H345.078" stroke="#263238" stroke-linecap="round" stroke-linejoin="round"/>
<path d="M349.417 215.625H476.125" stroke="#263238" stroke-linecap="round" stroke-linejoin="round" stroke-dasharray="0.98 0.98"/>
<path d="M478.376 215.628H479.125V214.879" stroke="#263238" stroke-linecap="round" stroke-linejoin="round"/>
<path d="M479.125 210.381V128.715" stroke="#263238" stroke-linecap="round" stroke-linejoin="round" stroke-dasharray="1 1"/>
<path d="M411.722 127.968C410.481 127.968 409.476 126.962 409.476 125.72C409.476 124.479 410.481 123.473 411.722 123.473C412.963 123.473 413.969 124.479 413.969 125.72C413.969 126.962 412.963 127.968 411.722 127.968Z" fill="#7981EC" stroke="#263238" stroke-miterlimit="10" stroke-linecap="round" stroke-linejoin="round"/>
<path d="M479.128 172.921C477.888 172.921 476.882 171.915 476.882 170.673C476.882 169.432 477.888 168.426 479.128 168.426C480.369 168.426 481.375 169.432 481.375 170.673C481.375 171.915 480.369 172.921 479.128 172.921Z" fill="#7981EC" stroke="#263238" stroke-miterlimit="10" stroke-linecap="round" stroke-linejoin="round"/>
<path d="M411.722 217.874C410.481 217.874 409.476 216.868 409.476 215.627C409.476 214.385 410.481 213.379 411.722 213.379C412.963 213.379 413.969 214.385 413.969 215.627C413.969 216.868 412.963 217.874 411.722 217.874Z" fill="#7981EC" stroke="#263238" stroke-miterlimit="10" stroke-linecap="round" stroke-linejoin="round"/>
<path d="M344.332 172.921C343.091 172.921 342.085 171.915 342.085 170.673C342.085 169.432 343.091 168.426 344.332 168.426C345.572 168.426 346.578 169.432 346.578 170.673C346.578 171.915 345.572 172.921 344.332 172.921Z" fill="#7981EC" stroke="#263238" stroke-miterlimit="10" stroke-linecap="round" stroke-linejoin="round"/>
<path d="M341.783 213.078H346.875V218.173H341.783V213.078Z" fill="#7981EC" stroke="#263238" stroke-miterlimit="10" stroke-linecap="round" stroke-linejoin="round"/>
<path d="M341.783 123.172H346.875V128.267H341.783V123.172Z" fill="#7981EC" stroke="#263238" stroke-miterlimit="10" stroke-linecap="round" stroke-linejoin="round"/>
<path d="M476.58 213.078H481.672V218.173H476.58V213.078Z" fill="#7981EC" stroke="#263238" stroke-miterlimit="10" stroke-linecap="round" stroke-linejoin="round"/>
<path d="M476.58 123.172H481.672V128.267H476.58V123.172Z" fill="#7981EC" stroke="#263238" stroke-miterlimit="10" stroke-linecap="round" stroke-linejoin="round"/>
<path d="M352.868 133.66H470.141V208.284H352.868V133.66Z" fill="white" stroke="#263238" stroke-miterlimit="10" stroke-linecap="round" stroke-linejoin="round"/>
<path d="M352.868 186.258L365.898 199.295L401.245 163.931L416.072 178.766L439.737 155.09L470.141 185.658V208.285H352.868V186.258Z" fill="#7981EC" stroke="#263238" stroke-miterlimit="10" stroke-linecap="round" stroke-linejoin="round"/>
<path d="M377.13 163.03C372.58 163.03 368.892 159.34 368.892 154.788C368.892 150.237 372.58 146.547 377.13 146.547C381.679 146.547 385.367 150.237 385.367 154.788C385.367 159.34 381.679 163.03 377.13 163.03Z" fill="#7981EC" stroke="#263238" stroke-miterlimit="10" stroke-linecap="round" stroke-linejoin="round"/>
<path d="M188.418 321.418C188.418 321.418 197.255 338.201 198.453 363.824" stroke="white" stroke-miterlimit="10" stroke-linecap="round" stroke-linejoin="round"/>
<path d="M214.781 332.957C214.781 332.957 212.085 347.192 204.297 357.532" stroke="white" stroke-miterlimit="10" stroke-linecap="round" stroke-linejoin="round"/>
<path d="M177.93 391.695C177.93 391.695 164.45 436.05 135.094 449.086" stroke="white" stroke-miterlimit="10" stroke-linecap="round" stroke-linejoin="round"/>
<path d="M142.432 311.527C142.432 311.527 143.78 321.267 152.916 321.867C153.964 319.619 155.462 317.222 157.109 314.974C150.969 313.026 142.432 311.527 142.432 311.527Z" fill="#263238"/>
<path d="M122.671 312.278C122.671 312.278 107.094 314.226 100.654 293.247C94.2138 272.419 99.3061 256.685 124.917 249.042C139.146 244.847 153.374 248.293 158.616 259.082C162.96 268.373 161.013 276.015 161.911 279.162C163.11 282.608 173.594 285.605 173.594 288.003C173.594 289.951 167.753 293.397 167.753 293.397L169.4 298.642L167.753 299.541C167.753 299.541 170.748 311.229 169.4 315.275C168.352 318.271 142.141 319.47 140.045 312.128" fill="white"/>
<path d="M122.671 312.278C122.671 312.278 107.094 314.226 100.654 293.247C94.2138 272.419 99.3061 256.685 124.917 249.042C139.146 244.847 153.374 248.293 158.616 259.082C162.96 268.373 161.013 276.015 161.911 279.162C163.11 282.608 173.594 285.605 173.594 288.003C173.594 289.951 167.753 293.397 167.753 293.397L169.4 298.642L167.753 299.541C167.753 299.541 170.748 311.229 169.4 315.275C168.352 318.271 142.141 319.47 140.045 312.128" stroke="#263238" stroke-miterlimit="10" stroke-linecap="round" stroke-linejoin="round"/>
<path d="M158.469 266.727C158.469 266.727 153.376 268.075 151.879 270.772" stroke="#263238" stroke-miterlimit="10" stroke-linecap="round" stroke-linejoin="round"/>
<path d="M157.571 278.564C157.721 280.062 157.421 281.411 156.822 281.411C156.223 281.561 155.474 280.362 155.175 278.864C155.025 277.365 155.325 276.017 155.924 276.017C156.673 275.867 157.272 277.065 157.571 278.564Z" fill="#263238"/>
<path d="M167.906 299.242C167.906 299.242 159.519 302.389 156.374 300.441" stroke="#263238" stroke-miterlimit="10" stroke-linecap="round" stroke-linejoin="round"/>
<path d="M164.903 277.366C165.502 280.663 164.753 283.66 163.255 283.96C161.757 284.259 159.96 281.712 159.361 278.415C158.762 275.119 159.511 272.122 161.008 271.822C162.506 271.522 164.303 273.92 164.903 277.366Z" stroke="#263238" stroke-miterlimit="10" stroke-linecap="round" stroke-linejoin="round"/>
<path d="M99.9041 260.283C99.9041 260.283 101.102 251.592 109.639 245.148C118.176 238.855 128.511 237.506 128.511 237.506C128.511 237.506 123.568 239.604 121.621 242.601C121.621 242.601 134.502 233.011 149.629 239.304C164.906 245.598 162.959 262.081 162.959 262.081L160.712 257.735C160.712 257.735 161.012 262.83 158.316 264.778C158.316 264.778 156.668 259.833 155.021 257.586C155.021 257.586 150.977 269.723 139.894 273.919C139.894 273.919 141.092 271.521 140.043 267.925C140.043 267.925 133.903 281.261 135.7 287.855L133.753 291.301C133.753 291.301 126.714 284.108 120.872 290.102C117.577 293.549 127.163 306.585 128.511 306.585L122.67 315.127C122.67 315.127 108.142 317.224 99.7543 301.491C91.367 285.757 93.4639 279.014 93.4639 279.014C93.4639 279.014 90.7679 282.91 90.3186 285.007C90.4684 284.708 88.072 267.775 99.9041 260.283Z" fill="#263238"/>
<path d="M134.203 292.648C134.203 292.648 129.71 277.514 120.124 282.908C110.539 288.303 117.429 296.245 120.873 299.391C124.318 302.538 126.864 308.083 129.111 308.083C131.357 308.083 131.807 305.385 131.807 305.385" fill="white"/>
<path d="M134.203 292.648C134.203 292.648 129.71 277.514 120.124 282.908C110.539 288.303 117.429 296.245 120.873 299.391C124.318 302.538 126.864 308.083 129.111 308.083C131.357 308.083 131.807 305.385 131.807 305.385" stroke="#263238" stroke-miterlimit="10" stroke-linecap="round" stroke-linejoin="round"/>
<path d="M159.367 278.414L132.707 283.958" stroke="#263238" stroke-miterlimit="10" stroke-linecap="round" stroke-linejoin="round"/>
</g>
<defs>
<clipPath id="clip0_150_4053">
<rect width="628" height="585" fill="white" transform="matrix(-1 0 0 1 628 0)"/>
</clipPath>
</defs>
</svg>
