<svg width="35" height="35" viewBox="0 0 35 35" fill="none" xmlns="http://www.w3.org/2000/svg">
<g clip-path="url(#clip0_4484_3740)">
<path d="M4.87107 24.7917C4.25459 23.7256 3.77538 22.5859 3.44482 21.3996C4.16423 21.0337 4.7684 20.4759 5.19049 19.788C5.61258 19.1 5.83615 18.3087 5.83645 17.5016C5.83675 16.6945 5.61378 15.903 5.1922 15.2148C4.77062 14.5265 4.16687 13.9683 3.44774 13.6019C4.10696 11.2182 5.36214 9.04158 7.09503 7.27707C7.77183 7.71708 8.55718 7.96126 9.36417 7.98258C10.1711 8.0039 10.9683 7.80153 11.6674 7.39787C12.3665 6.9942 12.9403 6.40498 13.3252 5.69542C13.7102 4.98586 13.8913 4.18362 13.8486 3.37749C16.2433 2.7586 18.7562 2.75961 21.1504 3.3804C21.1081 4.18652 21.2896 4.98864 21.6748 5.698C22.0601 6.40736 22.6341 6.9963 23.3333 7.39966C24.0326 7.80301 24.8297 8.00505 25.6367 7.98341C26.4436 7.96178 27.2288 7.71731 27.9054 7.27707C28.7498 8.13749 29.4994 9.11603 30.1294 10.2083C30.7609 11.3006 31.2334 12.4396 31.5557 13.6004C30.8363 13.9663 30.2321 14.5241 29.81 15.212C29.3879 15.9 29.1643 16.6913 29.164 17.4984C29.1637 18.3055 29.3867 19.0969 29.8083 19.7852C30.2299 20.4734 30.8336 21.0317 31.5527 21.3981C30.8935 23.7818 29.6383 25.9584 27.9054 27.7229C27.2286 27.2829 26.4433 27.0387 25.6363 27.0174C24.8293 26.9961 24.0322 27.1984 23.3331 27.6021C22.634 28.0058 22.0602 28.595 21.6753 29.3045C21.2903 30.0141 21.1092 30.8164 21.1519 31.6225C18.7572 32.2414 16.2443 32.2404 13.85 31.6196C13.8924 30.8135 13.7109 30.0113 13.3256 29.302C12.9404 28.5926 12.3664 28.0037 11.6672 27.6003C10.9679 27.197 10.1707 26.9949 9.3638 27.0166C8.55686 27.0382 7.77164 27.2827 7.09503 27.7229C6.23314 26.8434 5.4859 25.8586 4.87107 24.7917V24.7917ZM13.1252 25.0775C14.6793 25.9738 15.8477 27.4123 16.4065 29.1171C17.1342 29.1856 17.8648 29.1871 18.5925 29.1185C19.1517 27.4135 20.3207 25.975 21.8752 25.0789C23.4287 24.1802 25.2593 23.8867 27.0159 24.255C27.4388 23.66 27.8034 23.0256 28.1067 22.3621C26.91 21.0254 26.249 19.294 26.2502 17.5C26.2502 15.6625 26.9357 13.946 28.1067 12.6379C27.8012 11.9746 27.4351 11.3409 27.0129 10.745C25.2575 11.1129 23.4281 10.8201 21.8752 9.92249C20.3212 9.02615 19.1528 7.58767 18.594 5.8829C17.8663 5.81436 17.1357 5.8129 16.4079 5.88144C15.8488 7.58645 14.6798 9.02497 13.1252 9.92103C11.5718 10.8198 9.74114 11.1132 7.98462 10.745C7.56252 11.3404 7.19731 11.9742 6.89378 12.6379C8.09045 13.9746 8.75153 15.7059 8.75024 17.5C8.75024 19.3375 8.06482 21.0539 6.89378 22.3621C7.19926 23.0254 7.5654 23.6591 7.98753 24.255C9.74295 23.887 11.5724 24.1799 13.1252 25.0775ZM17.5002 21.875C16.3399 21.875 15.2271 21.414 14.4066 20.5936C13.5862 19.7731 13.1252 18.6603 13.1252 17.5C13.1252 16.3397 13.5862 15.2269 14.4066 14.4064C15.2271 13.5859 16.3399 13.125 17.5002 13.125C18.6606 13.125 19.7734 13.5859 20.5938 14.4064C21.4143 15.2269 21.8752 16.3397 21.8752 17.5C21.8752 18.6603 21.4143 19.7731 20.5938 20.5936C19.7734 21.414 18.6606 21.875 17.5002 21.875ZM17.5002 18.9583C17.887 18.9583 18.2579 18.8047 18.5314 18.5312C18.8049 18.2577 18.9586 17.8868 18.9586 17.5C18.9586 17.1132 18.8049 16.7423 18.5314 16.4688C18.2579 16.1953 17.887 16.0417 17.5002 16.0417C17.1135 16.0417 16.7425 16.1953 16.469 16.4688C16.1956 16.7423 16.0419 17.1132 16.0419 17.5C16.0419 17.8868 16.1956 18.2577 16.469 18.5312C16.7425 18.8047 17.1135 18.9583 17.5002 18.9583V18.9583Z" fill="#959595"/>
</g>
<defs>
<clipPath id="clip0_4484_3740">
<rect width="35" height="35" fill="white"/>
</clipPath>
</defs>
</svg>
