<svg width="35" height="35" viewBox="0 0 35 35" fill="none" xmlns="http://www.w3.org/2000/svg">
<g clip-path="url(#clip0_4484_3746)">
<path d="M10.2087 7.29134V2.91634C10.2087 2.52957 10.3623 2.15863 10.6358 1.88514C10.9093 1.61165 11.2802 1.45801 11.667 1.45801H23.3337C23.7204 1.45801 24.0914 1.61165 24.3649 1.88514C24.6383 2.15863 24.792 2.52957 24.792 2.91634V7.29134H30.6253C31.0121 7.29134 31.383 7.44499 31.6565 7.71848C31.93 7.99197 32.0837 8.3629 32.0837 8.74967V29.1663C32.0837 29.5531 31.93 29.924 31.6565 30.1975C31.383 30.471 31.0121 30.6247 30.6253 30.6247H4.37533C3.98855 30.6247 3.61762 30.471 3.34413 30.1975C3.07064 29.924 2.91699 29.5531 2.91699 29.1663V8.74967C2.91699 8.3629 3.07064 7.99197 3.34413 7.71848C3.61762 7.44499 3.98855 7.29134 4.37533 7.29134H10.2087ZM13.1253 18.958H5.83366V27.708H29.167V18.958H21.8753V23.333H13.1253V18.958ZM29.167 10.208H5.83366V16.0413H13.1253V13.1247H21.8753V16.0413H29.167V10.208ZM16.042 16.0413V20.4163H18.9587V16.0413H16.042ZM13.1253 4.37467V7.29134H21.8753V4.37467H13.1253Z" fill="#959595"/>
</g>
<defs>
<clipPath id="clip0_4484_3746">
<rect width="35" height="35" fill="white"/>
</clipPath>
</defs>
</svg>
