<svg width="35" height="34" viewBox="0 0 35 34" fill="none" xmlns="http://www.w3.org/2000/svg">
<g clip-path="url(#clip0_4484_3749)">
<path d="M17.5003 31.1663C9.44595 31.1663 2.91699 24.8239 2.91699 16.9997C2.91699 10.6558 7.20887 5.28667 13.1253 3.48184V6.49084C10.6183 7.47974 8.54295 9.28409 7.25416 11.5953C5.96538 13.9064 5.54328 16.5808 6.06007 19.1609C6.57686 21.741 8.00044 24.0664 10.0873 25.7396C12.1741 27.4127 14.7945 28.3294 17.5003 28.333C19.8246 28.3329 22.0959 27.6587 24.0232 26.3968C25.9505 25.1348 27.4461 23.3425 28.3182 21.2497H31.4157C29.5578 26.9971 24.0307 31.1663 17.5003 31.1663V31.1663ZM32.0107 18.4163H16.042V2.90384C16.5218 2.85709 17.0089 2.83301 17.5003 2.83301C25.5547 2.83301 32.0837 9.17542 32.0837 16.9997C32.0837 17.4771 32.0589 17.9503 32.0107 18.4163ZM18.9587 5.75417V15.583H29.0766C28.752 13.0863 27.5816 10.7654 25.7498 8.98592C23.918 7.20645 21.5288 6.0695 18.9587 5.75417Z" fill="#959595"/>
</g>
<defs>
<clipPath id="clip0_4484_3749">
<rect width="35" height="34" fill="white"/>
</clipPath>
</defs>
</svg>
