<svg width="35" height="35" viewBox="0 0 35 35" fill="none" xmlns="http://www.w3.org/2000/svg">
<g clip-path="url(#clip0_4484_3752)">
<path d="M27.708 30.6255H7.29134C6.90457 30.6255 6.53364 30.4719 6.26014 30.1984C5.98665 29.9249 5.83301 29.554 5.83301 29.1672V16.0422H1.45801L16.5182 2.35137C16.7867 2.10706 17.1367 1.97168 17.4997 1.97168C17.8627 1.97168 18.2126 2.10706 18.4811 2.35137L33.5413 16.0422H29.1663V29.1672C29.1663 29.554 29.0127 29.9249 28.7392 30.1984C28.4657 30.4719 28.0948 30.6255 27.708 30.6255ZM8.74968 27.7089H26.2497V13.3545L17.4997 5.40074L8.74968 13.3545V27.7089ZM17.4997 21.8755C16.5327 21.8755 15.6054 21.4914 14.9217 20.8077C14.238 20.124 13.8538 19.1966 13.8538 18.2297C13.8538 17.2628 14.238 16.3354 14.9217 15.6517C15.6054 14.968 16.5327 14.5839 17.4997 14.5839C18.4666 14.5839 19.3939 14.968 20.0777 15.6517C20.7614 16.3354 21.1455 17.2628 21.1455 18.2297C21.1455 19.1966 20.7614 20.124 20.0777 20.8077C19.3939 21.4914 18.4666 21.8755 17.4997 21.8755Z" fill="#959595"/>
</g>
<defs>
<clipPath id="clip0_4484_3752">
<rect width="35" height="35" fill="white"/>
</clipPath>
</defs>
</svg>
