<svg width="35" height="35" viewBox="0 0 35 35" fill="none" xmlns="http://www.w3.org/2000/svg">
<g clip-path="url(#clip0_4484_3743)">
<path d="M13.1253 1.45898V4.37565H21.8753V1.45898H24.792V4.37565H30.6253C31.0121 4.37565 31.383 4.5293 31.6565 4.80279C31.93 5.07628 32.0837 5.44721 32.0837 5.83398V29.1673C32.0837 29.5541 31.93 29.925 31.6565 30.1985C31.383 30.472 31.0121 30.6256 30.6253 30.6256H4.37533C3.98855 30.6256 3.61762 30.472 3.34413 30.1985C3.07064 29.925 2.91699 29.5541 2.91699 29.1673V5.83398C2.91699 5.44721 3.07064 5.07628 3.34413 4.80279C3.61762 4.5293 3.98855 4.37565 4.37533 4.37565H10.2087V1.45898H13.1253ZM29.167 11.6673H5.83366V27.709H29.167V11.6673ZM21.9278 14.7823L23.9899 16.8444L16.7712 24.0631L11.6145 18.9065L13.6795 16.8444L16.7726 19.939L21.9293 14.7823H21.9278Z" fill="#959595"/>
</g>
<defs>
<clipPath id="clip0_4484_3743">
<rect width="35" height="35" fill="white"/>
</clipPath>
</defs>
</svg>
