<svg width="35" height="35" viewBox="0 0 35 35" fill="none" xmlns="http://www.w3.org/2000/svg">
<g clip-path="url(#clip0_4484_3737)">
<path d="M9.1363 5.5522L10.809 7.94241C8.77636 9.3654 7.25032 11.3994 6.45259 13.7489C5.65485 16.0984 5.62696 18.6411 6.37298 21.0075C7.11899 23.374 8.60005 25.4409 10.601 26.9082C12.602 28.3754 15.0186 29.1665 17.4998 29.1665C19.9811 29.1665 22.3977 28.3754 24.3987 26.9082C26.3996 25.4409 27.8807 23.374 28.6267 21.0075C29.3727 18.6411 29.3448 16.0984 28.5471 13.7489C27.7494 11.3994 26.2233 9.3654 24.1907 7.94241L25.8634 5.5522C27.7854 6.89595 29.3545 8.68391 30.4374 10.7641C31.5203 12.8443 32.0849 15.1552 32.0832 17.5003C32.0832 25.5547 25.5542 32.0837 17.4998 32.0837C9.44547 32.0837 2.91651 25.5547 2.91651 17.5003C2.91482 15.1552 3.47941 12.8443 4.56228 10.7641C5.64515 8.68391 7.21429 6.89595 9.1363 5.5522V5.5522ZM16.0415 17.5003V2.91699H18.9582V17.5003H16.0415Z" fill="#7942FB"/>
</g>
<defs>
<clipPath id="clip0_4484_3737">
<rect width="35" height="35" fill="white"/>
</clipPath>
</defs>
</svg>
