<svg width="35" height="35" viewBox="0 0 35 35" fill="none" xmlns="http://www.w3.org/2000/svg">
<g clip-path="url(#clip0_4484_3755)">
<path d="M17.4998 2.91699C25.5542 2.91699 32.0832 9.44595 32.0832 17.5003C32.0832 25.5547 25.5542 32.0837 17.4998 32.0837C9.44546 32.0837 2.9165 25.5547 2.9165 17.5003C2.9165 9.44595 9.44546 2.91699 17.4998 2.91699ZM17.4998 7.29199C11.8619 7.29199 7.2915 11.8624 7.2915 17.5003C7.2915 20.2012 8.3415 22.6584 10.0536 24.4843L10.2811 24.7176L12.3432 22.657C11.0248 21.3357 10.2082 19.5128 10.2082 17.5003C10.2082 13.4739 13.4734 10.2087 17.4998 10.2087C18.1532 10.2087 18.7861 10.2947 19.3884 10.4566L21.6678 8.17866C20.3946 7.60991 18.9844 7.29199 17.4998 7.29199ZM26.8215 13.3339L24.545 15.6118C24.7055 16.2141 24.7915 16.847 24.7915 17.5003C24.7915 19.5128 23.9748 21.3357 22.6565 22.657L24.7186 24.7191C26.5648 22.8714 27.7082 20.3193 27.7082 17.5003C27.7082 16.0157 27.3917 14.6055 26.8215 13.3339ZM23.6861 9.25053L18.2538 14.6814C18.0132 14.6172 17.7609 14.5837 17.4998 14.5837C15.8884 14.5837 14.5832 15.8889 14.5832 17.5003C14.5832 19.1118 15.8884 20.417 17.4998 20.417C19.1113 20.417 20.4165 19.1118 20.4165 17.5003C20.4165 17.2393 20.383 16.987 20.3188 16.7464L25.7496 11.3126L23.6875 9.25053H23.6861Z" fill="white"/>
</g>
<defs>
<clipPath id="clip0_4484_3755">
<rect width="35" height="35" fill="white"/>
</clipPath>
</defs>
</svg>
