<svg width="222" height="32" viewBox="0 0 222 32" fill="none" xmlns="http://www.w3.org/2000/svg">
<path d="M3.39399 0H0V31.3914H3.39399V22.7392H10.4615V31.3914H13.8954V0H10.4615V20.053H3.39399V0Z" fill="#24285B"/>
<path d="M26.1125 22.5518V31.3914H29.5464V22.5518C30.1853 22.4269 30.7842 22.2395 31.3432 21.9583C33.4195 21.0213 34.7771 19.2721 34.7771 17.3043V0H31.3432V17.3043C31.3432 18.3351 30.6245 19.2409 29.5464 19.7094C29.0273 19.9281 28.4683 20.053 27.8294 20.053C27.1906 20.053 26.6316 19.9281 26.1125 19.7094C25.0344 19.2409 24.3157 18.3351 24.3157 17.3043V0H20.8817V17.3043C20.8817 19.2721 22.2793 21.0213 24.3157 21.9583C24.8747 22.2395 25.4736 22.4269 26.1125 22.5518Z" fill="#24285B"/>
<path d="M45.1974 22.7392H48.7112C50.0289 22.7392 51.2267 22.4581 52.2649 21.9583C54.3013 21.0213 55.6589 19.2721 55.6589 17.3043V5.43492C55.6589 3.43587 54.3013 1.71794 52.2649 0.749646C51.2267 0.281117 50.0289 0 48.7112 0H41.7635V31.3914H45.1974V22.7392ZM52.2649 17.3043C52.2649 18.8036 50.6677 20.053 48.7112 20.053H45.1974V2.68623H48.7112C50.6677 2.68623 52.2649 3.93564 52.2649 5.43492V17.3043Z" fill="#24285B"/>
<path d="M76.5406 31.3914V28.7051H66.0792V22.7392H74.664V20.053H66.0792V2.68623H76.5406V0H62.6452V31.3914H76.5406Z" fill="#24285B"/>
<path d="M94.0284 25.4879V31.3914H97.4224V25.4879C97.4224 23.8637 96.504 22.3956 95.0266 21.3961C96.504 20.3966 97.4224 18.9285 97.4224 17.3043V5.43492C97.4224 3.43587 96.0648 1.71794 94.0284 0.749646C92.9902 0.281117 91.7924 0 90.4747 0H83.527V31.3914H86.9609V22.7392H90.4747C92.4312 22.7392 94.0284 23.9886 94.0284 25.4879ZM90.4747 20.053H86.9609V2.68623H90.4747C92.4312 2.68623 94.0284 3.93564 94.0284 5.43492V17.3043C94.0284 18.8036 92.4312 20.053 90.4747 20.053Z" fill="#24285B"/>
<path d="M113.073 31.3914V2.68623H118.304V0H104.409V2.68623H109.639V31.3914H113.073Z" fill="#24285B"/>
<path d="M134.972 22.7392V31.3914H138.406V5.43492C138.406 3.43587 137.048 1.71794 134.972 0.749646C133.974 0.281117 132.736 0 131.458 0C130.181 0 128.983 0.281117 127.945 0.749646C125.908 1.71794 124.511 3.43587 124.511 5.43492V31.3914H127.945V22.7392H134.972ZM127.945 20.053V5.43492C127.945 3.93564 129.542 2.68623 131.458 2.68623C133.415 2.68623 134.972 3.93564 134.972 5.43492V20.053H127.945Z" fill="#24285B"/>
<path d="M155.894 25.4879V31.3914H159.288V25.4879C159.288 23.8637 158.369 22.3956 156.892 21.3961C158.369 20.3966 159.288 18.9285 159.288 17.3043V5.43492C159.288 3.43587 157.93 1.71794 155.894 0.749646C154.856 0.281117 153.658 0 152.34 0H145.392V31.3914H148.826V22.7392H152.34C154.297 22.7392 155.894 23.9886 155.894 25.4879ZM152.34 20.053H148.826V2.68623H152.34C154.297 2.68623 155.894 3.93564 155.894 5.43492V17.3043C155.894 18.8036 154.297 20.053 152.34 20.053Z" fill="#24285B"/>
<path d="M180.169 10.2139V5.43492C180.169 3.43587 178.772 1.71794 176.736 0.749646C175.697 0.281117 174.5 0 173.222 0C171.904 0 170.706 0.281117 169.668 0.749646C167.632 1.71794 166.274 3.43587 166.274 5.43492V25.9564C166.274 27.9243 167.632 29.6734 169.668 30.6105C170.706 31.1103 171.904 31.3914 173.222 31.3914C174.5 31.3914 175.697 31.1103 176.736 30.6105C178.772 29.6734 180.169 27.9243 180.169 25.9564V20.053H173.262V22.7392H176.736V25.9564C176.736 27.4557 175.138 28.7051 173.222 28.7051C171.265 28.7051 169.668 27.4557 169.668 25.9564V5.43492C169.668 3.9044 171.265 2.68623 173.222 2.68623C175.138 2.68623 176.736 3.9044 176.736 5.43492V10.2139H180.169Z" fill="#24285B"/>
<path d="M201.051 31.3914V28.7051H190.59V22.7392H199.175V20.053H190.59V2.68623H201.051V0H187.156V31.3914H201.051Z" fill="#24285B"/>
<path d="M215.922 31.3914V2.68623H221.153V0H207.258V2.68623H212.488V31.3914H215.922Z" fill="#24285B"/>
</svg>
