<svg width="675" height="464" viewBox="0 0 675 464" fill="none" xmlns="http://www.w3.org/2000/svg">
<g clip-path="url(#clip0_1782_1347)">
<path d="M219.092 58.5179C242.671 49.5417 246.371 26.1518 232.086 0C212.38 12.3423 199.3 39.1845 219.092 58.5179Z" fill="#362E94"/>
<path d="M544.285 92.0078C543.425 110.478 553.321 113.067 558.57 110.823C562.442 116.779 572.855 117.901 580.686 107.457" stroke="#CED3F8" stroke-width="2" stroke-linecap="round" stroke-linejoin="round"/>
<path d="M550.479 88.0352C545.66 100.118 551.081 109.699 558.74 110.13C562.957 113.669 573.799 113.669 580.512 100.895" stroke="#CED3F8" stroke-width="2" stroke-linecap="round" stroke-linejoin="round"/>
<path d="M560.29 85.2734C557.192 87.949 548.759 105.297 559.171 109.009C563.216 112.72 575.349 106.074 579.566 95.1127" stroke="#CED3F8" stroke-width="2" stroke-linecap="round" stroke-linejoin="round"/>
<path d="M574.489 99.085C572.94 101.329 564.851 107.025 559.172 109.097C557.967 103.832 560.204 93.9064 562.183 91.1445" stroke="#CED3F8" stroke-width="2" stroke-linecap="round" stroke-linejoin="round"/>
<path d="M559.172 109.009C563.819 105.47 568.896 101.586 573.629 93.3867" stroke="#CED3F8" stroke-width="2" stroke-linecap="round" stroke-linejoin="round"/>
<path d="M571.648 88.0352C567.776 90.7971 561.064 102.794 560.289 108.145" stroke="#CED3F8" stroke-width="2" stroke-linecap="round" stroke-linejoin="round"/>
<path d="M558.569 110.91C555.816 114.794 544.543 141.895 541.875 153.72" stroke="#CED3F8" stroke-width="2" stroke-linecap="round" stroke-linejoin="round"/>
<path d="M145.861 424.554C156.273 417.735 181.831 367.33 161.695 357.577C142.677 348.342 136.567 387.699 135.449 392.878C131.49 373.545 126.327 354.816 113.591 358.182C100.855 361.634 113.591 388.908 113.591 388.908C101.974 374.149 73.1462 351.363 60.0661 358.182C46.9 365 86.7425 389.512 86.7425 389.512C68.6714 379.241 14.6301 365.345 68.5853 391.497C43.8881 383.47 -4.30158 379.586 49.2234 396.244C16.9535 393.482 0.603443 397.884 0.00107212 402.458C-0.601299 407.033 8.86453 413.42 50.6003 414.542C30.0336 417.994 19.7072 422.741 24.9565 424.64C33.3896 424.554 145.861 424.554 145.861 424.554Z" fill="#6B67E9"/>
<path d="M73.4067 403.581C73.4067 402.632 72.6323 401.941 71.7717 401.941C70.8251 401.941 70.1367 402.718 70.1367 403.581C70.1367 404.531 70.9112 405.221 71.7717 405.221C72.7183 405.307 73.4067 404.531 73.4067 403.581Z" fill="#FFAF6D"/>
<path d="M134.243 410.14C134.243 408.673 133.125 407.551 131.662 407.551C130.199 407.551 129.08 408.673 129.08 410.14C129.08 411.607 130.199 412.729 131.662 412.729C133.125 412.729 134.243 411.521 134.243 410.14Z" fill="#FFAF6D"/>
<path d="M100.685 395.812C101.92 395.812 102.922 394.808 102.922 393.568C102.922 392.329 101.92 391.324 100.685 391.324C99.449 391.324 98.4473 392.329 98.4473 393.568C98.4473 394.808 99.449 395.812 100.685 395.812Z" fill="#FFAF6D"/>
<path d="M504.701 255.822C539.638 242.358 566.745 264.54 576.641 307.608C542.736 313.391 501.775 296.733 504.701 255.822Z" fill="#423EAF"/>
<path d="M504.701 255.824C516.921 265.75 553.837 287.241 571.134 303.985" stroke="#362E94" stroke-width="2" stroke-linecap="round" stroke-linejoin="round"/>
<path d="M217.8 68.9617C185.013 70.0837 168.836 43.9319 172.966 5.35156C202.74 10.3575 231.826 35.9051 217.8 68.9617Z" fill="#7981EC"/>
<path d="M217.798 68.9611C210.483 57.223 185.958 28.8272 176.406 10.0117" stroke="#423EAF" stroke-width="2" stroke-linecap="round" stroke-linejoin="round"/>
<path d="M513.651 192.127C543.856 182.72 550.396 153.806 534.562 119.973C509.004 133.868 490.503 166.407 513.651 192.127Z" fill="#423EAF"/>
<path d="M142.677 371.393C140.439 363.194 125.724 327.289 99.9082 304.59" stroke="#7981EC" stroke-width="2" stroke-linecap="round" stroke-linejoin="round"/>
<path d="M136.306 356.027C144.825 359.738 155.323 350.676 155.926 335.14C143.362 332.982 132.003 346.878 134.068 351.28C134.929 353.092 136.306 356.027 136.306 356.027Z" fill="#7981EC"/>
<path d="M124.088 333.416C132.435 335.142 140.008 325.131 137.599 311.148C126.067 311.58 118.495 326.08 121.248 329.619C122.281 331 124.088 333.416 124.088 333.416Z" fill="#7981EC"/>
<path d="M131.4 346.361C129.077 354.56 116.685 356.632 105.498 348.087C111.264 338.075 127.614 338.075 129.421 342.132C130.109 343.685 131.4 346.361 131.4 346.361Z" fill="#7981EC"/>
<path d="M108.083 312.703C114.192 313.221 118.839 305.367 115.913 295.527C107.652 296.908 103.436 307.956 105.673 310.286C106.62 311.149 108.083 312.703 108.083 312.703Z" fill="#7981EC"/>
<path d="M101.8 303.206C103.005 298.2 97.8418 292.935 89.3225 293.453C88.8062 300.531 95.1741 306.4 99.3907 306.313C100.509 306.313 101.198 305.882 101.8 303.206Z" fill="#7981EC"/>
<path d="M116.343 322.797C115.74 328.925 107.221 332.119 98.0996 327.544C100.853 319.604 112.47 317.446 114.364 320.035C115.138 321.071 116.343 322.797 116.343 322.797Z" fill="#7981EC"/>
<path d="M499.795 247.018C492.136 237.092 481.552 206.28 503.323 189.536C513.133 181.941 516.145 180.56 521.05 181.423C524.234 182.027 526.644 184.098 529.053 182.459C533.442 179.438 522.083 163.125 536.798 150.524C551.513 138.009 562.872 146.381 566.83 142.929C570.789 139.476 567.519 131.967 576.21 128.774C584.901 125.581 590.323 139.822 602.026 137.319C614.246 134.729 635.329 134.816 637.824 146.467C640.32 158.033 630.768 159.586 627.412 167.009C623.97 174.345 629.477 197.131 611.406 201.015C593.507 204.899 586.364 203.691 582.922 226.39C579.566 249.089 558.741 258.756 547.813 256.081C536.884 253.405 539.379 259.447 544.973 262.985C550.48 266.61 541.359 270.926 533.27 269.372C525.267 267.905 509.347 259.533 499.795 247.018Z" fill="#6B67E9"/>
<path d="M496.182 252.111C527.161 200.584 577.244 166.751 617.602 153.027" stroke="#7981EC" stroke-width="2" stroke-linecap="round" stroke-linejoin="round"/>
<path d="M585.935 167.095C586.107 164.16 585.246 151.731 582.062 145.172" stroke="#7981EC" stroke-width="2" stroke-linecap="round" stroke-linejoin="round"/>
<path d="M594.109 162.867C598.412 164.248 607.534 170.117 609.857 172.275" stroke="#7981EC" stroke-width="2" stroke-linecap="round" stroke-linejoin="round"/>
<path d="M553.578 188.241C554.181 183.839 555.041 174.949 549.104 163.125" stroke="#7981EC" stroke-width="2" stroke-linecap="round" stroke-linejoin="round"/>
<path d="M565.799 179.438C569.929 179.696 582.407 186.17 587.484 189.536" stroke="#7981EC" stroke-width="2" stroke-linecap="round" stroke-linejoin="round"/>
<path d="M530.861 208.18C536.885 209.043 542.909 213.79 547.211 216.552" stroke="#7981EC" stroke-width="2" stroke-linecap="round" stroke-linejoin="round"/>
<path d="M519.157 220.606C520.792 214.91 519.759 203.776 517.092 195.922" stroke="#7981EC" stroke-width="2" stroke-linecap="round" stroke-linejoin="round"/>
<path d="M278.47 93.9055C279.675 93.9055 280.707 92.9561 280.794 91.7478C280.88 90.3668 280.966 88.9859 280.966 87.5186C280.966 86.1377 280.88 84.6704 280.794 83.2894C280.707 82.0811 279.675 81.1317 278.47 81.1317H274.856C273.737 81.1317 272.791 80.3549 272.532 79.2329C272.274 78.0246 271.93 76.8162 271.586 75.6942C271.242 74.6585 271.672 73.4502 272.618 72.9323L275.716 71.1198C276.749 70.5156 277.179 69.221 276.663 68.099C275.458 65.5097 274.081 63.093 272.446 60.849C271.758 59.8996 270.381 59.5543 269.348 60.1585L266.251 61.971C265.304 62.4888 264.099 62.3162 263.325 61.5394C262.464 60.59 261.604 59.7269 260.743 58.9502C259.883 58.1734 259.711 56.965 260.313 56.0156L262.12 52.9085C262.722 51.8728 262.464 50.4918 261.432 49.8013C259.194 48.1615 256.785 46.7805 254.203 45.5722C253.084 45.0543 251.794 45.4859 251.191 46.5216L249.384 49.6287C248.868 50.5781 247.663 51.0097 246.63 50.6644C245.512 50.3192 244.307 49.974 243.102 49.715C241.984 49.4561 241.209 48.5067 241.209 47.3847V44.0186C241.209 42.8103 240.263 41.7746 239.058 41.6882C237.681 41.6019 236.304 41.5156 234.841 41.5156C233.464 41.5156 232.001 41.6019 230.625 41.6882C229.42 41.7746 228.473 42.8103 228.473 44.0186V47.6436C228.473 48.7656 227.699 49.715 226.58 49.974C225.375 50.2329 224.171 50.5781 223.052 50.9234C222.019 51.2686 220.815 50.8371 220.298 49.8876L218.491 46.7805C217.889 45.7448 216.598 45.3132 215.479 45.8311C212.898 47.0394 210.488 48.4204 208.251 50.0603C207.304 50.7507 206.96 52.1317 207.562 53.1674L209.37 56.2746C209.886 57.224 209.714 58.4323 208.939 59.2091C207.993 60.0722 207.132 60.9353 206.358 61.7984C205.583 62.6615 204.378 62.8341 203.432 62.2299L200.334 60.4174C199.301 59.8132 197.924 60.0722 197.236 61.1079C195.601 63.3519 194.224 65.7686 193.019 68.3579C192.503 69.4799 192.933 70.7746 193.966 71.3787L197.064 73.1912C198.011 73.7091 198.441 74.9174 198.097 75.9531C197.752 77.0752 197.408 78.2835 197.15 79.4918C196.892 80.6138 195.945 81.3906 194.827 81.3906H191.212C190.008 81.3906 188.975 82.34 188.889 83.5484C188.803 84.9293 188.717 86.3103 188.717 87.7775C188.717 89.1585 188.803 90.6257 188.889 92.0067C188.975 93.215 190.008 94.1644 191.212 94.1644H194.827C195.945 94.1644 196.892 94.9412 197.15 96.0633C197.408 97.2716 197.752 98.4799 198.097 99.6019C198.441 100.638 198.011 101.846 197.064 102.364L193.966 104.176C192.933 104.781 192.503 106.075 193.019 107.197C194.224 109.786 195.601 112.203 197.236 114.447C197.924 115.397 199.301 115.742 200.334 115.138L203.432 113.325C204.378 112.807 205.583 112.98 206.358 113.757C207.218 114.706 208.079 115.569 208.939 116.346C209.8 117.123 209.972 118.331 209.37 119.281L207.562 122.388C206.96 123.423 207.218 124.804 208.251 125.495C210.488 127.135 212.898 128.516 215.479 129.724C216.598 130.242 217.889 129.81 218.491 128.775L220.298 125.667C220.815 124.718 222.019 124.286 223.052 124.632C224.171 124.977 225.375 125.322 226.58 125.581C227.699 125.84 228.473 126.789 228.473 127.911V131.536C228.473 132.745 229.42 133.781 230.625 133.867C232.001 133.953 233.378 134.039 234.841 134.039C236.218 134.039 237.681 133.953 239.058 133.867C240.263 133.781 241.209 132.745 241.209 131.536V127.911C241.209 126.789 241.984 125.84 243.102 125.581C244.307 125.322 245.512 124.977 246.63 124.632C247.663 124.286 248.868 124.718 249.384 125.667L251.191 128.775C251.794 129.81 253.084 130.242 254.203 129.724C256.785 128.516 259.194 127.135 261.432 125.495C262.378 124.804 262.722 123.423 262.12 122.388L260.313 119.281C259.797 118.331 259.969 117.123 260.743 116.346C261.69 115.483 262.55 114.62 263.325 113.757C264.099 112.894 265.304 112.721 266.251 113.325L269.348 115.138C270.381 115.742 271.758 115.483 272.446 114.447C274.081 112.203 275.458 109.786 276.663 107.197C277.179 106.075 276.749 104.781 275.716 104.176L272.618 102.364C271.672 101.846 271.242 100.638 271.586 99.6019C271.93 98.4799 272.274 97.2716 272.532 96.0633C272.791 94.9412 273.737 94.1644 274.856 94.1644H278.47V93.9055ZM235.013 105.471C225.117 105.471 217.114 97.4442 217.114 87.5186C217.114 77.593 225.117 69.5662 235.013 69.5662C244.909 69.5662 252.912 77.593 252.912 87.5186C252.912 97.4442 244.909 105.471 235.013 105.471Z" fill="#CED3F8"/>
<path d="M235.012 53.6016C216.253 53.6016 201.107 68.792 201.107 87.6075C201.107 106.423 216.253 121.613 235.012 121.613C253.772 121.613 268.917 106.423 268.917 87.6075C268.917 68.792 253.772 53.6016 235.012 53.6016ZM235.012 105.474C225.116 105.474 217.113 97.4468 217.113 87.5212C217.113 77.5956 225.116 69.5688 235.012 69.5688C244.908 69.5688 252.911 77.5956 252.911 87.5212C252.911 97.4468 244.908 105.474 235.012 105.474Z" fill="#BBC0E6"/>
<path d="M235.014 64.1289C222.106 64.1289 211.693 74.6587 211.693 87.5188C211.693 100.465 222.192 110.909 235.014 110.909C247.836 110.909 258.334 100.379 258.334 87.5188C258.42 74.6587 247.922 64.1289 235.014 64.1289ZM235.014 105.471C225.118 105.471 217.115 97.4444 217.115 87.5188C217.115 77.5932 225.118 69.5664 235.014 69.5664C244.91 69.5664 252.913 77.5932 252.913 87.5188C252.913 97.4444 244.91 105.471 235.014 105.471Z" fill="#CED3F8"/>
<path d="M254.631 107.197C265.474 96.3216 265.474 78.7145 254.631 67.9258C243.789 57.0508 226.234 57.0508 215.477 67.9258L95.0031 188.759C84.1604 199.634 84.1604 217.241 95.0031 228.03C105.846 238.819 123.401 238.905 134.157 228.03C134.932 227.253 253.771 108.06 254.631 107.197Z" stroke="#A3A9D0" stroke-width="2" stroke-linecap="round" stroke-linejoin="round" stroke-dasharray="6 6"/>
<path d="M137.34 211.716C137.943 211.716 138.545 211.198 138.545 210.594C138.631 209.903 138.631 209.127 138.631 208.436C138.631 207.659 138.631 206.969 138.545 206.278C138.459 205.674 137.943 205.156 137.34 205.156H135.447C134.845 205.156 134.328 204.725 134.242 204.207C134.07 203.603 133.898 202.912 133.726 202.308C133.554 201.79 133.812 201.186 134.242 200.841L135.877 199.892C136.394 199.546 136.652 198.856 136.394 198.338C135.791 196.957 135.017 195.749 134.242 194.54C133.898 194.023 133.21 193.85 132.607 194.195L130.972 195.145C130.456 195.403 129.854 195.317 129.423 194.886C128.993 194.368 128.563 193.936 128.047 193.505C127.616 193.073 127.53 192.469 127.788 191.951L128.735 190.311C129.079 189.793 128.907 189.017 128.391 188.671C127.186 187.808 125.895 187.118 124.604 186.514C124.002 186.255 123.314 186.427 123.056 187.031L122.109 188.671C121.851 189.189 121.248 189.362 120.646 189.189C120.044 189.017 119.441 188.844 118.753 188.671C118.15 188.585 117.806 188.067 117.806 187.463V185.564C117.806 184.96 117.29 184.356 116.688 184.356C115.999 184.27 115.225 184.27 114.536 184.27C113.762 184.27 113.073 184.27 112.385 184.356C111.783 184.442 111.266 184.96 111.266 185.564V187.463C111.266 188.067 110.836 188.585 110.32 188.671C109.717 188.844 109.029 189.017 108.426 189.189C107.91 189.362 107.308 189.103 106.964 188.671L106.017 187.031C105.673 186.514 104.984 186.255 104.468 186.514C103.091 187.118 101.886 187.895 100.682 188.671C100.165 189.017 99.9933 189.707 100.338 190.311L101.284 191.951C101.542 192.469 101.456 193.073 101.026 193.505C100.51 193.936 100.079 194.368 99.6491 194.886C99.2188 195.317 98.6164 195.403 98.1001 195.145L96.4651 194.195C95.9488 193.85 95.1743 194.023 94.8301 194.54C93.9696 195.749 93.2812 197.043 92.6788 198.338C92.4206 198.942 92.5927 199.633 93.1951 199.892L94.8301 200.841C95.3464 201.1 95.5185 201.704 95.3464 202.308C95.1743 202.912 95.0022 203.517 94.8301 204.207C94.7441 204.811 94.2277 205.156 93.6254 205.156H91.7322C91.1298 205.156 90.5275 205.674 90.5275 206.278C90.4414 206.969 90.4414 207.746 90.4414 208.436C90.4414 209.213 90.4414 209.903 90.5275 210.594C90.6135 211.198 91.1298 211.716 91.7322 211.716H93.6254C94.2277 211.716 94.7441 212.148 94.8301 212.665C95.0022 213.27 95.1743 213.96 95.3464 214.564C95.5185 215.082 95.2604 215.686 94.8301 216.031L93.1951 216.981C92.6788 217.326 92.4206 218.017 92.6788 218.534C93.2812 219.915 94.0556 221.124 94.8301 222.332C95.1743 222.85 95.8627 223.023 96.4651 222.677L98.1001 221.728C98.6164 221.469 99.2188 221.555 99.6491 221.987C100.079 222.505 100.51 222.936 101.026 223.368C101.456 223.799 101.542 224.403 101.284 224.921L100.338 226.561C99.9933 227.079 100.165 227.856 100.682 228.201C101.886 229.064 103.177 229.755 104.468 230.359C105.07 230.618 105.759 230.445 106.017 229.841L106.964 228.201C107.222 227.683 107.824 227.511 108.426 227.683C109.029 227.856 109.631 228.028 110.32 228.201C110.922 228.287 111.266 228.805 111.266 229.409V231.308C111.266 231.912 111.783 232.517 112.385 232.517C113.073 232.603 113.848 232.603 114.536 232.603C115.311 232.603 115.999 232.603 116.688 232.517C117.29 232.43 117.806 231.912 117.806 231.308V229.409C117.806 228.805 118.237 228.287 118.753 228.201C119.355 228.028 120.044 227.856 120.646 227.683C121.162 227.511 121.765 227.77 122.109 228.201L123.056 229.841C123.4 230.359 124.088 230.618 124.604 230.359C125.981 229.755 127.186 228.978 128.391 228.201C128.907 227.856 129.079 227.165 128.735 226.561L127.788 224.921C127.53 224.403 127.616 223.799 128.047 223.368C128.563 222.936 128.993 222.505 129.423 221.987C129.854 221.555 130.456 221.469 130.972 221.728L132.607 222.677C133.124 223.023 133.898 222.85 134.242 222.332C135.103 221.124 135.791 219.829 136.394 218.534C136.652 217.93 136.48 217.24 135.877 216.981L134.242 216.031C133.726 215.773 133.554 215.168 133.726 214.564C133.898 213.96 134.07 213.356 134.242 212.665C134.328 212.061 134.845 211.716 135.447 211.716H137.34ZM114.536 217.844C109.373 217.844 105.156 213.615 105.156 208.436C105.156 203.258 109.373 199.028 114.536 199.028C119.699 199.028 123.916 203.258 123.916 208.436C123.916 213.615 119.699 217.844 114.536 217.844Z" fill="#CED3F8"/>
<path d="M114.536 196.094C107.738 196.094 102.23 201.618 102.23 208.436C102.23 215.254 107.738 220.778 114.536 220.778C121.334 220.778 126.842 215.254 126.842 208.436C126.842 201.618 121.334 196.094 114.536 196.094ZM114.536 217.844C109.373 217.844 105.156 213.615 105.156 208.436C105.156 203.257 109.373 199.028 114.536 199.028C119.699 199.028 123.916 203.257 123.916 208.436C123.916 213.615 119.699 217.844 114.536 217.844Z" fill="#BBC0E6"/>
<path d="M108.254 223.369C102.488 220.866 98.3574 215.169 98.3574 208.437C98.3574 199.461 105.586 192.211 114.535 192.211" stroke="#BBC0E6" stroke-linecap="round" stroke-linejoin="round"/>
<path d="M130.713 208.434C130.713 217.41 123.485 224.66 114.535 224.66" stroke="#BBC0E6" stroke-linecap="round" stroke-linejoin="round"/>
<path d="M370.632 364.145H284.32V417.743H370.632V364.145Z" fill="#CED3F8"/>
<path d="M370.632 364.145H284.32V379.421H370.632V364.145Z" fill="#DAE0F5"/>
<path d="M244.133 423.093V428.272H410.904V423.093C410.904 420.159 408.494 417.742 405.568 417.742H249.468C246.542 417.742 244.133 420.159 244.133 423.093Z" fill="#DDE2F8"/>
<path d="M511.069 329.359H143.967V353.094C143.967 359.222 148.872 364.142 154.982 364.142H500.054C506.164 364.142 511.069 359.222 511.069 353.094V329.359Z" fill="#DDE2F8"/>
<path d="M492.396 346.708C492.396 344.636 494.118 342.91 496.183 342.91C498.248 342.91 499.969 344.636 499.969 346.708C499.969 348.779 498.248 350.505 496.183 350.505C494.031 350.505 492.396 348.779 492.396 346.708Z" fill="#6B67E9"/>
<path d="M476.82 346.708C476.82 344.636 478.541 342.91 480.607 342.91C482.672 342.91 484.393 344.636 484.393 346.708C484.393 348.779 482.672 350.505 480.607 350.505C478.541 350.505 476.82 348.779 476.82 346.708Z" fill="#6B67E9"/>
<path d="M511.069 124.809H143.967V329.362H511.069V124.809Z" fill="#E7EEFF"/>
<path d="M500.054 106.422H154.982C148.872 106.422 143.967 111.342 143.967 117.469V329.359H153.347V124.806H501.603V329.359H510.983V117.469C511.069 111.342 506.164 106.422 500.054 106.422Z" fill="#20196F"/>
<path d="M622.249 464C651.382 464 674.999 461.179 674.999 457.699C674.999 454.219 651.382 451.398 622.249 451.398C593.115 451.398 569.498 454.219 569.498 457.699C569.498 461.179 593.115 464 622.249 464Z" fill="#E9EDF7"/>
<path d="M627.927 355.512C628.96 372.428 619.236 390.899 613.471 407.125C612.782 423.437 603.488 442.598 601.853 449.071C600.477 449.071 597.551 449.071 597.551 449.071C597.551 440.958 599.444 403.672 606.07 355.512C610.631 355.512 627.927 355.512 627.927 355.512Z" fill="url(#paint0_linear_1782_1347)"/>
<path d="M601.852 450.624C601.852 449.761 601.852 449.07 601.852 449.07H597.55C597.463 450.538 597.205 451.314 597.033 451.919C598.238 452.35 599.873 451.228 601.852 450.624Z" fill="#F0CCC0"/>
<path d="M601.853 450.625C599.788 451.229 598.239 452.351 597.12 451.92C596.518 452.351 587.913 455.458 586.966 456.063C586.106 456.667 586.192 457.616 587.138 457.616C588.515 457.616 600.046 457.098 600.046 457.098C600.304 457.357 600.476 457.616 600.476 457.616H603.144C603.919 456.321 603.66 452.179 601.853 450.625Z" fill="#20196F"/>
<path d="M638.769 353.094C642.555 369.579 640.318 387.79 639.63 398.924C647.374 414.719 648.579 438.109 650.386 444.496C649.268 445.186 646.686 446.653 646.686 446.653C642.555 439.662 618.461 405.225 617.256 356.546C621.645 355.856 638.769 353.094 638.769 353.094Z" fill="#423EAF"/>
<path d="M651.16 445.877C650.73 445.1 650.386 444.496 650.386 444.496L646.686 446.654C647.374 447.948 647.546 448.725 647.718 449.329C648.923 449.157 649.783 447.431 651.16 445.877Z" fill="#F0CCC0"/>
<path d="M651.161 445.879C649.698 447.432 648.923 449.245 647.719 449.418C647.546 449.763 645.997 451.748 644.362 453.819C641.867 454.769 639.199 455.805 638.683 456.15C637.822 456.754 637.908 457.703 638.855 457.703C639.199 457.703 640.146 457.703 641.351 457.703C642.297 457.703 643.502 457.703 644.707 457.703C647.977 455.632 652.882 452.438 652.882 452.438C653.226 452.525 653.484 452.697 653.484 452.697L655.721 451.403C655.807 449.677 653.57 446.31 651.161 445.879Z" fill="#20196F"/>
<path d="M604.264 357.496C611.063 358.445 633.608 357.496 641.267 353.008C640.493 348.347 635.76 325.13 635.76 315.636C635.76 306.142 630.424 302.344 627.327 300.272C624.229 299.927 614.591 304.415 611.493 311.665C608.825 317.707 604.092 333.502 604.264 357.496Z" fill="#F6F6FB"/>
<path d="M588.86 356.198C588.688 354.3 588.602 352.919 590.237 352.66C592.044 352.315 593.679 351.538 594.97 351.192C596.174 350.761 599.531 352.919 597.293 354.731C594.97 356.63 592.56 356.457 591.528 356.285C591.872 356.889 592.474 358.529 590.839 358.615C589.032 358.701 589.032 357.666 588.86 356.198Z" fill="#F8D8D0"/>
<path d="M594.969 351.194C599.616 349.036 618.461 338.075 620.526 336.608C620.699 334.623 620.096 304.587 630.25 304.501C635.93 304.414 636.618 311.492 636.532 317.534C636.446 320.986 634.295 339.111 629.046 343.34C623.883 347.569 601.165 354.733 597.292 354.733C596.173 353.611 594.969 351.194 594.969 351.194Z" fill="url(#paint1_linear_1782_1347)"/>
<path d="M627.326 292.505C627.154 293.972 627.154 298.201 627.412 300.186C626.637 302.344 623.626 303.725 618.634 303.639C619.839 302.43 621.044 300.014 620.011 298.115C619.065 296.216 617.171 298.719 615.795 295.698C614.16 292.159 613.815 285.255 615.45 283.356C617.344 281.198 621.044 278.695 625.949 281.63C629.907 284.133 627.67 289.484 627.326 292.505Z" fill="#F8D8D0"/>
<path d="M623.625 289.052C622.506 289.052 623.109 286.118 622.334 285.341C621.388 284.478 618.118 283.96 614.934 284.305C611.75 284.651 609.856 280.421 611.922 278.695C613.987 276.969 615.794 279.386 617.343 278.954C619.15 278.35 618.806 276.192 621.474 276.451C623.883 276.71 622.764 278.954 624.313 279.386C625.862 279.817 628.272 277.746 630.165 280.249C631.542 282.148 629.391 283.183 629.563 285.255C629.649 286.549 632.833 290.347 629.391 291.987C625.948 293.54 626.809 290.002 626.981 288.534C627.153 287.067 626.551 286.118 625.776 286.032C624.916 286.032 625.174 289.052 623.625 289.052Z" fill="#20196F"/>
<path d="M536.885 385.634L518.728 359.137C510.38 364.919 504.873 374.586 504.873 385.634C504.873 403.413 519.244 417.741 536.885 417.741C554.612 417.741 568.896 403.327 568.896 385.634C568.896 377.607 565.971 370.271 561.066 364.661L536.885 385.634Z" fill="#7981EC"/>
<path d="M566.143 372.426C567.089 375.447 567.606 378.64 567.606 381.92C567.606 399.7 553.235 414.027 535.594 414.027C522.6 414.027 511.327 406.259 506.336 395.039C510.38 408.158 522.514 417.738 536.971 417.738C554.698 417.738 568.983 403.325 568.983 385.631C568.896 380.884 567.95 376.482 566.143 372.426Z" fill="url(#paint2_linear_1782_1347)"/>
<path d="M563.045 360.172C556.849 352.922 547.641 348.348 537.315 348.348C530.173 348.348 523.546 350.592 518.039 354.389L537.315 382.44L563.045 360.172Z" fill="#7981EC"/>
<path d="M499.624 454.106C502.829 452.774 504.351 449.089 503.023 445.874C501.696 442.659 498.021 441.132 494.816 442.464C491.61 443.795 490.088 447.481 491.416 450.696C492.744 453.911 496.418 455.438 499.624 454.106Z" fill="#362E94"/>
<path d="M492.998 448.288C492.998 445.957 494.891 444.059 497.215 444.059C499.538 444.059 501.431 445.957 501.431 448.288C501.431 450.618 499.538 452.517 497.215 452.517C494.891 452.517 492.998 450.618 492.998 448.288Z" fill="#BBC0E6"/>
<path d="M567.689 440.18H487.832V441.302H567.689V440.18Z" fill="#DDE2F8"/>
<path d="M489.125 441.215C489.727 442.164 495.579 451.572 498.247 449.846C500.742 448.206 497.042 441.215 497.042 441.215C496.526 441.215 489.125 441.215 489.125 441.215Z" fill="#DDE2F8"/>
<path d="M487.834 440.177C487.145 440.177 486.629 439.659 486.629 438.969C486.629 438.278 487.145 437.761 487.834 437.761H565.195V432.841C565.023 431.633 559.258 423.951 558.053 423.433C556.332 423.261 532.495 421.448 522.255 420.585L521.652 420.499C520.964 420.412 520.534 419.895 520.534 419.204C520.62 418.6 521.136 418.082 521.739 418.082H521.825C522.169 418.082 556.934 420.844 558.397 421.017C560.118 421.189 567.605 430.252 567.605 432.841V438.969C567.605 439.659 567.088 440.177 566.4 440.177H487.834Z" fill="#CED3F8"/>
<path d="M496.438 448.288C496.438 447.857 496.782 447.598 497.126 447.598C497.47 447.598 497.814 447.943 497.814 448.288C497.814 448.72 497.47 448.979 497.126 448.979C496.782 448.979 496.438 448.72 496.438 448.288Z" fill="#362E94"/>
<path d="M568.633 454.236C571.903 453.074 573.615 449.474 572.457 446.194C571.299 442.914 567.709 441.196 564.439 442.358C561.169 443.519 559.456 447.12 560.614 450.4C561.773 453.68 565.362 455.397 568.633 454.236Z" fill="#362E94"/>
<path d="M562.441 448.288C562.441 445.957 564.335 444.059 566.658 444.059C568.981 444.059 570.875 445.957 570.875 448.288C570.875 450.618 568.981 452.517 566.658 452.517C564.335 452.517 562.441 450.618 562.441 448.288Z" fill="#BBC0E6"/>
<path d="M558.482 441.211C559.085 442.16 564.936 451.568 567.604 449.842C570.1 448.202 566.399 441.211 566.399 441.211C565.969 441.211 558.482 441.211 558.482 441.211Z" fill="#DDE2F8"/>
<path d="M565.885 448.288C565.885 447.857 566.229 447.598 566.573 447.598C567.003 447.598 567.262 447.943 567.262 448.288C567.262 448.72 566.917 448.979 566.573 448.979C566.229 449.065 565.885 448.72 565.885 448.288Z" fill="#362E94"/>
<path d="M559.172 421.1H559.086L487.748 415.576C487.231 415.576 486.715 415.145 486.629 414.541L481.552 382.865C481.466 382.52 481.552 382.261 481.81 382.002C481.982 381.743 482.326 381.57 482.584 381.484L577.587 367.157C578.878 363.618 580.341 361.719 583.525 359.82C584.127 359.475 584.815 359.648 585.16 360.252C585.504 360.856 585.332 361.547 584.729 361.892C581.976 363.618 580.857 364.999 579.738 368.106C579.652 368.193 579.652 368.451 579.566 368.624V368.71C577.157 375.27 560.893 418.425 560.204 420.323C560.118 420.841 559.688 421.1 559.172 421.1ZM488.952 413.246L558.397 418.597C560.549 412.815 573.112 379.499 576.726 369.746L484.219 383.728L488.952 413.246Z" fill="#DDE2F8"/>
<path d="M496.095 415.84C495.665 415.84 495.32 415.495 495.32 415.15L491.964 381.316C491.878 380.885 492.223 380.453 492.653 380.453C493.083 380.453 493.513 380.712 493.513 381.144L496.869 414.977C496.869 415.408 496.611 415.84 496.095 415.84Z" fill="#DDE2F8"/>
<path d="M503.581 416.443C503.151 416.443 502.807 416.098 502.807 415.667V379.589C502.807 379.158 503.151 378.812 503.581 378.812C504.011 378.812 504.356 379.158 504.356 379.589V415.667C504.442 416.098 504.011 416.443 503.581 416.443Z" fill="#DDE2F8"/>
<path d="M511.583 417.047C511.066 417.047 510.722 416.615 510.808 416.184L513.39 377.949C513.39 377.517 513.82 377.172 514.25 377.172C514.68 377.172 515.025 377.603 515.025 378.035L512.443 416.27C512.357 416.702 512.013 417.047 511.583 417.047Z" fill="#DDE2F8"/>
<path d="M519.329 417.648H519.243C518.812 417.562 518.468 417.216 518.554 416.699L524.062 376.219C524.148 375.788 524.492 375.443 525.008 375.529C525.439 375.615 525.783 375.96 525.697 376.478L520.189 416.958C520.103 417.389 519.759 417.648 519.329 417.648Z" fill="#DDE2F8"/>
<path d="M527.16 418.254C527.074 418.254 527.074 418.254 526.988 418.254C526.558 418.168 526.3 417.736 526.386 417.305L534.905 374.582C534.991 374.15 535.421 373.891 535.851 373.977C536.282 374.064 536.54 374.495 536.454 374.927L527.935 417.65C527.849 417.995 527.504 418.254 527.16 418.254Z" fill="#DDE2F8"/>
<path d="M535.164 418.857C535.078 418.857 535.078 418.857 534.992 418.857C534.562 418.771 534.303 418.339 534.39 417.908L545.06 373.027C545.146 372.595 545.576 372.336 546.007 372.423C546.437 372.509 546.695 372.941 546.609 373.372L535.938 418.253C535.938 418.598 535.594 418.857 535.164 418.857Z" fill="#DDE2F8"/>
<path d="M542.651 419.463C542.565 419.463 542.479 419.463 542.392 419.463C541.962 419.376 541.704 418.859 541.876 418.427L555.731 371.388C555.817 370.957 556.333 370.698 556.763 370.87C557.194 370.957 557.452 371.475 557.28 371.906L543.425 418.945C543.339 419.204 542.995 419.463 542.651 419.463Z" fill="#DDE2F8"/>
<path d="M550.653 420.066C550.567 420.066 550.48 420.066 550.394 420.066C549.964 419.894 549.706 419.462 549.878 419.03L566.228 369.748C566.4 369.316 566.831 369.057 567.261 369.23C567.691 369.402 567.949 369.834 567.777 370.266L551.427 419.548C551.255 419.894 550.997 420.066 550.653 420.066Z" fill="#DDE2F8"/>
<path d="M484.735 395.294C484.305 395.294 483.961 395.035 483.961 394.604C483.874 394.172 484.219 393.74 484.649 393.654L573.111 381.83C573.542 381.743 573.972 382.089 574.058 382.52C574.144 382.952 573.8 383.383 573.37 383.47L484.821 395.294C484.735 395.294 484.735 395.294 484.735 395.294Z" fill="#DDE2F8"/>
<path d="M486.112 404.36C485.682 404.36 485.338 404.015 485.338 403.584C485.338 403.152 485.682 402.807 486.112 402.807L565.453 402.289C565.883 402.289 566.228 402.634 566.228 403.066C566.228 403.497 565.883 403.843 565.453 403.843L486.112 404.36Z" fill="#DDE2F8"/>
<path d="M590.669 354.558L584.473 357.666C583.096 358.356 582.58 359.996 583.268 361.377C583.957 362.758 585.592 363.276 586.969 362.585L593.165 359.478C594.541 358.788 595.058 357.148 594.369 355.767C593.681 354.472 592.046 353.868 590.669 354.558Z" fill="#7981EC"/>
<path d="M494.804 131.711H330.959V223.631H494.804V131.711Z" fill="white"/>
<path d="M324.075 131.711H160.23V223.631H324.075V131.711Z" fill="white"/>
<path d="M494.804 230.535H330.959V322.455H494.804V230.535Z" fill="white"/>
<path d="M324.075 230.535H160.23V322.455H324.075V230.535Z" fill="white"/>
<path d="M353.592 154.148H342.146V217.845H353.592V154.148Z" fill="#6B67E9"/>
<path d="M353.592 154.148H342.146V171.41H353.592V154.148Z" fill="#7981EC"/>
<path d="M368.049 177.707H356.604V217.841H368.049V177.707Z" fill="#6B67E9"/>
<path d="M368.049 177.707H356.604V185.13H368.049V177.707Z" fill="#423EAF"/>
<path d="M382.506 188.238H371.061V217.842H382.506V188.238Z" fill="#6B67E9"/>
<path d="M382.506 188.238H371.061V193.244H382.506V188.238Z" fill="#7981EC"/>
<path d="M396.963 170.027H385.518V217.843H396.963V170.027Z" fill="#6B67E9"/>
<path d="M396.963 170.027H385.518V185.304H396.963V170.027Z" fill="#423EAF"/>
<path d="M411.332 161.395H399.887V217.841H411.332V161.395Z" fill="#6B67E9"/>
<path d="M411.332 161.395H399.887V178.743H411.332V161.395Z" fill="#7981EC"/>
<path d="M425.791 152.766H414.346V217.929H425.791V152.766Z" fill="#6B67E9"/>
<path d="M425.791 152.766H414.346V166.834H425.791V152.766Z" fill="#423EAF"/>
<path d="M440.248 149.141H428.803V217.843H440.248V149.141Z" fill="#6B67E9"/>
<path d="M440.248 149.141H428.803V161.397H440.248V149.141Z" fill="#7981EC"/>
<path d="M454.703 172.617H443.258V217.843H454.703V172.617Z" fill="#6B67E9"/>
<path d="M454.703 172.617H443.258V190.742H454.703V172.617Z" fill="#7981EC"/>
<path d="M469.162 157.77H457.717V217.841H469.162V157.77Z" fill="#6B67E9"/>
<path d="M469.162 157.77H457.717V175.463H469.162V157.77Z" fill="#423EAF"/>
<path d="M483.531 152.766H472.086V217.929H483.531V152.766Z" fill="#6B67E9"/>
<path d="M483.531 152.766H472.086V185.304H483.531V152.766Z" fill="#7981EC"/>
<path d="M340.34 308.382V290.429C352.387 267.644 363.832 247.879 378.461 247.879C393.262 247.879 393.09 282.834 409.871 282.834C421.488 282.834 431.212 258.409 444.292 258.409C462.363 258.409 462.535 286.373 483.446 273.685V308.382H340.34Z" fill="url(#paint3_linear_1782_1347)"/>
<path d="M340.34 308.385V294.921C350.236 278.177 358.841 266.094 368.909 266.094C382.42 266.094 386.206 292.073 402.384 292.073C419.595 292.073 425.704 271.963 439.559 271.963C453.586 271.963 462.535 292.418 483.446 276.537V308.385H340.34Z" fill="#706DE7"/>
<path d="M342.148 314.34H345.16" stroke="#807DFB" stroke-width="2" stroke-miterlimit="10"/>
<path d="M351.957 314.34H354.883" stroke="#807DFB" stroke-width="2" stroke-miterlimit="10"/>
<path d="M361.684 314.34H364.609" stroke="#807DFB" stroke-width="2" stroke-miterlimit="10"/>
<path d="M371.406 314.34H374.418" stroke="#807DFB" stroke-width="2" stroke-miterlimit="10"/>
<path d="M381.215 314.34H384.141" stroke="#807DFB" stroke-width="2" stroke-miterlimit="10"/>
<path d="M390.941 314.34H393.953" stroke="#807DFB" stroke-width="2" stroke-miterlimit="10"/>
<path d="M400.75 314.34H403.676" stroke="#807DFB" stroke-width="2" stroke-miterlimit="10"/>
<path d="M410.475 314.34H413.4" stroke="#807DFB" stroke-width="2" stroke-miterlimit="10"/>
<path d="M420.197 314.34H423.209" stroke="#807DFB" stroke-width="2" stroke-miterlimit="10"/>
<path d="M430.01 314.34H432.936" stroke="#807DFB" stroke-width="2" stroke-miterlimit="10"/>
<path d="M439.732 314.34H442.744" stroke="#807DFB" stroke-width="2" stroke-miterlimit="10"/>
<path d="M449.543 314.34H452.469" stroke="#807DFB" stroke-width="2" stroke-miterlimit="10"/>
<path d="M459.268 314.34H462.279" stroke="#807DFB" stroke-width="2" stroke-miterlimit="10"/>
<path d="M469.076 314.34H472.002" stroke="#807DFB" stroke-width="2" stroke-miterlimit="10"/>
<path d="M478.799 314.34H481.725" stroke="#807DFB" stroke-width="2" stroke-miterlimit="10"/>
<path d="M441.281 310.023V254.957" stroke="#20196F" stroke-miterlimit="10" stroke-linecap="round" stroke-linejoin="round"/>
<path d="M441.28 251.075L437.666 244.516H444.808L441.28 251.075Z" fill="#20196F"/>
<path d="M194.049 159.07C185.271 159.07 178.215 166.148 178.215 174.951C178.215 183.755 185.271 190.832 194.049 190.832C202.826 190.832 209.882 183.755 209.882 174.951C209.968 166.148 202.826 159.07 194.049 159.07ZM194.049 184.704C188.627 184.704 184.325 180.302 184.325 174.951C184.325 169.6 188.713 165.198 194.049 165.198C199.47 165.198 203.773 169.6 203.773 174.951C203.773 180.302 199.47 184.704 194.049 184.704Z" fill="#7981EC"/>
<path d="M198.353 166.145L202.312 157.946C199.816 156.737 196.977 156.047 194.051 156.047V165.196C195.6 165.109 197.063 165.541 198.353 166.145Z" fill="#7981EC"/>
<path d="M242.154 159.07C233.377 159.07 226.32 166.148 226.32 174.951C226.32 183.755 233.377 190.832 242.154 190.832C250.931 190.832 257.988 183.755 257.988 174.951C257.988 166.148 250.931 159.07 242.154 159.07ZM242.154 184.704C236.733 184.704 232.43 180.302 232.43 174.951C232.43 169.6 236.819 165.198 242.154 165.198C247.575 165.198 251.878 169.6 251.878 174.951C251.878 180.302 247.575 184.704 242.154 184.704Z" fill="#7981EC"/>
<path d="M251.192 171.151L259.625 167.612C256.785 160.794 250.073 156.047 242.242 156.047V165.196C246.201 165.109 249.729 167.612 251.192 171.151Z" fill="#7981EC"/>
<path d="M274.422 174.947C274.422 183.751 281.478 190.828 290.256 190.828C299.033 190.828 306.089 183.751 306.089 174.947C306.089 166.144 299.033 159.066 290.256 159.066C281.478 159.066 274.422 166.144 274.422 174.947ZM280.532 174.947C280.532 169.51 284.92 165.194 290.256 165.194C295.677 165.194 299.98 169.596 299.98 174.947C299.98 180.299 295.591 184.7 290.256 184.7C284.834 184.7 280.532 180.299 280.532 174.947Z" fill="#7981EC"/>
<path d="M299.98 174.948C299.98 180.386 295.591 184.701 290.256 184.701C287.674 184.701 285.265 183.666 283.544 182.026L277.262 188.672C280.618 191.951 285.265 193.936 290.256 193.936C300.668 193.936 309.101 185.478 309.101 175.035C309.101 164.591 300.668 156.133 290.256 156.133V165.282C295.591 165.109 299.98 169.511 299.98 174.948Z" fill="#7981EC"/>
<path d="M178.215 206.535H184.325" stroke="#807DFB" stroke-width="2" stroke-miterlimit="10" stroke-linecap="round"/>
<path d="M188.541 206.535H209.968" stroke="#807DFB" stroke-width="2" stroke-miterlimit="10" stroke-linecap="round"/>
<path d="M178.215 211.195H209.968" stroke="#807DFB" stroke-width="2" stroke-miterlimit="10" stroke-linecap="round"/>
<path d="M226.32 206.535H232.43" stroke="#807DFB" stroke-width="2" stroke-miterlimit="10" stroke-linecap="round"/>
<path d="M236.646 206.535H245.166" stroke="#807DFB" stroke-width="2" stroke-miterlimit="10" stroke-linecap="round"/>
<path d="M248.352 206.535H257.989" stroke="#807DFB" stroke-width="2" stroke-miterlimit="10" stroke-linecap="round"/>
<path d="M226.32 211.195H252.566" stroke="#807DFB" stroke-width="2" stroke-miterlimit="10" stroke-linecap="round"/>
<path d="M277.434 206.535H283.543" stroke="#807DFB" stroke-width="2" stroke-miterlimit="10" stroke-linecap="round"/>
<path d="M287.76 206.535H306.089" stroke="#807DFB" stroke-width="2" stroke-miterlimit="10" stroke-linecap="round"/>
<path d="M274.422 211.195H306.089" stroke="#807DFB" stroke-width="2" stroke-miterlimit="10" stroke-linecap="round"/>
<path d="M173.309 243.047L198.436 257.202L214.184 251.074L234.578 262.121L254.112 247.794L283.543 280.333L309.703 266.005" stroke="#807DFB" stroke-miterlimit="10"/>
<path d="M171.072 243.045C171.072 241.837 172.105 240.801 173.31 240.801C174.514 240.801 175.547 241.837 175.547 243.045C175.547 244.253 174.514 245.289 173.31 245.289C172.105 245.289 171.072 244.253 171.072 243.045Z" fill="#807DFB"/>
<path d="M196.201 257.201C196.201 255.993 197.234 254.957 198.439 254.957C199.643 254.957 200.676 255.993 200.676 257.201C200.676 258.409 199.643 259.445 198.439 259.445C197.234 259.445 196.201 258.409 196.201 257.201Z" fill="#807DFB"/>
<path d="M211.947 251.072C211.947 249.864 212.98 248.828 214.185 248.828C215.389 248.828 216.422 249.864 216.422 251.072C216.422 252.281 215.389 253.316 214.185 253.316C212.98 253.316 211.947 252.281 211.947 251.072Z" fill="#807DFB"/>
<path d="M238.176 263.619C238.995 261.637 238.057 259.365 236.081 258.544C234.105 257.723 231.839 258.664 231.021 260.646C230.203 262.628 231.141 264.9 233.117 265.721C235.093 266.542 237.358 265.601 238.176 263.619Z" fill="#7981EC"/>
<path d="M251.877 247.795C251.877 246.587 252.91 245.551 254.114 245.551C255.319 245.551 256.352 246.587 256.352 247.795C256.352 249.003 255.319 250.039 254.114 250.039C252.91 250.039 251.877 249.003 251.877 247.795Z" fill="#807DFB"/>
<path d="M283.544 282.578C284.78 282.578 285.781 281.573 285.781 280.334C285.781 279.095 284.78 278.09 283.544 278.09C282.308 278.09 281.307 279.095 281.307 280.334C281.307 281.573 282.308 282.578 283.544 282.578Z" fill="#807DFB"/>
<path d="M307.467 266.006C307.467 264.797 308.499 263.762 309.704 263.762C310.909 263.762 311.942 264.797 311.942 266.006C311.942 267.214 310.909 268.25 309.704 268.25C308.499 268.25 307.467 267.214 307.467 266.006Z" fill="#807DFB"/>
<path d="M282.252 294.488H294.816" stroke="#CED3F8" stroke-width="2" stroke-miterlimit="10" stroke-linecap="round"/>
<path d="M299.633 294.488H317.446" stroke="#CED3F8" stroke-width="2" stroke-miterlimit="10" stroke-linecap="round"/>
<path d="M277.432 304.934H302.645" stroke="#CED3F8" stroke-width="2" stroke-miterlimit="10" stroke-linecap="round"/>
<path d="M307.463 304.93H317.445" stroke="#CED3F8" stroke-width="2" stroke-miterlimit="10" stroke-linecap="round"/>
<path d="M277.432 315.289H285.176" stroke="#CED3F8" stroke-width="2" stroke-miterlimit="10" stroke-linecap="round"/>
<path d="M289.996 315.289H312.37" stroke="#CED3F8" stroke-width="2" stroke-miterlimit="10" stroke-linecap="round"/>
<path d="M277.432 299.664H317.446" stroke="#CED3F8" stroke-width="2" stroke-miterlimit="10" stroke-linecap="round"/>
<path d="M277.432 310.109H317.446" stroke="#CED3F8" stroke-width="2" stroke-miterlimit="10" stroke-linecap="round"/>
<path d="M310.827 249.729C314.897 248.765 317.417 244.675 316.456 240.592C315.495 236.51 311.416 233.982 307.346 234.946C303.276 235.91 300.756 240.001 301.717 244.083C302.678 248.165 306.757 250.693 310.827 249.729Z" fill="#CED3F8"/>
<path d="M307.98 241.837C307.378 241.492 307.033 240.802 307.033 240.025C307.033 238.817 307.98 237.867 309.185 237.867C310.389 237.867 311.336 238.817 311.336 240.025C311.336 240.802 310.992 241.406 310.389 241.837C312.627 242.355 312.713 243.995 312.713 245.808H305.657C305.57 243.995 305.829 242.355 307.98 241.837Z" fill="white"/>
<path d="M131.488 458.562C131.488 455.542 151.194 453.125 175.547 453.125C199.9 453.125 219.607 455.542 219.607 458.562C219.607 461.583 199.9 464 175.547 464C151.194 464 131.488 461.583 131.488 458.562Z" fill="#E9EDF7"/>
<path d="M136.736 431.805C144.309 420.412 154.979 403.754 166.855 396.418L173.911 403.668C157.991 419.204 142.244 432.236 139.92 433.704C138.715 434.48 139.232 435.689 139.318 436.12C140.609 440.177 143.534 445.873 141.813 446.564C140.35 447.168 138.543 445.442 136.22 442.248C135.015 440.522 133.81 438.364 133.466 437.156C133.036 435.603 135.273 434.135 136.736 431.805Z" fill="#F8D8D0"/>
<path d="M188.799 446.133C188.971 442.94 188.713 413.767 192.585 401.684L203.858 403.928C199.469 425.505 193.532 443.285 192.241 447.255C191.983 448.377 192.069 449.413 192.327 449.844C194.478 453.556 198.953 458.993 197.404 460.029C196.113 460.978 193.532 459.166 190.606 456.49C189.057 455.109 187.422 453.21 186.819 452.088C186.045 450.621 187.766 448.722 188.799 446.133Z" fill="#F8D8D0"/>
<path d="M175.204 315.027C172.364 318.911 161.177 339.712 158.682 343.509C159.456 349.465 164.964 364.569 164.964 364.569C164.964 364.569 164.275 371.474 166.685 373.2C169.094 374.926 169.955 374.236 170.385 373.977C171.331 373.286 168.922 367.676 170.041 367.158C170.987 366.986 171.762 366.899 172.106 366.813C170.385 365.691 170.901 364.569 169.696 363.533C167.717 361.634 164.791 347.911 164.877 345.149C167.803 339.884 175.548 330.477 178.732 326.765C182.002 322.968 175.204 315.027 175.204 315.027Z" fill="#F8D8D0"/>
<path d="M200.675 310.627C205.58 308.555 214.185 302.082 215.906 299.061C217.628 296.04 226.319 274.981 226.061 273.255C225.803 271.27 229.589 271.615 229.331 273.168C227.352 285.338 224.856 300.097 221.5 303.895C216.939 308.987 205.15 318.826 202.224 320.38C199.47 321.847 199.556 320.984 198.266 317.963C196.975 314.856 198.266 311.576 200.675 310.627Z" fill="#F8D8D0"/>
<path d="M196.116 350.933C196.632 345.927 206.098 312.957 200.676 310.626C195.169 308.296 180.884 306.397 176.754 312.18C172.623 317.963 175.463 324.263 175.721 329.873C175.979 335.484 177.872 343.597 176.84 349.207C162.985 362.326 157.392 387.787 156.617 398.662C171.332 411.263 189.317 413.162 209.11 408.329C212.982 375.272 198.439 356.111 196.116 350.933Z" fill="#7981EC"/>
<path d="M195.599 410.572C199.988 410.227 204.463 409.45 209.109 408.328C212.982 375.271 198.439 356.111 196.115 350.846C196.46 347.48 200.934 331.254 202.053 320.465C197.75 339.28 192.157 344.804 191.641 350.587C190.952 358.527 202.655 374.322 200.504 395.382C199.73 402.632 196.976 409.191 195.599 410.572Z" fill="#7981EC"/>
<path d="M190.865 286.632C185.616 286.114 178.473 291.465 179.42 303.203C180.367 314.941 175.117 325.299 167.717 324.781C171.589 333.239 176.322 338.763 184.755 336.519C189.832 335.138 194.996 329.355 197.233 319.861C198.954 312.438 199.642 307.346 200.073 299.06C200.503 289.912 195.426 287.063 190.865 286.632Z" fill="#20196F"/>
<path d="M234.58 262.12C234.408 261.43 229.675 264.968 228.815 265.486C228.557 265.659 228.126 265.918 227.782 266.177C227.868 265.4 228.299 263.07 227.782 263.07C227.18 263.07 226.491 266.781 226.147 267.471C225.201 268.421 225.975 271.528 226.147 273.254L229.417 273.168C229.417 273.168 229.847 272.823 230.536 272.218C231.655 271.269 231.741 270.579 232.343 269.457C232.945 268.507 232.515 268.162 231.999 268.162C232.601 267.471 232.171 266.781 231.827 266.781C232.429 265.918 231.827 265.486 231.396 265.573C231.396 265.659 234.839 262.811 234.58 262.12Z" fill="#F8D8D0"/>
<path d="M449.108 146.727C447.903 148.108 446.698 152.078 449.108 154.926C451.517 157.861 455.734 158.379 458.143 158.379C460.553 158.379 461.155 157.516 460.811 156.307C460.467 155.013 455.734 149.23 455.218 146.986C452.894 146.036 449.108 146.727 449.108 146.727Z" fill="#20196F"/>
<path d="M403.415 146.727C404.619 148.108 405.824 152.078 403.415 154.926C401.005 157.861 394.465 158.379 392.142 158.379C389.732 158.379 389.13 157.516 389.474 156.307C389.818 155.013 396.875 149.23 397.391 146.986C399.714 146.036 403.415 146.727 403.415 146.727Z" fill="#20196F"/>
<path d="M457.455 96.5822C454.787 93.9066 433.876 92.0078 426.304 92.0078C414.514 92.0078 397.906 93.8203 395.152 96.5822C392.485 99.2578 396.357 139.478 396.959 146.987C398.508 146.987 401.09 146.987 403.93 146.987C404.79 142.93 407.372 121.612 406.942 110.392C412.019 110.392 426.304 106.335 426.304 106.335C426.304 106.335 440.933 110.392 445.666 110.392C445.666 120.49 447.989 143.535 448.677 146.987C451.517 146.987 453.755 146.987 455.39 146.987C455.906 139.478 460.122 99.2578 457.455 96.5822Z" fill="url(#paint4_linear_1782_1347)"/>
<path d="M450.402 63.7823C448.509 60.2437 446.099 56.705 444.292 55.4103C440.592 52.7347 431.815 53.08 426.307 53.2526C420.8 53.08 412.022 52.7347 408.322 55.4103C406.515 56.705 404.192 60.1573 402.212 63.7823C401.438 65.2496 408.15 66.5442 410.043 67.4073C410.559 75.6067 408.494 96.4073 408.494 96.4073C408.494 96.4073 415.981 98.5651 426.307 98.5651C436.634 98.5651 444.206 96.4937 444.206 96.4937C444.206 96.4937 442.399 76.0383 442.571 67.4073C444.809 66.3716 451.004 64.8181 450.402 63.7823Z" fill="#7981EC"/>
<path d="M442.57 67.4046C441.796 65.3331 440.419 64.3837 440.247 69.8212C440.075 74.482 440.333 89.5861 441.021 97.2677C443.431 96.8361 444.291 96.4909 444.291 96.4909C444.291 96.4909 442.398 76.1218 442.57 67.4046Z" fill="#7981EC"/>
<path d="M442.57 67.4062C442.57 67.4062 448.164 64.817 450.401 63.7812C452.38 67.5789 454.101 71.7217 454.79 74.6562C456.167 80.3527 445.926 92.436 445.926 92.436C445.926 92.436 444.636 93.3854 442.57 94.6801L446.873 76.4687C446.959 76.4687 443.689 69.4777 442.57 67.4062Z" fill="#7981EC"/>
<path d="M410.128 67.4062C410.128 67.4062 404.535 64.817 402.297 63.7812C400.318 67.5789 398.597 71.7217 397.909 74.6562C396.532 80.3527 406.772 92.436 406.772 92.436C406.772 92.436 408.063 93.3854 410.128 94.6801L405.826 76.4687C405.739 76.4687 409.009 69.4777 410.128 67.4062Z" fill="#7981EC"/>
<path d="M429.661 48.5938C428.8 48.5938 426.305 48.5938 426.305 48.5938C426.305 48.5938 423.809 48.5938 422.948 48.5938C422.518 50.8378 421.486 52.3051 420.625 53.0818C421.486 55.4122 423.981 56.3616 426.305 56.3616C428.628 56.3616 431.21 55.4122 432.07 53.0818C431.296 52.3051 430.091 50.8378 429.661 48.5938Z" fill="#E3B8AE"/>
<path d="M418.043 40.3932C418.043 36.6819 418.473 32.1938 420.797 30.295C422.001 29.2593 424.067 28.9141 426.39 28.9141C428.8 28.9141 430.865 29.3456 432.156 30.4676C434.307 32.4528 434.737 36.8545 434.737 40.3069C434.737 45.917 431.037 50.4914 426.39 50.4914C421.743 50.4914 418.043 46.0897 418.043 40.3932Z" fill="#F0CCC0"/>
<path d="M433.446 38.4952C433.36 37.4595 433.791 36.5964 434.479 36.5964C435.168 36.5101 435.77 37.2869 435.77 38.3226C435.856 39.3583 435.426 40.2214 434.737 40.2214C434.049 40.2214 433.446 39.4446 433.446 38.4952Z" fill="#F0CCC0"/>
<path d="M419.248 38.4952C419.334 37.4595 418.904 36.5964 418.216 36.5964C417.527 36.5101 416.925 37.2869 416.925 38.3226C416.839 39.3583 417.269 40.2214 417.958 40.2214C418.56 40.2214 419.162 39.4446 419.248 38.4952Z" fill="#F0CCC0"/>
<path d="M432.672 29.0002C428.025 24.5121 428.198 26.7562 428.886 27.3603C426.218 26.4972 423.895 25.8931 423.465 26.0657C423.206 26.152 423.379 26.6699 423.551 27.1014C422.69 26.8425 421.744 26.4972 420.625 25.9794C411.675 22.1818 411.934 30.6401 417.355 32.7978C422.26 34.783 427.251 35.0419 433.791 33.7472C434.652 31.9347 434.049 30.1222 432.672 29.0002Z" fill="#362E94"/>
<path d="M404.792 75.2621L408.664 99.4288H443.946L447.818 75.2621C447.99 74.2264 447.216 73.3633 446.183 73.3633H406.255C405.394 73.3633 404.62 74.2264 404.792 75.2621Z" fill="#E9EDF7"/>
<path d="M427.595 85.0156H425.013L423.809 86.5692L425.013 88.0365H427.595L428.886 86.5692L427.595 85.0156Z" fill="#CED3F8"/>
<path d="M634.812 78.8897V93.8212C634.812 94.598 635.587 95.0295 636.275 94.6843L649.183 87.1754C649.786 86.8301 649.786 85.8807 649.183 85.5355L636.275 78.0266C635.673 77.6813 634.812 78.1129 634.812 78.8897Z" fill="url(#paint5_linear_1782_1347)"/>
</g>
<defs>
<linearGradient id="paint0_linear_1782_1347" x1="612.814" y1="449.08" x2="612.814" y2="355.494" gradientUnits="userSpaceOnUse">
<stop stop-color="#423EAF"/>
<stop offset="1" stop-color="#20196F"/>
</linearGradient>
<linearGradient id="paint1_linear_1782_1347" x1="598.25" y1="359.277" x2="639.551" y2="311.288" gradientUnits="userSpaceOnUse">
<stop stop-color="#DDE2F8"/>
<stop offset="0.3973" stop-color="#E2E6F9"/>
<stop offset="0.8886" stop-color="#F1F2FA"/>
<stop offset="1" stop-color="#F6F6FB"/>
</linearGradient>
<linearGradient id="paint2_linear_1782_1347" x1="506.252" y1="395.087" x2="568.919" y2="395.087" gradientUnits="userSpaceOnUse">
<stop stop-color="#362E94"/>
<stop offset="0.761" stop-color="#4E49BE"/>
<stop offset="1" stop-color="#5652CC"/>
</linearGradient>
<linearGradient id="paint3_linear_1782_1347" x1="340.376" y1="278.078" x2="483.544" y2="278.078" gradientUnits="userSpaceOnUse">
<stop stop-color="#807DFB"/>
<stop offset="1" stop-color="#423EAF"/>
</linearGradient>
<linearGradient id="paint4_linear_1782_1347" x1="394.202" y1="119.513" x2="458.307" y2="119.513" gradientUnits="userSpaceOnUse">
<stop stop-color="#5652CC"/>
<stop offset="1" stop-color="#423EAF"/>
</linearGradient>
<linearGradient id="paint5_linear_1782_1347" x1="644.326" y1="92.1459" x2="632.736" y2="80.5908" gradientUnits="userSpaceOnUse">
<stop stop-color="#5652CC"/>
<stop offset="1" stop-color="#807DFB"/>
</linearGradient>
<clipPath id="clip0_1782_1347">
<rect width="675" height="464" fill="white"/>
</clipPath>
</defs>
</svg>
