<svg width="64" height="86" viewBox="0 0 64 86" fill="none" xmlns="http://www.w3.org/2000/svg">
<path d="M27.2003 85.9629C26.3462 85.7477 25.487 85.5543 24.6412 85.3105C20.5925 84.1335 17.386 81.7981 15.1162 78.2335C10.452 70.9094 5.80014 63.5757 1.16063 56.2325C-0.312273 53.9021 -0.392977 51.4692 0.973993 49.0917C2.34096 46.7142 4.48137 45.6095 7.19514 45.7289C8.23576 45.7505 9.25517 46.0272 10.1639 46.5347C11.0727 47.0421 11.8431 47.7648 12.4074 48.6394C14.8825 52.2914 17.3485 55.9501 19.8056 59.6155C19.9283 59.7971 20.0628 59.9736 20.3302 60.3486V59.296C20.3302 44.9594 20.3302 30.6216 20.3302 16.2827C20.3302 13.0662 22.7598 10.7173 25.9325 10.8165C28.7674 10.9039 31.0087 13.2982 31.0221 16.318C31.044 20.9301 31.0221 25.5421 31.0221 30.1525V31.0689C31.6039 29.6935 32.4076 28.5148 33.7443 27.7985C35.081 27.0823 36.4698 26.8486 37.9309 27.395C37.9309 46.9182 37.9309 66.4408 37.9309 85.9629H27.2003Z" fill="#88A3FA"/>
<path d="M37.9258 85.9634C37.9258 66.4402 37.9258 46.9176 37.9258 27.3955C40.088 27.8848 41.6887 30.0454 41.7392 32.5725C41.761 33.657 41.7392 34.7415 41.7997 35.8495C42.3041 34.7802 42.8724 33.7932 43.856 33.1089C45.5778 31.9084 47.4223 31.7083 49.3038 32.591C51.1533 33.4586 52.2176 34.9618 52.3504 37.04C52.4076 37.9563 52.379 38.8794 52.3925 39.8008C52.3925 40.0463 52.3269 40.3725 52.6111 40.4599C52.9473 40.5641 52.9591 40.1808 53.0768 39.9925C54.2538 38.0858 56.4514 37.0097 58.4573 37.3645C60.8112 37.7815 62.5195 39.3922 62.997 41.684C63.046 42.0148 63.0746 42.3484 63.0828 42.6827C63.0744 45.5243 63.0559 48.3675 63.0575 51.209C63.0575 56.8137 63.066 62.4183 63.0828 68.0229C63.0105 68.7997 63.0189 69.5765 62.9146 70.3567C62.4542 73.8479 60.9771 77.1266 58.6673 79.7847C56.3576 82.4428 53.317 84.3629 49.9242 85.3059C49.0011 85.5598 48.0629 85.7498 47.1314 85.9785L37.9258 85.9634Z" fill="#6B85DA"/>
<path d="M14.7952 15.475C14.6791 16.7125 14.5614 17.9063 14.4589 19.1034C14.4353 19.3943 14.363 19.5877 14.02 19.5557C11.9631 19.3708 9.90678 19.1886 7.851 19.0093C7.55508 18.9824 7.49286 18.8193 7.51472 18.5502C7.6526 17.1614 7.79048 15.7726 7.90313 14.3804C7.93172 14.0323 8.09481 13.9668 8.38906 13.9937C10.3899 14.1786 12.3908 14.3535 14.3916 14.5401C15.1331 14.6091 14.6859 15.179 14.7952 15.475Z" fill="#2D4898"/>
<path d="M37.2635 15.814C37.2546 15.6197 37.231 15.4263 37.1929 15.2356C37.0517 14.7144 37.2669 14.553 37.7713 14.5126C39.6208 14.3646 41.4872 14.1982 43.3401 14.0082C43.9084 13.9493 44.1202 14.0939 44.1488 14.6942C44.2093 15.9182 44.3573 17.1356 44.47 18.3563C44.5036 18.7094 44.5238 18.9952 44.0109 19.0288C42.1244 19.1751 40.2396 19.3365 38.3598 19.55C37.7158 19.624 37.5494 19.4038 37.5191 18.8102C37.467 17.8115 37.3392 16.8144 37.2433 15.8174L37.2635 15.814Z" fill="#2D4898"/>
<path d="M15.6212 3.02148C15.6983 3.17083 15.7883 3.31316 15.8902 3.44687C17.2017 4.89623 18.5182 6.34167 19.8398 7.78318C20.0836 8.04884 20.1844 8.22371 19.8398 8.51795C18.8309 9.39732 17.8322 10.2985 16.8637 11.2233C16.5123 11.5596 16.3307 11.4385 16.0651 11.1426C14.7771 9.70837 13.4723 8.28423 12.176 6.86346C11.9978 6.66505 11.7338 6.47506 12.0667 6.17409C13.1226 5.21738 14.1701 4.25058 15.2227 3.2905C15.3506 3.19381 15.4836 3.10401 15.6212 3.02148Z" fill="#2D4898"/>
<path d="M36.5038 3.09082C36.6332 3.1917 36.7476 3.27073 36.8501 3.3632C37.8388 4.26275 38.814 5.17742 39.8194 6.05343C40.1658 6.35776 40.1103 6.55785 39.8194 6.85546C38.4945 8.28576 37.1836 9.72951 35.8867 11.1867C35.5773 11.5364 35.3823 11.4726 35.0897 11.1867C34.138 10.29 33.1724 9.40612 32.1927 8.53516C31.9203 8.29136 31.8245 8.12491 32.1237 7.80376C33.4924 6.33759 34.8341 4.84788 36.1876 3.36657C36.2869 3.27914 36.3928 3.19339 36.5038 3.09082Z" fill="#2D4898"/>
<path d="M26.042 0.101386C26.8709 0.101386 27.9235 -0.187819 28.4632 0.21067C29.0029 0.60916 28.6313 1.72392 28.6162 2.51249C28.591 3.99884 28.7709 5.49192 28.5153 6.97323C27.8074 7.00517 27.0945 6.87402 26.3934 7.05225L26.0571 7.00686C26.0493 4.70559 26.0442 2.40377 26.042 0.101386Z" fill="#2D4898"/>
<path d="M26.0415 0.101464C26.0415 2.40273 26.0415 4.70455 26.0415 7.00694C23.5345 7.20702 23.5345 7.20702 23.5345 4.72529C23.5345 3.4138 23.5664 2.10232 23.5211 0.792513C23.4992 0.187212 23.7111 0.0157074 24.2794 0.0644677C24.8477 0.113228 25.4563 0.0913753 26.0415 0.101464Z" fill="#2D4898"/>
<path d="M26.3936 7.0529C27.0947 6.87467 27.8076 7.00582 28.5155 6.97388C27.816 7.21936 27.1014 7.06971 26.3936 7.0529Z" fill="#05FBFE"/>
</svg>
