<svg width="343" height="348" viewBox="0 0 343 348" fill="none" xmlns="http://www.w3.org/2000/svg">
<g clip-path="url(#clip0_150_5440)">
<path d="M329.943 169.124C323.914 132.59 308.148 98.3008 284.034 70.2038C269.968 53.872 251.651 36.0695 229.624 21.9823C174.132 -13.3905 105.346 -3.32819 76.7501 32.2768C48.1539 67.8818 -3.62841 226.556 0.235947 268.353C4.1003 310.15 116.939 348.078 190.362 338.789C263.785 329.501 326.387 282.286 332.57 230.426C334.966 210.147 333.111 188.242 329.943 169.124Z" fill="url(#paint0_linear_150_5440)"/>
<path d="M327.156 338.016H336.431" stroke="#263238" stroke-miterlimit="10" stroke-linecap="round" stroke-linejoin="round"/>
<path d="M122.344 338.016H320.972" stroke="#263238" stroke-miterlimit="10" stroke-linecap="round" stroke-linejoin="round"/>
<path d="M19.5547 338.016H115.391" stroke="#263238" stroke-miterlimit="10" stroke-linecap="round" stroke-linejoin="round"/>
<path d="M332.096 264.561C332.096 264.561 332.637 262.549 332.637 262.394C332.869 260.846 332.328 257.75 330.782 256.976C329.622 256.434 328.386 257.053 327.999 258.214C327.613 259.375 328.077 260.768 328.772 261.775C329.468 262.936 332.096 264.561 332.096 264.561Z" fill="#263238"/>
<path d="M301.108 263.862C302.345 264.404 305.436 264.327 305.436 264.327C305.436 264.327 304.74 262.314 304.74 262.159C304.045 260.766 301.958 258.444 300.181 258.676C298.944 258.831 298.248 260.07 298.558 261.308C298.789 262.546 300.026 263.398 301.108 263.862Z" fill="#263238"/>
<path d="M341.218 253.413C339.518 253.258 337.431 255.581 336.813 257.051C336.736 257.206 336.117 259.218 336.117 259.218C335.808 259.605 335.422 259.992 335.035 260.457C334.34 261.308 333.567 262.237 332.871 263.321C332.099 264.404 331.326 265.643 330.63 266.959C329.934 268.274 329.239 269.745 328.698 271.371C328.698 271.371 328.698 271.371 328.698 271.448C328.698 270.906 328.698 269.513 328.698 269.358C328.466 267.81 327.229 264.946 325.452 264.637C324.215 264.404 323.133 265.411 323.056 266.572C322.979 267.81 323.829 269.049 324.679 269.823C325.684 270.674 328.389 271.525 328.621 271.603C328.157 273.151 327.77 274.699 327.461 276.324C327.307 277.253 327.152 278.182 326.998 279.188C326.998 278.724 326.998 278.337 326.998 278.259C326.766 276.711 325.529 273.847 323.752 273.538C322.515 273.306 321.433 274.312 321.356 275.473C321.278 276.711 322.128 277.95 322.979 278.724C323.829 279.498 326.147 280.272 326.766 280.504C326.688 280.891 326.688 281.201 326.611 281.588C326.379 283.368 326.225 285.071 325.916 286.774C325.838 287.393 325.684 287.935 325.606 288.554C325.606 288.167 325.606 287.857 325.606 287.78C325.375 286.232 324.138 283.368 322.36 283.058C321.124 282.826 320.042 283.832 319.964 284.993C319.887 286.232 320.737 287.47 321.587 288.244C322.438 289.018 324.524 289.715 325.297 289.947C325.143 290.566 325.065 291.186 324.911 291.727C324.834 292.114 324.756 292.501 324.602 292.888C324.447 293.275 324.37 293.662 324.215 294.049C323.983 294.746 323.674 295.52 323.442 296.217C323.288 296.681 323.056 297.145 322.901 297.61C322.979 296.991 323.133 295.83 323.133 295.752C323.133 294.746 322.824 293.043 322.051 291.805C322.051 291.65 322.051 291.495 322.051 291.34C321.897 290.179 320.737 289.25 319.501 289.56C317.8 290.024 316.718 292.966 316.641 294.514C316.641 294.591 316.718 295.597 316.718 296.217C316.641 295.83 316.564 295.52 316.487 295.133C316.332 294.359 316.1 293.662 315.868 292.811C315.791 292.424 315.636 292.037 315.482 291.65C315.405 291.263 315.173 290.876 315.095 290.489C314.786 289.56 314.4 288.631 313.936 287.78C314.554 287.625 316.873 287.006 317.8 286.309C318.728 285.613 319.733 284.452 319.733 283.213C319.733 281.975 318.728 280.968 317.491 281.123C315.791 281.278 314.245 284.065 313.936 285.613C313.936 285.69 313.781 286.851 313.781 287.47C313.55 286.928 313.318 286.387 313.009 285.845C312.236 284.297 311.386 282.749 310.535 281.123C310.304 280.659 310.072 280.194 309.763 279.653C309.994 279.575 312.777 278.956 313.781 278.182C314.709 277.485 315.714 276.324 315.714 275.086C315.714 273.847 314.709 272.841 313.472 272.996C311.772 273.151 310.226 275.937 309.917 277.485C309.917 277.563 309.763 279.188 309.763 279.653C309.222 278.569 308.681 277.563 308.217 276.479C307.521 275.008 306.98 273.538 306.516 272.067C306.594 272.067 309.531 271.371 310.613 270.597C311.54 269.9 312.545 268.739 312.545 267.5C312.545 266.262 311.54 265.256 310.304 265.411C308.603 265.565 307.057 268.352 306.748 269.9C306.748 269.977 306.594 271.216 306.594 271.835C306.517 271.835 306.516 271.835 306.516 271.835C306.053 270.287 305.821 268.662 305.666 267.191C305.589 266.339 305.512 265.488 305.512 264.637C306.053 264.559 308.603 264.25 309.608 263.63C310.613 263.011 311.695 262.005 311.849 260.766C312.004 259.528 311.154 258.444 309.84 258.444C308.062 258.444 306.285 260.999 305.821 262.547C305.821 262.624 305.589 263.476 305.512 264.095C305.512 263.708 305.512 263.321 305.512 263.011C305.512 261.695 305.589 260.457 305.666 259.373C305.744 258.754 305.744 258.212 305.821 257.67C306.362 257.361 308.371 255.89 308.99 254.884C309.608 253.878 310.072 252.484 309.608 251.323C309.144 250.162 307.908 249.543 306.748 250.162C305.203 250.936 304.816 254.11 305.048 255.658C305.048 255.813 305.666 257.825 305.666 257.825C305.589 258.29 305.512 258.831 305.434 259.451C305.357 260.534 305.203 261.773 305.203 263.089C305.203 264.404 305.203 265.875 305.28 267.346C305.434 268.894 305.666 270.442 306.053 272.067C306.053 272.067 306.053 272.067 306.053 272.145C305.744 271.68 304.971 270.519 304.893 270.442C303.889 269.281 301.184 267.578 299.561 268.274C298.401 268.739 298.092 270.132 298.633 271.216C299.252 272.299 300.643 272.841 301.802 272.996C303.116 273.151 305.821 272.377 306.053 272.299C306.516 273.847 307.058 275.395 307.676 276.866C308.062 277.718 308.449 278.569 308.912 279.498C308.681 279.111 308.449 278.801 308.371 278.801C307.367 277.64 304.662 275.937 303.039 276.634C301.879 277.098 301.57 278.492 302.111 279.575C302.729 280.659 304.121 281.201 305.28 281.355C306.439 281.51 308.835 280.891 309.453 280.736C309.608 281.046 309.763 281.433 309.917 281.742C310.69 283.291 311.54 284.916 312.236 286.464C312.468 287.006 312.699 287.548 312.931 288.089C312.699 287.78 312.545 287.47 312.468 287.47C311.463 286.309 308.758 284.606 307.135 285.303C305.975 285.767 305.666 287.161 306.207 288.244C306.826 289.328 308.217 289.87 309.376 290.025C310.458 290.179 312.699 289.637 313.395 289.405C313.627 289.947 313.859 290.566 314.013 291.108C314.168 291.495 314.245 291.882 314.4 292.269C314.477 292.656 314.632 293.043 314.709 293.43C314.864 294.204 315.095 294.978 315.25 295.675C315.327 296.217 315.482 296.681 315.559 297.145C315.327 296.604 314.786 295.52 314.709 295.443C313.859 294.127 311.463 292.037 309.84 292.501C308.603 292.811 308.062 294.127 308.526 295.288C308.912 296.449 310.304 297.223 311.386 297.532C312.622 297.92 315.327 297.532 315.636 297.532C315.791 298.384 315.946 299.158 316.1 299.855C316.564 302.486 316.873 304.653 317.028 306.124C317.028 306.434 317.105 306.666 317.105 306.898H311.849L313.472 338.246H323.056L324.679 306.898H319.81C319.81 306.821 319.887 306.743 319.887 306.666C320.583 305.273 321.51 303.26 322.515 300.783C322.824 300.009 323.133 299.158 323.52 298.307C323.829 298.384 326.534 298.926 327.77 298.616C328.93 298.384 330.321 297.687 330.785 296.604C331.248 295.52 330.862 294.127 329.625 293.74C328.002 293.198 325.452 295.056 324.524 296.294C324.447 296.371 323.983 297.223 323.674 297.765C323.829 297.378 323.906 297.068 324.061 296.681C324.293 295.984 324.602 295.21 324.834 294.436C324.911 294.049 325.065 293.662 325.143 293.275C325.297 292.888 325.375 292.501 325.452 292.037C325.684 291.108 325.838 290.102 325.993 289.173C326.611 289.405 328.852 290.179 330.012 290.102C331.171 290.024 332.64 289.56 333.335 288.554C334.031 287.548 333.722 286.154 332.64 285.535C331.094 284.761 328.311 286.232 327.229 287.315C327.152 287.393 326.457 288.244 326.07 288.786C326.147 288.167 326.225 287.625 326.302 287.006C326.534 285.303 326.688 283.523 326.843 281.742C326.92 281.201 326.92 280.659 326.998 280.117C327.229 280.194 329.857 281.201 331.171 281.123C332.33 281.046 333.799 280.581 334.494 279.575C335.19 278.569 334.881 277.176 333.799 276.557C332.253 275.782 329.471 277.253 328.389 278.337C328.311 278.414 327.307 279.653 327.075 280.04C327.229 278.879 327.307 277.718 327.539 276.557C327.77 274.931 328.08 273.383 328.543 271.912C328.621 271.99 331.403 272.996 332.794 272.919C333.953 272.841 335.422 272.377 336.117 271.371C336.813 270.364 336.504 268.971 335.422 268.352C333.876 267.578 331.094 269.049 330.012 270.132C329.934 270.21 329.162 271.138 328.775 271.603C328.698 271.603 328.698 271.603 328.698 271.525C329.162 269.977 329.857 268.507 330.553 267.113C330.939 266.339 331.403 265.643 331.789 264.946C332.253 265.178 334.572 266.339 335.808 266.339C336.968 266.417 338.436 266.107 339.286 265.178C340.059 264.25 339.982 262.779 338.9 262.082C337.431 261.076 334.494 262.315 333.258 263.243C333.181 263.321 332.562 263.94 332.099 264.327C332.33 264.017 332.485 263.708 332.717 263.398C333.412 262.315 334.185 261.308 334.881 260.457C335.267 259.992 335.576 259.528 335.963 259.141C336.581 259.141 339.054 259.064 340.136 258.522C341.218 258.057 342.378 257.129 342.687 255.89C343.228 254.807 342.532 253.568 341.218 253.413ZM321.974 300.164C320.892 302.564 319.964 304.576 319.269 305.969C319.114 306.279 319.037 306.511 318.882 306.743H318.728C318.728 306.511 318.651 306.202 318.573 305.892C318.341 304.344 318.032 302.177 317.491 299.545C317.337 298.694 317.105 297.842 316.95 296.913C317.182 296.836 318.341 296.371 319.346 295.752C320.274 296.758 322.515 297.842 322.824 297.997C322.592 298.694 322.283 299.468 321.974 300.164Z" fill="#263238"/>
<path opacity="0.3" d="M301.108 263.862C302.345 264.404 305.436 264.327 305.436 264.327C305.436 264.327 304.74 262.314 304.74 262.159C304.045 260.766 301.958 258.444 300.181 258.676C298.944 258.831 298.248 260.07 298.558 261.308C298.789 262.546 300.026 263.398 301.108 263.862Z" fill="#263238"/>
<path opacity="0.3" d="M332.096 264.561C332.096 264.561 332.637 262.549 332.637 262.394C332.869 260.846 332.328 257.75 330.782 256.976C329.622 256.434 328.386 257.053 327.999 258.214C327.613 259.375 328.077 260.768 328.772 261.775C329.468 262.936 332.096 264.561 332.096 264.561Z" fill="#263238"/>
<path opacity="0.3" d="M341.218 253.413C339.518 253.258 337.431 255.581 336.813 257.051C336.736 257.206 336.117 259.218 336.117 259.218C335.808 259.605 335.422 259.992 335.035 260.457C334.34 261.308 333.567 262.237 332.871 263.321C332.099 264.404 331.326 265.643 330.63 266.959C329.934 268.274 329.239 269.745 328.698 271.371C328.698 271.371 328.698 271.371 328.698 271.448C328.698 270.906 328.698 269.513 328.698 269.358C328.466 267.81 327.229 264.946 325.452 264.637C324.215 264.404 323.133 265.411 323.056 266.572C322.979 267.81 323.829 269.049 324.679 269.823C325.684 270.674 328.389 271.525 328.621 271.603C328.157 273.151 327.77 274.699 327.461 276.324C327.307 277.253 327.152 278.182 326.998 279.188C326.998 278.724 326.998 278.337 326.998 278.259C326.766 276.711 325.529 273.847 323.752 273.538C322.515 273.306 321.433 274.312 321.356 275.473C321.278 276.711 322.128 277.95 322.979 278.724C323.829 279.498 326.147 280.272 326.766 280.504C326.688 280.891 326.688 281.201 326.611 281.588C326.379 283.368 326.225 285.071 325.916 286.774C325.838 287.393 325.684 287.935 325.606 288.554C325.606 288.167 325.606 287.857 325.606 287.78C325.375 286.232 324.138 283.368 322.36 283.058C321.124 282.826 320.042 283.832 319.964 284.993C319.887 286.232 320.737 287.47 321.587 288.244C322.438 289.018 324.524 289.715 325.297 289.947C325.143 290.566 325.065 291.186 324.911 291.727C324.834 292.114 324.756 292.501 324.602 292.888C324.447 293.275 324.37 293.662 324.215 294.049C323.983 294.746 323.674 295.52 323.442 296.217C323.288 296.681 323.056 297.145 322.901 297.61C322.979 296.991 323.133 295.83 323.133 295.752C323.133 294.746 322.824 293.043 322.051 291.805C322.051 291.65 322.051 291.495 322.051 291.34C321.897 290.179 320.737 289.25 319.501 289.56C317.8 290.024 316.718 292.966 316.641 294.514C316.641 294.591 316.718 295.597 316.718 296.217C316.641 295.83 316.564 295.52 316.487 295.133C316.332 294.359 316.1 293.662 315.868 292.811C315.791 292.424 315.636 292.037 315.482 291.65C315.405 291.263 315.173 290.876 315.095 290.489C314.786 289.56 314.4 288.631 313.936 287.78C314.554 287.625 316.873 287.006 317.8 286.309C318.728 285.613 319.733 284.452 319.733 283.213C319.733 281.975 318.728 280.968 317.491 281.123C315.791 281.278 314.245 284.065 313.936 285.613C313.936 285.69 313.781 286.851 313.781 287.47C313.55 286.928 313.318 286.387 313.009 285.845C312.236 284.297 311.386 282.749 310.535 281.123C310.304 280.659 310.072 280.194 309.763 279.653C309.994 279.575 312.777 278.956 313.781 278.182C314.709 277.485 315.714 276.324 315.714 275.086C315.714 273.847 314.709 272.841 313.472 272.996C311.772 273.151 310.226 275.937 309.917 277.485C309.917 277.563 309.763 279.188 309.763 279.653C309.222 278.569 308.681 277.563 308.217 276.479C307.521 275.008 306.98 273.538 306.516 272.067C306.594 272.067 309.531 271.371 310.613 270.597C311.54 269.9 312.545 268.739 312.545 267.5C312.545 266.262 311.54 265.256 310.304 265.411C308.603 265.565 307.057 268.352 306.748 269.9C306.748 269.977 306.594 271.216 306.594 271.835C306.517 271.835 306.516 271.835 306.516 271.835C306.053 270.287 305.821 268.662 305.666 267.191C305.589 266.339 305.512 265.488 305.512 264.637C306.053 264.559 308.603 264.25 309.608 263.63C310.613 263.011 311.695 262.005 311.849 260.766C312.004 259.528 311.154 258.444 309.84 258.444C308.062 258.444 306.285 260.999 305.821 262.547C305.821 262.624 305.589 263.476 305.512 264.095C305.512 263.708 305.512 263.321 305.512 263.011C305.512 261.695 305.589 260.457 305.666 259.373C305.744 258.754 305.744 258.212 305.821 257.67C306.362 257.361 308.371 255.89 308.99 254.884C309.608 253.878 310.072 252.484 309.608 251.323C309.144 250.162 307.908 249.543 306.748 250.162C305.203 250.936 304.816 254.11 305.048 255.658C305.048 255.813 305.666 257.825 305.666 257.825C305.589 258.29 305.512 258.831 305.434 259.451C305.357 260.534 305.203 261.773 305.203 263.089C305.203 264.404 305.203 265.875 305.28 267.346C305.434 268.894 305.666 270.442 306.053 272.067C306.053 272.067 306.053 272.067 306.053 272.145C305.744 271.68 304.971 270.519 304.893 270.442C303.889 269.281 301.184 267.578 299.561 268.274C298.401 268.739 298.092 270.132 298.633 271.216C299.252 272.299 300.643 272.841 301.802 272.996C303.116 273.151 305.821 272.377 306.053 272.299C306.516 273.847 307.058 275.395 307.676 276.866C308.062 277.718 308.449 278.569 308.912 279.498C308.681 279.111 308.449 278.801 308.371 278.801C307.367 277.64 304.662 275.937 303.039 276.634C301.879 277.098 301.57 278.492 302.111 279.575C302.729 280.659 304.121 281.201 305.28 281.355C306.439 281.51 308.835 280.891 309.453 280.736C309.608 281.046 309.763 281.433 309.917 281.742C310.69 283.291 311.54 284.916 312.236 286.464C312.468 287.006 312.699 287.548 312.931 288.089C312.699 287.78 312.545 287.47 312.468 287.47C311.463 286.309 308.758 284.606 307.135 285.303C305.975 285.767 305.666 287.161 306.207 288.244C306.826 289.328 308.217 289.87 309.376 290.025C310.458 290.179 312.699 289.637 313.395 289.405C313.627 289.947 313.859 290.566 314.013 291.108C314.168 291.495 314.245 291.882 314.4 292.269C314.477 292.656 314.632 293.043 314.709 293.43C314.864 294.204 315.095 294.978 315.25 295.675C315.327 296.217 315.482 296.681 315.559 297.145C315.327 296.604 314.786 295.52 314.709 295.443C313.859 294.127 311.463 292.037 309.84 292.501C308.603 292.811 308.062 294.127 308.526 295.288C308.912 296.449 310.304 297.223 311.386 297.532C312.622 297.92 315.327 297.532 315.636 297.532C315.791 298.384 315.946 299.158 316.1 299.855C316.564 302.486 316.873 304.653 317.028 306.124C317.028 306.434 317.105 306.666 317.105 306.898H311.849L313.472 338.246H323.056L324.679 306.898H319.81C319.81 306.821 319.887 306.743 319.887 306.666C320.583 305.273 321.51 303.26 322.515 300.783C322.824 300.009 323.133 299.158 323.52 298.307C323.829 298.384 326.534 298.926 327.77 298.616C328.93 298.384 330.321 297.687 330.785 296.604C331.248 295.52 330.862 294.127 329.625 293.74C328.002 293.198 325.452 295.056 324.524 296.294C324.447 296.371 323.983 297.223 323.674 297.765C323.829 297.378 323.906 297.068 324.061 296.681C324.293 295.984 324.602 295.21 324.834 294.436C324.911 294.049 325.065 293.662 325.143 293.275C325.297 292.888 325.375 292.501 325.452 292.037C325.684 291.108 325.838 290.102 325.993 289.173C326.611 289.405 328.852 290.179 330.012 290.102C331.171 290.024 332.64 289.56 333.335 288.554C334.031 287.548 333.722 286.154 332.64 285.535C331.094 284.761 328.311 286.232 327.229 287.315C327.152 287.393 326.457 288.244 326.07 288.786C326.147 288.167 326.225 287.625 326.302 287.006C326.534 285.303 326.688 283.523 326.843 281.742C326.92 281.201 326.92 280.659 326.998 280.117C327.229 280.194 329.857 281.201 331.171 281.123C332.33 281.046 333.799 280.581 334.494 279.575C335.19 278.569 334.881 277.176 333.799 276.557C332.253 275.782 329.471 277.253 328.389 278.337C328.311 278.414 327.307 279.653 327.075 280.04C327.229 278.879 327.307 277.718 327.539 276.557C327.77 274.931 328.08 273.383 328.543 271.912C328.621 271.99 331.403 272.996 332.794 272.919C333.953 272.841 335.422 272.377 336.117 271.371C336.813 270.364 336.504 268.971 335.422 268.352C333.876 267.578 331.094 269.049 330.012 270.132C329.934 270.21 329.162 271.138 328.775 271.603C328.698 271.603 328.698 271.603 328.698 271.525C329.162 269.977 329.857 268.507 330.553 267.113C330.939 266.339 331.403 265.643 331.789 264.946C332.253 265.178 334.572 266.339 335.808 266.339C336.968 266.417 338.436 266.107 339.286 265.178C340.059 264.25 339.982 262.779 338.9 262.082C337.431 261.076 334.494 262.315 333.258 263.243C333.181 263.321 332.562 263.94 332.099 264.327C332.33 264.017 332.485 263.708 332.717 263.398C333.412 262.315 334.185 261.308 334.881 260.457C335.267 259.992 335.576 259.528 335.963 259.141C336.581 259.141 339.054 259.064 340.136 258.522C341.218 258.057 342.378 257.129 342.687 255.89C343.228 254.807 342.532 253.568 341.218 253.413ZM321.974 300.164C320.892 302.564 319.964 304.576 319.269 305.969C319.114 306.279 319.037 306.511 318.882 306.743H318.728C318.728 306.511 318.651 306.202 318.573 305.892C318.341 304.344 318.032 302.177 317.491 299.545C317.337 298.694 317.105 297.842 316.95 296.913C317.182 296.836 318.341 296.371 319.346 295.752C320.274 296.758 322.515 297.842 322.824 297.997C322.592 298.694 322.283 299.468 321.974 300.164Z" fill="#263238"/>
<path d="M118.48 222.685V288.399C118.48 292.037 115.543 294.978 111.911 294.978H80.6866C77.0541 294.978 74.1172 292.037 74.1172 288.399V222.685C74.1172 219.047 77.0541 216.105 80.6866 216.105H93.7481V216.183C94.1345 217.576 94.9847 218.505 95.9894 218.505H96.5304C97.5352 218.505 98.3853 217.576 98.7718 216.183V216.105H111.833C115.543 216.105 118.48 219.047 118.48 222.685Z" stroke="#263238" stroke-miterlimit="10" stroke-linecap="round" stroke-linejoin="round"/>
<path d="M113.068 226.555H77.5156V229.651H113.068V226.555Z" stroke="#263238" stroke-miterlimit="10" stroke-linecap="round" stroke-linejoin="round"/>
<path d="M113.068 235.07H77.5156V238.166H113.068V235.07Z" stroke="#263238" stroke-miterlimit="10" stroke-linecap="round" stroke-linejoin="round"/>
<path d="M113.068 243.582H77.5156V246.678H113.068V243.582Z" stroke="#263238" stroke-miterlimit="10" stroke-linecap="round" stroke-linejoin="round"/>
<path d="M113.068 260.613H77.5156V263.709H113.068V260.613Z" stroke="#263238" stroke-miterlimit="10" stroke-linecap="round" stroke-linejoin="round"/>
<path d="M113.068 269.125H77.5156V272.221H113.068V269.125Z" stroke="#263238" stroke-miterlimit="10" stroke-linecap="round" stroke-linejoin="round"/>
<path d="M113.068 277.641H77.5156V280.737H113.068V277.641Z" stroke="#263238" stroke-miterlimit="10" stroke-linecap="round" stroke-linejoin="round"/>
<path d="M300.878 29.1807V94.8951C300.878 98.533 297.941 101.474 294.309 101.474H263.085C259.453 101.474 256.516 98.533 256.516 94.8951V29.1807C256.516 25.5428 259.453 22.6016 263.085 22.6016H276.147V22.679C276.533 24.0722 277.383 25.001 278.388 25.001H278.929C279.934 25.001 280.784 24.0722 281.17 22.679V22.6016H294.232C297.942 22.6016 300.878 25.5428 300.878 29.1807Z" stroke="#263238" stroke-miterlimit="10" stroke-linecap="round" stroke-linejoin="round"/>
<path d="M296.782 69.8164H260.844V94.1981H296.782V69.8164Z" stroke="#263238" stroke-miterlimit="10" stroke-linecap="round" stroke-linejoin="round"/>
<path d="M260.844 94.1981L296.782 69.8164" stroke="#263238" stroke-miterlimit="10" stroke-linecap="round" stroke-linejoin="round"/>
<path d="M296.782 94.1981L260.844 69.8164" stroke="#263238" stroke-miterlimit="10" stroke-linecap="round" stroke-linejoin="round"/>
<path d="M296.782 57.3555H260.844V63.5476H296.782V57.3555Z" stroke="#263238" stroke-miterlimit="10" stroke-linecap="round" stroke-linejoin="round"/>
<path d="M260.844 63.625L296.782 57.3555" stroke="#263238" stroke-miterlimit="10" stroke-linecap="round" stroke-linejoin="round"/>
<path d="M296.782 63.625L260.844 57.3555" stroke="#263238" stroke-miterlimit="10" stroke-linecap="round" stroke-linejoin="round"/>
<path d="M296.782 45.5898H260.844V51.782H296.782V45.5898Z" stroke="#263238" stroke-miterlimit="10" stroke-linecap="round" stroke-linejoin="round"/>
<path d="M260.844 51.782L296.782 45.5898" stroke="#263238" stroke-miterlimit="10" stroke-linecap="round" stroke-linejoin="round"/>
<path d="M296.782 51.782L260.844 45.5898" stroke="#263238" stroke-miterlimit="10" stroke-linecap="round" stroke-linejoin="round"/>
<path d="M296.782 33.8242H260.844V40.0164H296.782V33.8242Z" stroke="#263238" stroke-miterlimit="10" stroke-linecap="round" stroke-linejoin="round"/>
<path d="M260.844 40.0164L296.782 33.8242" stroke="#263238" stroke-miterlimit="10" stroke-linecap="round" stroke-linejoin="round"/>
<path d="M296.782 40.0164L260.844 33.8242" stroke="#263238" stroke-miterlimit="10" stroke-linecap="round" stroke-linejoin="round"/>
<path d="M311.158 79.1028C315.042 79.1028 318.191 75.9493 318.191 72.0592C318.191 68.1691 315.042 65.0156 311.158 65.0156C307.274 65.0156 304.125 68.1691 304.125 72.0592C304.125 75.9493 307.274 79.1028 311.158 79.1028Z" stroke="#263238" stroke-miterlimit="10" stroke-linecap="round" stroke-linejoin="round"/>
<path d="M307.602 70.1261L311.079 74.0736L319.426 63.5469" stroke="#263238" stroke-miterlimit="10" stroke-linecap="round" stroke-linejoin="round"/>
<path d="M63.0659 39.2432V104.958C63.0659 108.596 60.129 111.537 56.4965 111.537H25.2725C21.64 111.537 18.7031 108.596 18.7031 104.958V39.2432C18.7031 35.6053 21.64 32.6641 25.2725 32.6641H38.334V32.7415C38.7205 34.1347 39.5706 35.0635 40.5754 35.0635H41.1164C42.1211 35.0635 42.9713 34.1347 43.3577 32.7415V32.6641H56.4192C60.129 32.6641 63.0659 35.6053 63.0659 39.2432Z" stroke="#263238" stroke-miterlimit="10" stroke-linecap="round" stroke-linejoin="round"/>
<path d="M51.7029 51.6289H30.0625V71.7535H51.7029V51.6289Z" stroke="#263238" stroke-miterlimit="10" stroke-linecap="round" stroke-linejoin="round"/>
<path d="M56.4974 88.3945H25.2734V100.082H56.4974V88.3945Z" stroke="#263238" stroke-miterlimit="10" stroke-linecap="round" stroke-linejoin="round"/>
<path d="M37.404 78.8723C37.404 79.7237 36.7084 80.4203 35.8582 80.4203C35.0081 80.4203 34.3125 79.7237 34.3125 78.8723C34.3125 78.0208 35.0081 77.3242 35.8582 77.3242C36.7084 77.3242 37.404 78.0208 37.404 78.8723Z" stroke="#263238" stroke-miterlimit="10" stroke-linecap="round" stroke-linejoin="round"/>
<path d="M42.4274 78.8723C42.4274 79.7237 41.7318 80.4203 40.8817 80.4203C40.0315 80.4203 39.3359 79.7237 39.3359 78.8723C39.3359 78.0208 40.0315 77.3242 40.8817 77.3242C41.7318 77.3242 42.4274 78.0208 42.4274 78.8723Z" stroke="#263238" stroke-miterlimit="10" stroke-linecap="round" stroke-linejoin="round"/>
<path d="M45.827 80.4203C46.6807 80.4203 47.3727 79.7272 47.3727 78.8723C47.3727 78.0173 46.6807 77.3242 45.827 77.3242C44.9733 77.3242 44.2812 78.0173 44.2812 78.8723C44.2812 79.7272 44.9733 80.4203 45.827 80.4203Z" stroke="#263238" stroke-miterlimit="10" stroke-linecap="round" stroke-linejoin="round"/>
<path d="M19.0156 42.4922H62.6055" stroke="#263238" stroke-miterlimit="10" stroke-linecap="round" stroke-linejoin="round"/>
<path d="M166.941 308.216C173.941 308.216 179.616 302.533 179.616 295.522C179.616 288.511 173.941 282.828 166.941 282.828C159.94 282.828 154.266 288.511 154.266 295.522C154.266 302.533 159.94 308.216 166.941 308.216Z" stroke="#263238" stroke-miterlimit="10" stroke-linecap="round" stroke-linejoin="round"/>
<path d="M160.375 292.115L166.713 299.236L181.861 280.195" stroke="#263238" stroke-miterlimit="10" stroke-linecap="round" stroke-linejoin="round"/>
<path d="M233.711 45.2781V240.486C233.711 251.323 224.978 260.069 214.157 260.069H121.413C110.593 260.069 101.859 251.323 101.859 240.486V45.2781C101.859 34.4418 110.593 25.6953 121.413 25.6953H160.211V25.8501C161.37 29.9524 163.998 32.6615 166.935 32.6615H168.635C171.572 32.6615 174.2 29.9524 175.359 25.8501L175.437 25.6953H214.157C224.978 25.6953 233.711 34.4418 233.711 45.2781Z" fill="white"/>
<path d="M205.968 77.7109H102.172V189.093H205.968V77.7109Z" fill="#263238" stroke="#263238" stroke-miterlimit="10" stroke-linecap="round" stroke-linejoin="round"/>
<path d="M175.362 25.8501C174.203 29.9524 171.575 32.6615 168.638 32.6615H166.938C164.001 32.6615 161.373 29.9524 160.214 25.8501V25.6953H121.416C111.677 25.6953 103.562 32.8163 102.094 42.182H233.404C231.936 32.8163 223.821 25.6953 214.083 25.6953H175.439L175.362 25.8501Z" fill="#D4D4D4"/>
<path d="M242.14 97.3715V72.6028H239.898V40.8679C239.898 30.0316 231.165 21.2852 220.345 21.2852H115.311C104.491 21.2852 95.7578 30.0316 95.7578 40.8679V254.498C95.7578 265.334 104.491 274.081 115.311 274.081H220.267C231.087 274.081 239.821 265.334 239.821 254.498V118.502H242.062V103.873H239.821V97.3715H242.14ZM233.715 240.488C233.715 251.324 224.982 260.071 214.162 260.071H121.417C110.597 260.071 101.863 251.324 101.863 240.488V45.2798C101.863 34.4435 110.597 25.6971 121.417 25.6971H160.215V25.8519C161.375 29.9542 164.002 32.6633 166.939 32.6633H168.64C171.576 32.6633 174.204 29.9542 175.363 25.8519L175.441 25.6971H214.162C224.982 25.6971 233.715 34.4435 233.715 45.2798V240.488Z" fill="#707070" stroke="#263238" stroke-miterlimit="10" stroke-linejoin="round"/>
<path d="M218.027 23.918H117.554C106.733 23.918 98 32.6644 98 43.5007V251.79C98 262.626 106.733 271.373 117.554 271.373H218.027C228.847 271.373 237.58 262.626 237.58 251.79V43.5007C237.58 32.6644 228.847 23.918 218.027 23.918ZM233.716 240.489C233.716 251.325 224.983 260.072 214.162 260.072H121.418C110.598 260.072 101.864 251.325 101.864 240.489V45.281C101.864 34.4447 110.598 25.6982 121.418 25.6982H160.216V25.853C161.375 29.9553 164.003 32.6644 166.94 32.6644H168.64C171.577 32.6644 174.205 29.9553 175.364 25.853L175.442 25.6982H214.162C224.983 25.6982 233.716 34.4447 233.716 45.281V240.489Z" fill="#263238" stroke="#263238" stroke-miterlimit="10" stroke-linejoin="round"/>
<path d="M169.257 26.6272C169.257 25.621 168.407 24.7695 167.402 24.7695C166.397 24.7695 165.547 25.621 165.547 26.6272C165.547 27.6334 166.397 28.4848 167.402 28.4848C168.407 28.4848 169.257 27.6334 169.257 26.6272Z" fill="white"/>
<path d="M113.61 33.6691C113.61 35.5268 111.524 36.2234 111.524 37.6166V37.694H113.533V38.3133H110.828V37.7714C110.828 35.759 112.915 35.372 112.915 33.6691C112.915 33.0499 112.683 32.6629 112.219 32.6629C111.756 32.6629 111.524 33.0499 111.524 33.5917V34.1335H110.905V33.6691C110.905 32.7403 111.369 32.1211 112.297 32.1211C113.224 32.1211 113.61 32.7403 113.61 33.6691Z" fill="#263238"/>
<path d="M117.009 33.6691V33.8239C117.009 34.4432 116.777 34.9076 116.236 35.0624C116.777 35.2946 117.009 35.759 117.009 36.3782V36.8426C117.009 37.7714 116.545 38.3907 115.618 38.3907C114.69 38.3907 114.227 37.7714 114.227 36.8426V36.4556H114.845V36.92C114.845 37.4618 115.077 37.7714 115.54 37.7714C116.004 37.7714 116.236 37.4618 116.236 36.8426V36.3782C116.236 35.759 116.004 35.4494 115.463 35.4494H115.154V34.8302H115.54C116.004 34.8302 116.313 34.5206 116.313 33.9787V33.6691C116.313 33.0499 116.081 32.7403 115.618 32.7403C115.154 32.7403 114.922 33.0499 114.922 33.6691V33.9787H114.304V33.6691C114.304 32.7403 114.768 32.1211 115.695 32.1211C116.545 32.1211 117.009 32.7403 117.009 33.6691Z" fill="#263238"/>
<path d="M118.321 34.1328V34.9842H117.625V34.1328H118.321ZM118.321 37.4611V38.3125H117.625V37.4611H118.321Z" fill="#263238"/>
<path d="M119.719 34.6761C119.951 34.3665 120.183 34.1343 120.646 34.1343C121.419 34.1343 121.806 34.7535 121.806 35.6049V36.8433C121.806 37.7722 121.342 38.3914 120.415 38.3914C119.487 38.3914 119.023 37.7722 119.023 36.8433V36.4563H119.642V36.9208C119.642 37.4626 119.874 37.7722 120.337 37.7722C120.801 37.7722 121.033 37.4626 121.033 36.9208V35.7597C121.033 35.2179 120.801 34.9083 120.337 34.9083C119.951 34.9083 119.719 35.1405 119.642 35.6049H119.023L119.178 32.1992H121.574V32.8184H119.796L119.719 34.6761Z" fill="#263238"/>
<path d="M125.205 33.6691V33.7465H124.587V33.5917C124.587 33.0499 124.355 32.7403 123.891 32.7403C123.35 32.7403 123.118 33.0499 123.118 33.7465V35.1398C123.273 34.7528 123.582 34.4432 124.123 34.4432C124.896 34.4432 125.282 34.985 125.282 35.9138V36.8426C125.282 37.7714 124.819 38.3907 123.891 38.3907C122.964 38.3907 122.5 37.7714 122.5 36.8426V33.6691C122.5 32.6629 122.964 32.1211 123.891 32.1211C124.741 32.1211 125.205 32.7403 125.205 33.6691ZM123.118 35.9912V36.92C123.118 37.4618 123.35 37.7714 123.814 37.7714C124.278 37.7714 124.509 37.4618 124.509 36.92V35.9912C124.509 35.4494 124.278 35.1398 123.814 35.1398C123.35 35.0624 123.118 35.372 123.118 35.9912Z" fill="#263238"/>
<path d="M192.443 33.9023H190.742V38.2369H192.443V33.9023Z" fill="#263238"/>
<path d="M194.763 33.0508H193.062V38.3141H194.763V33.0508Z" fill="#263238"/>
<path d="M197.075 32.4297H195.375V38.3122H197.075V32.4297Z" fill="#263238"/>
<path d="M199.396 31.3477H197.695V38.2364H199.396V31.3477Z" fill="#263238"/>
<path d="M220.965 38.1595H210.531V31.8125H220.965V38.1595ZM211.072 37.6177H220.347V32.3543H211.072V37.6177Z" fill="#263238"/>
<path d="M217.409 32.9727H211.922V36.9202H217.409V32.9727Z" fill="#263238"/>
<path d="M221.892 34.2109H220.578V35.6816H221.892V34.2109Z" fill="#263238"/>
<path d="M206.663 36.7671C206.585 36.7671 206.508 36.7671 206.431 36.6897C204.344 35.4512 202.876 36.6123 202.876 36.6123C202.721 36.7671 202.489 36.7671 202.335 36.5349C202.18 36.3801 202.18 36.1479 202.335 35.9931C202.412 35.9157 204.19 34.3676 206.817 35.9157C206.972 35.9931 207.049 36.3027 206.972 36.4575C206.895 36.6897 206.817 36.7671 206.663 36.7671Z" fill="#263238"/>
<path d="M207.434 35.4488C207.357 35.4488 207.28 35.4488 207.202 35.3714C204.111 33.5138 202.101 35.294 202.024 35.294C201.87 35.4488 201.638 35.4488 201.483 35.294C201.329 35.1392 201.329 34.907 201.483 34.7522C201.483 34.7522 204.034 32.5849 207.589 34.6748C207.743 34.7522 207.821 35.0618 207.743 35.2166C207.743 35.3714 207.589 35.4488 207.434 35.4488Z" fill="#263238"/>
<path d="M208.13 33.9794C208.053 33.9794 207.976 33.9794 207.898 33.902C204.034 31.5799 201.406 33.7472 201.329 33.8246C201.174 33.9794 200.942 33.9794 200.788 33.8246C200.633 33.6698 200.633 33.4376 200.788 33.2828C200.788 33.2828 203.879 30.6511 208.285 33.2053C208.439 33.2828 208.517 33.5924 208.439 33.7472C208.439 33.902 208.285 33.9794 208.13 33.9794Z" fill="#263238"/>
<path d="M205.502 37.4633C205.502 38.0051 205.038 38.4695 204.497 38.4695C203.956 38.4695 203.492 38.0051 203.492 37.4633C203.492 36.9214 203.956 36.457 204.497 36.457C205.038 36.457 205.502 36.9214 205.502 37.4633Z" fill="#263238"/>
<path d="M201.796 73.6875H89.2656V183.057H201.796V73.6875Z" fill="#7981EC" stroke="#263238" stroke-miterlimit="10" stroke-linecap="round" stroke-linejoin="round"/>
<path d="M192.374 82.8203H98.625V152.869H192.374V82.8203Z" fill="white" stroke="#263238" stroke-miterlimit="10" stroke-linecap="round" stroke-linejoin="round"/>
<path d="M191.287 82.8203L97.4609 152.869" stroke="#263238" stroke-miterlimit="10" stroke-linecap="round" stroke-linejoin="round"/>
<path d="M98.625 82.8203L192.374 152.869" stroke="#263238" stroke-miterlimit="10" stroke-linecap="round" stroke-linejoin="round"/>
<path d="M132.776 166.957C134.612 166.957 136.1 165.467 136.1 163.629C136.1 161.791 134.612 160.301 132.776 160.301C130.941 160.301 129.453 161.791 129.453 163.629C129.453 165.467 130.941 166.957 132.776 166.957Z" fill="white" stroke="#263238" stroke-miterlimit="10" stroke-linecap="round" stroke-linejoin="round"/>
<path d="M145.526 166.957C147.362 166.957 148.85 165.467 148.85 163.629C148.85 161.791 147.362 160.301 145.526 160.301C143.691 160.301 142.203 161.791 142.203 163.629C142.203 165.467 143.691 166.957 145.526 166.957Z" fill="white" stroke="#263238" stroke-miterlimit="10" stroke-linecap="round" stroke-linejoin="round"/>
<path d="M158.206 166.957C160.042 166.957 161.53 165.467 161.53 163.629C161.53 161.791 160.042 160.301 158.206 160.301C156.371 160.301 154.883 161.791 154.883 163.629C154.883 165.467 156.371 166.957 158.206 166.957Z" fill="white" stroke="#263238" stroke-miterlimit="10" stroke-linecap="round" stroke-linejoin="round"/>
<path d="M165.784 193.117H112.688V252.175H165.784V193.117Z" fill="#7981EC" stroke="#263238" stroke-miterlimit="10" stroke-linecap="round" stroke-linejoin="round"/>
<path d="M160.532 213.938H117.406V246.137H160.532V213.938Z" fill="white" stroke="#263238" stroke-miterlimit="10" stroke-linecap="round" stroke-linejoin="round"/>
<path d="M159.986 213.938L116.938 246.137" stroke="#263238" stroke-miterlimit="10" stroke-linecap="round" stroke-linejoin="round"/>
<path d="M117.406 213.938L160.532 246.137" stroke="#263238" stroke-miterlimit="10" stroke-linecap="round" stroke-linejoin="round"/>
<path d="M155.113 199.156H122.266V205.89H155.113V199.156Z" fill="white" stroke="#263238" stroke-miterlimit="10" stroke-linecap="round" stroke-linejoin="round"/>
<path d="M225.218 193.117H171.812V252.175H225.218V193.117Z" fill="#7981EC" stroke="#263238" stroke-miterlimit="10" stroke-linecap="round" stroke-linejoin="round"/>
<path d="M220.204 213.938H177.078V246.137H220.204V213.938Z" fill="white" stroke="#263238" stroke-miterlimit="10" stroke-linecap="round" stroke-linejoin="round"/>
<path d="M219.657 213.938L176.531 246.137" stroke="#263238" stroke-miterlimit="10" stroke-linecap="round" stroke-linejoin="round"/>
<path d="M177.078 213.938L220.127 246.137" stroke="#263238" stroke-miterlimit="10" stroke-linecap="round" stroke-linejoin="round"/>
<path d="M214.706 199.156H181.859V205.89H214.706V199.156Z" fill="white" stroke="#263238" stroke-miterlimit="10" stroke-linecap="round" stroke-linejoin="round"/>
<path d="M113.531 55.5742H128.293" stroke="#263238" stroke-miterlimit="10" stroke-linecap="round" stroke-linejoin="round"/>
<path d="M113.531 60.2969H128.293" stroke="#263238" stroke-miterlimit="10" stroke-linecap="round" stroke-linejoin="round"/>
<path d="M113.531 65.0156H128.293" stroke="#263238" stroke-miterlimit="10" stroke-linecap="round" stroke-linejoin="round"/>
<path d="M204.655 55.5742H139.656V65.6365H204.655V55.5742Z" fill="#7981EC" stroke="#263238" stroke-miterlimit="10" stroke-linecap="round" stroke-linejoin="round"/>
<path d="M264.943 155.579C264.943 155.579 265.098 152.328 264.17 152.328C263.243 152.328 261.465 152.328 261.465 153.102C261.465 153.876 261.311 155.424 261.311 155.424C261.311 155.424 258.064 156.353 257.678 156.972C257.292 157.514 255.205 157.359 254.973 159.062C254.818 160.765 255.128 166.338 255.128 166.338L266.025 162.932C266.025 162.932 266.798 161.771 266.952 160.61C267.107 159.449 267.493 157.359 268.112 156.817C268.653 156.276 269.658 154.882 268.112 154.882C266.643 154.805 264.943 155.579 264.943 155.579Z" fill="white" stroke="#263238" stroke-miterlimit="10" stroke-linecap="round" stroke-linejoin="round"/>
<path d="M264.945 155.578C264.945 155.578 264.172 156.12 264.172 157.513" stroke="#263238" stroke-miterlimit="10" stroke-linecap="round" stroke-linejoin="round"/>
<path d="M271.977 128.255C271.977 128.255 267.958 133.054 267.958 134.37C267.958 135.686 267.958 137.621 267.958 137.621C267.958 137.621 263.398 141.8 263.398 142.807C263.398 143.813 264.712 145.283 264.712 145.283C264.712 145.283 264.326 153.101 265.485 154.03C266.645 154.959 270.432 154.417 270.432 154.417L271.359 157.823L285.889 154.417L289.676 150.005C289.676 150.005 293.077 148.302 294.622 141.568C296.168 134.912 293.85 128.023 290.835 126.088C287.821 124.153 278.083 120.36 274.219 121.134C270.509 121.908 268.963 125.778 271.977 128.255Z" fill="white" stroke="#263238" stroke-miterlimit="10" stroke-linecap="round" stroke-linejoin="round"/>
<path d="M294.704 141.646C296.25 134.99 293.931 128.101 290.917 126.166C287.903 124.231 278.164 120.438 274.3 121.212C270.513 121.986 268.967 125.779 271.981 128.256L273.682 130.578C273.682 130.578 270.436 133.829 270.822 134.757C271.209 135.686 273.141 136.305 273.141 136.305C273.141 136.305 272.213 139.556 273.295 140.098C274.455 140.64 274.996 139.556 274.996 139.556C274.996 139.556 275.15 142.575 275.382 145.129C275.537 147.606 276.31 152.405 278.783 153.566C281.024 154.572 283.111 154.572 285.816 154.495L289.603 150.083C289.757 150.006 293.158 148.303 294.704 141.646Z" fill="#263238" stroke="#263238" stroke-miterlimit="10" stroke-linecap="round" stroke-linejoin="round"/>
<path d="M272.359 141.953C272.359 141.953 273.673 138.161 275.064 139.477C276.378 140.792 275.992 145.746 275.064 146.907C274.137 148.068 272.359 146.52 272.359 146.52" fill="white"/>
<path d="M272.359 141.953C272.359 141.953 273.673 138.161 275.064 139.477C276.378 140.792 275.992 145.746 275.064 146.907C274.137 148.068 272.359 146.52 272.359 146.52" stroke="#263238" stroke-miterlimit="10" stroke-linecap="round" stroke-linejoin="round"/>
<path d="M267.027 160.532L266.641 158.21C266.641 158.21 274.06 154.417 277.925 153.643C281.712 152.869 284.571 152.869 285.962 153.643C287.276 154.417 288.977 159.216 288.977 159.216C288.977 159.216 282.098 156.894 277.384 158.442C272.592 159.99 267.259 162.08 267.259 162.08L267.027 160.532Z" fill="white" stroke="#263238" stroke-miterlimit="10" stroke-linecap="round" stroke-linejoin="round"/>
<path d="M254.119 335.848C254.119 335.848 251.955 337.396 249.328 338.479C246.7 339.563 245.386 340.26 245.85 341.808C246.313 343.356 249.791 343.975 253.965 345.136C258.138 346.22 264.089 348 266.485 347.535C268.881 347.071 269.345 345.755 269.345 344.439C269.345 343.123 267.567 337.86 267.567 337.86L254.119 335.848Z" stroke="#263238" stroke-miterlimit="10" stroke-linecap="round" stroke-linejoin="round"/>
<path d="M290.29 336.775C290.29 336.775 289.208 344.051 290.059 345.521C290.909 347.069 297.478 347.069 298.792 346.218C300.106 345.367 300.57 343.586 300.57 343.586L299.719 334.84L288.977 336.852" fill="white"/>
<path d="M290.29 336.775C290.29 336.775 289.208 344.051 290.059 345.521C290.909 347.069 297.478 347.069 298.792 346.218C300.106 345.367 300.57 343.586 300.57 343.586L299.719 334.84L288.977 336.852" stroke="#263238" stroke-miterlimit="10" stroke-linecap="round" stroke-linejoin="round"/>
<path d="M253.039 237.934C253.039 237.934 253.039 268.276 253.503 280.35C253.967 292.425 256.362 306.512 256.594 307.364C256.826 308.215 255.899 332.21 255.899 332.21L253.271 333.99L253.039 337.086C253.039 337.086 255.899 341.266 260.072 343.046C264.246 344.826 268.419 342.814 268.419 342.814C268.419 342.814 270.583 333.835 271.047 332.906C271.511 332.055 272.825 305.661 272.825 301.713C272.825 297.766 272.825 284.375 272.825 284.375L276.766 252.098L276.998 248.77C276.998 248.77 282.717 284.762 283.567 289.871C284.418 294.902 287.741 306.59 288.205 310.769C288.668 314.949 289.75 331.203 289.75 331.203L289.055 336.931L290.832 339.563C290.832 339.563 293.46 340.647 296.32 340.647C299.179 340.647 300.261 337.783 300.261 337.783C300.261 337.783 300.261 333.139 300.261 331.203C300.261 329.191 299.566 326.559 299.566 325.94C299.566 325.243 300.88 301.326 300.416 293.199C299.952 285.072 297.556 244.9 297.556 244.9L298.252 238.089C298.252 238.089 281.558 242.268 270.197 239.869C258.836 237.469 253.348 235.457 253.348 235.457V237.237L253.039 237.934Z" fill="#263238" stroke="#263238" stroke-miterlimit="10" stroke-linecap="round" stroke-linejoin="round"/>
<path d="M303.43 165.484C303.43 165.484 304.744 166.8 306.444 171.367C308.145 175.934 318.81 201.322 317.496 202.715C316.183 204.031 297.479 217.266 297.479 217.266L295.547 211.693L304.126 200.238L297.865 187.854C297.865 187.854 295.547 185.377 296.552 179.649C297.556 173.844 303.43 165.484 303.43 165.484Z" fill="#7981EC" stroke="#263238" stroke-miterlimit="10" stroke-linecap="round" stroke-linejoin="round"/>
<path d="M301.735 180.348L306.063 198.615L311.627 201.788L304.208 200.24L298.875 189.559L301.735 180.348Z" fill="#263238" stroke="#263238" stroke-miterlimit="10" stroke-linecap="round" stroke-linejoin="round"/>
<path d="M303.045 175.778L295.007 202.327L295.394 208.055C295.394 208.055 295.935 209.371 297.094 211.848C298.253 214.325 305.132 232.282 304.513 233.211C303.972 234.14 300.108 235.92 300.108 235.92L299.953 239.171C299.953 239.171 294.234 241.493 289.674 242.576C285.114 243.737 274.835 244.124 267.338 243.35C259.919 242.576 250.567 238.164 250.567 238.164C250.567 238.164 251.494 230.502 252.654 226.554C253.813 222.529 257.446 205.191 257.446 205.191L254.972 190.33L252.654 195.516C252.654 195.516 247.476 203.953 246.162 204.882C244.848 205.81 240.829 206.584 238.51 204.495C236.192 202.405 236.964 195.748 238.51 192.652C240.056 189.633 249.021 170.67 249.021 169.354C249.021 168.038 268.111 160.762 268.111 160.762C268.111 160.762 277.463 157.898 283.337 157.898C289.211 157.898 291.916 160.221 291.916 160.221C291.916 160.221 301.808 163.084 303.354 165.561C304.9 168.038 303.509 173.379 303.509 173.379" fill="#7981EC"/>
<path d="M303.045 175.778L295.007 202.327L295.394 208.055C295.394 208.055 295.935 209.371 297.094 211.848C298.253 214.325 305.132 232.282 304.513 233.211C303.972 234.14 300.108 235.92 300.108 235.92L299.953 239.171C299.953 239.171 294.234 241.493 289.674 242.576C285.114 243.737 274.835 244.124 267.338 243.35C259.919 242.576 250.567 238.164 250.567 238.164C250.567 238.164 251.494 230.502 252.654 226.554C253.813 222.529 257.446 205.191 257.446 205.191L254.972 190.33L252.654 195.516C252.654 195.516 247.476 203.953 246.162 204.882C244.848 205.81 240.829 206.584 238.51 204.495C236.192 202.405 236.964 195.748 238.51 192.652C240.056 189.633 249.021 170.67 249.021 169.354C249.021 168.038 268.111 160.762 268.111 160.762C268.111 160.762 277.463 157.898 283.337 157.898C289.211 157.898 291.916 160.221 291.916 160.221C291.916 160.221 301.808 163.084 303.354 165.561C304.9 168.038 303.509 173.379 303.509 173.379" stroke="#263238" stroke-miterlimit="10" stroke-linecap="round" stroke-linejoin="round"/>
<path d="M299.64 234.22L295.234 212.625L301.804 234.994L300.181 235.923L299.64 234.22Z" fill="#263238" stroke="#263238" stroke-miterlimit="10" stroke-linecap="round" stroke-linejoin="round"/>
<path d="M252.806 180.348L252.188 177.484" stroke="#263238" stroke-miterlimit="10" stroke-linecap="round" stroke-linejoin="round"/>
<path d="M255.046 190.333L253.5 183.367" stroke="#263238" stroke-miterlimit="10" stroke-linecap="round" stroke-linejoin="round"/>
<path d="M268.727 205.192L286.657 201.941" stroke="#263238" stroke-miterlimit="10" stroke-linecap="round" stroke-linejoin="round"/>
<path d="M283.57 205.349L287.048 205.039" stroke="#263238" stroke-miterlimit="10" stroke-linecap="round" stroke-linejoin="round"/>
<path d="M272.359 206.355L282.252 205.426" stroke="#263238" stroke-miterlimit="10" stroke-linecap="round" stroke-linejoin="round"/>
<path d="M263.244 162.699C263.244 162.699 267.417 160.068 268.035 159.681C268.576 159.216 275.532 156.043 280.788 155.656C285.966 155.191 287.28 155.656 287.28 155.656L289.444 159.294C289.444 159.294 274.373 160.3 270.045 161.616C265.717 162.931 261.93 163.473 261.93 163.473L263.244 162.699Z" fill="#7981EC" stroke="#263238" stroke-miterlimit="10" stroke-linecap="round" stroke-linejoin="round"/>
<path d="M38.2586 322.613L39.4179 330.508C39.4179 330.508 35.9399 339.564 36.7901 343.667C37.6403 347.769 40.8863 347.769 42.3548 346.608C43.8232 345.447 45.2917 342.196 45.2917 339.564C45.2917 336.933 44.9825 330.818 44.9825 329.347C44.9825 327.877 44.1324 323.774 44.1324 323.774L38.2586 322.613Z" fill="white" stroke="#263238" stroke-miterlimit="10" stroke-linecap="round" stroke-linejoin="round"/>
<path d="M40.4191 343.202C38.4096 342.97 37.4049 340.803 36.9411 339.332C36.7093 340.957 36.5547 342.428 36.7866 343.589C37.6367 347.691 40.8828 347.691 42.3512 346.53C43.5878 345.524 44.9017 342.893 45.2109 340.57C44.1288 341.809 42.3512 343.512 40.4191 343.202Z" fill="#263238" stroke="#263238" stroke-miterlimit="10" stroke-linecap="round" stroke-linejoin="round"/>
<path d="M88.3409 321.375C88.3409 321.375 94.1374 333.682 95.1422 335.385C96.1469 337.087 101.402 342.97 101.016 343.357C100.63 343.744 99.2384 344.518 96.3015 343.976C93.3645 343.434 91.2005 341.267 89.7321 339.874C88.3409 338.481 85.0948 337.939 83.7037 337.165C82.3125 336.391 83.3172 332.056 84.0901 330.508C84.863 328.96 84.863 327.954 84.863 327.954L82.3125 320.523L88.3409 321.375Z" fill="white" stroke="#263238" stroke-miterlimit="10" stroke-linecap="round" stroke-linejoin="round"/>
<path d="M101.014 343.357C101.246 343.124 99.6225 341.112 97.9222 339.099C96.6856 339.564 94.8307 340.106 93.285 339.641C90.5799 338.867 86.2518 331.591 84.0878 330.508C83.3149 332.056 82.3102 336.39 83.7014 337.164C85.0925 337.938 88.3386 338.48 89.7298 339.873C91.1209 341.267 93.285 343.434 96.2992 343.976C99.2361 344.518 100.627 343.744 101.014 343.357Z" fill="#263238" stroke="#263238" stroke-miterlimit="10" stroke-linecap="round" stroke-linejoin="round"/>
<path d="M27.7414 223.076C27.7414 223.076 22.1768 241.497 23.6452 251.714C25.1137 261.931 31.2193 279.734 31.5285 281.746C31.8376 283.759 29.519 292.273 31.8376 300.71C34.1563 309.147 35.9339 325.788 35.9339 325.788L44.6673 325.169L49.3045 251.869C49.3045 251.869 63.6026 284.533 65.0711 286.623C66.5395 288.635 78.7509 322.228 78.7509 322.228L88.9528 322.847C88.9528 322.847 82.2288 283.449 80.7604 279.657C79.2919 275.864 76.1231 269.13 76.1231 269.13C76.1231 269.13 69.7083 230.893 68.549 226.791C67.3897 222.689 62.4433 211.93 62.4433 211.93L34.7746 213.091L27.7414 223.076Z" fill="#263238" stroke="#263238" stroke-miterlimit="10" stroke-linecap="round" stroke-linejoin="round"/>
<path d="M44.0557 216.109C44.0557 216.109 53.9484 217.502 61.4453 215.49C61.4453 215.49 53.7166 174.312 53.7166 173.538C53.7166 172.764 34.7812 176.247 34.7812 176.247L44.0557 216.109Z" fill="white" stroke="#263238" stroke-miterlimit="10" stroke-linecap="round" stroke-linejoin="round"/>
<path d="M53.6323 159.142L50.309 166.418L52.7049 177.641C52.7049 177.641 50.5409 179.809 46.8311 179.809C43.1213 179.809 40.7254 178.802 40.7254 178.802L37.0156 163.632L45.1308 151.789C44.9762 151.866 46.7538 157.594 53.6323 159.142Z" fill="white" stroke="#263238" stroke-miterlimit="10" stroke-linecap="round" stroke-linejoin="round"/>
<path d="M46.6719 158.523L50.5362 164.638L53.0094 160.226L46.6719 158.523Z" fill="#263238" stroke="#263238" stroke-miterlimit="10" stroke-linecap="round" stroke-linejoin="round"/>
<path d="M42.194 146.292C42.194 146.292 43.9716 146.911 44.5899 144.899C45.2082 142.964 45.981 140.951 47.9132 140.332C49.8454 139.713 51.623 138.552 52.6277 137.391C53.6325 136.23 56.5694 134.062 56.5694 134.062C56.5694 134.062 60.1246 139.79 60.1246 140.951C60.1246 142.112 58.9653 143.119 59.7381 144.125C61.1293 145.982 63.4479 148.382 63.2934 149.079C62.8296 150.627 60.7429 152.407 60.7429 152.407C60.7429 152.407 60.9747 158.289 59.3517 159.915C57.806 161.463 52.0867 160.302 50.0773 159.915C48.1451 159.528 43.9716 157.98 43.5852 157.128C43.1987 156.354 41.8075 151.633 41.8075 151.633C41.8075 151.633 41.4211 146.911 42.194 146.292Z" fill="white" stroke="#263238" stroke-miterlimit="10" stroke-linecap="round" stroke-linejoin="round"/>
<path d="M56.0307 145.983C56.4575 145.983 56.8036 145.394 56.8036 144.667C56.8036 143.941 56.4575 143.352 56.0307 143.352C55.6038 143.352 55.2578 143.941 55.2578 144.667C55.2578 145.394 55.6038 145.983 56.0307 145.983Z" fill="#263238"/>
<path d="M53.8672 142.189C53.8672 142.189 54.8719 139.635 57.577 140.641" stroke="#263238" stroke-miterlimit="10" stroke-linecap="round" stroke-linejoin="round"/>
<path d="M59.7385 153.802C59.7385 153.802 57.5745 154.963 55.7969 152.641" stroke="#263238" stroke-miterlimit="10" stroke-linecap="round" stroke-linejoin="round"/>
<path d="M60.1225 141.028C60.1225 141.028 61.6683 140.796 63.8323 138.629C65.9963 136.462 68.3922 135.068 62.673 128.954C56.9538 122.839 43.1967 121.291 38.2503 123.226C33.3039 125.161 26.4254 134.449 25.6525 140.022C24.8796 145.518 28.0484 149.078 28.203 151.091C28.4348 153.026 23.2566 154.651 27.9711 159.76C32.6856 164.868 37.2456 164.713 42.1919 163.939C47.1383 163.165 48.684 156.664 48.684 156.664C48.684 156.664 45.3607 156.431 44.356 155.116C43.3512 153.722 40.8008 150.394 41.0326 147.995C41.2645 145.595 44.356 147.375 46.1336 145.827C47.9112 144.279 46.1336 141.493 49.0705 140.719C52.0074 139.945 55.7945 139.171 56.3355 137.158C56.9538 135.223 56.9538 135.223 56.9538 135.223C56.9538 135.223 60.1225 139.403 60.1225 141.028Z" fill="#263238" stroke="#263238" stroke-miterlimit="10" stroke-linecap="round" stroke-linejoin="round"/>
<path d="M43.5861 152.792C43.5861 152.792 40.6492 153.566 38.8716 151.012C37.094 148.458 37.7123 144.897 40.0309 144.278C42.4268 143.659 43.3543 148.458 43.3543 148.458" fill="white"/>
<path d="M43.5861 152.792C43.5861 152.792 40.6492 153.566 38.8716 151.012C37.094 148.458 37.7123 144.897 40.0309 144.278C42.4268 143.659 43.3543 148.458 43.3543 148.458" stroke="#263238" stroke-miterlimit="10" stroke-linecap="round" stroke-linejoin="round"/>
<path d="M48.1425 240.412C48.1425 240.412 42.0369 241.418 35.6993 240.567C29.3618 239.793 21.3239 237.006 21.3239 237.006L31.9896 211.773C31.9896 211.773 20.9375 175.084 20.9375 173.691C20.9375 172.762 27.9706 168.583 32.7624 165.951C35.1583 164.635 36.9359 163.629 36.9359 163.629C36.9359 163.629 45.2056 184.527 45.4375 188.32C45.5921 191.339 46.5195 201.169 47.0605 206.51C47.2151 207.826 47.2924 208.832 47.3697 209.451C47.7561 212.392 48.1425 240.412 48.1425 240.412Z" fill="#7981EC" stroke="#263238" stroke-miterlimit="10" stroke-linecap="round" stroke-linejoin="round"/>
<path d="M46.9864 206.51C44.8224 201.246 41.8082 193.738 40.3398 189.249C38.3303 182.979 34.1568 170.208 32.7656 165.951C35.1615 164.635 36.9391 163.629 36.9391 163.629C36.9391 163.629 45.2088 184.527 45.4407 188.32C45.518 191.339 46.4454 201.169 46.9864 206.51Z" fill="#7981EC" stroke="#263238" stroke-miterlimit="10" stroke-linecap="round" stroke-linejoin="round"/>
<path d="M95.375 152.405C95.375 152.405 97.8482 145.98 97.8482 145.206C97.8482 144.432 98.9302 134.447 98.9302 134.447C98.9302 134.447 99.3166 133.286 100.012 133.286C100.708 133.286 100.708 133.673 100.708 134.447C100.708 135.144 100.476 138.008 100.476 138.008C100.476 138.008 101.326 134.06 101.481 132.357C101.713 130.732 102.022 129.726 102.717 130.113C103.413 130.5 103.567 131.042 103.567 132.048C103.567 133.054 103.026 137.543 103.026 137.543C103.026 137.543 105.345 130.732 105.577 129.803C105.809 128.874 106.504 128.952 106.813 130.035C107.123 131.119 105.577 135.221 105.577 136.073C105.577 136.924 105.19 138.24 105.19 138.24C105.19 138.24 107.123 135.686 107.818 134.757C108.514 133.828 109.132 133.364 109.209 134.447C109.287 135.608 108.359 137.079 107.973 137.853C107.586 138.55 106.427 141.104 106.427 141.104L106.35 143.116L109.828 141.181C109.828 141.181 110.987 141.568 110.523 142.497C110.137 143.426 106.582 145.98 106.582 145.98C106.582 145.98 104.959 147.373 104.649 147.838C104.34 148.225 102.485 149.076 102.485 149.076L99.3166 155.733L95.375 152.405Z" fill="white" stroke="#263238" stroke-miterlimit="10" stroke-linecap="round" stroke-linejoin="round"/>
<path d="M101.476 154.572C101.476 154.572 90.4237 183.753 89.6508 184.372C88.8779 184.991 67.7785 181.973 67.7785 181.973L65.3826 199.93L73.6524 236.464C73.6524 236.464 69.4789 239.25 67.5467 239.25C65.6145 239.25 61.441 239.25 61.441 239.25C61.441 239.25 58.9678 220.287 56.8811 205.812C55.6445 197.453 54.5624 190.564 54.176 189.713C53.0167 187.313 50.2344 166.415 50.2344 166.415L51.6255 164.247L53.7123 164.402L67.7785 165.641L82.1539 170.981L94.9836 151.012L101.476 154.572Z" fill="#7981EC" stroke="#263238" stroke-miterlimit="10" stroke-linecap="round" stroke-linejoin="round"/>
<path d="M56.9592 205.811C55.7226 197.452 54.6406 190.563 54.2541 189.711C53.0948 187.312 50.3125 166.413 50.3125 166.413L51.7037 164.246L53.7904 164.401C54.7179 167.729 57.7321 178.411 58.3504 185.299C58.9687 192.653 57.3456 203.412 56.9592 205.811Z" fill="#7981EC" stroke="#263238" stroke-miterlimit="10" stroke-linecap="round" stroke-linejoin="round"/>
<path d="M67.8594 182.051L69.5597 173.691L71.7237 182.438L67.8594 182.051Z" fill="#263238" stroke="#263238" stroke-miterlimit="10" stroke-linecap="round" stroke-linejoin="round"/>
<path d="M20.9393 173.77C20.9393 173.77 11.974 200.86 10.8147 208.6C9.65543 216.341 17.2296 216.496 20.8621 215.18C24.4945 213.864 27.045 193.894 27.045 193.894L20.9393 173.77Z" fill="#7981EC" stroke="#263238" stroke-miterlimit="10" stroke-linecap="round" stroke-linejoin="round"/>
<path d="M21.6406 188.865L26.5097 216.884L46.9908 214.794L41.9671 186.93L21.6406 188.865Z" fill="#263238" stroke="#263238" stroke-miterlimit="10" stroke-linecap="round" stroke-linejoin="round"/>
<path d="M20.4766 207.207L20.6311 221.139C20.6311 221.139 23.8772 213.012 23.568 210.458C23.2589 207.904 20.4766 207.207 20.4766 207.207Z" fill="#263238" stroke="#263238" stroke-miterlimit="10" stroke-linecap="round" stroke-linejoin="round"/>
<path d="M11.203 207.439C11.203 207.439 9.03892 211.464 9.50264 214.792C9.96637 218.12 15.2992 220.984 16.6903 220.984C18.0815 220.984 20.1683 221.294 20.1683 221.294V207.361L15.6856 206.742" fill="#7981EC"/>
<path d="M11.203 207.439C11.203 207.439 9.03892 211.464 9.50264 214.792C9.96637 218.12 15.2992 220.984 16.6903 220.984C18.0815 220.984 20.1683 221.294 20.1683 221.294V207.361L15.6856 206.742" stroke="#263238" stroke-miterlimit="10" stroke-linecap="round" stroke-linejoin="round"/>
<path d="M21.2556 206.821C21.2556 206.821 21.101 199.7 21.101 198.694C21.101 197.765 25.8928 194.669 27.0521 193.895C28.2114 193.121 28.9843 193.121 28.5978 194.514C28.2114 195.907 24.1925 198.384 24.1925 198.384L23.9606 199.7C23.9606 199.7 27.2067 196.836 29.1389 196.449C31.071 196.062 31.4575 195.52 31.4575 196.604C31.4575 197.688 28.5206 199.081 27.7477 199.7C26.9748 200.319 24.2698 202.796 24.2698 202.796C24.2698 202.796 27.7477 200.629 30.0663 200.319C32.3849 200.01 33.0032 199.932 33.0032 200.706C33.0032 201.48 32.2303 201.867 31.071 202.409C29.9117 202.951 26.5884 204.344 26.5884 204.344L25.4291 205.892C25.4291 205.892 30.9937 204.731 31.612 204.344C32.2303 203.957 33.1578 204.189 31.9985 205.273C30.8392 206.357 26.2792 208.214 26.2792 208.214C26.2792 208.214 25.8928 210.536 25.1199 211.93C24.3471 213.323 22.2603 213.478 22.2603 213.478L20.3281 212.704L20.4827 207.285L21.2556 206.821Z" fill="white" stroke="#263238" stroke-miterlimit="10" stroke-linecap="round" stroke-linejoin="round"/>
<path d="M139 315.5L228 188" stroke="black"/>
</g>
<defs>
<linearGradient id="paint0_linear_150_5440" x1="299.529" y1="45.6705" x2="57.3726" y2="179.761" gradientUnits="userSpaceOnUse">
<stop stop-color="#AABDFF" stop-opacity="0"/>
<stop offset="0.6875" stop-color="#89AEF4" stop-opacity="0.29"/>
<stop offset="1" stop-color="#EDEFFF" stop-opacity="0.4"/>
</linearGradient>
<clipPath id="clip0_150_5440">
<rect width="343" height="348" fill="white"/>
</clipPath>
</defs>
</svg>
