<svg width="353" height="199" viewBox="0 0 353 199" fill="none" xmlns="http://www.w3.org/2000/svg">
<path d="M312.986 25.9632C312.986 25.9632 302.674 35.6794 295.66 35.2039C295.66 35.2039 297.148 31.333 299.574 29.1171C299.158 28.1475 298.803 27.2653 298.502 26.4796C297.505 23.8643 297.118 22.332 297.118 22.332L301.173 17.0476L303.924 13.4609C304.243 14.997 304.698 16.3622 305.235 17.5751C308.005 23.8235 312.986 25.9632 312.986 25.9632Z" fill="#FC9290"/>
<path d="M305.234 17.5783C305.234 17.5783 304.218 23.7245 298.501 26.4828C297.504 23.8675 297.117 22.3351 297.117 22.3351L301.172 17.0508C303.776 17.0545 305.234 17.5783 305.234 17.5783Z" fill="#EA8888"/>
<path d="M295.02 24.0484C295.02 24.0484 306.027 21.8399 304.546 15.0065C303.066 8.17302 303.489 3.28615 296.398 4.40618C289.308 5.5262 288.511 8.42935 288.45 10.831C288.39 13.2326 292.118 24.4477 295.02 24.0484Z" fill="#FC9290"/>
<path d="M308.106 3.42035C308.203 3.29034 308.438 3.17518 308.979 3.10831C308.979 3.10831 308.528 2.86313 307.948 2.88728C307.783 2.13131 307.291 0.805109 305.974 0.565502C305.974 0.565502 306.694 0.894262 306.841 1.70038C305.234 0.236736 301.943 -0.682685 293.092 0.634226C281.428 2.37091 285.81 9.73559 287.39 10.5417C288.971 11.3478 292.623 8.59512 295.468 8.63227C298.314 8.66756 299.133 12.7836 300.13 13.2888C301.13 13.794 300.684 12.8115 301.941 12.1279C303.199 11.4444 303.472 13.6213 303.193 15.0664C302.914 16.5133 304.826 18.2648 304.826 18.2648C304.826 18.2648 304.826 18.2649 306.496 16.1697C308.165 14.0764 309.297 5.60654 308.357 3.88285C308.273 3.73054 308.191 3.57638 308.106 3.42035Z" fill="#0B0754"/>
<path d="M294.054 16.9746C294.054 16.9746 296.112 18.2729 296.565 21.7649C297.018 25.2568 296.836 28.8844 295.203 30.8941C295.203 30.8941 287.752 30.2663 284.066 31.6761C284.066 31.6761 286.719 27.3929 286.997 24.9485C287.278 22.5079 288.953 17.4687 294.054 16.9746Z" fill="#93B3F4"/>
<path d="M349.947 182.837C349.947 182.837 353.158 185.815 352.532 187.93C351.904 190.046 349.007 191.456 348.615 194.041C348.223 196.627 346.657 198.037 345.246 198.037C343.836 198.037 338.522 198.037 338.522 198.037C338.522 198.037 337.483 196.218 339.991 195.668C342.498 195.121 343.444 192.082 343.286 189.26C343.128 186.439 343.522 182.68 343.522 182.68L348.849 181.426L349.947 182.837Z" fill="#0B0B36"/>
<path d="M309.911 197.929C309.885 197.942 309.855 197.953 309.82 197.966H291.723C291.892 197.321 292.484 196.149 294.553 195.813C297.362 195.356 302.228 193.725 303.315 190.133C303.348 190.018 303.38 189.899 303.408 189.78C304.27 185.943 310.538 190.956 310.538 190.956C310.538 190.956 310.557 191.108 310.585 191.368C310.73 192.776 311.101 197.333 309.911 197.929Z" fill="#0B0B36"/>
<path d="M295.301 95.2453C295.301 95.2453 296.252 107.122 297.372 121.4C298.893 140.793 300.721 164.614 300.903 169.128C301.215 176.964 302.47 189.498 302.47 189.498C302.47 189.498 305.446 192.476 311.403 191.222C311.403 191.222 316.709 173.327 318.227 154.395C318.251 154.085 318.273 153.773 318.298 153.459C319.707 134.184 321.901 93.5996 321.901 93.5996L295.301 95.2453Z" fill="#100C57"/>
<path d="M295.301 95.2453C295.301 95.2453 296.252 107.122 297.372 121.4L318.225 154.395C318.249 154.085 318.271 153.773 318.296 153.459C319.705 134.184 321.899 93.5996 321.899 93.5996L295.301 95.2453Z" fill="#0B0B36"/>
<path d="M299.645 96.655C299.645 96.655 316.803 139.667 328.085 159.882C339.367 180.096 342.893 185.737 342.893 185.737C342.893 185.737 349.357 183.151 349.943 181.389C349.943 181.389 345.629 142.364 338.075 132.852C333.804 127.477 328.789 111.345 328.555 105.704C328.319 100.063 327.028 88.8984 327.028 88.8984L299.645 96.655Z" fill="#100C57"/>
<path d="M337.99 84.5726C337.99 84.5726 337.411 91.263 337.639 92.344C337.866 93.425 339.996 97.021 340.312 97.0284C340.628 97.0359 340.854 96.8204 340.808 96.1536C340.762 95.4886 340.178 93.3545 340.461 93.4566C340.743 93.5569 342.844 99.64 344.112 99.5341C345.381 99.4282 347.242 95.6744 346.995 92.7582C346.748 89.8421 342.591 84.619 342.48 84.1361C341.544 80.0479 337.99 84.5726 337.99 84.5726Z" fill="#FC9290"/>
<path d="M340.534 86.3928C338.421 87.0949 338.079 86.9445 338.079 86.9445C338.079 86.9445 327.558 68.2551 326.496 66.5444C325.432 64.8337 304.355 45.6949 304.355 45.6949L309.512 25.6348C309.512 25.6348 333.573 56.1336 336.184 60.519C340.497 67.7648 343.155 84.671 343.155 84.671C343.155 84.671 342.195 85.8393 340.534 86.3928Z" fill="#ED6966"/>
<path d="M331.145 91.9509C330.587 94.3116 329.82 96.1282 328.774 96.9492C322.961 101.505 297.442 99.7855 294.789 96.5108C293.84 95.3388 293.639 91.9341 294.446 88.1617C294.633 87.2776 294.806 86.3321 294.964 85.3273C295.027 84.9168 295.088 84.4952 295.144 84.0643C295.846 78.7112 295.963 71.7979 294.438 63.3763C294.316 62.6928 294.182 62.0037 294.039 61.3034C293.844 60.371 293.671 59.4311 293.519 58.4894C293.093 55.8445 292.833 53.1865 292.746 50.6233C292.512 43.9421 293.444 37.9055 295.662 34.4563C295.672 34.4359 295.683 34.4229 295.696 34.4099C302.893 33.431 308.811 22.8809 308.811 22.8809C308.811 22.8809 329.129 33.353 332.361 65.7204C332.361 65.7204 332.551 69.2235 332.558 73.9004C332.573 79.5804 332.32 86.9804 331.145 91.9509Z" fill="#ED6966"/>
<path d="M308.602 43.4551C308.602 43.4551 308.041 78.8371 295.303 84.0063C295.251 84.0285 295.197 84.0471 295.145 84.0676C295.847 78.7145 295.964 71.8012 294.439 63.3796C294.316 62.6961 294.183 62.007 294.04 61.3067C293.845 60.3743 293.672 59.4345 293.52 58.4928C296.907 51.6853 302.032 45.6338 308.602 43.4551Z" fill="#E75755"/>
<path d="M289.09 25.2308C289.09 25.2308 289.695 24.1962 289.326 22.1809C288.954 20.1656 290.793 18.4939 291.269 18.3063C291.922 18.0482 294.138 19.4654 294.449 20.3179C294.759 21.1723 294.827 23.1913 294.536 23.7449C294.244 24.2984 292.658 26.4456 292.658 26.4456L289.09 25.2308Z" fill="#EA8888"/>
<path d="M309.932 29.6963C309.932 29.6963 303.147 33.2458 290.739 47.1003C292.413 37.0572 293.852 26.1932 293.852 26.1932C293.852 26.1932 292.093 23.6467 288.793 24.4955C288.793 24.4955 273.625 54.6247 276.062 59.7697C277.334 62.4537 279.606 64.1087 281.82 64.6993C282.275 64.9129 282.903 64.9872 283.67 64.9427C284.125 64.9371 284.563 64.8851 284.972 64.7773C294.003 63.1261 315.378 50.4065 317.443 44.4795C319.838 37.6144 319.245 27.2055 309.932 29.6963Z" fill="#ED6966"/>
<path d="M291.27 18.3039C291.27 18.3039 295.514 15.789 296.045 17.0483C296.574 18.3058 294.724 20.4065 294.644 21.1978C294.565 21.9909 291.27 18.3039 291.27 18.3039Z" fill="#EA8888"/>
<path d="M131.029 49.758C131.029 49.758 123.561 54.4517 122.613 80.3831C122.613 80.3831 125.351 83.2101 130.416 76.5903C135.481 69.9685 137.584 48.3203 137.584 48.3203L131.029 49.758Z" fill="#EA8888"/>
<path d="M121.355 192.586L124.602 193.795C124.602 193.795 138.704 174.238 140.439 157.033C140.749 153.96 140.645 150.985 139.974 148.236C139.974 148.236 140.112 147.448 140.353 146.057C140.465 145.407 140.602 144.625 140.758 143.73C141.217 141.103 141.848 137.509 142.569 133.417C144.228 124 146.377 111.962 148.047 103.114L147.172 102.833L137.706 99.7796L135.75 93.5665L128.703 91.7109C128.703 91.7109 127.128 94.7905 125.722 109.338C125.462 111.245 125.226 113.35 125.05 115.633C124.502 122.598 124.461 131.239 125.72 141.116C126.044 143.644 126.452 146.256 126.957 148.938C127.329 150.905 127.385 153.583 127.229 156.661C126.517 170.726 121.355 192.586 121.355 192.586Z" fill="#0B0754"/>
<path d="M125.051 115.633L140.354 146.057C140.465 145.407 140.603 144.625 140.759 143.73C141.218 141.103 141.849 137.509 142.57 133.417C144.229 124 146.378 111.962 148.048 103.114L147.173 102.833L137.707 99.7796L135.751 93.5665L128.704 91.7109C128.704 91.7109 127.129 94.7905 125.723 109.338C125.465 111.245 125.229 113.35 125.051 115.633Z" fill="#060632"/>
<path d="M131.781 95.6125L132.136 92.5738C138.07 94.1507 153.929 88.168 153.929 88.168C153.929 88.168 159.68 93.222 158.924 105.338C158.556 111.252 157.882 136.379 157.18 143.814C156.925 146.51 156.702 148.426 156.611 149.193C156.609 149.197 156.609 149.199 156.609 149.201C156.581 149.435 156.663 149.656 156.782 149.858C157.817 151.616 158.673 153.443 159.377 155.316C166.277 173.702 158.314 196.344 158.314 196.344L156.249 195.512C156.249 195.512 151.717 170.312 148.036 159.181C147.41 157.294 146.811 155.81 146.262 154.922C144.661 152.338 143.175 148.116 141.826 143.096C139.278 133.602 137.227 121.254 135.862 111.722C135.676 111.735 131.781 95.6125 131.781 95.6125Z" fill="#0B0754"/>
<path d="M155.12 49.6919C155.112 49.7123 155.105 49.7346 155.096 49.7532C153.554 54.0476 150.471 59.7052 144.77 60.6395C143.035 60.9237 141.057 60.7714 138.806 60.008C136.224 59.1332 134.214 57.963 132.652 56.6312C134.824 51.9784 137.463 48.4809 137.584 48.3193C137.589 48.3137 137.589 48.31 137.589 48.31C137.589 48.31 137.965 48.2617 138.585 48.1893C138.977 47.7955 139.131 46.0384 139.177 44.1884C139.237 41.8257 139.127 39.3071 139.127 39.3071L147.151 37.953L147.629 37.875C147.551 40.3194 147.772 42.4053 148.132 44.0454C148.387 45.21 148.712 46.1479 149.05 46.8389C149.297 47.346 149.553 47.7156 149.791 47.9422C150.452 48.3286 151.13 48.3527 151.865 48.323C152.605 48.2914 153.829 48.7781 155.092 49.6715C155.101 49.6789 155.11 49.6845 155.12 49.6919Z" fill="#EA8888"/>
<path d="M155.09 49.6729C153.825 48.7795 152.601 48.3764 151.863 48.3244C151.183 48.278 150.446 48.1758 149.789 47.9437C149.757 47.9139 149.725 47.8805 149.692 47.8452C149.675 47.8285 149.66 47.8081 149.644 47.7895C149.627 47.7691 149.61 47.7505 149.594 47.73C149.577 47.7096 149.56 47.6873 149.542 47.665C149.525 47.6428 149.506 47.6186 149.49 47.5963C149.473 47.574 149.458 47.5517 149.441 47.5276C149.423 47.4997 149.402 47.4719 149.384 47.4422C149.369 47.4199 149.354 47.3976 149.339 47.3734C149.319 47.34 149.296 47.3047 149.276 47.2694C149.263 47.2453 149.248 47.223 149.235 47.1988C149.222 47.1747 149.207 47.1487 149.194 47.1227C149.146 47.0335 149.096 46.9407 149.047 46.8403C148.709 46.1494 148.384 45.2114 148.13 44.0468C145.301 43.172 141.809 42.6649 139.965 43.2425C139.965 43.2425 142.441 43.7886 142.545 46.1327C142.652 48.5436 141.018 56.7274 136.523 56.8463C133.536 56.9243 139.311 60.0057 144.768 60.641C150.468 59.7067 153.552 54.0471 155.093 49.7546C155.093 49.7286 155.092 49.7008 155.09 49.6729Z" fill="#FA7269"/>
<path d="M159.922 93.4143C159.931 94.6272 159.723 95.7137 159.203 96.57C158.109 100.183 126.113 96.4084 127.883 92.597C127.883 92.597 129.47 69.1025 128.476 63.0473C128.441 62.8263 128.413 62.6108 128.394 62.3935C127.883 56.6485 133.106 52.1071 131.03 49.7556C131.03 49.7556 132.921 48.7898 137.588 48.3105C137.588 48.3105 137.588 48.3143 137.583 48.3198C137.449 48.5464 133.851 54.5273 134.119 56.0931C134.39 57.6849 144.425 57.4008 145.402 56.5575C146.183 55.8777 150.843 51.8174 151.682 49.0127C151.809 48.5873 151.864 48.3236 151.864 48.3236C151.864 48.3236 156.733 48.9959 159.071 50.7995C159.071 50.7995 157.398 52.7702 156.32 55.1589C156.218 55.3873 156.122 55.6158 156.033 55.8461C155.841 56.3346 155.685 56.8342 155.577 57.332C155.434 57.9914 155.609 58.6601 155.986 59.3696C156.328 60.0216 156.844 60.7125 157.439 61.4648C157.634 61.71 157.741 61.749 157.856 61.7973C157.97 61.8456 158.089 61.9031 158.304 62.178C157.53 65.1276 156.352 70.7426 155.457 76.0474C155.23 77.3922 155.316 78.7648 155.691 80.0631C155.837 80.5814 156.032 81.0866 156.27 81.5732C157.713 84.5172 159.9 89.5898 159.922 93.4143Z" fill="#ED6966"/>
<path d="M156.104 24.1698C156.357 23.8058 159.225 19.9832 165.466 23.7036C165.466 23.7036 162.232 22.1285 160.865 23.1148C160.865 23.1148 163.959 22.799 165.285 24.3964C166.614 25.9919 165.713 29.5396 165.105 30.5055C164.498 31.4713 161.582 33.9677 160.356 33.5517C159.892 33.3938 159.448 33.0706 159.076 32.7288C159.074 33.3492 159.039 34.0104 158.954 34.72C158.172 41.2897 152.512 44.5606 150.798 42.692C149.698 41.494 147.87 43.5111 147.87 43.5111L141.715 24.8348C141.715 24.8348 152.722 18.1054 156.104 24.1698Z" fill="#0B0754"/>
<path d="M151.99 33.327C151.596 35.1584 150.598 37.3353 149.705 39.9524C148.236 44.2523 143.041 43.8846 139.965 43.2438C139.963 43.2438 139.963 43.2438 139.961 43.2438C138.583 42.9559 137.63 42.6141 137.63 42.6141C135.096 41.5257 137.541 30.6728 138.757 28.767C139.974 26.8595 142.024 24.9073 148.286 27.4483C151.917 28.9212 152.53 30.7972 151.99 33.327Z" fill="#EA8888"/>
<path d="M146.305 198.035H162.656C162.656 198.035 163.047 195.542 162.193 193.653C161.374 191.839 160.092 191.014 160.401 188.82C159.362 189.89 157.668 191.088 155.304 190.771C155.014 191.241 153.433 193.754 152.468 194.448C151.398 195.215 146.633 194.941 146.305 198.035Z" fill="#060632"/>
<path d="M111.195 198.036H127.546C127.546 198.036 128.157 195.428 127.084 193.654C126.135 192.085 126.497 191.189 127.201 189.891C126.46 190.194 125.501 190.47 124.446 190.409C123.631 190.363 122.771 189.993 122.015 189.555C121.311 190.357 118.298 193.773 117.356 194.449C116.288 195.216 111.524 194.941 111.195 198.036Z" fill="#060632"/>
<path d="M151.351 33.8818C151.036 35.7132 150.237 37.8882 149.522 40.5072C148.346 44.8071 144.184 44.4393 141.719 43.7985C146.736 42.8624 145.224 31.0028 145.224 31.0028C147.189 30.3843 149.481 31.6436 151.351 33.8818Z" fill="#FA7269"/>
<path d="M159.919 93.4142C149.237 94.0829 142.578 72.3139 142.578 72.3139C142.578 72.3139 153.295 62.0424 157.436 61.4629C157.631 61.7081 157.738 61.7471 157.854 61.7954C157.967 61.8437 158.086 61.9012 158.301 62.1761C157.527 65.1257 156.349 70.7407 155.454 76.0455C155.227 77.3903 155.313 78.7629 155.688 80.0612C155.835 80.5795 156.03 81.0847 156.267 81.5713C157.711 84.5172 159.897 89.5898 159.919 93.4142Z" fill="#E75755"/>
<path d="M151.456 83.8792C150.434 83.9275 148.82 83.9423 147.869 83.634C147.869 83.634 150.843 83.4352 150.161 82.5288C150.037 82.3635 148.566 82.5715 146.915 82.657C146.237 82.6923 144.558 84.0352 144.645 84.0742C143.439 83.9794 142.396 83.4779 142.039 83.4204C141.946 83.4074 141.907 83.3907 141.907 83.3907L141.012 86.5241C141.012 86.5241 141.236 86.5687 141.63 86.6226C142.626 86.812 144.675 87.2262 146.623 87.867C149.348 88.7846 151.242 87.3674 152.086 86.3904C152.621 85.7719 153.024 84.9657 152.962 84.4011C152.897 83.777 152.078 83.8494 151.456 83.8792Z" fill="#EA8888"/>
<path d="M147.121 47.3353C147.121 47.3353 151.107 43.2861 151.107 41.7371C151.107 40.188 150.35 35.7079 149.577 36.0849C148.804 36.462 146.265 42.0863 146.152 41.7798C146.04 41.4733 146.689 40.3068 146.583 39.7701C146.538 39.5453 146.096 38.6259 145.652 39.6289C145.258 40.5186 144.397 41.6888 144.341 42.6453C144.285 43.6019 145.015 44.7238 144.246 46.5292L147.121 47.3353Z" fill="#EA8888"/>
<path d="M140.236 25.402C142.421 24.0536 143.45 24.8634 143.912 25.6491C150.404 24.503 152.414 30.1459 152.414 30.1459C151.561 34.8452 153.914 38.5024 153.914 38.5024C153.914 38.5024 151.708 39.0076 147.872 36.4964C146.7 35.7293 145.864 34.4272 145.266 32.9877C145.998 36.4184 147.614 39.2602 147.614 39.2602C143.383 35.2315 143.743 27.5604 143.793 26.7542C142.996 27.0941 141.386 27.8761 140.623 28.92C139.584 30.3372 138.249 33.5282 137.333 33.0918C137.333 33.0955 136.96 27.4248 140.236 25.402Z" fill="#0B0754"/>
<path d="M122.613 80.383C122.613 80.383 124.053 84.7795 143.474 87.0028L144.646 84.0737C144.646 84.0737 132.924 79.4116 126.672 74.6603C125.34 73.648 122.613 80.383 122.613 80.383Z" fill="#EA8888"/>
<path d="M160.895 57.7455C158.646 62.5488 153.789 68.3272 148.904 72.7795C147.503 74.0574 146.103 75.2238 144.76 76.2287C140.748 79.2266 137.259 80.7682 135.916 79.4123C134.614 78.0973 141.621 65.4668 146.129 58.5925C146.699 57.7232 147.228 56.9468 147.698 56.2967C148.907 54.6176 150.068 53.3564 151.106 52.4129C153.655 50.0967 155.471 49.6862 155.471 49.6862C163.46 49.2497 160.895 57.7455 160.895 57.7455Z" fill="#EA8888"/>
<path d="M144.643 71.6735C143.627 68.7741 144.625 63.2 146.129 58.5917C146.7 57.7225 147.229 56.9461 147.699 56.296C148.908 54.6169 150.069 53.3557 151.107 52.4121C152.32 58.7719 144.643 71.6735 144.643 71.6735Z" fill="#E75755"/>
<path d="M147.128 47.1411C147.128 47.1411 146.895 53.6533 146.333 60.2508C145.805 66.4044 145.915 75.3089 144.646 76.3138C138.336 81.3065 135.918 79.4119 135.918 79.4119C133.801 70.2474 144.496 45.958 144.496 45.958C146.032 44.9884 147.128 47.1411 147.128 47.1411Z" fill="#EA8888"/>
<path d="M149.809 53.6996C149.809 53.6996 151.79 64.1086 156.256 66.6198C156.256 66.6198 165.801 55.2877 159.549 50.2634C159.549 50.2634 156.423 48.3224 151.863 48.3242L149.809 53.6996Z" fill="#ED6966"/>
<path d="M131.029 49.7578C131.029 49.7578 128.055 51.2419 125.828 56.1808C125.828 56.1808 127.117 58.9446 129.628 59.2789C132.141 59.6151 132.429 50.6197 131.029 49.7578Z" fill="#ED6966"/>
<path d="M128.696 76.0785C128.696 76.0785 127.6 75.4414 126.176 75.1888C124.751 74.938 128.473 69.4958 128.696 67.6941C128.919 65.8924 128.696 76.0785 128.696 76.0785Z" fill="#E0EAFD"/>
<path d="M208.538 34.0093C208.538 34.0093 208.281 29.8599 208.311 28.0637C208.341 26.2676 212.78 21.1133 214.286 21.1133C215.793 21.1133 215.291 25.8627 215.04 27.3394C214.79 28.816 215.542 30.1571 214.706 31.3291C213.868 32.5011 212.223 34.9863 212.223 34.9863L208.538 34.0093Z" fill="#FC9290"/>
<path d="M235.014 40.8472L227.893 47.675C226.214 46.2727 224.884 44.6679 223.827 43.1021C223.662 42.8569 223.502 42.6136 223.35 42.3721C222.399 40.849 221.7 39.4188 221.197 38.3118C221.115 38.1335 221.037 37.9626 220.966 37.8029C220.573 36.9429 224.921 34.192 227.375 32.4498C228.136 31.8851 228.727 31.4431 228.922 31.1719C228.922 31.1719 228.753 32.3235 228.914 33.1092C229.291 34.9499 230.101 36.0773 231.062 37.1305C233.552 39.859 235.014 40.8472 235.014 40.8472Z" fill="#FC9290"/>
<path d="M229.626 33.2715C229.626 33.2715 228.215 40.7755 223.825 43.1009C223.66 42.8558 223.5 42.6124 223.348 42.371C222.397 40.8479 221.699 39.4177 221.195 38.3107C221.73 37.1999 225.389 34.8651 227.564 33.3216C228.792 33.2975 229.626 33.2715 229.626 33.2715Z" fill="#EA8888"/>
<path d="M220.898 41.6046C220.898 41.6046 231.557 38.0458 229.239 31.4408C226.921 24.8358 226.735 19.9285 219.831 21.9215C212.927 23.9145 212.496 26.8975 212.734 29.2899C212.97 31.6841 218.065 42.3605 220.898 41.6046Z" fill="#FC9290"/>
<path d="M230.058 33.4352C230.058 33.4352 228.973 32.7145 231.358 28.9477C232.588 27.0048 233.685 25.1771 231.943 22.0158C230.201 18.8544 230.31 16.3079 225.509 16.3079C220.706 16.3079 220.223 14.0846 217.777 14.8591C215.33 15.6337 213.155 19.2296 211.062 19.9039C208.969 20.5781 207.379 31.5536 212.171 31.2509C212.171 31.2509 213.973 30.3537 214.779 28.9049C215.585 27.4543 219.671 24.1518 220.969 25.2291C222.27 26.3064 227.482 33.4872 230.058 33.4352Z" fill="#060632"/>
<path d="M227.501 46.3342C223.871 46.1188 217.27 49.4138 211.317 53.2866L212.688 34.6083C211.493 32.541 208.146 33.297 208.146 33.297C208.146 33.297 206.17 35.0318 202.448 45.6563C199.01 55.4709 198.82 64.3419 198.82 64.3419C198.954 69.2678 202.959 69.539 202.959 69.539C215.738 67.3788 236.764 57.9691 236.764 57.9691C239.424 54.6685 235.198 46.7912 227.501 46.3342Z" fill="#6D89CF"/>
<path d="M231.909 195.767C231.814 196.818 231.584 197.708 231.11 197.933C231.028 197.972 230.891 198.007 230.707 198.037H214.7C214.271 198.024 214.027 198.015 214.027 198.015C214.027 198.015 214.068 196.036 216.789 195.654C218.988 195.346 222.544 194.298 224.291 192.019C224.706 191.48 225.018 190.869 225.187 190.186C226.067 186.612 231.833 191.425 231.833 191.425C231.833 191.425 231.898 192.047 231.938 192.912C231.979 193.752 231.998 194.825 231.909 195.767Z" fill="#060632"/>
<path d="M246.914 198.037H229.125C229.322 197.582 230.05 196.241 231.906 195.767C232.084 195.719 232.273 195.682 232.474 195.654C234.391 195.385 237.34 194.554 239.224 192.834C240.013 192.115 240.613 191.241 240.873 190.186C241.754 186.612 247.519 191.425 247.519 191.425C247.519 191.425 247.58 191.995 247.623 192.806C247.716 194.56 247.738 197.437 246.914 198.037Z" fill="#060632"/>
<path d="M239.362 101.195C239.362 101.195 239.349 101.842 239.323 103.003C239.161 110.488 238.522 139.432 237.915 155.568C237.891 156.154 237.868 156.723 237.846 157.275C237.835 157.566 237.822 157.86 237.811 158.149C237.447 165.951 236.388 173.59 235.318 179.697C233.955 187.489 232.571 192.794 232.571 192.794C227.374 193.847 224.005 191.871 224.005 191.871C224.005 191.871 222.604 179.779 222.071 172.461C221.896 170.087 221.04 161.983 219.967 152.128C219.135 144.505 218.172 135.834 217.288 127.948C217.242 127.528 217.197 127.108 217.149 126.694C215.722 113.943 214.543 103.558 214.543 103.558L223.732 102.683L239.362 101.195Z" fill="#0B0754"/>
<path d="M235.322 179.7L219.971 152.13C219.138 144.507 218.176 135.837 217.292 127.95C217.246 127.53 217.201 127.111 217.153 126.696C215.726 113.945 214.547 103.56 214.547 103.56L223.736 102.686L239.325 103.005L235.322 179.7Z" fill="#060632"/>
<path d="M216.242 103.628C216.242 103.628 224.833 146.091 231.831 166.584C238.83 187.077 238.918 192.771 238.918 192.771C238.918 192.771 245.341 194.164 248.169 192.547C248.169 192.547 249.785 153.697 245.55 143.379C242.749 136.555 240.606 122.03 241.334 116.799C242.062 111.567 242.742 101.076 242.742 101.076L216.242 103.628Z" fill="#0B0754"/>
<path d="M243.872 99.9708C243.389 102.569 242.237 104.639 240.458 105.9C238.428 107.337 235.227 107.856 231.704 107.802C227.59 107.735 223.033 106.886 219.393 105.796C217.433 105.211 215.743 104.559 214.521 103.922C209.08 101.085 209.851 97.3092 209.983 83.176C210.115 68.7513 218.993 50.1066 220.593 46.9842C223.438 41.4268 235.513 43.2545 235.513 43.2545C238.16 45.6822 240.478 49.2076 242.057 54.843C242.696 57.1239 243.069 60.3149 243.285 63.8979C243.939 74.8474 243.093 89.4486 243.732 92.8588C244.219 95.474 244.26 97.8905 243.872 99.9708Z" fill="#93B3F4"/>
<path d="M233.935 37.7461C233.935 37.7461 235.91 42.4231 235.512 43.2552C235.512 43.2552 224.665 44.2786 220.25 47.4233C220.25 47.4233 221.702 42.8819 223.469 41.7544C225.232 40.6251 233.935 37.7461 233.935 37.7461Z" fill="#6D89CF"/>
<path d="M243.876 99.9692C221.408 91.4177 234.236 59.7988 234.236 59.7988C237.378 60.0217 240.458 61.5485 243.287 63.8963C243.941 74.8458 243.095 89.447 243.734 92.8572C244.223 95.4724 244.264 97.8889 243.876 99.9692Z" fill="#6D89CF"/>
<path d="M236.282 87.0508C236.282 87.0508 235.05 89.1831 233.867 88.6797C232.682 88.1782 230.292 87.647 228.514 88.7912C226.737 89.9354 224.058 93.0242 225.732 93.7783C227.407 94.5325 230.589 92.532 231.341 92.1958C232.095 91.8615 233.407 92.5302 234.857 91.8058C236.31 91.0795 237.816 89.6289 237.816 89.6289L236.282 87.0508Z" fill="#FC9290"/>
<path d="M261.221 68.1662C252.861 58.2643 233.601 45.3608 233.601 45.3608C229.407 44.7478 224.775 52.393 228.299 59.2543C230.336 63.2199 239.047 67.9488 246.557 70.93L234.348 87.6245C233.388 91.174 238.875 90.2304 238.875 90.2304C238.875 90.2304 243.44 88.8783 251.715 82.0708C256.165 78.4098 258.602 74.5371 259.89 71.8104C260.971 70.109 261.221 68.1662 261.221 68.1662Z" fill="#93B3F4"/>
<path d="M67.0547 96.0109C67.0547 96.0109 69.0347 100.565 69.5641 101.188C70.0916 101.81 72.7421 103.398 72.952 103.292C73.16 103.186 73.2306 102.965 72.9668 102.549C72.7031 102.133 71.5719 100.952 71.7911 100.918C72.0103 100.885 75.519 104.098 76.3065 103.584C77.094 103.067 76.9826 99.9728 75.7939 98.1636C74.6051 96.3545 70.0637 94.4228 69.8222 94.1479C67.7716 91.8187 67.0547 96.0109 67.0547 96.0109Z" fill="#FC9290"/>
<path d="M50.2994 38.4397C50.2994 38.4397 53.0892 60.3535 55.8438 70.6399C55.8438 70.6399 72.3451 94.205 72.3005 95.4067C72.3005 95.4067 70.4654 98.83 66.1636 97.1063C66.1636 97.1063 46.5177 82.4401 44.012 78.1179C41.5064 73.7957 35.4493 51.4918 35.5923 48.8561C35.7335 46.2223 45.2194 32.3418 50.2994 38.4397Z" fill="#3662C1"/>
<path d="M2.66645 182.835C2.66645 182.835 -0.545041 185.813 0.0809094 187.929C0.70686 190.044 3.60628 191.454 3.9982 194.039C4.39012 196.625 5.95778 198.035 7.36756 198.035C8.77734 198.035 14.0914 198.035 14.0914 198.035C14.0914 198.035 15.1297 196.216 12.6222 195.667C10.1147 195.119 9.16927 192.08 9.32715 189.258C9.48317 186.437 9.09125 182.678 9.09125 182.678L3.76416 181.424L2.66645 182.835Z" fill="#0B0B36"/>
<path d="M42.7002 197.927C42.7262 197.94 42.7559 197.951 42.7912 197.964H60.8881C60.719 197.319 60.1265 196.147 58.0573 195.811C55.2489 195.354 50.3825 193.723 49.2959 190.131C49.2625 190.016 49.2309 189.897 49.203 189.778C48.3412 185.941 42.0724 190.954 42.0724 190.954C42.0724 190.954 42.0538 191.106 42.026 191.366C41.8811 192.774 41.5096 197.331 42.7002 197.927Z" fill="#0B0B36"/>
<path d="M57.315 95.2433C57.315 95.2433 56.3621 107.12 55.2439 121.398C53.7227 140.791 51.895 164.612 51.713 169.126C51.4009 176.962 50.1453 189.496 50.1453 189.496C50.1453 189.496 47.1697 192.474 41.213 191.22C41.213 191.22 35.9063 173.326 34.3888 154.393C34.3647 154.083 34.3424 153.771 34.3183 153.457C32.9085 134.182 30.7148 93.5977 30.7148 93.5977L57.315 95.2433Z" fill="#A83F3F"/>
<path d="M57.3131 95.2433C57.3131 95.2433 56.3602 107.12 55.2421 121.398L34.3888 154.393C34.3647 154.083 34.3424 153.771 34.3183 153.457C32.9085 134.182 30.7148 93.5977 30.7148 93.5977L57.3131 95.2433Z" fill="#9E332E"/>
<path d="M52.9669 96.655C52.9669 96.655 35.808 139.667 24.5261 159.882C13.2441 180.096 9.71873 185.737 9.71873 185.737C9.71873 185.737 3.25491 183.151 2.66797 181.389C2.66797 181.389 6.98276 142.364 14.5369 132.852C18.8052 127.477 23.8203 111.345 24.0562 105.704C24.292 100.063 25.5848 88.8984 25.5848 88.8984L52.9669 96.655Z" fill="#A83F3F"/>
<path d="M43.043 33.4122C43.043 33.4122 43.8063 40.9496 50.3073 42.456C50.3073 42.456 53.2365 40.5391 54.598 38.5814C54.7651 38.3399 54.9286 38.1077 55.0846 37.8867C56.6263 35.6875 57.5512 34.495 57.5512 34.495C57.5512 34.495 57.5494 34.4932 57.5476 34.4895C57.3804 34.2332 51.9029 25.9045 51.7301 26.1682C47.7645 32.255 43.043 33.4122 43.043 33.4122Z" fill="#FC9290"/>
<path d="M51.5146 28.1199C51.3195 29.9829 52.0198 34.3664 55.0808 37.8843C56.6225 35.6851 57.5475 34.4927 57.5475 34.4927C57.5475 34.4927 57.5456 34.4908 57.5438 34.4871C57.371 34.2884 51.5703 27.5701 51.5146 28.1199Z" fill="#EA8888"/>
<path d="M59.302 35.3527C59.302 35.3527 49.3629 31.5153 51.8481 25.3635C54.3334 19.2118 54.7234 14.5719 61.1742 16.7618C67.6251 18.9517 67.9018 21.7936 67.5712 24.0485C67.2425 26.3053 61.9507 36.1923 59.302 35.3527Z" fill="#FC9290"/>
<path d="M26.0398 96.6186C30.9694 100.829 59.5402 100.699 58.2902 97.2185C57.6995 95.5784 56.6297 92.3632 56.104 87.6881C55.6322 83.4941 55.5969 78.115 56.743 71.6363C57.0234 70.0463 57.3745 68.3914 57.8073 66.6714C58.3923 64.3459 58.8288 61.9684 59.1093 59.6374C59.2022 58.8702 59.2765 58.1106 59.3359 57.3583C59.7854 51.5111 59.191 46.1896 57.3782 43.0822C54.6236 38.3588 46.0331 31.9785 46.0331 31.9785C46.0331 31.9785 28.1888 36.2227 24.0561 69.1213C24.0542 69.1213 21.7529 92.9539 26.0398 96.6186Z" fill="#6D89CF"/>
<path d="M64.7627 28.475C64.3615 27.6894 63.4978 27.2584 62.6285 27.3996C61.1853 27.6336 59.0622 28.2336 58.1131 29.7808C56.9652 31.6531 57.9924 34.7754 57.45 37.0842C56.982 39.079 59.2629 41.0906 59.2629 41.0906C59.2629 41.0906 60.3513 39.1403 62.2997 37.8179C63.8952 36.735 66.0164 33.2412 65.8883 31.6215C65.8158 30.7021 65.2437 29.4149 64.7627 28.475Z" fill="#93B3F4"/>
<path d="M51.1462 27.0229C50.9791 27.0173 48.7483 26.3245 50.0095 16.9891C50.2064 15.5236 51.4472 12.9083 54.1479 11.6954C56.8504 10.4825 62.4969 11.935 66.7467 13.7906C70.9965 15.6462 70.4523 18.3803 69.8858 21.1125C69.2895 23.9804 70.7198 27.6544 70.7198 27.6544C66.2378 27.2513 64.1018 21.9892 62.458 21.4915C60.8141 20.9918 58.8768 22.7991 58.3085 23.4139C57.7401 24.0287 57.1959 24.4893 55.9105 22.7155C54.6252 20.9417 53.494 24.6008 53.3714 25.366C53.3714 25.366 52.5505 27.0637 51.1462 27.0229Z" fill="#A83F3F"/>
<path d="M56.7413 71.6367C57.0218 70.0468 57.3728 68.3918 57.8056 66.6718C58.3907 64.3463 58.8272 61.9689 59.1077 59.6378C54.3657 53.2315 47.3075 46.907 43.0391 47.1411C43.041 47.1411 42.8144 66.3654 56.7413 71.6367Z" fill="#3662C1"/>
<path d="M39.6136 38.0202C39.6136 38.0202 46.8538 36.161 52.6137 43.1709C58.3735 50.1808 68.5689 69.236 68.5689 69.236C68.5689 69.236 66.548 72.7261 60.5801 70.8408C57.5507 69.8843 25.6681 44.0364 39.6136 38.0202Z" fill="#6D89CF"/>
<path d="M67.0885 40.5584C67.0885 40.5584 66.587 38.4874 67.148 36.5222C67.6068 34.9174 66.6632 30.8887 66.0837 30.09C65.5042 29.2913 62.8926 27.7236 62.6419 28.1676C62.3911 28.6133 63.3384 31.0428 63.4146 31.4682C63.604 32.5139 63.4963 33.8011 63.3254 33.6971C63.1545 33.5931 61.7503 32.1387 61.7503 32.1387C61.7503 32.1387 61.442 32.5474 61.7503 33.4203C62.0586 34.2933 62.8722 36.2009 63.422 36.7098C63.9718 37.2188 63.9606 41.0933 63.9606 41.0933L67.0885 40.5584Z" fill="#FC9290"/>
<path d="M68.1334 36.6057C68.1334 36.6057 72.4388 56.441 68.5642 69.2907C68.5642 69.2907 62.9809 70.3624 60.8207 67.1063C58.6624 63.8503 62.5481 37.5344 62.5481 37.5344C62.5481 37.5344 64.9646 34.5997 68.1334 36.6057Z" fill="#6D89CF"/>
</svg>
