<svg width="193" height="190" viewBox="0 0 193 190" fill="none" xmlns="http://www.w3.org/2000/svg">
<path d="M1.98438 185.418L2.967 188.585L12.6506 188.565C12.6506 188.565 10.1669 184.297 1.98438 185.418Z" fill="#221E50"/>
<path d="M24.0156 185.418L24.9983 188.585L34.6819 188.565C34.6819 188.565 32.1929 184.297 24.0156 185.418Z" fill="#221E50"/>
<path d="M11.043 129.084H24.3964L32.1575 185.806L22.9653 185.849L11.043 129.084Z" fill="#24285B"/>
<path d="M17.5409 129.349V137.111C17.5409 137.111 16.8435 137.209 16.3885 137.62C16.2035 137.779 16.0762 137.994 16.0255 138.23C15.8363 139.164 15.2711 148.51 15.2711 148.51V148.558C14.2262 158.148 11.2524 185.883 11.2524 185.883C11.2524 185.883 2.82619 186.215 1.15132 185.841C-0.0737166 185.568 2.66415 152.828 4.04346 135.564L4.78237 129.501L17.2843 129.342L17.5409 129.349Z" fill="#333381"/>
<path d="M31.9727 73.8212L33.4349 71.9534C33.4349 71.9534 33.0991 68.5804 36.7094 67.4481C36.7094 67.4481 38.2222 67.0931 37.9992 68.2115C37.7762 69.3299 37.7049 68.8833 37.4224 70.4584C37.1398 72.0336 35.5621 73.2156 34.8868 73.5222L33.8497 75.1165L31.9727 73.8212Z" fill="#E5B0B4"/>
<path d="M17.1086 90.4897C15.9238 88.2821 15.9277 86.819 15.9277 86.819L10.1382 83.8926C10.2497 88.3878 9.60284 89.6792 9.86989 91.4223C9.87766 91.463 17.132 90.5342 17.1086 90.4897Z" fill="#D78587"/>
<path d="M17.0814 86.4948C17.0814 86.4948 10.9757 88.7977 9.5731 85.0431C8.17048 81.2884 6.43859 79.0631 10.277 77.4294C14.1154 75.7957 15.413 76.9599 16.1921 78.1012C16.9712 79.2424 18.6331 85.7988 17.0814 86.4948Z" fill="#E5B0B4"/>
<path d="M9.67141 85.3029C9.67141 85.3029 8.71601 80.0863 14.3006 78.0976C18.1261 76.7337 15.0615 73.9791 14.5041 73.5566C14.5041 73.5566 11.6068 74.7285 8.65897 76.0148C2.47159 78.7134 8.8262 84.6692 9.67141 85.3029Z" fill="#555CA3"/>
<path d="M24.829 128.872C24.5166 129.668 15.4955 129.68 9.68922 129.602C6.92026 129.567 4.8928 129.509 4.8928 129.509C4.21352 129.595 2.23403 127.836 3.56406 120.29C4.44038 115.311 4.15389 106.892 2.19384 100.569C2.07112 100.169 1.94149 99.7785 1.80494 99.3968C1.79068 99.3586 1.77772 99.3204 1.76346 99.281C0.353053 95.3787 3.10257 91.638 6.68951 90.5604C7.63972 90.2741 8.82327 89.8517 9.81885 89.685C10.4605 89.9395 13.236 91.11 15.4553 90.4013C16.6324 90.0196 16.6427 89.554 16.5014 89.288C21.9901 88.7715 26.3924 88.2969 26.3924 88.2969C29.1627 102.506 26.2265 125.322 24.829 128.872Z" fill="#AEC0F8"/>
<path d="M5.40826 133.184C9.24406 133.184 10.7504 130.324 10.7504 130.324C10.7348 130.351 9.08331 133.048 5.27344 132.982V133.183L5.40826 133.184Z" fill="#221E50"/>
<path d="M1.67675 182.115C2.82503 176.739 3.69299 171.309 4.27725 165.846C4.37448 164.955 4.46782 164.025 4.55597 163.103C4.65191 162.085 4.74265 161.053 4.82432 160.038C4.85284 159.689 4.7608 159.291 4.67135 158.905C4.58968 158.547 4.50412 158.176 4.52616 157.876C4.80618 154.017 4.87228 150.496 4.93192 147.379C4.94574 146.563 4.96174 145.764 4.97989 144.981C5.14453 137.905 5.26638 133.895 5.27027 133.855C5.27027 133.895 4.88137 137.895 4.72062 144.981C4.70247 145.765 4.6882 146.564 4.67264 147.379C4.61431 150.488 4.54301 154.011 4.26689 157.863C4.24226 158.199 4.333 158.587 4.41986 158.963C4.50671 159.338 4.59228 159.711 4.56635 160.024C4.48468 161.042 4.39393 162.067 4.298 163.085C4.20985 164.007 4.11651 164.929 4.01928 165.826C3.38536 171.687 2.63477 177.368 1.60156 182.122L1.67675 182.115Z" fill="#2B295E"/>
<path d="M43.0991 72.6032C43.0991 72.6032 39.284 83.8939 37.2021 86.1027C35.5881 87.8165 30.2862 94.1108 26.532 97.1555C25.447 98.036 24.4903 98.6442 23.7916 98.7943C20.67 99.4559 17.0273 94.0077 17.0273 94.0077C17.0273 94.0077 20.2072 89.3917 30.2071 83.2552C30.2071 83.2552 37.3174 74.4188 40.0929 72.0586L42.0698 72.4136L43.0991 72.6032Z" fill="#AEC0F8"/>
<path d="M35.8408 74.1928C35.8408 74.1928 33.6785 78.6231 31.0716 83.0725C28.6539 87.1974 25.7968 91.3427 25.4066 91.8096C23.584 93.9828 16.401 100.165 13.1278 102.432C12.35 102.973 11.7899 103.291 11.5799 103.279C-0.403342 102.618 3.15379 93.0578 3.15379 93.0578C3.15379 93.0578 13.4441 89.3133 19.7909 86.4009C19.7909 86.4009 24.2179 81.1105 25.872 79.2135C27.4937 77.3559 32.8955 71.3848 32.8955 71.3848L34.6702 73.0744L35.8408 74.1928Z" fill="#AEC0F8"/>
<path opacity="0.2" d="M9.69067 129.6C6.92172 129.564 4.89426 129.507 4.89426 129.507C4.21499 129.592 2.2355 127.834 3.56553 120.288C4.44185 115.309 4.15536 106.89 2.19531 100.566C4.4211 103.493 8.15064 108.788 8.24268 113.43C8.37231 119.939 5.51132 125.684 7.07598 127.343C7.87592 128.172 8.75109 128.927 9.69067 129.6Z" fill="#94A8E5"/>
<path opacity="0.2" d="M35.8418 74.1926C35.8418 74.1926 33.6796 78.6229 31.0727 83.0723C28.655 87.1972 25.7979 91.3425 25.4077 91.8094C23.5851 93.9826 16.4021 100.165 13.1289 102.432C14.713 100.225 19.0816 94.3363 22.8358 91.1287C26.8155 87.729 32.9238 76.3988 34.6687 73.0742L35.8418 74.1926Z" fill="#94A8E5"/>
<path opacity="0.2" d="M43.0983 72.6057C43.0983 72.6057 39.2832 83.8964 37.2013 86.1052C35.5874 87.8191 30.2854 94.1133 26.5312 97.158C26.4016 96.2445 26.3549 95.5905 26.4781 95.4684C26.9124 95.0434 35.9296 85.2566 37.0574 84.2349C38.0374 83.3442 41.2497 74.6618 42.069 72.4199L43.0983 72.6057Z" fill="#94A8E5"/>
<path d="M39.9688 72.6174L41.2158 70.6046C41.2158 70.6046 40.5106 67.2863 43.9745 65.7824C43.9745 65.7824 45.4393 65.2735 45.3395 66.4021C45.2397 67.5306 45.1217 67.0993 45.0154 68.6923C44.9091 70.2852 43.4728 71.6301 42.8311 72.0003L41.9729 73.6976L39.9688 72.6174Z" fill="#E5B0B4"/>
<path d="M101.6 185.418L100.617 188.585L90.9336 188.565C90.9336 188.565 93.4199 184.297 101.6 185.418Z" fill="#221E50"/>
<path d="M79.5749 185.418L78.5923 188.585L68.9102 188.565C68.9102 188.565 71.3952 184.297 79.5749 185.418Z" fill="#221E50"/>
<path d="M92.547 129.084H79.1935L71.4336 185.806L80.6246 185.849L92.547 129.084Z" fill="#24285B"/>
<path d="M86.0391 129.349V137.111C86.0391 137.111 86.7365 137.209 87.1915 137.62C87.3764 137.779 87.5038 137.994 87.5545 138.23C87.7437 139.164 88.3089 148.51 88.3089 148.51V148.558C89.3551 158.148 92.3275 185.883 92.3275 185.883C92.3275 185.883 100.754 186.215 102.429 185.841C103.654 185.568 100.916 152.828 99.5377 135.564L98.7923 129.501L86.2957 129.342L86.0391 129.349Z" fill="#333381"/>
<path d="M122.054 73.0177L123.308 71.0087C123.308 71.0087 126.635 70.1053 126.419 66.3952C126.419 66.3952 126.214 64.8811 125.234 65.4867C124.254 66.0924 124.701 65.9957 123.304 66.8202C121.906 67.6446 121.348 69.5086 121.301 70.2415L120.156 71.7683L122.054 73.0177Z" fill="#E5B0B4"/>
<path d="M63.6176 72.6174L62.3706 70.6046C62.3706 70.6046 63.0758 67.2863 59.6121 65.7824C59.6121 65.7824 58.1473 65.2735 58.2471 66.4021C58.3469 67.5306 58.4648 67.0993 58.5711 68.6923C58.6774 70.2852 60.1137 71.6301 60.7554 72.0003L61.6136 73.6976L63.6176 72.6174Z" fill="#E5B0B4"/>
<path d="M86.4766 90.4897C87.6615 88.2822 87.6576 86.819 87.6576 86.819L93.4469 83.8926C93.3355 88.3878 93.9823 89.6792 93.7153 91.4223C93.7075 91.463 86.4533 90.5342 86.4766 90.4897Z" fill="#D78587"/>
<path d="M86.5082 86.4948C86.5082 86.4948 92.6126 88.7977 94.0153 85.0431C95.4179 81.2884 97.1498 79.0631 93.3114 77.4294C89.4729 75.7957 88.1753 76.9599 87.3974 78.1012C86.6196 79.2424 84.9525 85.7988 86.5082 86.4948Z" fill="#E5B0B4"/>
<path d="M93.9179 85.3042C93.9179 85.3042 94.8733 80.0876 89.2887 78.0989C85.4684 76.7375 88.5278 73.9803 89.0852 73.5566C89.0852 73.5566 91.9838 74.7285 94.9304 76.0148C101.118 78.7147 94.7631 84.6705 93.9179 85.3042Z" fill="#555CA3"/>
<path d="M78.7583 128.872C79.0707 129.668 88.0919 129.68 93.8981 129.602C96.6671 129.566 98.6945 129.509 98.6945 129.509C99.3751 129.594 101.355 127.836 100.025 120.29C99.147 115.311 99.4334 106.892 101.393 100.569C101.516 100.169 101.646 99.7785 101.782 99.3968C101.797 99.3586 101.81 99.3204 101.824 99.281C103.234 95.3787 100.485 91.638 96.8978 90.5604C95.9463 90.2741 94.7628 89.8517 93.7685 89.685C93.1268 89.9395 90.3501 91.11 88.1308 90.4013C86.9537 90.0196 86.8941 89.5489 87.0354 89.2829C81.5467 88.774 77.1936 88.2969 77.1936 88.2969C74.4247 102.506 77.3635 125.322 78.7583 128.872Z" fill="#AEC0F8"/>
<path d="M98.182 133.184C94.3462 133.184 92.8398 130.324 92.8398 130.324C92.8554 130.351 94.5069 133.048 98.3168 132.982V133.183L98.182 133.184Z" fill="#221E50"/>
<path d="M101.914 182.115C100.766 176.739 99.8982 171.309 99.3133 165.846C99.2161 164.955 99.1227 164.025 99.0359 163.103C98.9387 162.085 98.8479 161.053 98.7662 160.038C98.7377 159.689 98.8298 159.291 98.9192 158.905C99.0153 158.57 99.0646 158.224 99.0657 157.876C98.7844 154.017 98.7183 150.496 98.6599 147.379C98.6444 146.563 98.628 145.764 98.6107 144.981C98.4461 137.905 98.3242 133.895 98.3203 133.855C98.3203 133.895 98.7092 137.895 98.8699 144.981C98.8881 145.765 98.9023 146.564 98.9179 147.379C98.9762 150.488 99.0475 154.011 99.3236 157.863C99.3483 158.199 99.2575 158.587 99.172 158.963C99.0864 159.338 98.9983 159.711 99.0242 160.024C99.1059 161.042 99.1966 162.067 99.2925 163.085C99.3807 164.007 99.474 164.929 99.5712 165.826C100.205 171.687 100.956 177.368 101.989 182.122L101.914 182.115Z" fill="#2B295E"/>
<path d="M60.4922 72.6032C60.4922 72.6032 64.3086 83.8939 66.3892 86.1027C68.0031 87.8165 73.3064 94.1108 77.0593 97.1555C78.1443 98.036 79.101 98.6442 79.7997 98.7943C82.9213 99.4559 86.564 94.0077 86.564 94.0077C86.564 94.0077 83.3841 89.3917 73.3842 83.2552C73.3842 83.2552 66.2738 74.4188 63.4997 72.0586L61.5215 72.4136L60.4922 72.6032Z" fill="#AEC0F8"/>
<path d="M123.504 72.4877C123.504 72.4877 121.341 76.918 118.734 81.3674C116.318 85.4923 113.46 89.6376 113.071 90.1046C111.247 92.279 104.065 98.46 100.792 100.727C100.014 101.268 99.4527 101.586 99.2362 101.575C87.2529 100.913 90.81 91.3527 90.81 91.3527C90.81 91.3527 101.1 87.6082 107.447 84.6958C107.447 84.6958 111.874 79.4055 113.528 77.5097C115.15 75.6508 120.552 69.6797 120.552 69.6797L122.326 71.3694L123.504 72.4877Z" fill="#AEC0F8"/>
<path opacity="0.2" d="M93.8945 129.6C96.6635 129.564 98.6909 129.507 98.6909 129.507C99.3714 129.592 101.351 127.834 100.021 120.288C99.1433 115.309 99.4298 106.89 101.39 100.566C99.164 103.493 95.4346 108.788 95.3425 113.43C95.2129 119.939 98.0738 125.684 96.5092 127.343C95.7096 128.172 94.8344 128.927 93.8945 129.6Z" fill="#2D4898"/>
<path opacity="0.2" d="M123.505 72.4875C123.505 72.4875 121.342 76.9178 118.735 81.3672C116.319 85.4921 113.461 89.6374 113.072 90.1043C111.248 92.2788 104.066 98.4598 100.793 100.727C102.377 98.5196 106.744 92.6312 110.499 89.4236C114.478 86.024 120.587 74.6938 122.331 71.3691L123.505 72.4875Z" fill="#2D4898"/>
<path opacity="0.2" d="M60.4922 72.6057C60.4922 72.6057 64.3086 83.8964 66.3892 86.1052C68.0031 87.8191 73.3064 94.1133 77.0593 97.158C77.1889 96.2445 77.2369 95.5905 77.1125 95.4684C76.6795 95.0434 67.6609 85.2566 66.5344 84.2349C65.5531 83.3442 62.3408 74.6618 61.5215 72.4199L60.4922 72.6057Z" fill="#2D4898"/>
<path d="M86.3854 83.8125C86.3854 83.8125 86.2765 84.3418 87.4833 84.7922C87.4833 84.7922 88.4957 85.1739 88.707 84.6294C88.7083 84.6243 87.9305 83.8278 86.3854 83.8125Z" fill="white"/>
<path d="M134.537 86.022L132.816 83.7941C132.816 83.7941 129.895 84.3819 128.581 81.4428C128.581 81.4428 128.133 80.201 129.129 80.2875C130.125 80.374 129.743 80.4746 131.146 80.57C132.549 80.6654 133.844 81.3487 134.24 82.2597L136.141 84.5117L134.537 86.022Z" fill="#E5B0B4"/>
<path d="M142.752 84.742L140.917 82.4518C140.917 82.4518 137.949 82.1706 137.575 78.9821C137.575 78.9821 137.52 77.6652 138.446 78.0368C139.372 78.4083 138.976 78.3917 140.289 78.888C141.603 79.3842 142.633 80.4148 142.738 81.3983L144.95 83.5727L142.752 84.742Z" fill="#E5B0B4"/>
<path d="M162.04 179.508L160.414 187.141L157.964 186.784L156.879 179.728L162.04 179.508Z" fill="#E5B0B4"/>
<path d="M161.318 186.742L160.378 189.796H151.051C151.051 189.796 153.436 185.677 161.318 186.742Z" fill="#D25C2A"/>
<path d="M152.23 127.521C152.23 127.521 152.431 150.399 153.068 158.026C153.558 163.879 156.733 181.465 156.733 181.465H163.155C163.155 181.465 168.976 137.671 166.055 129.469L152.23 127.521Z" fill="#24285B"/>
<path d="M154.987 86.3967C154.987 86.3967 155.217 78.9561 162.494 79.8709C169.772 80.7857 170.38 90.1501 168.915 93.275C167.45 96.3999 171.851 96.4558 173.135 99.2168C174.418 101.978 172.34 105.1 172.34 105.88C172.34 106.66 171.449 114.659 166.619 114.532C161.789 114.405 153.669 114.176 154.054 105.814C154.251 101.529 151.261 99.9281 153.172 98.3478C156.488 95.6085 154.987 86.3967 154.987 86.3967Z" fill="#333381"/>
<path d="M169.694 98.5109C168.218 98.1395 166.723 97.8469 165.214 97.6343C165.214 97.6343 164.6 97.5159 164.307 91.1797L158.892 92.7981C158.892 92.7981 159.3 95.1379 158.503 97.3009C157.066 97.3722 156.228 97.5185 156.122 97.5185C156.122 97.5185 151.491 107.344 152.233 111.844C152.974 116.344 152.751 129.061 152.751 129.061L168.861 128.865C168.401 126.475 167.715 124.132 166.811 121.867C165.321 118.167 169.694 98.5109 169.694 98.5109Z" fill="#D78587"/>
<path d="M185.104 169.201L191.108 174.308L189.599 176.236L182.789 173.735L185.104 169.201Z" fill="#E5B0B4"/>
<path d="M190.463 172.605L193.001 174.595L189.537 183.095C189.537 183.095 186.53 179.391 190.463 172.605Z" fill="#D25C2A"/>
<path d="M169.382 158.854C167.049 158.078 173.152 135.284 168.813 129.061H154.211L154.816 135.382C154.816 135.382 156.113 135.795 156.279 138.295C156.865 147.821 158.408 161.55 160.97 165.073C163.822 168.998 184.982 174.955 184.982 174.955L189.146 171.901C189.146 171.901 177.872 161.678 169.382 158.854Z" fill="#555CA3"/>
<path d="M172.064 99.4175C170.924 98.1451 165.85 97.7291 165.85 97.7291C165.64 98.0522 164.976 98.5179 164.117 99.0281C160.957 97.855 157.591 96.6997 155.846 96.4033C155.846 96.4033 151.454 89.3672 143.476 81.8223L141.511 83.6379C141.511 83.6379 142.159 84.7219 143.124 86.348C145.145 89.7311 148.592 95.4554 150.643 98.593C149.39 98.196 148.299 97.8958 147.531 97.7647C147.531 97.7647 143.138 90.7287 135.162 83.1837L133.68 84.5527L133.195 84.9993C133.195 84.9993 142.773 101.194 143.89 102.134C144.915 102.997 148.589 104.838 151.961 106.442C151.84 107.449 151.782 108.462 151.787 109.475C151.901 113.205 152.923 119.891 152.358 123.114C152.022 125.036 151.824 127.501 151.94 128.632C151.978 128.993 152.062 129.245 153.017 129.325C154.389 129.442 157.779 129.854 160.925 129.854C162.64 129.839 164.352 129.711 166.049 129.473C167.558 129.269 168.628 129.062 168.813 129.062C168.943 129.062 169.023 128.923 169.053 128.68C169.214 127.317 167.915 122.661 167.049 120.19C166.271 117.981 168.302 112.191 169.333 109.512C169.661 108.655 169.889 108.113 169.889 108.113L169.916 108.05C170.234 107.334 173.146 100.625 172.064 99.4175Z" fill="#88A3FA"/>
<path opacity="0.2" d="M151.956 106.443C148.585 104.839 144.909 102.997 143.882 102.134C142.765 101.194 133.188 84.9993 133.188 84.9993L133.672 84.5527C135.413 87.1928 143.265 99.0956 144.083 100.203C145.009 101.449 152.12 104.741 152.465 105.364C152.668 105.732 152.298 106.156 151.956 106.443Z" fill="#053B8C"/>
<path opacity="0.2" d="M157.334 100.836C154.482 99.7581 152.066 98.6843 151.598 97.7644C150.758 96.1103 146.227 90.2754 143.125 86.3477C145.904 90.9993 151.377 100.075 152.199 100.771C153.755 102.075 161.328 105.606 164.796 107.19C163.702 105.761 161.136 102.83 157.334 100.836Z" fill="#053B8C"/>
<path opacity="0.2" d="M169.144 110.002C167.07 112.622 163.365 117.808 163.848 121.05C164.257 123.467 166.946 128.465 169.052 128.675C169.213 127.312 167.914 122.655 167.048 120.184C166.318 118.104 168.076 112.843 169.144 110.002Z" fill="#053B8C"/>
<path d="M157.841 94.1477C157.841 94.1477 164.453 94.4441 164.571 90.4044C164.689 86.3648 165.632 83.6814 161.421 83.3213C157.209 82.9613 156.341 84.4792 155.965 85.8177C155.59 87.1562 156.126 93.967 157.841 94.1477Z" fill="#E5B0B4"/>
<path d="M165.584 82.9709C164.661 81.0878 161.741 79.5228 161.552 79.79C161.552 79.79 158.202 79.1755 155.52 83.0167C154.365 84.6707 154.976 87.4508 155.941 88.9636C155.941 88.9636 156.557 85.2814 158.486 84.1847C158.862 83.9609 159.202 83.6835 159.495 83.3615C159.786 83.9442 160.423 84.8476 161.805 85.938C164.268 87.8808 164.397 91.9867 164.397 91.9867C164.397 91.9867 166.834 85.5219 165.584 82.9709Z" fill="#333381"/>
<path d="M157.191 91.6403C157.191 91.6403 157.258 92.1747 158.407 92.209C158.407 92.209 159.372 92.2383 159.387 91.6594C159.387 91.6594 158.49 91.1555 157.191 91.6403Z" fill="white"/>
<path d="M64.3477 9.65496C64.3593 9.62315 64.5253 9.17528 64.7236 8.56836C64.6548 8.94708 64.5281 9.31342 64.3477 9.65496Z" fill="#D25C2A"/>
<path d="M42.9785 26.186C35.2926 25.9176 37.1541 19.4337 37.1541 19.4337C34.6988 11.7399 47.0879 7.09203 47.0879 7.09203C54.9306 4.15674 55.2832 0 55.2832 0L55.9949 0.39061C56.4603 2.07519 56.8764 4.95195 54.8749 6.3388C55.2431 6.0907 57.5713 4.36795 57.1577 1.03569C59.6208 2.41363 61.8647 3.73814 63.4709 4.70257C63.6005 5.28403 63.7755 6.27137 63.6005 6.77267C63.8105 6.2245 63.979 5.66187 64.1047 5.08936C64.4586 5.30184 64.7672 5.49142 65.0278 5.65047C65.0057 6.28664 64.9357 7.55898 64.7179 8.56286C64.985 7.7422 65.309 6.6289 65.3803 5.86549L65.9533 6.22175C66.0441 15.305 50.6644 26.4558 42.9785 26.186Z" fill="#053B8C"/>
<path d="M79.8751 0.382469C77.3603 1.14587 77.5716 3.4908 77.5716 3.4908C74.1026 6.99737 67.7039 14.8146 67.7039 14.8146C62.293 17.2944 53.4961 22.4487 53.4961 22.4487L59.9687 24.9934C59.9687 24.9934 68.6865 19.493 71.4218 17.2143C74.4656 14.6785 79.1596 4.5303 79.1596 4.5303C79.7313 4.13206 80.1966 3.35593 80.3535 2.49456C80.5596 1.40034 80.605 1.70952 80.7683 0.935938C80.9317 0.162355 79.8751 0.382469 79.8751 0.382469Z" fill="#E5B0B4"/>
<path d="M119.809 19.0957L129.023 18.7598L128.812 16.3373L121.704 14.8359L119.809 19.0957Z" fill="#E5B0B4"/>
<path d="M127 19.332L130.199 19.8778L134.388 11.6992C134.388 11.6992 129.569 11.9435 127 19.332Z" fill="#D25C2A"/>
<path d="M97.4416 9.50391C97.4416 9.50391 94.9786 10.9773 86.9504 19.8569C84.7466 22.2973 78.707 29.9644 78.707 29.9644L90.1147 33.7064C90.1147 33.7064 101.106 26.1474 103.078 18.2512C103.078 18.2512 111.097 21.2323 124.48 19.9715L124.972 14.7739C124.972 14.7739 114.628 12.2712 111.07 11.5931C107.746 10.9544 97.4416 9.50391 97.4416 9.50391Z" fill="#6B7BCB"/>
<path d="M115.566 46.8006L121.23 52.2691L123.068 50.6393L119.986 44.1758L115.566 46.8006Z" fill="#E5B0B4"/>
<path d="M119.547 51.0333L121.039 53.8643L130.208 52.1899C130.208 52.1899 127.095 48.5726 119.547 51.0333Z" fill="#D25C2A"/>
<path d="M121.902 47.01L119.374 48.0139L116.818 49.0317C116.818 49.0317 105.224 41.0605 103.013 34.8159C103.013 34.8159 88.4673 43.9907 79.0728 39.9969C78.4725 39.7457 77.8922 39.4505 77.337 39.1139C70.9189 35.1696 78.706 29.9695 78.706 29.9695C78.706 29.9695 103.344 24.0722 105.882 24.6333C108.42 25.1944 120.892 45.2173 121.902 47.01Z" fill="#88A3FA"/>
<path opacity="0.5" d="M119.376 48.0132L116.82 49.0311C116.82 49.0311 105.225 41.0599 103.015 34.8153C103.015 34.8153 88.4689 43.9901 79.0744 39.9962C78.4741 39.7451 77.8938 39.4499 77.3386 39.1132L76.7695 35.7263L80.7674 34.627C80.7674 34.627 98.2679 34.9603 102.609 32.1522C102.609 32.1522 104.165 31.3888 105.298 33.2592C106.358 35.0188 115.882 46.2192 119.376 48.0132Z" fill="#4E549C"/>
<path d="M48.8245 20.8789C48.8245 20.8789 51.5079 24.5865 55.2219 24.0025L48.6313 29.0919C48.6313 29.0919 48.3526 28.1923 43.8906 23.6055L48.8245 20.8789Z" fill="#D78587"/>
<path d="M50.5502 21.0634C50.5502 21.0634 46.2036 25.9517 43.1429 23.248C40.0823 20.5443 37.4598 19.3533 40.1069 16.1229C42.754 12.8924 44.4691 13.3237 45.7148 13.979C46.9606 14.6342 51.6028 19.7211 50.5502 21.0634Z" fill="#E5B0B4"/>
<path d="M43.9757 11.318C43.1085 12.1145 42.2257 11.841 40.6053 12.9148C37.4798 14.9926 38.2187 21.7411 42.3333 22.9587C42.3333 22.9587 42.3774 20.3402 41.4583 18.592C40.5392 16.8438 41.2184 16.457 41.2184 16.457C41.2184 16.457 45.1995 16.1784 48.4779 13.7177C51.7563 11.257 54.3878 11.6946 54.3878 11.6946C54.3878 11.6946 46.0991 9.36754 43.9757 11.318Z" fill="#053B8C"/>
<path d="M47.0234 20.2197C47.0234 20.2197 47.4383 20.5747 48.4339 19.7693C48.4339 19.7693 49.27 19.0924 48.8954 18.6445C48.8954 18.6445 47.7987 18.9155 47.0234 20.2197Z" fill="white"/>
<path d="M80.7677 34.6195C80.5602 36.4237 80.0728 38.3284 79.0747 39.9888C79.0747 39.9888 66.8632 39.9977 63.4772 39.5956C61.7544 39.3921 57.1252 38.3895 53.0988 36.7329C50.0148 35.4605 47.2886 33.8065 46.5134 31.8369C46.5134 31.8369 45.2171 29.6294 47.2912 27.2743C47.2912 27.2743 57.0409 25.736 51.8387 23.4089C51.8387 23.4089 53.2984 21.6607 54.1929 21.452C55.0873 21.2434 58.9984 19.2891 58.9984 19.2891C58.9984 19.2891 60.554 21.4368 61.8581 22.5195C62.2107 22.8122 62.584 23.045 62.8627 23.1201C62.8627 23.1201 60.1404 24.9663 60.2999 25.11C60.3096 25.12 60.3223 25.1267 60.3362 25.1291C60.3898 25.1387 60.4452 25.133 60.4956 25.1126C60.8124 25.0093 61.1444 24.9577 61.4782 24.9599C62.2239 24.948 62.968 25.0301 63.6924 25.2042C66.7478 25.862 70.6368 28.7795 71.3317 28.8062C75.3684 28.9601 80.463 27.768 80.463 27.768C80.9047 30.025 81.0073 32.3333 80.7677 34.6195Z" fill="#555CA3"/>
<path opacity="0.2" d="M61.5531 26.4044C61.5531 26.4044 56.9135 26.2772 55.1363 26.7454C53.359 27.2137 49.1537 27.8511 49.0669 28.958C48.98 30.065 61.5531 26.4044 61.5531 26.4044Z" fill="#333381"/>
<path opacity="0.2" d="M80.7669 34.6206C80.5595 36.4248 80.072 38.3295 79.0739 39.9899C79.0739 39.9899 66.8624 39.9988 63.4764 39.5968C61.7536 39.3932 57.1244 38.3906 53.098 36.734C52.0881 35.921 50.657 34.6016 51.4789 34.2173C52.6935 33.6498 54.2543 34.1601 55.9305 34.898C57.6066 35.636 63.5023 38.5878 66.9713 38.3015C69.7623 38.0763 77.4897 35.2046 80.7669 34.6206Z" fill="#333381"/>
<path opacity="0.2" d="M60.3014 25.1139C60.3111 25.1239 60.3238 25.1306 60.3377 25.133C59.6182 25.2005 58.843 25.189 58.6045 24.8709C58.2661 24.4192 60.5192 23.1978 61.8596 22.5234C62.2122 22.8161 62.5855 23.0489 62.8642 23.124C62.8642 23.124 60.1419 24.9702 60.3014 25.1139Z" fill="#333381"/>
<path d="M79.8555 14.2967C77.3562 15.1059 77.6142 17.447 77.6142 17.447L77.1384 17.7078C73.5269 19.4331 64.5225 25.5887 64.5225 25.5887C59.1454 26.3635 47.6482 29.3472 47.6482 29.3472C47.6482 29.3472 45.2798 32.243 51.6668 34.775C53.015 35.3094 64.8985 30.0533 67.1152 29.1042C68.9936 28.3 75.9834 21.3594 78.0822 19.2512L78.7588 18.685C79.5366 18.4419 80.1848 17.4775 80.3741 16.3808C80.5633 15.284 80.61 15.5919 80.763 14.8158C80.9159 14.0396 79.8555 14.2967 79.8555 14.2967Z" fill="#E5B0B4"/>
<path d="M47.4126 28.8373L53.5598 27.8652C53.5598 27.8652 54.1081 33.6684 54.7874 34.1086C54.7874 34.1086 52.7898 34.9993 52.1533 34.9814C51.5168 34.9636 44.654 32.3922 47.4126 28.8373Z" fill="#555CA3"/>
<path d="M46.6836 51.8062C46.6836 51.8062 48.8406 52.2643 50.1992 50.6191L51.2984 52.3495C51.2984 52.3495 48.8355 53.9666 46.8469 53.2287L46.6836 51.8062Z" fill="#F0D170"/>
<path d="M135.973 62.8961C135.973 62.8961 137.677 61.5194 137.205 59.4531L139.264 59.686C139.264 59.686 139.032 62.5793 137.204 63.6569L135.973 62.8961Z" fill="#F0D170"/>
<path d="M135.93 40.2515C135.93 40.2515 137.634 38.8749 137.164 36.8086L139.228 37.0376C139.228 37.0376 138.994 39.9322 137.168 41.0086L135.93 40.2515Z" fill="#D25C2A"/>
<path d="M74.1914 59.4727C74.1914 59.4727 74.9057 61.5224 77.0433 61.815L76.0957 63.6294C76.0957 63.6294 73.4175 62.399 73.0312 60.3417L74.1914 59.4727Z" fill="#D25C2A"/>
<path d="M51.8595 92.0312C51.8595 92.0312 52.5738 94.081 54.7115 94.3736L53.7691 96.1906C53.7691 96.1906 51.0894 94.9602 50.7031 92.9028L51.8595 92.0312Z" fill="#D25C2A"/>
<path d="M22.2657 63.2637C22.2657 63.2637 22.9801 65.3134 25.1178 65.6061L24.1753 67.423C24.1753 67.423 21.4957 66.1926 21.1094 64.1352L22.2657 63.2637Z" fill="#D25C2A"/>
<path d="M156.344 18.2188C156.344 18.2188 157.058 20.2685 159.196 20.5611L158.253 22.378C158.253 22.378 155.574 21.1477 155.188 19.0903L156.344 18.2188Z" fill="#555CA3"/>
<path d="M21.2678 37.752C21.2678 37.752 23.0995 38.962 24.9818 37.9275L25.3499 39.934C25.3499 39.934 22.4578 40.5422 20.8828 39.1325L21.2678 37.752Z" fill="#555CA3"/>
<path d="M109.84 109.789C109.84 109.789 111.998 110.247 113.356 108.602L114.455 110.332C114.455 110.332 111.998 111.949 110.003 111.211L109.84 109.789Z" fill="#F0D170"/>
<path d="M86.5469 51.7852C86.5469 51.7852 87.2612 53.8349 89.3988 54.1275L88.4564 55.9432C88.4564 55.9432 85.7769 54.7141 85.3906 52.6567L86.5469 51.7852Z" fill="#D25C2A"/>
<path d="M94.4124 64.5078C94.4124 64.5078 96.2441 65.7178 98.1277 64.6834L98.4945 66.6899C98.4945 66.6899 95.6024 67.2993 94.0273 65.8883L94.4124 64.5078Z" fill="#555CA3"/>
<path d="M154.002 53.8652C154.002 53.8652 155.834 55.0752 157.716 54.0408L158.084 56.0473C158.084 56.0473 155.192 56.6555 153.617 55.2457L154.002 53.8652Z" fill="#555CA3"/>
<path d="M14.207 0.816145C14.207 0.816145 21.8269 3.997 21.3058 8.78991C20.7846 13.5828 23.962 14.9697 26.0426 15.8629C28.1232 16.756 28.2541 20.7143 28.2541 20.7143H28.9943C28.9943 20.7143 28.7675 16.2089 25.7535 14.8323C21.6013 12.9314 21.9734 10.0648 21.9734 10.0648C21.9734 10.0648 22.6073 4.52884 17.8808 2.10375L14.207 0.359375V0.816145Z" fill="#D25C2A"/>
<path d="M161.361 32.4451C161.361 32.4451 153.742 35.626 154.263 40.4176C154.784 45.2093 151.607 46.5987 149.526 47.4918C147.445 48.385 147.314 52.342 147.314 52.342H146.574C146.574 52.342 146.8 47.8366 149.815 46.46C153.971 44.5591 153.599 41.6976 153.599 41.6976C153.599 41.6976 152.965 36.1629 157.692 33.7366L161.365 31.9922L161.361 32.4451Z" fill="#F0D170"/>
</svg>
