<svg width="50" height="12" viewBox="0 0 50 12" fill="none" xmlns="http://www.w3.org/2000/svg">
<path d="M4.91646 2.35136C5.1098 1.75634 5.9516 1.75634 6.14494 2.35136L6.61821 3.80795C6.70467 4.07405 6.95265 4.25422 7.23245 4.25422H8.76399C9.38964 4.25422 9.64977 5.05482 9.14361 5.42256L7.90456 6.32278C7.6782 6.48724 7.58348 6.77876 7.66995 7.04486L8.14322 8.50145C8.33656 9.09647 7.65552 9.59127 7.14937 9.22353L5.91032 8.3233C5.68396 8.15884 5.37744 8.15884 5.15108 8.3233L3.91203 9.22352C3.40588 9.59127 2.72484 9.09647 2.91818 8.50145L3.39145 7.04486C3.47792 6.77876 3.3832 6.48724 3.15684 6.32278L1.91779 5.42256C1.41163 5.05482 1.67176 4.25422 2.29741 4.25422H3.82895C4.10875 4.25422 4.35673 4.07405 4.44319 3.80795L4.91646 2.35136Z" fill="#0F6A91"/>
<path d="M14.604 2.35136C14.7973 1.75634 15.6391 1.75634 15.8324 2.35136L16.3057 3.80795C16.3922 4.07405 16.6401 4.25422 16.9199 4.25422H18.4515C19.0771 4.25422 19.3373 5.05482 18.8311 5.42256L17.5921 6.32278C17.3657 6.48724 17.271 6.77876 17.3574 7.04486L17.8307 8.50145C18.0241 9.09647 17.343 9.59127 16.8369 9.22353L15.5978 8.3233C15.3715 8.15884 15.0649 8.15884 14.8386 8.3233L13.5995 9.22352C13.0934 9.59127 12.4123 9.09647 12.6057 8.50145L13.079 7.04486C13.1654 6.77876 13.0707 6.48724 12.8443 6.32278L11.6053 5.42256C11.0991 5.05482 11.3593 4.25422 11.9849 4.25422H13.5165C13.7963 4.25422 14.0442 4.07405 14.1307 3.80795L14.604 2.35136Z" fill="#0F6A91"/>
<path d="M24.2915 2.35136C24.4848 1.75634 25.3266 1.75634 25.5199 2.35136L25.9932 3.80795C26.0797 4.07405 26.3276 4.25422 26.6074 4.25422H28.139C28.7646 4.25422 29.0248 5.05482 28.5186 5.42256L27.2796 6.32278C27.0532 6.48724 26.9585 6.77876 27.0449 7.04486L27.5182 8.50145C27.7116 9.09647 27.0305 9.59127 26.5244 9.22353L25.2853 8.3233C25.059 8.15884 24.7524 8.15884 24.5261 8.3233L23.287 9.22352C22.7809 9.59127 22.0998 9.09647 22.2932 8.50145L22.7665 7.04486C22.8529 6.77876 22.7582 6.48724 22.5318 6.32278L21.2928 5.42256C20.7866 5.05482 21.0468 4.25422 21.6724 4.25422H23.204C23.4838 4.25422 23.7317 4.07405 23.8182 3.80795L24.2915 2.35136Z" fill="#0F6A91"/>
<path d="M33.979 2.35136C34.1723 1.75634 35.0141 1.75634 35.2074 2.35136L35.6807 3.80795C35.7672 4.07405 36.0151 4.25422 36.2949 4.25422H37.8265C38.4521 4.25422 38.7123 5.05482 38.2061 5.42256L36.9671 6.32278C36.7407 6.48724 36.646 6.77876 36.7324 7.04486L37.2057 8.50145C37.3991 9.09647 36.718 9.59127 36.2119 9.22353L34.9728 8.3233C34.7465 8.15884 34.4399 8.15884 34.2136 8.3233L32.9745 9.22352C32.4684 9.59127 31.7873 9.09647 31.9807 8.50145L32.454 7.04486C32.5404 6.77876 32.4457 6.48724 32.2193 6.32278L30.9803 5.42256C30.4741 5.05482 30.7343 4.25422 31.3599 4.25422H32.8915C33.1713 4.25422 33.4192 4.07405 33.5057 3.80795L33.979 2.35136Z" fill="#0F6A91"/>
<path d="M43.6665 2.35136C43.8598 1.75634 44.7016 1.75634 44.8949 2.35136L45.3682 3.80795C45.4547 4.07405 45.7026 4.25422 45.9824 4.25422H47.514C48.1396 4.25422 48.3998 5.05482 47.8936 5.42256L46.6546 6.32278C46.4282 6.48724 46.3335 6.77876 46.4199 7.04486L46.8932 8.50145C47.0866 9.09647 46.4055 9.59127 45.8994 9.22353L44.6603 8.3233C44.434 8.15884 44.1274 8.15884 43.9011 8.3233L42.662 9.22352C42.1559 9.59127 41.4748 9.09647 41.6682 8.50145L42.1415 7.04486C42.2279 6.77876 42.1332 6.48724 41.9068 6.32278L40.6678 5.42256C40.1616 5.05482 40.4218 4.25422 41.0474 4.25422H42.579C42.8588 4.25422 43.1067 4.07405 43.1932 3.80795L43.6665 2.35136Z" fill="#0F6A91"/>
</svg>
