<svg width="839" height="618" viewBox="0 0 839 618" fill="none" xmlns="http://www.w3.org/2000/svg">
<g clip-path="url(#clip0_150_5861)">
<path d="M754.763 575.605H699.234V575.941H754.763V575.605Z" fill="#EBEBEB"/>
<path d="M555.627 580.297H541.031V580.632H555.627V580.297Z" fill="#EBEBEB"/>
<path d="M697.554 560.188H665.344V560.523H697.554V560.188Z" fill="#EBEBEB"/>
<path d="M160.551 562.871H88.0781V563.206H160.551V562.871Z" fill="#EBEBEB"/>
<path d="M186.053 562.871H175.484V563.206H186.053V562.871Z" fill="#EBEBEB"/>
<path d="M377.802 570.074H220.609V570.409H377.802V570.074Z" fill="#EBEBEB"/>
<path d="M397.596 473.889H73.6483C68.4477 473.889 64.0859 469.533 64.0859 464.338V9.55152C64.0859 4.35683 68.4477 0 73.6483 0H397.596C402.796 0 407.158 4.35683 407.158 9.55152V464.338C407.158 469.7 402.964 473.889 397.596 473.889ZM73.6483 0.335141C68.6155 0.335141 64.4215 4.35683 64.4215 9.55152V464.338C64.4215 469.365 68.4477 473.554 73.6483 473.554H397.596C402.629 473.554 406.823 469.533 406.823 464.338V9.55152C406.823 4.5244 402.796 0.335141 397.596 0.335141H73.6483Z" fill="#EBEBEB"/>
<path d="M760.463 473.889H436.516C431.315 473.889 426.953 469.533 426.953 464.338V9.55152C426.953 4.35683 431.315 0 436.516 0H760.463C765.664 0 770.025 4.35683 770.025 9.55152V464.338C770.025 469.7 765.831 473.889 760.463 473.889ZM436.516 0.335141C431.483 0.335141 427.289 4.35683 427.289 9.55152V464.338C427.289 469.365 431.315 473.554 436.516 473.554H760.463C765.496 473.554 769.69 469.533 769.69 464.338V9.55152C769.69 4.5244 765.664 0.335141 760.463 0.335141H436.516Z" fill="#EBEBEB"/>
<path d="M838.808 548.625H0V548.96H838.808V548.625Z" fill="#EBEBEB"/>
<path d="M527.944 195.89H283.516L298.111 29.4922H542.539L527.944 195.89Z" fill="#F5F5F5"/>
<path d="M444.731 166.395H312.031V167.735H444.731V166.395Z" fill="#E0E0E0"/>
<path d="M447.585 142.268H313.711V141.598L321.763 49.6016H455.637V50.2718L447.585 142.268ZM315.053 140.927H446.243L454.127 50.7746H322.938L315.053 140.927Z" fill="#E0E0E0"/>
<path d="M319.079 186.172H315.389C313.879 186.172 312.537 185.501 311.53 184.496C310.524 183.49 310.02 181.982 310.188 180.474L310.524 176.788C310.859 173.771 313.543 171.258 316.563 171.258H320.254C321.764 171.258 323.106 171.928 324.112 172.934C325.119 173.939 325.622 175.447 325.454 176.955L325.119 180.642C324.951 183.658 322.267 186.172 319.079 186.172ZM316.731 172.598C314.382 172.598 312.201 174.609 312.033 176.955L311.698 180.642C311.53 181.815 311.866 182.82 312.704 183.658C313.376 184.496 314.55 184.831 315.556 184.831H319.247C321.596 184.831 323.777 182.82 323.945 180.474L324.28 176.788C324.448 175.615 324.112 174.609 323.273 173.771C322.602 172.934 321.428 172.598 320.422 172.598H316.731Z" fill="#E0E0E0"/>
<path d="M379.811 158.69H312.203L312.874 151.484H380.482L379.811 158.69ZM313.713 157.349H378.637L378.972 152.825H314.048L313.713 157.349Z" fill="#E0E0E0"/>
<path d="M443.889 182.315H417.047L417.718 175.109H444.56L443.889 182.315ZM418.389 180.974H442.714L443.05 176.45H418.724L418.389 180.974Z" fill="#E0E0E0"/>
<path d="M446.073 158.69H438.859L439.53 151.484H446.744L446.073 158.69ZM440.369 157.349H444.899L445.234 152.825H440.705L440.369 157.349Z" fill="#E0E0E0"/>
<path d="M436.175 158.69H428.961L429.632 151.484H436.846L436.175 158.69ZM430.471 157.349H435L435.336 152.825H430.806L430.471 157.349Z" fill="#E0E0E0"/>
<path d="M426.276 158.69H419.062L419.734 151.484H426.947L426.276 158.69ZM420.572 157.349H425.102L425.437 152.825H420.908L420.572 157.349Z" fill="#E0E0E0"/>
<path d="M456.313 42.563H355.656L356.16 36.1953H456.816L456.313 42.563ZM356.998 41.2224H455.139L455.474 37.5359H357.334L356.998 41.2224Z" fill="#E0E0E0"/>
<path d="M348.936 42.8969H322.094L322.765 35.6914H349.607L348.936 42.8969ZM323.436 41.5564H347.761L348.097 37.032H323.771L323.436 41.5564Z" fill="#E0E0E0"/>
<path d="M519.559 79.5956H472.25L474.599 52.4492H521.907L519.559 79.5956ZM473.592 78.2551H518.217L520.398 53.7898H475.773L473.592 78.2551Z" fill="#E0E0E0"/>
<path d="M515.028 130.537H467.719L470.067 103.391H517.376L515.028 130.537ZM469.229 129.196H513.853L516.034 104.731H471.41L469.229 129.196Z" fill="#E0E0E0"/>
<path d="M510.496 181.478H463.188L465.536 154.332H512.845L510.496 181.478ZM464.697 180.138H509.322L511.503 155.673H466.878L464.697 180.138Z" fill="#E0E0E0"/>
<path d="M520.875 52.4813L472.688 78.3203L473.322 79.5015L521.51 53.6624L520.875 52.4813Z" fill="#E0E0E0"/>
<path d="M518.551 79.4281L474.766 53.6222L475.437 52.4492L519.222 78.4226L518.551 79.4281Z" fill="#E0E0E0"/>
<path d="M516.353 103.504L468.133 129.277L468.766 130.459L516.986 104.686L516.353 103.504Z" fill="#E0E0E0"/>
<path d="M471.121 103.479L470.438 104.633L514.188 130.487L514.872 129.333L471.121 103.479Z" fill="#E0E0E0"/>
<path d="M463.188 181.98L465.704 153.828L488.184 167.066L512.006 154.331L512.677 155.504L489.526 167.904L510.328 180.304L509.657 181.477L488.184 168.742L463.188 181.98ZM466.878 156.007L464.865 179.634L486.842 167.904L466.878 156.007Z" fill="#E0E0E0"/>
<path d="M454.6 49.5735L314.016 141L314.748 142.123L455.332 50.6969L454.6 49.5735Z" fill="#E0E0E0"/>
<path d="M322.764 49.5371L321.969 50.6172L446.456 142.028L447.251 140.948L322.764 49.5371Z" fill="#E0E0E0"/>
<path d="M624.92 549.63H490.375L509.332 333.129H643.877L624.92 549.63Z" fill="#F5F5F5"/>
<path d="M534.323 539.91H501.609L503.623 516.953H536.336L534.323 539.91ZM503.119 538.57H533.149L534.994 518.294H504.965L503.119 538.57Z" fill="#E0E0E0"/>
<path d="M574.245 539.91H541.531L543.544 516.953H576.258L574.245 539.91ZM542.873 538.57H572.903L574.748 518.294H544.719L542.873 538.57Z" fill="#E0E0E0"/>
<path d="M614.182 539.91H581.469L583.482 516.953H616.195L614.182 539.91ZM582.811 538.57H612.84L614.686 518.294H584.656L582.811 538.57Z" fill="#E0E0E0"/>
<path d="M618.367 484.277H507.141V485.618H618.367V484.277Z" fill="#E0E0E0"/>
<path d="M582.808 453.277H509.328L509.999 444.73H583.479L582.808 453.277ZM510.838 451.936H581.633L582.137 446.071H511.341L510.838 451.936Z" fill="#E0E0E0"/>
<path d="M617.033 507.402H586.5L587.171 499.023H617.704L617.033 507.402ZM587.842 506.061H615.69L616.194 500.364H588.345L587.842 506.061Z" fill="#E0E0E0"/>
<path d="M619.888 474.559H608.312L609.319 462.996H620.895L619.888 474.559ZM609.655 473.218H618.546L619.385 464.337H610.493L609.655 473.218Z" fill="#E0E0E0"/>
<path d="M569.388 474.559H557.812L558.819 462.996H570.395L569.388 474.559ZM559.322 473.218H568.214L569.053 464.337H560.161L559.322 473.218Z" fill="#E0E0E0"/>
<path d="M519.06 474.559H507.484L508.491 462.996H520.066L519.06 474.559ZM508.826 473.218H517.718L518.557 464.337H509.665L508.826 473.218Z" fill="#E0E0E0"/>
<path d="M552.778 353.237H518.219L519.058 344.355H553.616L552.778 353.237ZM519.561 351.896H551.603L552.107 345.696H520.064L519.561 351.896Z" fill="#E0E0E0"/>
<path d="M515.368 509.58H512.516C510.335 509.58 508.322 508.742 506.98 507.234C505.638 505.726 504.967 503.715 505.135 501.537L505.47 498.688C505.806 494.331 509.832 490.645 514.194 490.645H517.046C519.227 490.645 521.24 491.482 522.582 492.991C523.924 494.499 524.595 496.51 524.427 498.688L524.092 501.537C523.756 506.061 519.73 509.58 515.368 509.58ZM514.026 491.985C510.335 491.985 506.98 495.001 506.645 498.688L506.309 501.537C506.141 503.38 506.645 505.056 507.819 506.229C508.993 507.402 510.503 508.239 512.348 508.239H515.2C518.891 508.239 522.246 505.223 522.582 501.537L522.917 498.688C523.085 496.845 522.582 495.169 521.408 493.996C520.233 492.823 518.723 491.985 516.878 491.985H514.026Z" fill="#E0E0E0"/>
<path d="M622.904 437.694H510.672V437.024L517.382 359.941H629.615V360.612L622.904 437.694ZM512.014 436.354H621.562L628.105 361.114H518.557L512.014 436.354Z" fill="#E0E0E0"/>
<path d="M518.482 359.912L517.688 360.992L621.9 437.515L622.695 436.435L518.482 359.912Z" fill="#E0E0E0"/>
<path d="M511.679 437.524L511.008 436.519L627.938 360.609L628.609 361.782L511.679 437.524Z" fill="#E0E0E0"/>
<path d="M533.323 539.915L503.797 518.13L504.636 517.125L534.162 538.742L533.323 539.915Z" fill="#E0E0E0"/>
<path d="M535.279 517.117L501.961 538.785L502.693 539.909L536.012 518.24L535.279 517.117Z" fill="#E0E0E0"/>
<path d="M573.245 539.915L543.719 518.13L544.558 517.125L574.084 538.742L573.245 539.915Z" fill="#E0E0E0"/>
<path d="M575.213 517.072L541.898 538.748L542.631 539.871L575.945 518.195L575.213 517.072Z" fill="#E0E0E0"/>
<path d="M613.174 539.915L583.648 518.13L584.319 517.125L613.846 538.742L613.174 539.915Z" fill="#E0E0E0"/>
<path d="M614.986 517.14L581.672 538.816L582.404 539.94L615.719 518.264L614.986 517.14Z" fill="#E0E0E0"/>
<path d="M665.678 79.597C665.678 75.7428 665.174 72.0563 664 68.5373L673.73 59.9912L667.691 49.4343L655.444 53.6235C650.411 48.2613 643.869 44.4072 636.319 42.5639L633.803 29.9961H621.724L619.208 42.5639C611.826 44.2396 605.116 48.2613 600.083 53.6235L587.836 49.4343L581.797 59.9912L591.527 68.5373C590.521 72.0563 589.849 75.7428 589.849 79.597C589.849 83.4511 590.353 87.1376 591.527 90.6566L581.797 99.2027L587.836 109.76L600.083 105.57C605.116 110.933 611.658 114.787 619.208 116.63L621.724 129.198H633.803L636.319 116.63C643.701 114.954 650.411 110.933 655.444 105.57L667.691 109.76L673.73 99.2027L664 90.6566C665.007 87.1376 665.678 83.4511 665.678 79.597ZM627.764 100.041C616.859 100.041 608.135 91.1593 608.135 80.4348C608.135 69.5427 617.027 60.8291 627.764 60.8291C638.668 60.8291 647.392 69.7103 647.392 80.4348C647.392 91.1593 638.668 100.041 627.764 100.041Z" fill="#EBEBEB"/>
<path d="M249.465 397.979C252.653 391.779 255.001 385.412 256.176 378.876L278.991 373.347L278.152 351.227L255.001 347.541C251.478 334.638 244.097 322.74 233.696 313.691L240.406 291.237L220.778 280.848L206.015 298.945C192.594 295.426 178.67 296.097 165.92 300.453L149.815 283.529L131.026 295.259L139.414 317.043C134.716 321.735 130.69 327.265 127.503 333.297C124.315 339.497 121.966 345.865 120.792 352.4L97.9766 357.93L98.8154 380.049L121.966 383.736C125.489 396.639 132.871 408.536 143.272 417.585L136.562 440.04L156.19 450.429L170.953 432.331C184.374 435.85 198.298 435.18 211.048 430.823L227.153 447.748L245.942 436.018L237.554 414.234C242.251 409.709 246.278 404.18 249.465 397.979ZM171.121 398.817C153.673 389.601 146.963 367.817 156.19 350.389C165.417 332.962 187.058 326.092 204.673 335.476C222.12 344.692 228.998 366.476 219.604 383.904C210.209 401.331 188.568 408.034 171.121 398.817Z" fill="#EBEBEB"/>
<path d="M664.342 339.161L677.427 346.366C678.098 346.701 678.602 347.037 678.77 347.372C678.937 347.707 679.105 348.042 679.105 348.545C679.105 349.047 678.937 349.55 678.434 350.053C678.098 350.388 677.595 350.723 676.924 350.723C676.589 350.723 676.085 350.556 675.247 350.053L658.303 340.669C657.128 339.999 657.128 338.323 658.303 337.82L675.247 328.436C675.918 328.101 676.421 327.934 676.756 327.934C677.26 327.934 677.763 328.101 678.266 328.604C678.602 328.939 678.937 329.442 678.937 330.112C678.937 330.615 678.77 330.95 678.602 331.285C678.434 331.62 677.931 331.955 677.26 332.29L664.342 339.161Z" fill="#EBEBEB"/>
<path d="M698.233 325.589L685.147 353.574C684.812 354.244 684.476 354.747 684.308 354.914C683.973 355.249 683.47 355.249 683.134 355.249C682.631 355.249 682.127 355.082 681.624 354.579C681.289 354.244 680.953 353.741 680.953 353.238C680.953 352.903 681.121 352.401 681.456 351.73L694.542 323.746C694.877 323.076 695.213 322.573 695.381 322.405C695.716 322.07 696.219 322.07 696.555 322.07C697.058 322.07 697.562 322.238 698.065 322.573C698.4 322.908 698.736 323.411 698.736 323.914C698.568 324.416 698.568 324.919 698.233 325.589Z" fill="#EBEBEB"/>
<path d="M714.497 339.164L701.412 331.958C700.741 331.623 700.238 331.288 700.07 330.953C699.902 330.618 699.734 330.283 699.734 329.78C699.734 329.277 699.902 328.775 700.405 328.272C700.741 327.937 701.244 327.602 701.915 327.602C702.251 327.602 702.754 327.769 703.425 328.104L720.369 337.488C721.543 338.158 721.543 339.834 720.369 340.337L703.425 349.721C702.754 350.056 702.251 350.391 701.915 350.391C701.412 350.391 700.909 350.224 700.405 349.721C700.07 349.386 699.734 348.883 699.734 348.213C699.734 347.71 699.902 347.375 700.07 347.04C700.238 346.705 700.741 346.369 701.412 346.034L714.497 339.164Z" fill="#EBEBEB"/>
<path d="M411.352 617.832C591.005 617.832 736.642 609.354 736.642 598.896C736.642 588.439 591.005 579.961 411.352 579.961C231.7 579.961 86.0625 588.439 86.0625 598.896C86.0625 609.354 231.7 617.832 411.352 617.832Z" fill="#F5F5F5"/>
<path d="M190.409 220.187H128.337C125.485 220.187 122.969 219.014 121.123 217.003C119.278 214.992 118.439 212.311 118.607 209.462L131.525 61.1624C132.028 55.2974 137.228 50.6055 142.932 50.6055H159.037C160.547 50.6055 161.722 51.7785 161.722 53.2866V53.7893C161.889 55.8002 163.399 57.4759 165.58 57.4759H180.846C183.027 57.4759 185.04 55.8002 185.544 53.6217L185.712 53.119C186.047 51.6109 187.389 50.6055 188.731 50.6055H204.836C207.688 50.6055 210.205 51.7785 212.05 53.7893C213.895 55.8002 214.734 58.4813 214.567 61.33L201.649 209.63C201.481 215.495 196.28 220.187 190.409 220.187ZM143.1 52.4487C138.067 52.4487 133.705 56.4704 133.37 61.4976L120.452 209.797C120.285 212.143 120.956 214.322 122.465 215.998C123.975 217.673 126.156 218.511 128.505 218.511H190.577C195.609 218.511 199.971 214.489 200.307 209.462L213.224 61.1624C213.392 58.8164 212.721 56.638 211.211 54.9623C209.701 53.2866 207.521 52.4487 205.172 52.4487H189.067C188.396 52.4487 187.725 52.9515 187.725 53.6217L187.557 54.1244C186.886 56.9731 184.202 59.3191 181.182 59.3191H165.916C162.896 59.3191 160.547 56.9731 160.38 53.9569V53.4542C160.38 52.7839 159.876 52.4487 159.373 52.4487H143.1Z" fill="#7981EC"/>
<path d="M212.891 74.0664H131.359V75.7421H212.891V74.0664Z" fill="#7981EC"/>
<path d="M205.168 50.7734H189.062V52.4491H205.168V50.7734Z" fill="#7981EC"/>
<path d="M190.074 143.274H142.43L146.624 95.6836H194.268L190.074 143.274ZM144.275 141.598H188.564L192.423 97.3593H148.134L144.275 141.598Z" fill="#7981EC"/>
<path d="M190.576 197.064H132.195L133.705 179.469H192.086L190.576 197.064ZM134.041 195.388H189.066L190.241 181.144H135.383L134.041 195.388Z" fill="#7981EC"/>
<path d="M152.159 167.738C150.817 167.738 149.643 167.236 148.636 166.23C147.797 165.225 147.294 164.052 147.462 162.711C147.63 160.03 150.146 157.852 152.83 157.852C154.172 157.852 155.347 158.354 156.353 159.36C157.192 160.365 157.695 161.538 157.528 162.879C157.36 165.56 154.843 167.738 152.159 167.738ZM152.998 159.36C151.153 159.36 149.475 160.868 149.307 162.711C149.307 163.549 149.475 164.387 149.978 165.057C150.482 165.727 151.32 166.063 152.159 166.063C154.005 166.063 155.682 164.554 155.85 162.711C155.85 161.873 155.682 161.035 155.179 160.365C154.508 159.695 153.837 159.36 152.998 159.36Z" fill="#7981EC"/>
<path d="M164.237 167.738C162.895 167.738 161.721 167.236 160.714 166.23C159.875 165.225 159.372 164.052 159.54 162.711C159.708 160.03 162.224 157.852 164.908 157.852C166.25 157.852 167.425 158.354 168.431 159.36C169.27 160.365 169.773 161.538 169.606 162.879C169.438 165.56 166.921 167.738 164.237 167.738ZM164.908 159.36C163.063 159.36 161.385 160.868 161.218 162.711C161.218 163.549 161.385 164.387 161.889 165.057C162.392 165.727 163.231 166.063 164.07 166.063C165.915 166.063 167.593 164.554 167.76 162.711C167.76 161.873 167.593 161.035 167.089 160.365C166.586 159.695 165.915 159.36 164.908 159.36Z" fill="#7981EC"/>
<path d="M176.315 167.738C174.973 167.738 173.799 167.236 172.792 166.23C171.954 165.225 171.45 164.052 171.618 162.711C171.786 160.03 174.302 157.852 176.986 157.852C178.329 157.852 179.503 158.354 180.509 159.36C181.348 160.365 181.852 161.538 181.684 162.879C181.516 165.56 179 167.738 176.315 167.738ZM176.986 159.36C175.141 159.36 173.463 160.868 173.296 162.711C173.296 163.549 173.463 164.387 173.967 165.057C174.47 165.727 175.309 166.063 176.148 166.063C177.993 166.063 179.671 164.554 179.838 162.711C179.838 161.873 179.671 161.035 179.167 160.365C178.664 159.695 177.993 159.36 176.986 159.36Z" fill="#7981EC"/>
<path d="M675.743 388.094H594.211V389.769H675.743V388.094Z" fill="#7981EC"/>
<path d="M653.432 534.214H591.36C588.509 534.214 585.992 533.041 584.147 531.03C582.301 529.019 581.463 526.338 581.63 523.49L594.548 375.19C595.051 369.325 600.252 364.633 605.956 364.633H622.061C623.571 364.633 624.745 365.806 624.745 367.314V367.817C624.913 369.827 626.423 371.503 628.604 371.503H643.87C646.051 371.503 648.064 369.827 648.567 367.649L648.735 367.146C649.07 365.806 650.413 364.633 651.755 364.633H667.86C670.712 364.633 673.228 365.806 675.073 367.817C676.919 369.827 677.758 372.509 677.59 375.357L664.672 523.657C664.337 529.522 659.304 534.214 653.432 534.214ZM605.956 366.476C600.923 366.476 596.561 370.498 596.226 375.525L583.308 523.825C583.14 526.171 583.811 528.349 585.321 530.025C586.831 531.701 589.012 532.538 591.36 532.538H653.432C658.465 532.538 662.827 528.517 663.162 523.49L676.08 375.19C676.248 372.844 675.577 370.665 674.067 368.99C672.557 367.314 670.376 366.476 668.028 366.476H651.922C651.251 366.476 650.58 366.979 650.58 367.649L650.413 368.152C649.742 371 647.057 373.346 644.038 373.346H628.771C625.752 373.346 623.403 371 623.235 368.152V367.649C623.235 366.979 622.732 366.644 622.229 366.644H605.956V366.476Z" fill="#7981EC"/>
<path d="M663.834 411.383H602.601C601.259 411.383 600.084 410.88 599.246 409.875C598.407 408.87 597.903 407.697 598.071 406.356C598.239 403.675 600.588 401.664 603.272 401.664H664.505C665.847 401.664 667.021 402.167 667.86 403.172C668.699 404.178 669.202 405.351 669.034 406.691C668.867 409.205 666.518 411.383 663.834 411.383ZM603.272 403.34C601.426 403.34 599.917 404.848 599.749 406.524C599.749 407.361 599.917 408.199 600.42 408.702C600.923 409.205 601.762 409.54 602.601 409.54H663.834C665.679 409.54 667.189 408.032 667.357 406.356C667.357 405.518 667.189 404.68 666.686 404.178C666.182 403.675 665.344 403.34 664.505 403.34H603.272Z" fill="#7981EC"/>
<path d="M662.49 427.305H601.257C599.915 427.305 598.741 426.802 597.902 425.797C597.063 424.791 596.56 423.618 596.727 422.278C596.895 419.597 599.244 417.586 601.928 417.586H663.161C664.503 417.586 665.677 418.089 666.516 419.094C667.355 420.1 667.858 421.272 667.691 422.613C667.355 425.127 665.006 427.305 662.49 427.305ZM601.928 419.262C600.083 419.262 598.573 420.77 598.405 422.445C598.405 423.283 598.573 424.121 599.076 424.624C599.579 425.127 600.418 425.462 601.257 425.462H662.49C664.335 425.462 665.845 423.954 666.013 422.278C666.013 421.44 665.845 420.602 665.342 420.099C664.839 419.597 664 419.262 663.161 419.262H601.928Z" fill="#7981EC"/>
<path d="M660.982 443.223H599.749C598.407 443.223 597.233 442.72 596.394 441.715C595.555 440.709 595.052 439.536 595.22 438.196C595.387 435.515 597.736 433.504 600.42 433.504H661.653C662.995 433.504 664.17 434.007 665.008 435.012C665.847 436.017 666.351 437.19 666.183 438.531C666.015 441.212 663.666 443.223 660.982 443.223ZM600.42 435.347C598.575 435.347 597.065 436.855 596.897 438.531C596.897 439.369 597.065 440.207 597.568 440.709C598.072 441.212 598.91 441.547 599.749 441.547H660.982C662.828 441.547 664.337 440.039 664.505 438.363C664.505 437.526 664.337 436.688 663.834 436.185C663.331 435.682 662.492 435.347 661.653 435.347H600.42Z" fill="#7981EC"/>
<path d="M657.295 486.957H596.062C594.72 486.957 593.545 486.455 592.706 485.449C591.868 484.444 591.364 483.271 591.532 481.93C591.7 479.249 594.049 477.238 596.733 477.238H657.966C659.308 477.238 660.482 477.741 661.321 478.746C662.16 479.752 662.663 480.925 662.495 482.265C662.16 484.947 659.811 486.957 657.295 486.957ZM596.565 479.082C594.72 479.082 593.21 480.59 593.042 482.265C593.042 483.103 593.21 483.941 593.713 484.444C594.216 484.947 595.055 485.282 595.894 485.282H657.127C658.972 485.282 660.482 483.774 660.65 482.098C660.65 481.26 660.482 480.422 659.979 479.919C659.476 479.417 658.637 479.082 657.798 479.082H596.565Z" fill="#7981EC"/>
<path d="M655.779 502.879H594.546C593.204 502.879 592.03 502.377 591.191 501.371C590.352 500.366 589.849 499.193 590.017 497.852C590.184 495.171 592.533 493.16 595.217 493.16H656.45C657.792 493.16 658.966 493.663 659.805 494.668C660.644 495.674 661.147 496.847 660.98 498.187C660.812 500.868 658.463 502.879 655.779 502.879ZM595.217 495.003C593.372 495.003 591.862 496.512 591.694 498.187C591.694 499.025 591.862 499.863 592.365 500.366C592.868 500.868 593.707 501.204 594.546 501.204H655.779C657.624 501.204 659.134 499.695 659.302 498.02C659.302 497.182 659.134 496.344 658.631 495.841C658.128 495.339 657.289 495.003 656.45 495.003H595.217Z" fill="#7981EC"/>
<path d="M654.435 518.965H593.202C591.86 518.965 590.686 518.462 589.847 517.457C589.008 516.452 588.505 515.279 588.673 513.938C588.841 511.257 591.189 509.246 593.873 509.246H655.106C656.448 509.246 657.623 509.749 658.462 510.754C659.3 511.76 659.804 512.933 659.636 514.273C659.3 516.787 657.119 518.965 654.435 518.965ZM593.873 510.922C592.028 510.922 590.518 512.43 590.35 514.106C590.35 514.943 590.518 515.781 591.021 516.284C591.525 516.787 592.364 517.122 593.202 517.122H654.435C656.281 517.122 657.791 515.614 657.958 513.938C657.958 513.1 657.791 512.262 657.287 511.76C656.784 511.257 655.945 510.922 655.106 510.922H593.873Z" fill="#7981EC"/>
<path d="M693.862 232.921H631.79C628.938 232.921 626.422 231.748 624.576 229.737C622.731 227.727 621.892 225.045 622.06 222.197L634.978 73.8968C635.481 68.0318 640.682 63.3398 646.385 63.3398H662.491C664 63.3398 665.175 64.5128 665.175 66.021V66.5237C665.343 68.5345 666.852 70.2102 669.033 70.2102H684.3C686.48 70.2102 688.494 68.5345 688.997 66.3561L689.165 65.8534C689.5 64.3453 690.842 63.3398 692.184 63.3398H708.29C711.141 63.3398 713.658 64.5128 715.503 66.5237C717.349 68.5345 718.187 71.2157 718.02 74.0644L705.102 222.364C704.766 228.062 699.566 232.921 693.862 232.921ZM646.385 65.1831C641.353 65.1831 636.991 69.2048 636.655 74.2319L623.738 222.532C623.57 224.878 624.241 227.056 625.751 228.732C627.261 230.408 629.442 231.245 631.79 231.245H693.862C698.895 231.245 703.257 227.224 703.592 222.197L716.51 73.8968C716.678 71.5508 716.007 69.3724 714.497 67.6967C712.987 66.021 710.806 65.1831 708.457 65.1831H692.352C691.681 65.1831 691.01 65.6858 691.01 66.3561L690.842 66.8588C690.171 69.7075 687.487 72.0535 684.467 72.0535H669.201C666.181 72.0535 663.833 69.7075 663.665 66.8588V66.3561C663.665 65.6858 663.162 65.3507 662.658 65.3507H646.385V65.1831Z" fill="#7981EC"/>
<path d="M716.173 86.8008H634.641V88.4765H716.173V86.8008Z" fill="#7981EC"/>
<path d="M697.723 215.492H631.625L635.819 167.902H701.917L697.723 215.492ZM633.638 213.817H696.213L700.072 169.578H637.497L633.638 213.817Z" fill="#7981EC"/>
<path d="M637.141 168.077L636.125 169.41L696.462 215.287L697.478 213.954L637.141 168.077Z" fill="#7981EC"/>
<path d="M700.47 168.103L632.094 213.98L633.029 215.371L701.405 169.494L700.47 168.103Z" fill="#7981EC"/>
<path d="M706.442 116.962H640.344L641.854 99.3672H707.952L706.442 116.962ZM642.189 115.286H704.932L706.106 101.043H643.363L642.189 115.286Z" fill="#7981EC"/>
<path d="M706.82 99.2818L641.125 115.246L641.522 116.874L707.216 100.91L706.82 99.2818Z" fill="#7981EC"/>
<path d="M642.897 99.3953L642.484 101.02L705.415 116.973L705.828 115.348L642.897 99.3953Z" fill="#7981EC"/>
<path d="M704.426 139.919H638.328L639.838 122.324H705.936L704.426 139.919ZM640.174 138.243H702.916L704.091 123.999H641.348L640.174 138.243Z" fill="#7981EC"/>
<path d="M704.788 122.245L639.094 138.203L639.49 139.831L705.185 123.873L704.788 122.245Z" fill="#7981EC"/>
<path d="M640.944 122.18L640.531 123.804L703.462 139.757L703.874 138.133L640.944 122.18Z" fill="#7981EC"/>
<path d="M702.418 162.872H636.32L637.83 145.277H703.928L702.418 162.872ZM638.166 161.196H700.909L702.083 146.953H639.34L638.166 161.196Z" fill="#7981EC"/>
<path d="M702.804 145.195L637.109 161.16L637.506 162.788L703.201 146.824L702.804 145.195Z" fill="#7981EC"/>
<path d="M638.803 145.082L638.391 146.707L701.321 162.66L701.734 161.035L638.803 145.082Z" fill="#7981EC"/>
<path d="M684.295 308.998C669.532 308.998 657.453 296.932 657.453 282.186C657.453 267.44 669.532 255.375 684.295 255.375C699.058 255.375 711.137 267.44 711.137 282.186C711.137 297.1 699.058 308.998 684.295 308.998ZM684.295 257.218C670.371 257.218 659.131 268.446 659.131 282.354C659.131 296.262 670.371 307.489 684.295 307.489C698.219 307.489 709.459 296.262 709.459 282.354C709.459 268.446 698.051 257.218 684.295 257.218Z" fill="#7981EC"/>
<path d="M679.598 297.772L667.016 281.183L668.358 280.177L678.927 294.086C683.792 278.669 693.69 264.928 706.943 255.544L710.634 252.863L711.64 254.204L707.949 256.885C694.529 266.437 684.631 280.345 680.101 296.096L679.598 297.772Z" fill="#7981EC"/>
<path d="M498.587 88.4766H454.969L411.016 590.015H454.634C474.765 590.015 492.548 573.593 494.393 553.485L531.972 125.007C533.649 104.898 518.719 88.4766 498.587 88.4766Z" fill="#24285B"/>
<path d="M445.737 590.015H266.232C246.1 590.015 231.17 573.593 232.847 553.485L270.426 125.007C272.271 104.898 290.054 88.4766 310.185 88.4766H489.69C509.822 88.4766 524.752 104.898 523.075 125.007L485.496 553.485C483.651 573.761 465.868 590.015 445.737 590.015Z" fill="#7981EC"/>
<path d="M488.848 96.8555H442.211C439.191 96.8555 436.339 99.2015 435.668 102.218L435.332 103.726C433.822 111.099 426.944 116.629 419.563 116.629H375.274C367.892 116.629 362.021 111.099 361.685 103.726V102.218C361.517 99.2015 359.169 96.8555 356.149 96.8555H309.511C293.909 96.8555 280.153 109.423 278.811 125.007L241.232 553.485C239.89 569.069 251.298 581.637 266.9 581.637H446.405C462.006 581.637 475.763 569.069 477.105 553.485L514.683 125.007C515.858 109.591 504.45 96.8555 488.848 96.8555Z" fill="white"/>
<g opacity="0.2">
<path opacity="0.2" d="M387.857 101.714C387.689 103.725 386.012 105.233 383.998 105.233C381.985 105.233 380.643 103.557 380.811 101.714C380.979 99.7033 382.656 98.1952 384.67 98.1952C386.515 98.0276 388.025 99.7033 387.857 101.714Z" fill="black"/>
<path opacity="0.2" d="M413.524 98.0273C412.182 98.0273 402.787 98.0273 401.278 98.0273C399.264 98.0273 397.587 99.703 397.419 101.546C397.251 103.557 398.761 105.065 400.606 105.065C401.781 105.065 411.679 105.065 412.853 105.065C414.866 105.065 416.544 103.39 416.712 101.546C416.879 99.703 415.369 98.0273 413.524 98.0273Z" fill="black"/>
</g>
<path d="M299.109 116.46H302.8L303.136 112.773H299.277L299.109 116.46Z" fill="#24285B"/>
<path d="M306.824 112.776L306.656 116.463H310.347L310.683 112.776L311.018 108.922H307.16L306.824 112.776Z" fill="#24285B"/>
<path d="M315.042 105.234L314.706 108.921L314.371 112.775L314.203 116.462H317.894L318.229 112.775L318.565 108.921L318.9 105.234H315.042Z" fill="#24285B"/>
<path d="M477.438 105.402L477.271 108.251H475.425L474.922 113.781H476.767L476.599 116.63H493.208L494.214 105.57H477.438V105.402ZM484.149 113.781H478.613L479.116 108.251H484.652L484.149 113.781Z" fill="#24285B"/>
<path opacity="0.8" d="M469.899 404.348H227.148L247.615 171.09H490.366L469.899 404.348Z" fill="#24285B"/>
<path d="M463.524 397.313H220.773L241.073 164.055H483.823L463.524 397.313Z" fill="#7981EC"/>
<g opacity="0.8">
<path opacity="0.8" d="M463.524 397.313H220.773L241.073 164.055H483.823L463.524 397.313Z" fill="white"/>
<path opacity="0.8" d="M464.194 398.149H219.766V397.311L240.233 163.383H484.829L464.194 398.149ZM221.611 396.473H462.684L482.983 164.891H241.91L221.611 396.473Z" fill="#7981EC"/>
</g>
<path opacity="0.8" d="M449.939 333.133H245.438L258.523 183.828H463.024L449.939 333.133Z" fill="white"/>
<path d="M450.773 333.969H244.594L257.847 182.988H464.026L450.773 333.969ZM246.439 332.294H449.263L462.18 184.664H259.357L246.439 332.294Z" fill="#7981EC"/>
<path d="M259.126 183.179L258.094 184.5L449.587 333.798L450.619 332.477L259.126 183.179Z" fill="#7981EC"/>
<path d="M462.482 183.082L244.984 332.379L245.935 333.76L463.432 184.464L462.482 183.082Z" fill="#7981EC"/>
<path d="M324.786 354.915C324.451 359.105 320.592 362.624 316.398 362.624C312.204 362.624 309.017 359.105 309.352 354.915C309.688 350.726 313.546 347.207 317.74 347.207C321.934 347.207 325.122 350.726 324.786 354.915Z" fill="#7981EC"/>
<path d="M353.474 354.915C353.138 359.105 349.28 362.624 345.086 362.624C340.892 362.624 337.704 359.105 338.04 354.915C338.375 350.726 342.234 347.207 346.428 347.207C350.79 347.207 353.809 350.726 353.474 354.915Z" fill="#7981EC"/>
<path d="M382.333 354.915C381.998 359.105 378.139 362.624 373.945 362.624C369.751 362.624 366.564 359.105 366.899 354.915C367.235 350.726 371.093 347.207 375.287 347.207C379.481 347.207 382.669 350.726 382.333 354.915Z" fill="#7981EC"/>
<path d="M322.938 528.682H209.195L218.758 419.426H332.5L322.938 528.682Z" fill="#7981EC"/>
<g opacity="0.8">
<path opacity="0.8" d="M322.938 528.682H209.195L218.758 419.426H332.5L322.938 528.682Z" fill="white"/>
<path opacity="0.8" d="M323.607 529.522H208.188L217.918 418.59H333.338L323.607 529.522ZM210.033 527.846H322.098L331.492 420.266H219.428L210.033 527.846Z" fill="#7981EC"/>
</g>
<path d="M316.565 498.518H220.773L226.981 428.641H322.605L316.565 498.518Z" fill="white"/>
<path d="M317.235 499.357H219.766L225.973 427.805H323.442L317.235 499.357ZM221.779 497.682H315.893L321.932 429.48H227.818L221.779 497.682Z" fill="#7981EC"/>
<path d="M227.438 428.031L226.406 429.352L316.069 499.258L317.102 497.937L227.438 428.031Z" fill="#7981EC"/>
<path d="M322.201 428.034L220.297 497.984L221.247 499.365L323.151 429.415L322.201 428.034Z" fill="#7981EC"/>
<path d="M257.85 508.909C257.683 510.92 255.837 512.596 253.992 512.596C252.146 512.596 250.469 510.92 250.637 508.909C250.804 506.898 252.65 505.223 254.495 505.223C256.676 505.223 258.018 506.898 257.85 508.909Z" fill="#7981EC"/>
<path d="M271.437 508.909C271.27 510.92 269.424 512.596 267.579 512.596C265.566 512.596 264.056 510.92 264.224 508.909C264.391 506.898 266.237 505.223 268.082 505.223C270.095 505.223 271.605 506.898 271.437 508.909Z" fill="#7981EC"/>
<path d="M284.859 508.909C284.692 510.92 282.846 512.596 281.001 512.596C278.988 512.596 277.478 510.92 277.646 508.909C277.813 506.898 279.659 505.223 281.504 505.223C283.517 505.223 285.027 506.898 284.859 508.909Z" fill="#7981EC"/>
<path d="M451.95 528.682H338.375L347.937 419.426H461.512L451.95 528.682Z" fill="#7981EC"/>
<g opacity="0.8">
<path opacity="0.8" d="M451.95 528.682H338.375L347.937 419.426H461.512L451.95 528.682Z" fill="white"/>
<path opacity="0.8" d="M452.787 529.522H337.367L347.097 418.59H462.517L452.787 529.522ZM339.213 527.846H451.277L460.672 420.266H348.607L339.213 527.846Z" fill="#7981EC"/>
</g>
<path d="M445.569 498.518H349.945L355.985 428.641H451.777L445.569 498.518Z" fill="white"/>
<path d="M446.407 499.357H348.938L355.145 427.805H452.614L446.407 499.357ZM350.783 497.682H444.897L450.936 429.48H356.822L350.783 497.682Z" fill="#7981EC"/>
<path d="M356.485 428.101L355.453 429.422L445.116 499.328L446.148 498.007L356.485 428.101Z" fill="#7981EC"/>
<path d="M451.373 427.987L349.469 497.938L350.419 499.319L452.323 429.369L451.373 427.987Z" fill="#7981EC"/>
<path d="M387.023 508.909C386.856 510.92 385.01 512.596 383.165 512.596C381.152 512.596 379.642 510.92 379.81 508.909C379.977 506.898 381.823 505.223 383.668 505.223C385.514 505.223 387.191 506.898 387.023 508.909Z" fill="#7981EC"/>
<path d="M400.444 508.909C400.276 510.92 398.431 512.596 396.586 512.596C394.74 512.596 393.063 510.92 393.23 508.909C393.398 506.898 395.243 505.223 397.089 505.223C399.102 505.223 400.612 506.898 400.444 508.909Z" fill="#7981EC"/>
<path d="M413.866 508.909C413.698 510.92 411.853 512.596 410.007 512.596C408.162 512.596 406.484 510.92 406.652 508.909C406.82 506.898 408.665 505.223 410.511 505.223C412.356 505.223 414.201 506.898 413.866 508.909Z" fill="#7981EC"/>
<path d="M449.938 154.501H329.82L331.162 138.414H451.28L449.938 154.501Z" fill="#7981EC"/>
<path d="M316.567 150.812H297.945V152.488H316.567V150.812Z" fill="#24285B"/>
<path d="M317.075 144.613H298.453V146.289H317.075V144.613Z" fill="#24285B"/>
<path d="M317.747 138.246H299.125V139.922H317.747V138.246Z" fill="#24285B"/>
<g opacity="0.2">
<path opacity="0.2" d="M375.288 116.629L251.312 576.777C255.507 579.793 260.875 581.637 266.747 581.637H276.477L401.627 116.461H375.288V116.629Z" fill="white"/>
<path opacity="0.2" d="M488.862 96.8555H442.224C439.205 96.8555 436.353 99.2015 435.682 102.218L435.346 103.726C433.836 110.931 427.294 116.294 420.08 116.629L294.93 581.805H390.386L514.53 120.65C513.691 107.245 502.954 96.8555 488.862 96.8555Z" fill="white"/>
</g>
<path d="M514.017 128.863H278.312V131.377H514.017V128.863Z" fill="#7981EC"/>
<path d="M534.66 189.355C534.828 188.852 535.164 188.35 535.667 188.015C536.002 187.847 536.506 187.679 537.009 187.512C540.364 186.842 543.887 186.171 547.242 187.177C547.41 187.177 547.746 187.344 547.913 187.512C548.081 187.679 548.081 187.847 548.081 188.182C548.417 190.025 548.584 192.036 548.92 193.88C548.92 194.215 549.088 194.717 548.92 195.053C548.752 195.388 548.417 195.723 548.081 196.058C546.404 197.566 539.525 201.755 538.519 202.091C536.841 202.426 531.641 200.75 530.131 200.08C528.285 199.242 533.15 192.371 534.66 189.355Z" fill="#CB7A63"/>
<path d="M496.91 246.83C498.419 234.933 525.094 202.592 528.617 198.067C530.63 195.554 538.682 197.397 540.36 202.257C533.146 212.311 529.12 220.857 524.087 232.252C522.913 234.933 517.544 245.322 515.867 247.668C502.278 266.604 496.239 252.025 496.91 246.83Z" fill="#7981EC"/>
<g opacity="0.1">
<g opacity="0.1">
<path opacity="0.1" d="M496.91 246.83C498.419 234.933 525.094 202.592 528.617 198.067C530.63 195.554 538.682 197.397 540.36 202.257C533.146 212.311 529.12 220.857 524.087 232.252C522.913 234.933 517.544 245.322 515.867 247.668C502.278 266.604 496.239 252.025 496.91 246.83Z" fill="black"/>
</g>
</g>
<path d="M593.374 275.32C593.374 275.32 584.818 275.488 582.301 277.834L578.611 281.018C577.94 281.688 577.772 282.693 578.443 283.531C580.456 285.71 584.818 290.067 589.683 291.742C590.857 292.077 592.032 291.91 592.87 291.24C592.87 291.24 598.742 283.866 597.735 282.358L593.374 275.32Z" fill="#CB7A63"/>
<path d="M615.684 275.989C614.845 276.325 614.174 276.827 613.335 277.162L601.257 281.519C593.036 285.541 592.533 275.487 592.533 275.487L595.888 272.638L618.2 254.205C618.2 254.205 597.398 238.789 583.977 225.886C573.911 214.324 575.254 206.615 587.165 207.956C595.72 208.794 634.809 245.492 638.332 249.346C641.687 253.535 633.802 266.103 615.684 275.989Z" fill="#7981EC"/>
<path opacity="0.1" d="M615.684 275.989C614.845 276.325 614.174 276.827 613.335 277.162L601.257 281.519C593.036 285.541 592.533 275.487 592.533 275.487L595.888 272.638L618.2 254.205C618.2 254.205 597.398 238.789 583.977 225.886C573.911 214.324 575.254 206.615 587.165 207.956C595.72 208.794 634.809 245.492 638.332 249.346C641.687 253.535 633.802 266.103 615.684 275.989Z" fill="black"/>
<path d="M622.057 235.772L621.891 235.605C621.891 235.605 622.057 235.605 622.057 235.772Z" fill="#24285B"/>
<path d="M544.548 160.865C543.877 160.698 543.206 161.535 542.871 162.541C542.703 163.546 543.039 164.552 543.71 164.719C544.381 164.887 545.052 164.049 545.387 163.044C545.723 161.871 545.22 161.033 544.548 160.865Z" fill="#24285B"/>
<path d="M542.709 174.609C540.863 174.777 539.186 174.107 537.844 172.766C540.36 170.42 542.709 167.739 544.554 164.723L542.709 174.609Z" fill="#B74D3C"/>
<path d="M549.923 157.85C548.917 156.677 547.239 156.007 545.729 156.174H545.562C545.226 156.174 544.891 155.839 544.891 155.504C544.891 155.169 545.226 154.834 545.562 154.834C547.575 154.666 549.588 155.336 550.93 156.845C551.098 157.012 551.098 157.18 551.098 157.18C551.098 157.515 550.762 157.85 550.427 157.85C550.259 158.018 550.091 157.85 549.923 157.85Z" fill="#24285B"/>
<path d="M558.14 221.023C576.091 220.855 578.607 210.968 578.607 210.968C573.239 205.941 572.735 196.39 573.742 187.844C572.4 189.855 570.722 191.53 568.541 193.038C564.347 195.887 559.65 196.557 555.456 195.72H555.288C555.288 195.887 555.288 196.055 555.456 196.222C556.63 203.093 555.791 210.298 548.745 212.644C548.578 212.644 538.344 221.358 558.14 221.023Z" fill="#CB7A63"/>
<path d="M554.617 193.207C554.785 194.045 554.953 194.883 555.12 195.72H555.288C559.482 196.726 564.18 196.056 568.374 193.039C570.555 191.531 572.232 189.855 573.574 187.845C573.742 185.666 574.078 183.488 574.581 181.645L555.288 192.704L554.617 193.207Z" fill="#CB7A63"/>
<path d="M580.453 210.301C580.453 210.301 577.769 202.593 573.91 200.079C570.052 197.733 553.275 200.582 550.591 201.755C547.907 202.761 545.391 208.961 545.391 208.961L580.453 210.301Z" fill="#7981EC"/>
<path opacity="0.8" d="M580.453 210.301C580.453 210.301 577.769 202.593 573.91 200.079C570.052 197.733 553.275 200.582 550.591 201.755C547.907 202.761 545.391 208.961 545.391 208.961L580.453 210.301Z" fill="white"/>
<path d="M558.474 595.544C556.796 595.544 555.286 595.376 554.783 594.538C554.447 594.203 554.447 593.7 554.783 593.198C554.951 592.863 555.286 592.528 555.789 592.528C557.803 592.025 562.332 594.371 562.5 594.538C562.668 594.538 562.668 594.706 562.668 594.873C562.668 595.041 562.5 595.041 562.5 595.209C561.158 595.376 559.816 595.544 558.474 595.544ZM556.461 593.198C556.293 593.198 556.125 593.198 555.957 593.198C555.789 593.198 555.454 593.365 555.286 593.7C555.118 594.036 555.118 594.203 555.286 594.371C555.789 595.209 558.977 595.209 561.326 594.873C559.983 593.868 558.306 593.365 556.461 593.198Z" fill="#7981EC"/>
<path d="M562.341 595.209C560.663 594.539 557.643 591.858 557.979 590.35C557.979 590.014 558.314 589.512 559.153 589.512C559.824 589.512 560.328 589.679 560.831 590.014C562.508 591.355 562.676 594.706 562.844 594.874C562.844 595.042 562.844 595.042 562.676 595.209C562.508 595.209 562.341 595.209 562.341 595.209ZM559.321 590.182H559.153C558.65 590.182 558.65 590.517 558.482 590.517C558.314 591.355 560.328 593.533 562.005 594.371C561.837 592.863 561.334 591.523 560.328 590.517C559.992 590.182 559.657 590.182 559.321 590.182Z" fill="#7981EC"/>
<path d="M575.082 565.883H562.5L563.507 594.872H576.089L575.082 565.883Z" fill="#CB7A63"/>
<path d="M560.656 594.373C552.101 599.567 549.416 599.902 539.518 602.081C537.338 602.584 538.68 607.778 543.88 607.778C552.436 607.778 553.443 607.443 560.656 607.276C566.864 607.276 574.077 607.611 579.11 607.611C579.278 607.611 579.446 607.611 579.613 607.611C580.62 607.443 581.123 606.438 580.956 605.432L578.439 594.205C578.271 593.702 577.936 593.367 577.433 593.367H563.676C562.502 593.535 561.495 593.87 560.656 594.373Z" fill="#24285B"/>
<path opacity="0.2" d="M575.082 565.883L575.585 582.137H563.003L562.5 565.883H575.082Z" fill="black"/>
<path d="M668.697 590.35C668.529 588.675 668.529 586.999 669.368 586.496C669.704 586.161 670.375 586.161 670.71 586.329C671.046 586.496 671.381 586.832 671.549 587.167C672.388 589.345 670.207 594.037 670.039 594.372C670.039 594.54 669.871 594.54 669.704 594.54C669.536 594.54 669.536 594.372 669.368 594.372C669.033 593.032 668.697 591.691 668.697 590.35ZM671.046 588.005C671.046 587.837 671.046 587.669 671.046 587.334C671.046 586.999 670.878 586.832 670.542 586.832C670.207 586.664 669.871 586.664 669.871 586.832C669.033 587.502 669.368 590.853 670.039 593.199C670.542 591.691 670.878 589.848 671.046 588.005Z" fill="#7981EC"/>
<path d="M669.367 594.203C669.87 592.527 672.387 589.176 673.897 589.176C674.232 589.176 674.736 589.343 674.903 590.181C675.071 590.851 674.903 591.522 674.568 592.024C673.393 593.868 669.87 594.37 669.703 594.538C669.535 594.538 669.535 594.538 669.367 594.37C669.367 594.37 669.367 594.37 669.367 594.203ZM674.4 590.684V590.516C674.4 590.014 674.064 590.014 674.064 590.014C673.226 590.014 671.213 592.192 670.374 593.868C671.884 593.533 673.226 592.862 674.232 591.857C674.232 591.354 674.4 591.019 674.4 590.684Z" fill="#7981EC"/>
<path d="M660.481 565.715L648.234 566.553L655.448 595.71L667.695 594.872L660.481 565.715Z" fill="#CB7A63"/>
<path d="M670.712 592.528C674.571 596.382 676.584 598.225 686.817 600.571C689.166 601.074 687.656 606.436 682.12 606.436C673.229 606.269 678.094 605.934 670.377 605.934C663.834 605.934 658.13 605.934 652.929 605.934C652.762 605.934 652.594 605.934 652.426 605.934C651.42 605.766 650.749 604.593 650.916 603.588L653.601 592.025C653.768 591.523 654.104 591.188 654.775 591.188L667.357 591.523C668.699 591.355 669.873 591.858 670.712 592.528Z" fill="#24285B"/>
<path opacity="0.2" d="M660.481 565.715L664.172 580.796L651.925 581.634L648.234 566.553L660.481 565.715Z" fill="black"/>
<path d="M594.213 311.847C594.213 311.847 601.091 322.404 605.788 335.14C612.499 353.237 610.15 362.789 612.331 375.021C616.357 396.638 622.229 413.227 626.423 429.649C639.34 480.926 666.686 572.084 666.686 572.084L644.541 576.944C644.541 576.944 603.607 468.191 591.864 431.493C581.463 398.481 554.453 311.68 554.453 311.68L594.213 311.847Z" fill="#7981EC"/>
<path opacity="0.4" d="M594.213 311.847C594.213 311.847 601.091 322.404 605.788 335.14C612.499 353.237 610.15 362.789 612.331 375.021C616.357 396.638 622.229 413.227 626.423 429.649C639.34 480.926 666.686 572.084 666.686 572.084L644.541 576.944C644.541 576.944 603.607 468.191 591.864 431.493C581.463 398.481 554.453 311.68 554.453 311.68L594.213 311.847Z" fill="black"/>
<path d="M669.196 568.062L669.364 575.938L642.69 578.787C642.69 578.787 640.341 570.241 640.509 570.241L669.196 568.062Z" fill="#7981EC"/>
<path opacity="0.8" d="M669.196 568.062L669.364 575.938L642.69 578.787C642.69 578.787 640.341 570.241 640.509 570.241L669.196 568.062Z" fill="white"/>
<path opacity="0.3" d="M567.031 351.73C575.587 379.044 586.156 413.396 592.028 431.493C592.363 432.331 592.531 433.337 592.867 434.174C590.686 404.012 584.646 353.238 569.38 351.395C568.541 351.395 567.702 351.395 567.031 351.73Z" fill="black"/>
<path d="M573.744 311.68C573.744 311.68 580.287 394.962 580.958 434.341C581.629 471.039 578.944 577.949 578.944 577.949H557.639C557.639 577.949 547.405 468.861 543.715 431.493C540.192 396.135 530.797 312.35 530.797 312.35L573.744 311.68Z" fill="#7981EC"/>
<path opacity="0.4" d="M573.744 311.68C573.744 311.68 580.287 394.962 580.958 434.341C581.629 471.039 578.944 577.949 578.944 577.949H557.639C557.639 577.949 547.405 468.861 543.715 431.493C540.192 396.135 530.797 312.35 530.797 312.35L573.744 311.68Z" fill="black"/>
<path d="M582.134 570.408L581.463 578.284H555.627L554.453 569.57L582.134 570.408Z" fill="#7981EC"/>
<path opacity="0.8" d="M582.134 570.408L581.463 578.284H555.627L554.453 569.57L582.134 570.408Z" fill="white"/>
<path d="M615.011 338.325L609.14 336.649C599.577 333.968 589.512 333.633 579.781 335.812L572.735 319.892L574.916 336.649H571.897C563.173 336.482 554.449 338.158 546.397 341.844C542.203 343.687 538.344 345.363 538.344 345.195C538.344 344.693 530.795 312.687 530.795 312.687C523.078 260.74 524.42 234.431 526.769 221.696C527.943 214.826 533.311 209.463 540.19 208.123C542.706 207.62 545.726 207.117 548.745 206.95C557.637 206.28 566.696 206.28 575.587 206.615L581.459 207.117C590.854 207.62 600.416 215.496 598.738 224.712C593.034 255.378 592.196 277.832 592.531 292.578L615.011 338.325Z" fill="#7981EC"/>
<path opacity="0.2" d="M525.262 263.42C525.262 263.42 525.094 237.782 525.262 233.09L544.387 220.02C540.864 226.22 532.14 239.793 525.262 263.42Z" fill="black"/>
<path d="M541.532 178.795C541.868 185.33 545.559 190.86 550.591 193.876C551.933 194.714 553.443 195.217 555.121 195.72H555.289C559.483 196.725 564.18 196.055 568.374 193.038C570.555 191.53 572.233 189.855 573.575 187.844C576.93 182.984 578.272 176.449 580.621 167.4C581.292 164.719 581.459 161.87 580.956 159.189C578.943 149.47 569.548 143.27 559.818 145.281C546.397 147.962 541.029 166.73 541.532 178.795Z" fill="#CB7A63"/>
<path opacity="0.2" d="M550.758 193.877C552.1 194.715 553.61 195.218 555.287 195.721L554.616 187.845C554.616 187.51 551.597 193.877 550.758 193.877Z" fill="black"/>
<path d="M596.557 169.58C595.047 171.424 593.202 173.434 590.853 173.602C589.511 173.77 588.001 173.434 586.827 172.932C582.633 180.137 573.741 187.845 573.741 187.845C571.56 188.683 569.212 189.186 566.695 189.186C564.179 189.186 561.83 188.683 559.482 187.845C558.81 187.51 558.139 187.343 558.139 187.343C557.468 187.175 554.113 173.099 549.416 170.921C548.409 170.418 548.409 170.418 548.409 170.418C548.745 168.91 548.242 164.721 549.751 163.38C550.59 162.542 548.409 160.699 548.577 159.191C548.577 159.023 548.577 159.023 548.577 158.856C547.067 157.85 546.899 155.839 547.57 153.829C548.913 148.466 551.932 149.975 551.932 149.975C551.932 149.975 550.422 148.131 550.926 145.115C551.597 142.099 557.301 140.423 557.301 140.423C557.301 140.423 558.139 140.591 559.314 140.758C560.656 139.753 562.333 139.25 564.011 139.25C566.192 139.418 569.044 140.926 570.218 142.769C572.064 141.261 574.58 140.926 576.761 141.596C578.942 142.266 580.787 144.277 581.291 146.456C583.471 145.618 585.652 146.456 587.33 148.131C589.008 149.639 589.679 152.153 589.008 154.331C590.685 154.834 591.692 156.007 591.859 157.85C592.027 159.526 591.692 161.369 591.356 163.045C591.188 164.721 591.188 166.564 592.027 168.072C593.034 169.58 595.047 170.418 596.557 169.58Z" fill="#24285B"/>
<path d="M554.446 162.208C550.755 163.381 548.91 168.91 548.742 172.429C548.574 176.284 551.258 178.797 554.613 176.116C557.13 174.105 558.975 171.256 559.646 168.073C560.485 164.219 558.136 161.035 554.446 162.208Z" fill="#CB7A63"/>
<path d="M522.24 221.023C522.24 221.023 522.24 221.023 498.586 247.835C495.231 255.375 506.639 263.754 514.691 256.381L543.043 223.704C545.056 219.18 545.392 215.493 542.372 212.645C538.513 208.623 531.467 206.109 522.24 221.023Z" fill="#7981EC"/>
<path d="M198.961 272.134C209.865 283.696 216.408 289.561 220.434 292.745C224.796 296.264 262.543 273.307 267.24 270.626C267.24 270.626 263.046 266.437 261.2 266.939C254.658 268.615 225.132 278.669 225.132 278.669C223.79 278.166 210.201 262.75 210.201 262.75L198.961 272.134Z" fill="#B97964"/>
<path d="M272.103 264.761C272.103 264.761 268.748 270.29 264.218 271.631L260.695 268.28L262.205 258.225L262.373 257.555L262.708 257.22L267.406 252.695C268.412 251.69 269.922 251.69 270.929 252.695L274.452 256.047C275.291 256.885 275.458 258.058 274.955 258.896L272.103 264.761Z" fill="#B97964"/>
<path d="M219.261 267.609C209.699 253.869 192.755 244.987 187.89 244.82C181.011 244.652 178.831 246.328 181.347 251.523C185.877 260.404 193.258 269.62 203.324 280.512L219.261 267.609Z" fill="#24285B"/>
<path d="M191.747 245.657C187.72 244.317 186.21 243.646 179.836 242.138C172.454 240.462 165.073 239.122 157.523 238.452C152.826 237.949 148.129 237.781 144.438 237.781C143.935 237.781 143.599 237.781 143.096 237.949C139.741 238.787 137.56 242.138 138.231 245.657C145.612 284.533 145.948 301.793 144.941 321.902L189.733 323.577C190.908 323.577 191.914 322.74 192.082 321.567C194.095 311.512 200.302 289.058 200.302 289.058C206.677 284.533 206.342 279.506 204.664 272.804C204.161 270.793 202.987 268.782 197.786 257.722C197.954 257.387 194.095 246.495 191.747 245.657Z" fill="#24285B"/>
<path d="M163.398 322.404L179.671 323.074C182.188 303.636 180.846 289.225 180.846 267.273C181.013 287.717 169.27 312.35 163.398 322.404Z" fill="white"/>
<path d="M180.509 330.113C180.509 330.113 200.64 429.65 199.634 470.872C198.627 514.273 190.071 589.177 190.071 589.177L179.503 589.01C179.503 589.01 169.94 533.544 175.476 472.883C147.628 411.888 140.414 333.967 140.414 333.967L180.509 330.113Z" fill="#B97964"/>
<path d="M180.509 330.113C180.509 330.113 200.64 429.65 199.634 470.872C198.627 514.273 190.071 589.177 190.071 589.177L179.503 589.01C179.503 589.01 169.94 533.544 175.476 472.883C147.628 411.888 140.414 333.967 140.414 333.967L180.509 330.113Z" fill="#A86955"/>
<path d="M171.446 354.745C171.446 354.745 176.646 432.666 171.278 473.553C165.574 516.618 148.966 590.182 148.966 590.182L138.397 589.009C138.397 589.009 134.874 532.873 146.785 473.05C125.647 409.541 131.015 354.41 131.015 354.41L171.446 354.745Z" fill="#B97964"/>
<path d="M171.446 354.745C171.446 354.745 176.646 432.666 171.278 473.553C165.574 516.618 148.966 590.182 148.966 590.182L138.397 589.009C138.397 589.009 134.874 532.873 146.785 473.05C125.647 409.541 131.015 354.41 131.015 354.41L171.446 354.745Z" fill="#B97964"/>
<path d="M131.355 444.228C137.73 445.569 147.627 448.417 164.404 449.925C164.739 449.925 165.075 449.925 165.41 449.925C166.081 449.925 166.92 450.093 167.591 450.093C172.121 450.261 202.15 454.282 204.331 441.882C204.331 441.882 197.788 411.217 191.581 377.032C187.722 356.421 190.91 327.264 190.91 327.264C177.825 325.756 164.571 325.421 151.486 326.091L143.769 326.594C143.769 326.594 117.934 352.064 124.309 377.367C134.039 415.574 131.355 444.228 131.355 444.228Z" fill="#7981EC"/>
<g opacity="0.4">
<path opacity="0.4" d="M131.355 444.228C137.73 445.569 147.627 448.417 164.404 449.925C164.739 449.925 165.075 449.925 165.41 449.925C166.081 449.925 166.92 450.093 167.591 450.093C172.121 450.261 202.15 454.282 204.331 441.882C204.331 441.882 197.788 411.217 191.581 377.032C187.722 356.421 190.91 327.264 190.91 327.264C177.825 325.756 164.571 325.421 151.486 326.091L143.769 326.594C143.769 326.594 117.934 352.064 124.309 377.367C134.039 415.574 131.355 444.228 131.355 444.228Z" fill="black"/>
</g>
<path opacity="0.1" d="M151.312 237.781C152.319 241.635 154.164 245.489 156.513 248.673C163.056 257.555 172.618 267.274 176.812 268.447C177.987 265.598 179.832 260.236 179.832 260.236C182.684 261.576 183.355 265.43 184.362 268.447C188.723 261.241 192.246 248.841 191.072 244.317C191.072 244.317 185.704 242.641 183.019 242.138C175.638 240.462 168.256 239.289 160.707 238.619C157.52 237.949 154.164 237.781 151.312 237.781Z" fill="black"/>
<path d="M151.156 236.945L152.666 239.626C158.37 250.016 171.623 263.421 176.824 264.594C177.998 261.746 179.34 256.886 179.34 256.886C182.192 258.227 184.205 262.081 185.044 265.097C189.406 257.892 192.09 247.837 190.916 243.313C188.232 242.475 185.547 241.637 182.863 241.135C175.482 239.459 168.1 238.286 160.551 237.616C157.363 237.113 154.008 236.945 151.156 236.945Z" fill="white"/>
<path d="M145.116 326.764L167.764 327.434H169.609L174.474 327.602H176.32L189.573 327.937C189.908 327.937 190.412 327.77 190.412 327.434L190.915 323.245C190.915 322.91 190.579 322.743 190.076 322.743L176.823 322.24H175.313L168.77 322.072H167.26L145.451 321.234C145.116 321.234 144.78 321.402 144.613 321.57L144.109 326.429C144.109 326.429 144.613 326.764 145.116 326.764Z" fill="#7981EC"/>
<path opacity="0.2" d="M145.116 326.764L167.764 327.434H169.609L174.474 327.602H176.32L189.573 327.937C189.908 327.937 190.412 327.77 190.412 327.434L190.915 323.245C190.915 322.91 190.579 322.743 190.076 322.743L176.823 322.24H175.313L168.77 322.072H167.26L145.451 321.234C145.116 321.234 144.78 321.402 144.613 321.57L144.109 326.429C144.109 326.429 144.613 326.764 145.116 326.764Z" fill="white"/>
<path d="M183.529 328.437H182.019C181.683 328.437 181.516 328.27 181.516 328.102L182.354 322.07C182.354 321.902 182.69 321.734 182.858 321.734H184.368C184.703 321.734 184.871 321.902 184.871 322.07L184.032 328.102C184.032 328.27 183.864 328.437 183.529 328.437Z" fill="#24285B"/>
<path d="M158.197 328.101H156.855C156.519 328.101 156.352 327.934 156.352 327.766L157.19 321.734C157.19 321.566 157.526 321.398 157.694 321.398H159.036C159.371 321.398 159.539 321.566 159.539 321.734L158.7 327.766C158.7 327.934 158.532 328.101 158.197 328.101Z" fill="#24285B"/>
<path d="M206.348 310.341H172.125L176.151 264.594H210.375L206.348 310.341Z" fill="#7981EC"/>
<path d="M145.274 301.793C146.616 300.285 147.455 298.609 147.119 296.766C147.119 296.766 147.119 293.917 147.287 289.728C147.455 277.328 147.455 252.695 146.28 249.343C143.428 242.305 138.563 238.451 136.047 242.641C133.027 247.5 132.859 284.198 132.859 284.198C133.53 308.496 142.422 305.144 145.274 301.793Z" fill="#B97964"/>
<path d="M192.587 298.106C192.587 298.106 187.051 301.457 182.354 300.452L180.844 295.928L187.051 287.884L187.386 287.381L187.89 287.214L194.265 285.371C195.607 285.035 196.949 285.706 197.284 287.046L198.794 291.738C199.13 292.744 198.794 293.917 197.788 294.587L192.587 298.106Z" fill="#B97964"/>
<path d="M137.893 303.134C141.919 307.994 182.853 300.788 183.188 300.621C184.531 299.95 184.698 296.599 183.188 295.258C182.35 294.588 140.409 290.734 137.557 290.566C132.692 298.107 135.88 300.621 137.893 303.134Z" fill="#B97964"/>
<path d="M195.939 189.355C201.476 196.058 204.495 201.085 200.972 223.707C200.301 227.896 202.147 237.95 202.985 238.118C181.176 235.604 174.801 231.918 164.4 225.718C157.522 221.528 151.818 206.112 153.663 198.236C155.677 189.69 164.903 179.636 173.963 178.798C184.196 177.792 189.732 181.646 195.939 189.355Z" fill="#24285B"/>
<path d="M181.013 231.75C178.664 236.275 177.322 241.637 182.858 246.329C184.033 247.334 185.039 248.675 185.207 250.183C185.71 252.697 184.704 255.21 175.98 251.859C163.398 246.999 163.062 239.124 163.062 239.124C168.766 236.275 170.276 223.037 170.444 215.496L181.013 231.75Z" fill="#B97964"/>
<path opacity="0.2" d="M172.957 226.221C172.622 229.404 176.648 233.929 179.5 235.437C179.835 234.264 180.339 232.923 181.01 231.75L174.803 222.031C173.964 223.372 173.293 224.712 172.957 226.221Z" fill="black"/>
<path d="M164.898 197.065C168.086 188.686 177.48 184.497 185.868 187.848C197.612 192.373 199.793 209.968 197.612 220.692C195.263 232.757 180.668 236.611 171.441 227.563C165.234 221.53 165.066 216.503 164.059 204.605C163.556 201.924 163.892 199.411 164.898 197.065Z" fill="#B97964"/>
<path d="M166.244 217.004C166.244 217.004 171.277 212.145 170.27 203.264C170.27 203.264 175.639 197.734 175.471 191.701C175.471 191.701 177.149 196.393 175.471 199.912C175.471 199.912 189.563 198.907 189.228 191.701C189.228 191.701 190.402 197.901 188.389 199.745C188.389 199.745 198.119 198.907 197.28 192.372C196.106 182.15 187.382 181.647 187.382 181.647C187.382 181.647 177.988 173.771 165.07 187.68C165.07 187.68 149.804 197.231 160.708 212.983L166.244 217.004Z" fill="#24285B"/>
<path d="M190.398 216.335C191.572 216.67 192.914 216.335 193.753 215.665C192.243 213.822 191.069 211.811 190.062 209.465L190.398 216.335Z" fill="#B74D3C"/>
<path d="M181.34 217.507C181.172 217.34 181.34 217.172 181.34 217.172C181.508 217.005 181.676 217.172 181.676 217.172C183.186 219.015 185.534 220.188 188.051 220.021C188.218 220.021 188.386 220.188 188.386 220.356C188.386 220.524 188.218 220.691 188.051 220.691C187.547 220.691 187.044 220.691 186.709 220.691C184.695 220.188 182.682 219.183 181.34 217.507Z" fill="#24285B"/>
<path d="M159.367 211.642C159.367 209.128 161.213 207.117 163.561 207.117C166.916 207.117 169.097 211.306 169.601 214.155C170.104 217.339 168.091 220.188 164.903 218.847C162.555 217.842 160.709 215.831 159.703 213.485C159.535 212.815 159.367 212.144 159.367 211.642Z" fill="#B97964"/>
<path d="M182.344 206.28C182.344 207.453 182.847 208.458 183.686 208.458C184.525 208.458 185.196 207.621 185.196 206.28C185.196 205.107 184.692 204.102 183.854 204.102C183.015 204.102 182.344 204.939 182.344 206.28Z" fill="#24285B"/>
<path d="M193.422 207.452C193.422 208.625 193.925 209.63 194.764 209.63C195.603 209.63 196.274 208.792 196.274 207.452C196.274 206.279 195.771 205.273 194.932 205.273C194.093 205.273 193.422 206.279 193.422 207.452Z" fill="#24285B"/>
<path d="M194.594 205.441L197.446 204.771C197.446 204.603 195.936 206.782 194.594 205.441Z" fill="#24285B"/>
<path d="M178.993 202.257C178.825 202.257 178.825 202.257 178.657 202.089C178.489 201.922 178.489 201.419 178.657 201.251C180.167 199.576 182.348 198.738 184.529 199.073C184.864 199.073 185.032 199.408 185.032 199.743C185.032 200.078 184.696 200.246 184.361 200.246C182.516 200.078 180.67 200.749 179.496 202.089C179.328 202.257 179.16 202.257 178.993 202.257Z" fill="#24285B"/>
<path d="M197.618 203.764C197.451 203.764 197.451 203.597 197.451 203.597C196.444 202.089 194.766 201.083 192.921 201.083C192.586 201.083 192.25 200.916 192.25 200.58C192.25 200.245 192.418 199.91 192.753 199.91C194.934 199.91 197.115 201.083 198.289 202.926C198.457 203.262 198.457 203.597 198.122 203.764C198.122 203.764 197.786 203.764 197.618 203.764Z" fill="#24285B"/>
<path d="M183.359 204.1L186.211 203.43C186.379 203.43 184.701 205.608 183.359 204.1Z" fill="#24285B"/>
<path d="M140.917 238.286C143.769 237.616 146.788 238.453 148.969 240.464C151.15 242.81 152.66 246.162 152.996 249.346C153.667 254.373 148.131 272.638 148.298 277.832C142.93 274.816 134.877 270.795 127.328 270.124C128.335 258.059 129.845 250.183 132.025 246.162C133.368 243.816 134.71 241.47 136.891 239.962C137.729 239.124 139.407 238.621 140.917 238.286Z" fill="#24285B"/>
<path d="M192.759 590.52C196.618 594.374 198.631 596.218 208.864 598.564C211.213 599.066 209.703 604.429 204.167 604.429C195.275 604.261 200.141 603.926 192.424 603.926C185.881 603.926 180.177 603.926 174.976 603.926C174.809 603.926 174.641 603.926 174.473 603.926C173.466 603.758 172.795 602.585 172.963 601.58L175.647 590.018C175.815 589.515 176.151 589.18 176.822 589.18L189.404 589.515C190.578 589.515 191.752 589.85 192.759 590.52Z" fill="#24285B"/>
<path d="M152.662 591.357C155.179 596.216 156.353 598.562 165.412 604.092C167.425 605.265 164.238 609.957 159.205 608.281C150.649 605.433 155.514 606.606 148.3 604.092C142.093 601.914 136.725 600.238 131.692 598.73C131.524 598.73 131.357 598.562 131.189 598.562C130.35 598.06 130.014 596.887 130.518 595.881L136.557 585.659C136.893 585.157 137.396 584.989 137.899 585.157L149.81 589.346C150.985 589.681 151.991 590.351 152.662 591.357Z" fill="#24285B"/>
</g>
<defs>
<clipPath id="clip0_150_5861">
<rect width="838.808" height="618" fill="white"/>
</clipPath>
</defs>
</svg>
