<svg width="337" height="314" viewBox="0 0 337 314" fill="none" xmlns="http://www.w3.org/2000/svg">
<g clip-path="url(#clip0_150_5043)">
<path d="M110.974 6.07433C110.974 6.07433 166.213 -13.5775 220.453 17.7225C274.621 49.0224 302.026 111.194 325.507 161.002C348.987 210.81 335.498 261.405 294.105 284.558C252.711 307.64 224.592 273.625 166.499 271.981C108.405 270.337 92.8466 278.627 44.6018 245.826C-3.57159 212.954 -12.2785 135.419 25.6893 78.0356C63.7285 20.5095 110.974 6.07433 110.974 6.07433Z" fill="url(#paint0_linear_150_5043)"/>
<path d="M320.082 183.871C320.082 183.871 318.726 186.372 319.94 188.73C321.153 191.089 322.58 193.447 321.724 194.662C320.867 195.877 318.155 197.306 318.441 199.878C318.726 202.38 322.295 207.453 320.082 210.24C317.87 213.027 314.159 212.884 314.016 216.029C313.873 219.173 317.584 221.674 316.514 224.461C315.443 227.248 309.449 227.891 309.449 229.821C309.449 231.75 311.804 233.822 309.877 235.895C307.95 237.967 298.672 243.398 297.316 241.183C295.96 238.968 293.319 232.822 295.104 224.104C295.389 222.603 297.459 222.317 297.744 220.245C298.03 218.172 297.173 214.456 298.601 212.384C300.099 210.312 304.81 209.597 305.095 207.953C305.381 206.31 303.311 202.308 305.381 199.807C307.45 197.306 312.303 196.091 312.303 194.447C312.303 192.804 310.805 190.731 312.874 188.516C315.087 186.229 320.082 183.871 320.082 183.871Z" fill="#7981EC"/>
<path d="M313.016 201.309C309.947 210.599 304.523 223.247 302.382 229.321C299.741 236.753 297.386 242.113 296.244 249.473C295.031 256.905 294.389 306.499 294.389 306.499" stroke="#263238" stroke-miterlimit="10" stroke-linecap="round" stroke-linejoin="round"/>
<path d="M319.367 184.73C319.367 184.73 316.869 186.803 314.657 195.807C314.514 196.379 314.371 197.022 314.157 197.665" stroke="#263238" stroke-miterlimit="10" stroke-linecap="round" stroke-linejoin="round"/>
<path d="M273.908 200.734C273.908 200.734 274.978 202.735 274.051 204.665C273.123 206.594 271.909 208.452 272.623 209.381C273.337 210.31 275.478 211.525 275.192 213.526C274.978 215.527 272.124 219.6 273.908 221.815C275.692 224.102 278.618 223.959 278.761 226.46C278.904 228.962 275.906 230.962 276.762 233.249C277.619 235.536 282.472 235.965 282.472 237.537C282.472 239.109 280.545 240.753 282.115 242.396C283.685 244.04 291.107 248.399 292.178 246.612C293.249 244.826 295.39 239.895 293.962 232.963C293.748 231.82 292.035 231.534 291.821 229.891C291.607 228.247 292.321 225.246 291.107 223.602C289.894 221.958 286.112 221.315 285.898 220.029C285.683 218.743 287.325 215.527 285.683 213.526C284.042 211.525 280.117 210.596 280.117 209.238C280.117 207.952 281.33 206.308 279.617 204.522C277.904 202.592 273.908 200.734 273.908 200.734Z" fill="#7981EC"/>
<path d="M279.545 214.668C282.043 222.1 286.325 232.176 288.109 237.107C290.25 243.038 292.106 247.326 293.034 253.257C293.961 259.188 294.461 298.849 294.461 298.849" stroke="#263238" stroke-miterlimit="10" stroke-linecap="round" stroke-linejoin="round"/>
<path d="M274.477 201.449C274.477 201.449 276.475 203.093 278.259 210.31C278.402 210.811 278.473 211.239 278.688 211.811" stroke="#263238" stroke-miterlimit="10" stroke-linecap="round" stroke-linejoin="round"/>
<path d="M314.588 234.25C314.588 234.25 313.732 235.965 314.517 237.537C315.302 239.109 316.301 240.682 315.73 241.468C315.159 242.254 313.375 243.254 313.589 244.898C313.803 246.613 316.158 249.971 314.659 251.829C313.161 253.687 310.734 253.616 310.591 255.688C310.52 257.761 312.947 259.476 312.304 261.334C311.591 263.192 307.523 263.621 307.523 264.907C307.523 266.193 309.093 267.551 307.808 268.98C306.523 270.338 300.314 273.982 299.387 272.482C298.53 270.981 296.675 266.908 297.888 261.048C298.102 260.047 299.458 259.833 299.672 258.475C299.886 257.118 299.244 254.616 300.243 253.259C301.242 251.901 304.382 251.401 304.596 250.257C304.811 249.185 303.383 246.47 304.811 244.826C306.167 243.111 309.449 242.325 309.449 241.253C309.449 240.181 308.45 238.752 309.878 237.323C311.234 235.822 314.588 234.25 314.588 234.25Z" fill="#7981EC"/>
<path d="M309.875 245.898C307.805 252.116 304.237 260.548 302.738 264.621C300.954 269.552 299.384 273.125 298.599 278.127C297.814 283.058 297.386 301.424 297.386 301.424" stroke="#263238" stroke-miterlimit="10" stroke-linecap="round" stroke-linejoin="round"/>
<path d="M314.094 234.82C314.094 234.82 312.381 236.178 310.954 242.252C310.882 242.61 310.739 243.038 310.597 243.467" stroke="#263238" stroke-miterlimit="10" stroke-linecap="round" stroke-linejoin="round"/>
<path d="M263.627 231.82C263.627 231.82 264.912 233.25 264.484 234.965C264.055 236.68 263.484 238.466 264.198 239.109C264.983 239.753 266.91 240.324 267.124 241.968C267.338 243.683 265.768 247.47 267.624 248.971C269.479 250.472 271.906 249.829 272.477 251.829C273.048 253.83 271.049 256.046 272.12 257.689C273.191 259.333 277.259 258.833 277.544 260.047C277.829 261.334 276.616 262.977 278.186 264.049C279.756 265.121 286.608 267.194 287.179 265.55C287.678 263.906 288.535 259.476 286.037 254.116C285.609 253.187 284.181 253.33 283.682 252.044C283.182 250.758 283.182 248.185 281.897 247.042C280.613 245.898 277.401 246.184 276.973 245.112C276.545 244.112 277.259 241.182 275.546 239.824C273.833 238.538 270.479 238.466 270.193 237.394C269.979 236.322 270.621 234.75 268.908 233.607C267.267 232.535 263.627 231.82 263.627 231.82Z" fill="#7981EC"/>
<path d="M270.907 242.039C274.333 247.613 279.757 254.974 282.112 258.618C284.967 263.049 288.392 265.836 289.177 270.766C289.962 275.697 290.391 294.063 290.391 294.063" stroke="#263238" stroke-miterlimit="10" stroke-linecap="round" stroke-linejoin="round"/>
<path d="M264.272 232.25C264.272 232.25 266.199 233.179 269.054 238.753C269.268 239.11 269.411 239.468 269.625 239.896" stroke="#263238" stroke-miterlimit="10" stroke-linecap="round" stroke-linejoin="round"/>
<path d="M298.744 312.071H287.753C281.972 309.069 277.833 301.495 277.833 292.633C277.833 286.845 279.617 281.557 282.472 277.77H304.025C306.88 281.557 308.664 286.774 308.664 292.633C308.664 301.495 304.596 309.069 298.744 312.071Z" fill="white" stroke="#263238" stroke-miterlimit="10" stroke-linecap="round" stroke-linejoin="round"/>
<path d="M287.537 312.07H298.742V313.714H287.537V312.07Z" fill="white" stroke="#263238" stroke-miterlimit="10" stroke-linecap="round" stroke-linejoin="round"/>
<path d="M134.954 34.9453H310.234V167.791H134.954V34.9453Z" stroke="#263238" stroke-miterlimit="10" stroke-linecap="round" stroke-linejoin="round"/>
<path d="M139.028 38.5195H306.172V164.363H139.028V38.5195Z" stroke="#263238" stroke-miterlimit="10" stroke-linecap="round" stroke-linejoin="round"/>
<path d="M255.211 56.9546C255.211 56.9546 282.545 54.9537 284.829 59.2414C287.112 63.529 285.471 141.922 284.186 142.922C282.902 143.923 246.004 144.566 242.436 143.28C238.796 141.993 243.721 62.2427 243.721 59.956C243.721 57.6692 252.285 56.6688 252.285 56.6688" stroke="#263238" stroke-width="2" stroke-miterlimit="10" stroke-linecap="round" stroke-linejoin="round"/>
<path d="M282.047 121.843C281.976 132.205 281.761 139.78 281.262 139.994C279.62 140.637 244.721 143.638 243.794 140.351C242.794 137.064 246.434 62.6016 246.434 62.6016" stroke="#263238" stroke-width="2" stroke-miterlimit="10" stroke-linecap="round" stroke-linejoin="round"/>
<path d="M247.647 62.2445C247.647 62.2445 280.905 60.9582 281.19 62.6018C281.405 63.6023 282.047 94.4735 282.047 116.912" stroke="#263238" stroke-width="2" stroke-miterlimit="10" stroke-linecap="round" stroke-linejoin="round"/>
<path d="M280.266 68.1758H248.007" stroke="#263238" stroke-width="2" stroke-miterlimit="10" stroke-linecap="round" stroke-linejoin="round"/>
<path d="M250.932 66.6751C252.93 68.7475 250.932 66.6751 249.647 63.6737C248.362 60.6724 250.932 64.2454 253.929 66.6751C256.855 69.0333 255.214 67.2468 254.286 63.9596C253.287 60.6724 255.285 63.9596 257.926 66.032C260.566 68.1043 259.21 67.2468 258.283 63.6737C257.283 60.1007 258.283 63.6737 262.208 66.032C266.133 68.3902 264.206 68.3902 262.208 64.8171C260.21 61.2441 263.492 64.8171 267.132 66.032C270.772 67.2468 267.132 66.032 265.848 62.7448C264.563 59.4575 268.131 63.6737 270.772 65.4603C273.413 67.2468 270.772 65.4603 270.13 63.3879C269.487 61.3155 271.771 63.9596 274.412 66.6751C277.052 69.3906 274.412 66.6751 274.055 64.3169C273.698 61.9587 276.981 68.1758 276.981 68.1758C276.981 68.1758 275.982 62.2445 276.624 63.6737C277.266 65.1744 278.266 66.3893 278.266 66.3893" stroke="#7981EC" stroke-width="2" stroke-miterlimit="10" stroke-linecap="round" stroke-linejoin="round"/>
<path d="M262.488 73.75H278.617V90.5434H262.488V73.75Z" stroke="#7981EC" stroke-width="2" stroke-miterlimit="10" stroke-linecap="round" stroke-linejoin="round"/>
<path d="M275.263 73.75L277.904 76.7514L272.337 74.7505L277.904 80.0386L268.697 74.1073L277.904 83.9689L265.414 74.7505L278.617 86.9703L262.773 76.0368L278.617 90.5434L262.773 80.0386L273.978 89.9002L262.488 83.6831L269.696 89.5429L262.773 87.2561L264.129 89.5429" stroke="#7981EC" stroke-width="2" stroke-miterlimit="10" stroke-linecap="round" stroke-linejoin="round"/>
<path d="M248.575 125.129H260.922V137.992H248.575V125.129Z" stroke="#7981EC" stroke-width="2" stroke-miterlimit="10" stroke-linecap="round" stroke-linejoin="round"/>
<path d="M258.353 125.129L260.422 127.416L256.14 125.915L260.422 129.917L253.357 125.415L260.422 132.99L250.859 125.915L260.922 135.205L248.789 126.915L260.922 137.992L248.789 129.917L257.353 137.492L248.575 132.704L254.142 137.206L248.789 135.491L249.86 137.206" stroke="#7981EC" stroke-width="2" stroke-miterlimit="10" stroke-linecap="round" stroke-linejoin="round"/>
<path d="M278.906 96.832H247.362" stroke="#263238" stroke-width="2" stroke-miterlimit="10" stroke-linecap="round" stroke-linejoin="round"/>
<path d="M279.266 99.7617L248.006 100.119" stroke="#263238" stroke-width="2" stroke-miterlimit="10" stroke-linecap="round" stroke-linejoin="round"/>
<path d="M259.203 74.75H248.997" stroke="#263238" stroke-width="2" stroke-miterlimit="10" stroke-linecap="round" stroke-linejoin="round"/>
<path d="M259.203 78.6797H248.997" stroke="#263238" stroke-width="2" stroke-miterlimit="10" stroke-linecap="round" stroke-linejoin="round"/>
<path d="M259.203 82.6797H248.997" stroke="#263238" stroke-width="2" stroke-miterlimit="10" stroke-linecap="round" stroke-linejoin="round"/>
<path d="M259.203 86.6133H248.997" stroke="#263238" stroke-width="2" stroke-miterlimit="10" stroke-linecap="round" stroke-linejoin="round"/>
<path d="M248 101.762H278.617V116.554H248V101.762Z" stroke="#7981EC" stroke-width="2" stroke-miterlimit="10" stroke-linecap="round" stroke-linejoin="round"/>
<path d="M278.905 104.763L274.622 102.119L279.547 109.694L271.34 102.119L278.619 112.981L265.773 101.762L276.906 114.911L263.132 102.119L273.623 114.911L258.493 101.762L270.697 116.268L255.567 102.119L267.057 115.625L251.642 101.762L263.418 116.268L248.002 101.762L259.207 115.911L248.645 106.693L255.567 115.268L248.645 110.623L250 112.838L251.285 114.911" stroke="#7981EC" stroke-width="2" stroke-miterlimit="10" stroke-linecap="round" stroke-linejoin="round"/>
<path d="M277.266 120.555H249.004" stroke="#263238" stroke-width="2" stroke-miterlimit="10" stroke-linecap="round" stroke-linejoin="round"/>
<path d="M277.906 124.129H268.7" stroke="#263238" stroke-width="2" stroke-miterlimit="10" stroke-linecap="round" stroke-linejoin="round"/>
<path d="M242.359 64.244L219.807 61.457" stroke="#263238" stroke-width="2" stroke-miterlimit="10" stroke-linecap="round" stroke-linejoin="round"/>
<path d="M246 80.3242H222.306" stroke="#263238" stroke-width="2" stroke-miterlimit="10" stroke-linecap="round" stroke-linejoin="round"/>
<path d="M283.544 110.336L293.75 113.98" stroke="#263238" stroke-width="2" stroke-miterlimit="10" stroke-linecap="round" stroke-linejoin="round"/>
<path d="M254.567 140.277C254.567 140.277 256.566 150.496 243.077 153.14" stroke="#263238" stroke-width="2" stroke-miterlimit="10" stroke-linecap="round" stroke-linejoin="round"/>
<path d="M245.003 150.496L241.72 153.497L246.359 154.784" stroke="#263238" stroke-width="2" stroke-miterlimit="10" stroke-linecap="round" stroke-linejoin="round"/>
<path d="M225.305 77.3945L220.023 80.6817L224.662 82.6826" stroke="#263238" stroke-width="2" stroke-miterlimit="10" stroke-linecap="round" stroke-linejoin="round"/>
<path d="M224.094 60.457L218.527 61.1002L222.452 64.7447" stroke="#263238" stroke-width="2" stroke-miterlimit="10" stroke-linecap="round" stroke-linejoin="round"/>
<path d="M292.394 110.621L297.961 115.266L291.11 115.623" stroke="#263238" stroke-width="2" stroke-miterlimit="10" stroke-linecap="round" stroke-linejoin="round"/>
<path d="M205.893 77.3945H218.383V90.5434H205.893V77.3945Z" fill="#7981EC"/>
<path d="M215.453 80.3242L208.174 80.6815" stroke="#263238" stroke-width="2" stroke-miterlimit="10" stroke-linecap="round" stroke-linejoin="round"/>
<path d="M215.453 82.9688L208.174 83.3261" stroke="#263238" stroke-width="2" stroke-miterlimit="10" stroke-linecap="round" stroke-linejoin="round"/>
<path d="M215.453 85.6133L208.174 85.9706" stroke="#263238" stroke-width="2" stroke-miterlimit="10" stroke-linecap="round" stroke-linejoin="round"/>
<path d="M225.769 95.1411L238.172 96.6055L236.634 109.664L224.231 108.199L225.769 95.1411Z" fill="#7981EC"/>
<path d="M234.875 99.1877L227.667 98.6875" stroke="#263238" stroke-width="2" stroke-miterlimit="10" stroke-linecap="round" stroke-linejoin="round"/>
<path d="M234.586 101.832L227.378 101.332" stroke="#263238" stroke-width="2" stroke-miterlimit="10" stroke-linecap="round" stroke-linejoin="round"/>
<path d="M234.297 104.478L227.089 103.906" stroke="#263238" stroke-width="2" stroke-miterlimit="10" stroke-linecap="round" stroke-linejoin="round"/>
<path d="M290.573 117.508L302.977 118.973L301.439 132.031L289.036 130.566L290.573 117.508Z" fill="#7981EC"/>
<path d="M299.742 121.63L292.463 121.059" stroke="#263238" stroke-width="2" stroke-miterlimit="10" stroke-linecap="round" stroke-linejoin="round"/>
<path d="M299.391 124.199L292.182 123.699" stroke="#263238" stroke-width="2" stroke-miterlimit="10" stroke-linecap="round" stroke-linejoin="round"/>
<path d="M299.102 126.844L291.893 126.344" stroke="#263238" stroke-width="2" stroke-miterlimit="10" stroke-linecap="round" stroke-linejoin="round"/>
<path d="M225.94 144.986L238.359 143.664L239.747 156.739L227.328 158.061L225.94 144.986Z" fill="#7981EC"/>
<path d="M235.727 146.926L228.59 147.998" stroke="#263238" stroke-width="2" stroke-miterlimit="10" stroke-linecap="round" stroke-linejoin="round"/>
<path d="M236.016 149.5L228.879 150.572" stroke="#263238" stroke-width="2" stroke-miterlimit="10" stroke-linecap="round" stroke-linejoin="round"/>
<path d="M236.297 152.145L229.16 153.216" stroke="#263238" stroke-width="2" stroke-miterlimit="10" stroke-linecap="round" stroke-linejoin="round"/>
<path d="M134.954 167.863H310.234V172.365H134.954V167.863Z" fill="#263238" stroke="#263238" stroke-miterlimit="10" stroke-linecap="round" stroke-linejoin="round"/>
<path d="M64.5959 200.017V191.656H89.7889V200.017C89.7889 202.733 90.7166 205.377 92.4295 207.521L93.5 208.878H60.8134L61.884 207.521C63.6682 205.377 64.5959 202.733 64.5959 200.017Z" fill="#263238" stroke="#263238" stroke-miterlimit="10" stroke-linecap="round" stroke-linejoin="round"/>
<path d="M66.0178 200.017V191.656H91.2107V200.017C91.2107 202.733 92.1385 205.377 93.8514 207.521L94.9219 208.878H62.2353L63.3058 207.521C65.09 205.377 66.0178 202.733 66.0178 200.017Z" fill="white" stroke="#263238" stroke-miterlimit="10" stroke-linecap="round" stroke-linejoin="round"/>
<path d="M65.8763 194.016H91.1406V196.588H65.8763V194.016Z" fill="#263238"/>
<path d="M34.1164 194.301H123.184C126.538 194.301 129.25 191.586 129.25 188.227V125.984C129.25 122.626 126.538 119.91 123.184 119.91H34.1164C30.7621 119.91 28.0501 122.626 28.0501 125.984V188.227C28.0501 191.586 30.7621 194.301 34.1164 194.301Z" fill="#263238" stroke="#263238" stroke-miterlimit="10" stroke-linecap="round" stroke-linejoin="round"/>
<path d="M31.4054 194.301H120.473C123.827 194.301 126.539 191.586 126.539 188.227V125.984C126.539 122.626 123.827 119.91 120.473 119.91H31.4054C28.0511 119.91 25.3391 122.626 25.3391 125.984V188.227C25.3391 191.586 28.0511 194.301 31.4054 194.301Z" fill="#263238" stroke="#263238" stroke-miterlimit="10" stroke-linecap="round" stroke-linejoin="round"/>
<path d="M34.1164 194.299H123.184C126.538 194.299 129.25 191.584 129.25 188.225V182.723H28.0501V188.225C28.0501 191.584 30.7621 194.299 34.1164 194.299Z" fill="white" stroke="#263238" stroke-miterlimit="10" stroke-linecap="round" stroke-linejoin="round"/>
<path d="M33.1151 124.484H124.109V177.008H33.1151V124.484Z" fill="white"/>
<path d="M92.4143 171.363H110.328C111.541 171.363 112.469 170.363 112.469 169.219V132.202C112.469 130.988 111.47 130.059 110.328 130.059H92.4143C91.2011 130.059 90.2733 131.059 90.2733 132.202V169.219C90.2733 170.363 91.2724 171.363 92.4143 171.363Z" fill="#263238"/>
<path d="M92.2032 133.488H110.688V167.933H92.2032V133.488Z" fill="#7981EC"/>
<path d="M67.7207 134.059H84.4922V135.774H67.7207V134.059Z" fill="#263238"/>
<path d="M76.424 137.777H84.2031V145.852H76.424V137.777Z" fill="#7981EC"/>
<path d="M68.8674 162.645H73.0781V167.004H68.8674V162.645Z" fill="#7981EC"/>
<path d="M68.0771 151.711H83.9922V159.786H68.0771V151.711Z" fill="#7981EC"/>
<path d="M75 138.348H68.6482" stroke="#263238" stroke-miterlimit="10" stroke-linecap="round" stroke-linejoin="round"/>
<path d="M75 140.422H68.6482" stroke="#263238" stroke-miterlimit="10" stroke-linecap="round" stroke-linejoin="round"/>
<path d="M75 142.422H68.6482" stroke="#263238" stroke-miterlimit="10" stroke-linecap="round" stroke-linejoin="round"/>
<path d="M75 144.422H68.6482" stroke="#263238" stroke-miterlimit="10" stroke-linecap="round" stroke-linejoin="round"/>
<path d="M83.7031 149.066H68.4304" stroke="#263238" stroke-miterlimit="10" stroke-linecap="round" stroke-linejoin="round"/>
<path d="M83.7031 161.789H68.4304" stroke="#263238" stroke-miterlimit="10" stroke-linecap="round" stroke-linejoin="round"/>
<path d="M66.2957 132.273H85.9219V168.719H66.2957V132.273Z" stroke="#263238" stroke-miterlimit="10" stroke-linecap="round" stroke-linejoin="round"/>
<path d="M42.3204 132.273H60.8047V145.851H42.3204V132.273Z" fill="#BFBFBF"/>
<path d="M42.3204 132.273H60.8047V135.132H42.3204V132.273Z" fill="#263238"/>
<path d="M54.522 137.277H59.375V141.994H54.522V137.277Z" stroke="#263238" stroke-miterlimit="10" stroke-linecap="round" stroke-linejoin="round"/>
<path d="M44.8892 137.277H49.7422V141.994H44.8892V137.277Z" stroke="#263238" stroke-miterlimit="10" stroke-linecap="round" stroke-linejoin="round"/>
<path d="M44.1039 133.918C44.1039 134.275 44.3894 134.632 44.8176 134.632C45.1744 134.632 45.5312 134.347 45.5312 133.918C45.5312 133.489 45.2458 133.203 44.8176 133.203C44.4607 133.275 44.1039 133.56 44.1039 133.918Z" fill="white"/>
<path d="M48.1769 134.632C47.7828 134.632 47.4633 134.312 47.4633 133.918C47.4633 133.523 47.7828 133.203 48.1769 133.203C48.5711 133.203 48.8906 133.523 48.8906 133.918C48.8906 134.312 48.5711 134.632 48.1769 134.632Z" fill="white"/>
<path d="M43.8223 153.281H57.9531V163.715H43.8223V153.281Z" fill="#BFBFBF"/>
<path d="M43.8223 153.281H57.9531V155.497H43.8223V153.281Z" fill="#263238"/>
<path d="M45.1784 154.497C45.1784 154.783 45.3925 155.069 45.7494 155.069C46.0348 155.069 46.3203 154.855 46.3203 154.497C46.3203 154.212 46.1062 153.926 45.7494 153.926C45.3925 153.997 45.1784 154.212 45.1784 154.497Z" fill="white"/>
<path d="M47.7488 154.497C47.7488 154.783 47.9628 155.069 48.3197 155.069C48.6052 155.069 48.8906 154.855 48.8906 154.497C48.8906 154.212 48.6765 153.926 48.3197 153.926C47.9628 153.997 47.7488 154.212 47.7488 154.497Z" fill="white"/>
<path d="M115.186 127.27H121.109V173.934H115.186V127.27Z" fill="#BFBFBF"/>
<path d="M115.186 127.27H121.109V129.413H115.186V127.27Z" fill="#263238"/>
<path d="M116.833 130.844H119.688V134.202H116.833V130.844Z" stroke="#263238" stroke-miterlimit="10" stroke-linecap="round" stroke-linejoin="round"/>
<path d="M116.833 136.344H119.688V139.702H116.833V136.344Z" stroke="#263238" stroke-miterlimit="10" stroke-linecap="round" stroke-linejoin="round"/>
<path d="M116.833 141.777H119.688V145.136H116.833V141.777Z" stroke="#263238" stroke-miterlimit="10" stroke-linecap="round" stroke-linejoin="round"/>
<path d="M116.833 147.277H119.688V150.636H116.833V147.277Z" stroke="#263238" stroke-miterlimit="10" stroke-linecap="round" stroke-linejoin="round"/>
<path d="M116.833 152.781H119.688V156.14H116.833V152.781Z" stroke="#263238" stroke-miterlimit="10" stroke-linecap="round" stroke-linejoin="round"/>
<path d="M116.833 158.211H119.688V161.57H116.833V158.211Z" stroke="#263238" stroke-miterlimit="10" stroke-linecap="round" stroke-linejoin="round"/>
<path d="M116.833 163.715H119.688V167.074H116.833V163.715Z" stroke="#263238" stroke-miterlimit="10" stroke-linecap="round" stroke-linejoin="round"/>
<path d="M116.833 169.219H119.688V172.577H116.833V169.219Z" stroke="#263238" stroke-miterlimit="10" stroke-linecap="round" stroke-linejoin="round"/>
<path d="M35.7561 126.77H111.406V128.699H35.7561V126.77Z" fill="#BFBFBF"/>
<path d="M35.7561 173.004H111.406V174.933H35.7561V173.004Z" fill="#BFBFBF"/>
<path d="M62.2343 208.879H94.9922V210.38H62.2343V208.879Z" fill="#263238" stroke="#263238" stroke-miterlimit="10" stroke-linecap="round" stroke-linejoin="round"/>
<path d="M40.8211 207.664H116.828V210.38H40.8211V207.664Z" fill="white" stroke="#263238" stroke-miterlimit="10" stroke-linecap="round" stroke-linejoin="round"/>
<path d="M184.908 313.64H188.048L189.547 218.883H183.409L184.908 313.64Z" fill="white" stroke="#263238" stroke-miterlimit="10" stroke-linecap="round" stroke-linejoin="round"/>
<path d="M184.91 313.64H186.266L186.123 218.883H183.411L184.91 313.64Z" fill="#263238" stroke="#263238" stroke-miterlimit="10" stroke-linecap="round" stroke-linejoin="round"/>
<path d="M140.877 313.64H143.946L145.516 218.883H139.307L140.877 313.64Z" fill="white" stroke="#263238" stroke-miterlimit="10" stroke-linecap="round" stroke-linejoin="round"/>
<path d="M140.878 313.64H142.234L142.092 218.883H139.308L140.878 313.64Z" fill="#263238" stroke="#263238" stroke-miterlimit="10" stroke-linecap="round" stroke-linejoin="round"/>
<path d="M156.65 313.64H159.719L161.289 218.883H155.08L156.65 313.64Z" fill="#263238" stroke="#263238" stroke-miterlimit="10" stroke-linecap="round" stroke-linejoin="round"/>
<path d="M156.652 313.64H158.008L157.865 218.883H155.082L156.652 313.64Z" fill="#263238" stroke="#263238" stroke-miterlimit="10" stroke-linecap="round" stroke-linejoin="round"/>
<path d="M126.892 313.64H129.961L131.531 218.883H125.322L126.892 313.64Z" fill="#263238" stroke="#263238" stroke-miterlimit="10" stroke-linecap="round" stroke-linejoin="round"/>
<path d="M126.894 313.64H128.25L128.107 218.883H125.324L126.894 313.64Z" fill="#263238" stroke="#263238" stroke-miterlimit="10" stroke-linecap="round" stroke-linejoin="round"/>
<path d="M124.532 220.312H173.062V279.625H124.532V220.312Z" fill="#263238" stroke="#263238" stroke-miterlimit="10" stroke-linecap="round" stroke-linejoin="round"/>
<path d="M137.954 220.312H186.484V279.625H137.954V220.312Z" fill="white" stroke="#263238" stroke-miterlimit="10" stroke-linecap="round" stroke-linejoin="round"/>
<path d="M39.9705 313.64H43.0393L44.6094 218.883H38.4004L39.9705 313.64Z" fill="white" stroke="#263238" stroke-miterlimit="10" stroke-linecap="round" stroke-linejoin="round"/>
<path d="M39.9721 313.64H41.3281L41.1854 218.883H38.402L39.9721 313.64Z" fill="#263238" stroke="#263238" stroke-miterlimit="10" stroke-linecap="round" stroke-linejoin="round"/>
<path d="M11.7048 313.64H14.7736L16.3438 218.883H10.1347L11.7048 313.64Z" fill="#263238" stroke="#263238" stroke-miterlimit="10" stroke-linecap="round" stroke-linejoin="round"/>
<path d="M11.7065 313.64H13.0625L12.8484 218.883H10.1364L11.7065 313.64Z" fill="#263238" stroke="#263238" stroke-miterlimit="10" stroke-linecap="round" stroke-linejoin="round"/>
<path d="M8.1394 215.312H193.625V221.815H8.1394V215.312Z" fill="white" stroke="#263238" stroke-miterlimit="10" stroke-linecap="round" stroke-linejoin="round"/>
<path d="M8.1394 215.312H193.625V218.6H8.1394V215.312Z" fill="#263238" stroke="#263238" stroke-miterlimit="10" stroke-linecap="round" stroke-linejoin="round"/>
<path d="M8.13373 215.312H35.5391V221.815H8.13373V215.312Z" fill="#263238" stroke="#263238" stroke-miterlimit="10" stroke-linecap="round" stroke-linejoin="round"/>
<path d="M2.21123 210.023H198.688V216.526H2.21123V210.023Z" fill="white" stroke="#263238" stroke-miterlimit="10" stroke-linecap="round" stroke-linejoin="round"/>
<path d="M2.14152 210.023H29.5469V216.526H2.14152V210.023Z" fill="#263238" stroke="#263238" stroke-miterlimit="10" stroke-linecap="round" stroke-linejoin="round"/>
<path d="M140.95 226.031H183.414V246.755H140.95V226.031Z" fill="white" stroke="#263238" stroke-miterlimit="10" stroke-linecap="round" stroke-linejoin="round"/>
<path d="M157.503 234.25H166.781V237.466H157.503V234.25Z" fill="#263238" stroke="#263238" stroke-miterlimit="10" stroke-linecap="round" stroke-linejoin="round"/>
<path d="M140.95 252.113H183.414V272.837H140.95V252.113Z" fill="white" stroke="#263238" stroke-miterlimit="10" stroke-linecap="round" stroke-linejoin="round"/>
<path d="M157.503 260.332H166.781V263.548H157.503V260.332Z" fill="#263238" stroke="#263238" stroke-miterlimit="10" stroke-linecap="round" stroke-linejoin="round"/>
<path d="M75.5629 258.242H62.8594V232.659H75.5629V258.242Z" fill="#263238"/>
<path d="M72.4221 284.598H66.0703V249.224H72.4221V284.598Z" fill="#263238"/>
<path d="M66.6567 281.84C66.6567 281.84 61.3041 287.914 47.6014 289.986C40.3932 291.13 32.8282 292.488 26.2624 295.989C22.0516 298.204 13.7016 303.064 13.7016 308.638C13.7016 311.425 15.914 313.64 18.6973 313.64C21.4807 313.64 23.6931 311.425 23.6931 308.638C23.6931 307.351 23.1935 306.137 22.3371 305.208C23.0508 304.064 27.547 297.275 37.1103 295.132C47.53 292.845 55.1664 293.774 69.7969 284.055L66.6567 281.84Z" fill="#263238"/>
<path d="M71.1543 281.84C71.1543 281.84 76.5069 287.914 90.2095 289.986C97.4177 291.13 104.983 292.488 111.549 295.989C115.759 298.204 124.109 303.064 124.109 308.638C124.109 311.425 121.897 313.64 119.114 313.64C116.33 313.64 114.118 311.425 114.118 308.638C114.118 307.351 114.617 306.137 115.474 305.208C114.76 304.064 110.264 297.275 100.701 295.132C90.2809 292.845 82.6445 293.774 68.0141 284.055L71.1543 281.84Z" fill="#263238"/>
<path d="M71.3676 304.281H66.586C66.3005 304.281 66.0864 304.496 66.0864 304.781V313.214C66.0864 313.5 66.3005 313.714 66.586 313.714H71.3676C71.6531 313.714 71.8672 313.5 71.8672 313.214V304.781C71.8672 304.496 71.6531 304.281 71.3676 304.281Z" fill="#263238"/>
<path d="M70.3292 313.688H67.6172V282.745H70.3292V313.688Z" fill="#263238"/>
<path d="M38.4648 158.928C39.9636 166.932 41.0341 175.721 41.3195 184.583C41.5337 191.228 41.605 196.874 41.7477 201.876C42.0332 217.455 42.2473 226.102 44.6738 228.388C44.9593 228.603 47.029 229.817 51.2397 230.175C52.453 230.246 56.1641 230.318 61.3026 230.318C77.5745 230.246 94.6315 230.103 94.9169 230.103H95.9161C95.9875 230.175 95.9875 230.175 96.0588 230.246C105.836 230.175 108.334 230.103 108.477 230.103H109.476C111.546 231.89 110.332 234.177 108.548 234.177C107.192 234.177 83.9263 234.391 68.0112 234.391C65.2278 234.391 62.5159 234.391 60.2321 234.391C56.3782 234.391 52.6671 234.391 49.4555 234.391C41.1054 234.391 34.2541 234.32 32.3272 234.177C26.475 233.676 23.8344 231.675 23.5489 231.461C19.6236 227.959 19.4809 220.313 19.1241 201.805C19.0527 196.802 18.91 191.157 18.6959 184.511C18.4104 175.65 17.2685 166.789 15.7698 158.785H38.4648V158.928Z" fill="#263238"/>
<path d="M164.657 292.347L163.087 300.779C163.087 300.779 164.514 303.781 170.081 306.353C175.648 308.926 178.288 309.926 178.288 310.641C178.288 311.355 178.645 312.928 177.218 313.499C175.791 314.071 145.459 313.499 145.459 313.499C145.459 313.499 143.889 312.785 143.889 309.354C143.889 305.924 145.316 299.707 145.316 298.278C145.316 296.849 146.316 293.419 146.316 292.918C146.316 292.418 158.52 293.061 158.52 293.061C158.52 293.061 162.017 289.703 164.657 292.347Z" fill="white" stroke="#263238" stroke-miterlimit="10" stroke-linecap="round" stroke-linejoin="round"/>
<path d="M158.453 293.062C158.453 293.062 157.597 301.066 157.026 301.638C156.455 302.21 145.25 302.21 145.25 302.21" fill="white"/>
<path d="M158.453 293.062C158.453 293.062 157.597 301.066 157.026 301.638C156.455 302.21 145.25 302.21 145.25 302.21" stroke="#263238" stroke-miterlimit="10" stroke-linecap="round" stroke-linejoin="round"/>
<path d="M145.245 298.277L157.734 298.42" stroke="#263238" stroke-miterlimit="10" stroke-linecap="round" stroke-linejoin="round"/>
<path d="M178.219 312H144.176" stroke="#263238" stroke-miterlimit="10" stroke-linecap="round" stroke-linejoin="round"/>
<path d="M142.39 191.66C142.39 191.66 152.311 225.032 153.524 229.606C154.737 234.179 147.743 274.555 147.743 275.27C147.743 275.984 146.744 278.2 146.744 280.558C146.744 282.916 147.743 283.702 147.244 284.417C146.744 285.131 145.102 286.846 145.317 288.276C145.531 289.705 145.816 290.205 146.744 291.205C147.743 292.206 148.671 292.42 148.671 292.42H154.452C154.452 292.42 155.879 281.558 159.733 252.759C163.587 224.032 157.306 207.596 156.093 202.236C154.88 196.948 152.453 192.303 152.453 192.303L142.39 191.66Z" fill="#263238" stroke="#263238" stroke-miterlimit="10" stroke-linecap="round" stroke-linejoin="round"/>
<path d="M172.86 292.347L171.29 300.779C171.29 300.779 172.718 303.781 178.284 306.353C183.851 308.926 186.492 309.926 186.492 310.641C186.492 311.355 186.848 312.928 185.421 313.499C183.994 314.071 153.662 313.499 153.662 313.499C153.662 313.499 152.092 312.785 152.092 309.354C152.092 305.924 153.52 299.707 153.52 298.278C153.52 296.849 154.519 293.419 154.519 292.918C154.519 292.418 166.723 293.061 166.723 293.061C166.723 293.061 170.22 289.703 172.86 292.347Z" fill="white" stroke="#263238" stroke-miterlimit="10" stroke-linecap="round" stroke-linejoin="round"/>
<path d="M166.656 293.062C166.656 293.062 165.8 301.066 165.229 301.638C164.658 302.21 153.453 302.21 153.453 302.21" fill="white"/>
<path d="M166.656 293.062C166.656 293.062 165.8 301.066 165.229 301.638C164.658 302.21 153.453 302.21 153.453 302.21" stroke="#263238" stroke-miterlimit="10" stroke-linecap="round" stroke-linejoin="round"/>
<path d="M153.448 298.277L165.938 298.42" stroke="#263238" stroke-miterlimit="10" stroke-linecap="round" stroke-linejoin="round"/>
<path d="M186.422 312H152.379" stroke="#263238" stroke-miterlimit="10" stroke-linecap="round" stroke-linejoin="round"/>
<path d="M182.204 191.66C182.204 191.66 182.418 212.67 181.205 221.602C179.992 230.535 175.424 251.33 174.711 262.692C173.997 274.055 172.784 279.343 172.784 279.343C172.784 279.343 174.496 280.772 174.496 282.273C174.496 283.773 173.497 283.702 173.783 285.917C173.997 288.061 174.996 288.847 174.282 289.776C173.569 290.777 173.069 292.706 170.643 293.135C168.216 293.635 156.869 293.349 154.442 292.92C152.015 292.42 150.802 289.991 150.802 288.061C150.802 286.132 151.516 284.702 151.516 282.487C151.516 280.272 150.303 278.414 150.303 276.913C150.303 275.484 150.802 274.769 150.802 273.269C150.802 271.839 153.942 248.615 153.942 243.827C153.942 238.967 154.157 222.531 153.443 218.458C152.729 214.385 149.089 194.804 149.089 194.804L182.204 191.66Z" fill="#7981EC" stroke="#263238" stroke-miterlimit="10" stroke-linecap="round" stroke-linejoin="round"/>
<path d="M166.859 198.736C166.859 198.736 162.72 200.236 158.01 200.451C153.228 200.665 151.087 201.094 151.087 201.094L149.802 195.02L166.859 198.736Z" fill="#263238" stroke="#263238" stroke-miterlimit="10" stroke-linecap="round" stroke-linejoin="round"/>
<path d="M169.5 199.809C169.5 199.809 168.287 233.038 165.932 244.114C163.576 255.191 160.436 273.342 161.221 275.772C162.006 278.13 163.22 283.704 163.22 283.704C163.22 283.704 158.866 282.918 158.866 285.276C158.866 287.634 165.218 289.206 163.576 290.421C162.006 291.636 160.436 292.922 160.436 292.922" stroke="#263238" stroke-miterlimit="10" stroke-linecap="round" stroke-linejoin="round"/>
<path d="M155.512 284.63C155.512 284.63 168.644 286.774 164.933 287.489C161.222 288.203 154.156 287.346 153.8 286.417C153.371 285.559 154.442 284.487 155.512 284.63Z" fill="#263238" stroke="#263238" stroke-miterlimit="10" stroke-linecap="round" stroke-linejoin="round"/>
<path d="M213.323 55.096L213.68 69.96L199.763 69.817L199.62 54.9531L213.323 55.096Z" fill="#7981EC"/>
<path d="M197.481 82.4666C197.481 82.4666 200.478 79.4653 201.834 76.6783C203.19 73.8913 205.117 72.2477 205.117 70.3182C205.117 68.3888 204.261 63.9582 204.618 62.1002C204.974 60.2422 204.618 56.5262 203.404 56.5262C202.191 56.5262 201.335 57.5982 201.62 58.813C201.834 60.0278 200.906 64.2441 200.906 64.2441C200.906 64.2441 199.907 56.1689 199.836 55.6687C199.693 55.1685 198.052 55.1685 197.338 55.5258C196.624 55.8831 195.768 55.7402 195.768 57.3123C195.768 58.8845 196.125 60.671 196.125 61.0283C196.125 61.3856 192.771 63.3151 192.628 64.7443C192.485 66.1735 192.842 69.6751 193.698 71.1043C194.555 72.5335 195.054 73.534 195.126 74.0342C195.268 74.5344 191.843 79.6082 191.843 79.6082L197.481 82.4666Z" fill="white" stroke="#263238" stroke-miterlimit="10" stroke-linecap="round" stroke-linejoin="round"/>
<path d="M191.84 77.3945L200.047 83.6831C200.047 83.6831 186.059 112.696 185.559 113.625C185.06 114.626 174.925 120.843 174.925 120.843L159.724 101.977C159.724 101.977 178.779 95.903 179.279 95.1883C179.778 94.5452 191.84 77.3945 191.84 77.3945Z" fill="#263238" stroke="#263238" stroke-miterlimit="10" stroke-linecap="round" stroke-linejoin="round"/>
<path d="M182.138 183.941L182.852 195.232C182.852 195.232 173.574 199.162 163.582 198.948C153.591 198.805 140.245 194.803 140.245 194.803L138.247 183.727C138.247 183.727 162.298 185.727 169.648 185.013C176.999 184.298 182.138 183.941 182.138 183.941Z" fill="white" stroke="#263238" stroke-miterlimit="10" stroke-linecap="round" stroke-linejoin="round"/>
<path d="M189.273 180.367L189.844 183.583C189.844 183.583 182.279 187.728 165.579 189.3C148.664 190.872 135.104 186.084 135.104 186.084L134.962 180.51C134.962 180.51 148.165 183.94 162.082 183.726C175.998 183.511 189.273 180.367 189.273 180.367Z" fill="#263238" stroke="#263238" stroke-miterlimit="10" stroke-linecap="round" stroke-linejoin="round"/>
<path d="M175.715 113.91C175.715 113.91 181.568 124.272 183.566 132.347C185.564 140.422 189.418 177.51 189.989 179.654C190.56 181.798 177.999 186.086 169.863 186.229C161.727 186.372 143.314 186.8 140.103 185.514C136.891 184.228 133.822 182.513 133.822 180.512C133.822 178.511 133.68 171.222 133.68 165.362C133.68 159.502 135.464 128.345 137.105 121.199C138.747 114.053 139.817 109.051 140.317 108.193C140.816 107.336 144.742 103.048 152.806 103.548C160.799 104.12 167.579 107.121 170.648 108.908C173.717 110.694 175.715 113.91 175.715 113.91Z" fill="#263238" stroke="#263238" stroke-miterlimit="10" stroke-linecap="round" stroke-linejoin="round"/>
<path d="M229.525 125.413C229.525 125.413 232.451 126.628 232.666 129.487C232.88 132.417 227.598 135.275 224.458 139.634C221.318 143.993 217.25 148.567 217.25 148.567L210.97 157.285L203.476 150.997L222.745 128.558C222.745 128.558 221.746 126.414 222.96 125.628C224.244 124.985 227.384 124.484 229.525 125.413Z" fill="white" stroke="#263238" stroke-miterlimit="10" stroke-linecap="round" stroke-linejoin="round"/>
<path d="M229.031 132.202L207.335 124.984C207.335 124.984 205.908 131.059 199.342 137.276C192.848 143.564 186.781 147.638 186.781 147.638L206.408 158.785L229.031 132.202Z" fill="white" stroke="#263238" stroke-miterlimit="10" stroke-linecap="round" stroke-linejoin="round"/>
<path d="M229.025 132.202C229.025 132.202 227.598 130.773 227.312 128.343C227.098 125.914 229.453 125.414 229.453 125.414L207.971 119.125C207.971 119.125 203.903 120.554 207.258 124.913L229.025 132.202Z" fill="white" stroke="#263238" stroke-miterlimit="10" stroke-linecap="round" stroke-linejoin="round"/>
<path d="M200.263 155.14C200.263 155.14 205.116 154.425 205.33 152.996C205.545 151.567 206.544 148.422 207.472 147.208C208.471 145.993 213.038 143.563 214.466 141.919C215.893 140.204 216.892 137.846 217.82 138.061C218.819 138.275 220.246 139.275 219.747 140.204C219.247 141.205 217.106 145.278 217.106 145.278L216.607 146.993C216.607 146.993 220.96 146.279 221.674 145.993C222.387 145.778 223.387 146.207 223.387 147.422C223.387 148.637 224.386 148.637 223.173 149.351C221.959 150.066 220.532 151.066 220.532 151.066C220.532 151.066 218.819 154.925 218.391 155.64C217.891 156.355 214.037 158.07 213.324 158.57C212.61 159.07 208.756 160.285 206.829 160.714C204.902 161.214 200.549 162.858 200.549 162.858L199.336 157.284L200.263 155.14Z" fill="white" stroke="#263238" stroke-miterlimit="10" stroke-linecap="round" stroke-linejoin="round"/>
<path d="M149.092 121.84C149.092 121.84 149.592 142.349 149.592 143.35C149.592 144.35 148.878 164.145 151.019 165.788C153.16 167.432 163.794 169.647 179.281 169.147C194.697 168.647 201.477 165.288 201.477 165.288L200.263 155.141L170.86 152.997C170.86 152.997 174 130.558 173.5 122.769C173.001 115.051 166.72 110.906 166.72 110.906" fill="#263238"/>
<path d="M149.092 121.84C149.092 121.84 149.592 142.349 149.592 143.35C149.592 144.35 148.878 164.145 151.019 165.788C153.16 167.432 163.794 169.647 179.281 169.147C194.697 168.647 201.477 165.288 201.477 165.288L200.263 155.141L170.86 152.997C170.86 152.997 174 130.558 173.5 122.769C173.001 115.051 166.72 110.906 166.72 110.906" stroke="#263238" stroke-miterlimit="10" stroke-linecap="round" stroke-linejoin="round"/>
<path d="M181.641 170.075C181.641 170.075 152.451 171.075 150.881 167.502C149.311 163.929 149.311 128.484 149.311 128.484" stroke="#707070" stroke-miterlimit="10" stroke-linecap="round" stroke-linejoin="round"/>
<path d="M168.795 115.121C168.795 115.121 174.932 121.767 173.933 130.557C172.934 139.346 170.864 152.995 170.864 152.995L182.141 153.639" stroke="#707070" stroke-miterlimit="10" stroke-linecap="round" stroke-linejoin="round"/>
<path d="M181.205 59.3845C181.205 59.3845 185.273 66.3877 184.488 67.3167C183.702 68.2457 184.345 69.9608 184.345 69.9608C184.345 69.9608 188.413 73.1051 188.056 74.177C187.77 75.2489 184.488 78.2503 184.488 78.2503C184.488 78.2503 183.845 86.6827 183.06 87.4688C182.275 88.2548 176.994 89.1838 175.923 89.3267C174.853 89.4697 174.211 89.827 174.211 89.827L171.07 106.62L153.657 90.8989L156.44 83.3955C156.44 83.3955 158.01 73.4624 157.867 68.7459C157.725 64.0295 165.789 58.4556 170.642 57.0978C175.495 55.5971 181.205 59.3845 181.205 59.3845Z" fill="white" stroke="#263238" stroke-miterlimit="10" stroke-linecap="round" stroke-linejoin="round"/>
<path d="M177.997 49.8804C177.997 49.8804 182.065 45.6642 186.846 48.9514C191.699 52.2386 190.272 57.5267 185.919 59.3847C181.565 61.2427 176.427 59.8849 178.14 61.7429C179.852 63.6009 180.352 67.6742 177.64 68.4602C174.928 69.2463 175.428 72.1762 175.428 73.4625C175.428 74.7488 173.215 74.5344 172.787 73.4625C172.287 72.3906 171.074 69.3892 168.148 70.6755C165.222 71.8904 165.365 78.7506 166.435 80.4657C167.506 82.1808 168.648 82.0378 168.648 82.0378C168.648 82.0378 166.935 82.681 168.005 84.6819C169.076 86.6828 169.076 86.6828 169.076 86.6828C169.076 86.6828 166.578 89.6127 160.369 88.5408C154.16 87.4689 152.733 84.6819 153.66 82.3237C154.588 79.9655 156.8 79.6796 154.445 76.2495C152.09 72.8194 146.381 68.7461 146.809 60.9568C147.166 55.8116 159.298 50.9523 159.298 50.9523C159.298 50.9523 156.515 46.3073 162.867 43.3059C169.219 40.376 176.569 43.8062 176.07 46.879C175.642 50.0233 177.997 49.8804 177.997 49.8804Z" fill="#263238" stroke="#263238" stroke-miterlimit="10" stroke-linecap="round" stroke-linejoin="round"/>
<path d="M184.561 66.7439C184.561 66.7439 186.559 66.2436 186.702 67.1726C186.845 68.1016 186.702 72.7466 186.702 72.7466C186.702 72.7466 185.489 73.5327 184.347 73.2468C183.277 72.961 183.847 69.0306 183.847 69.0306" stroke="#263238" stroke-miterlimit="10" stroke-linecap="round" stroke-linejoin="round"/>
<path d="M172.218 71.9591L186.562 69.6009V68.6719L172.218 71.9591Z" fill="#263238" stroke="#263238" stroke-miterlimit="10" stroke-linecap="round" stroke-linejoin="round"/>
<path d="M151.658 85.9701C151.658 85.9701 159.58 91.7584 165.004 97.6182C170.427 103.549 176.993 110.052 177.279 112.125C177.564 114.126 176.993 117.27 173.853 113.983C170.713 110.696 165.003 106.336 160.65 106.051C156.297 105.765 149.588 107.909 146.162 108.409C142.737 108.909 140.596 109.838 139.311 107.909C138.026 105.979 141.309 101.834 141.309 99.6191C141.309 97.4038 140.81 93.6878 142.38 91.0438C144.093 88.4712 149.017 85.184 151.658 85.9701Z" fill="#757575" stroke="#263238" stroke-miterlimit="10" stroke-linecap="round" stroke-linejoin="round"/>
<path d="M141.522 93.6875C141.522 93.6875 142.45 96.6889 143.306 98.0466C144.234 99.4044 156.938 101.977 156.938 101.977C156.938 101.977 146.446 101.405 144.519 101.405C142.593 101.405 140.309 103.192 140.309 103.192L141.379 100.333C141.379 100.333 140.951 95.0453 141.522 93.6875Z" fill="#263238" stroke="#263238" stroke-miterlimit="10" stroke-linecap="round" stroke-linejoin="round"/>
<path d="M326.508 313.645H0.355767" stroke="#263238" stroke-miterlimit="10" stroke-linecap="round" stroke-linejoin="round"/>
</g>
<defs>
<linearGradient id="paint0_linear_150_5043" x1="36.2868" y1="39.2817" x2="260.326" y2="184.132" gradientUnits="userSpaceOnUse">
<stop stop-color="#AABDFF" stop-opacity="0"/>
<stop offset="0.6875" stop-color="#89AEF4" stop-opacity="0.29"/>
<stop offset="1" stop-color="#EDEFFF" stop-opacity="0.4"/>
</linearGradient>
<clipPath id="clip0_150_5043">
<rect width="337" height="314" fill="white" transform="matrix(-1 0 0 1 337 0)"/>
</clipPath>
</defs>
</svg>
